<svg width="449" height="449" viewBox="0 0 449 449" fill="none" xmlns="http://www.w3.org/2000/svg">
<path d="M113.991 182.405C109.72 180.135 105.8 178.03 101.859 175.967C99.4858 174.729 97.0097 173.677 94.6574 172.397C93.4607 171.758 92.3671 170.871 91.356 169.963C89.0657 167.941 87.0642 165.526 84.5675 163.834C79.6154 160.512 77.6758 155.313 75.9219 150.195C74.6839 146.605 74.622 142.582 76.1696 138.764C76.9743 136.763 77.1806 134.514 77.9234 132.471C79.8836 127.044 83.5565 122.856 87.9308 119.245C91.0053 116.707 93.9972 114.066 97.216 111.775C100.105 109.712 103.22 107.937 106.893 107.442C108.214 107.257 108.957 106.782 109.122 104.966C109.39 102.201 110.504 99.4982 111.495 96.8571C112.32 94.608 113.249 92.3383 114.487 90.2955C116.529 86.9529 119.109 84.0848 123.091 82.8674C125.691 82.0626 128.187 80.7214 130.829 80.2675C135.739 79.4215 140.588 80.3294 145.19 82.1864C145.974 82.4959 146.613 83.2181 147.274 83.7959C148.243 84.6625 149.131 85.6529 150.142 86.4783C153.299 89.0575 155.672 92.0081 155.527 96.4031C155.465 98.0126 155.713 99.622 155.837 101.5C169.682 98.6522 183.651 98.5697 197.641 100.385C199.23 91.678 204.409 85.6117 210.372 80.1643C212.538 78.2041 215.51 77.3994 218.584 77.3788C220.482 77.3581 222.422 76.8423 224.3 77.0486C228.014 77.4613 231.728 78.039 235.009 80.0818C235.669 80.4945 236.391 80.7627 237.093 81.0722C241.054 82.8674 241.777 86.891 243.283 90.3162C244.356 92.7922 245.367 95.3921 245.779 98.0126C246.295 101.314 246.192 104.739 246.357 108.515C247.575 108.948 249.39 109.32 250.876 110.228C252.795 111.404 254.569 112.869 256.179 114.437C258.696 116.851 261.255 119.286 263.359 122.03C267.404 127.271 270.478 133.008 270.251 139.899C270.148 142.747 269.488 145.594 269.529 148.421C269.591 153.249 267.775 157.417 265.712 161.585C265.547 161.915 265.67 162.761 265.897 162.885C268.394 164.226 268.188 166.95 269.116 169.075C269.24 169.385 269.343 169.694 269.302 169.633C272.686 168.312 275.905 166.868 279.248 165.815C280.527 165.403 282.116 165.63 283.457 165.96C285.438 166.434 287.336 167.218 289.255 167.92C289.482 168.002 289.626 168.291 289.833 168.477C291.401 170.025 293.32 171.345 294.455 173.161C295.631 175.018 296.353 177.308 296.786 179.495C297.261 181.951 299.159 182.343 300.872 183.024C302.832 183.787 305.308 183.602 306.113 186.222C308.114 186.222 308.857 187.976 310.136 189.008C311.725 190.287 313.046 191.669 314.098 193.444C316.45 197.468 319.215 201.264 321.299 205.412C322.207 207.227 322.31 209.807 321.898 211.849C321.444 214.078 322.083 215.605 323.383 217.07C324.477 218.308 325.055 219.649 325.364 221.32C325.674 223.053 326.767 224.663 327.593 226.293C328.542 228.191 328.707 230.11 328.17 232.153C327.716 233.907 327.407 235.723 326.953 237.972C329.285 236.981 331.038 236.259 332.772 235.475C335.722 234.134 338.797 233.742 342.036 234.051C343.893 234.216 345.771 234.093 347.628 234.093C347.979 234.093 348.371 233.969 348.66 234.093C350.806 235.021 352.869 236.218 355.077 236.878C359.245 238.116 362.154 241.232 365.332 243.79C367.725 245.709 369.768 248.227 371.006 251.404C372.265 254.664 373.606 257.842 374.06 261.288C374.307 263.083 374.184 264.94 374.307 266.756C374.906 276 371.708 284.253 367.478 292.197C364.651 297.521 361.267 302.473 356.975 306.744C353.24 310.479 349.547 314.255 345.668 317.804C344.347 319.001 342.469 319.558 340.881 320.466C340.097 320.899 339.457 321.58 338.652 321.972C337.146 322.735 335.598 323.416 334.03 324.097C331.595 325.15 329.161 326.161 326.726 327.213C326.416 327.357 326.086 327.729 325.839 327.688C324.312 327.399 323.053 328.265 321.691 328.554C318.307 329.235 314.82 329.4 311.395 329.854C308.238 330.267 305.102 330.824 301.945 331.216C299.469 331.505 296.91 331.422 294.475 331.897C290.72 332.64 286.449 332.021 283.952 336.312C283.003 337.963 280.754 338.85 279.103 340.088C277.721 341.12 276.297 342.131 274.935 343.183C274.708 343.349 274.564 343.72 274.522 344.009C273.635 350.137 272.789 356.265 271.881 362.394C271.696 363.611 271.407 364.87 270.85 365.943C270.478 366.623 269.57 367.304 268.786 367.449C262.926 368.584 257.087 369.76 251.165 370.565C247.822 371.018 244.376 370.709 240.972 370.895C238.743 371.019 236.536 371.534 234.307 371.617C229.231 371.782 224.135 371.658 219.059 371.844C214.437 372.009 209.835 372.463 205.234 372.69C202.242 372.834 199.23 372.793 196.238 372.855C194.773 372.896 193.287 372.814 191.843 373.082C188.273 373.742 184.724 373.144 181.154 373.206C175.521 373.309 170.053 372.091 164.482 371.782C161.057 371.576 157.611 371.204 154.207 370.833C150.864 370.461 148.367 366.995 148.512 363.632C148.635 360.454 148.305 357.256 148.223 354.058C148.161 351.705 148.202 349.332 148.202 346.279C145.705 345.082 142.445 343.576 139.226 341.966C138.773 341.739 138.546 341.099 138.092 340.79C135.162 338.747 132.459 336.106 129.219 334.847C123.545 332.64 119.975 328.245 115.972 324.18C115.209 323.396 113.95 323.066 113.249 322.261C110.669 319.31 107.884 316.463 105.82 313.182C102.994 308.684 100.579 303.917 98.3303 299.089C96.0193 294.096 94.0591 288.958 92.1195 283.799C90.8196 280.354 89.891 276.784 88.7562 273.276C87.9102 270.656 86.4865 268.138 86.1976 265.477C85.8468 262.382 85.2897 259.286 85.0215 256.171C84.6294 251.611 84.6294 247.009 83.8866 242.449C83.3914 239.395 82.9787 236.404 81.6581 233.597C81.2248 232.669 80.2138 231.699 80.3376 230.894C80.7503 228.521 80.09 225.942 82.1327 223.796C84.031 221.815 85.1453 218.989 87.1674 217.193C89.6641 214.965 92.5528 212.964 95.6272 211.664C98.7636 210.322 100.29 208.259 101.075 205.185C102.725 198.788 106.377 193.444 110.174 188.162C111.557 186.181 112.774 184.221 113.991 182.405ZM88.4879 240.84C88.4673 240.922 88.1784 241.356 88.2197 241.748C88.6943 246.349 89.2101 250.95 89.7053 255.531C89.9323 257.553 90.0148 259.617 90.4069 261.597C90.8815 263.908 91.6862 266.178 92.2846 268.468C92.4909 269.294 92.3671 270.243 92.6766 271.006C94.0797 274.349 95.6479 277.63 97.051 280.993C97.897 282.995 98.4128 285.141 99.2794 287.142C100.744 290.526 102.271 293.91 103.943 297.191C106.109 301.441 107.554 306.084 110.999 309.612C112.341 310.974 113.661 312.377 114.899 313.842C117.417 316.855 119.645 320.136 122.41 322.9C124.556 325.046 127.218 326.676 129.797 328.348C134.378 331.278 139.061 334.043 143.663 336.931C145.107 337.839 146.283 339.201 147.79 339.944C150.575 341.347 153.526 342.42 156.394 343.658C157.467 344.133 158.457 344.875 159.571 345.185C163.038 346.155 166.566 346.939 170.033 347.888C171.147 348.197 172.158 348.92 173.272 349.126C176.058 349.663 178.947 349.766 181.67 350.508C184.703 351.313 187.592 352.737 190.873 352.139C191.079 352.097 191.286 352.159 191.492 352.2C194.608 352.758 197.744 353.294 200.86 353.872C201.953 354.078 203.026 354.553 204.12 354.594C206.348 354.656 208.577 354.491 210.805 354.47C215.18 354.408 219.575 354.635 223.928 354.284C227.766 353.975 231.563 353.088 235.339 352.324C238.31 351.726 241.302 351.086 244.211 350.22C248.132 349.023 252.011 347.64 255.849 346.196C258.407 345.247 261.007 344.298 263.339 342.936C265.98 341.409 268.373 339.428 270.829 337.592C274.419 334.909 278.133 332.33 281.517 329.4C284.612 326.718 287.46 323.726 290.163 320.631C293.093 317.288 295.92 313.842 298.396 310.19C300.232 307.508 301.553 304.454 302.935 301.483C304.875 297.335 306.856 293.167 308.506 288.896C310.57 283.572 312.241 278.104 314.222 272.76C316.595 266.323 318.431 259.761 318.968 252.869C319.256 249.238 319.525 245.606 320.041 242.016C320.247 240.551 321.052 239.168 319.669 237.848C319.318 238.013 318.947 238.219 318.576 238.384C315.15 239.829 311.704 241.252 308.279 242.717C305.556 243.873 302.935 245.359 300.108 246.143C292.577 248.227 285.004 250.187 277.37 251.858C272.603 252.89 268.105 254.83 263.05 254.953C259.357 255.036 255.704 256.356 252.032 257.141C249.328 257.718 246.646 258.502 243.819 257.821C243.076 257.636 242.23 257.966 240.992 258.11C241.777 258.42 242.065 258.544 242.292 258.626C236.37 259.926 230.345 259.988 224.403 260.896C221.349 261.37 218.171 261.082 215.035 261.143C214.726 261.143 214.416 261.185 214.127 261.226C212.93 261.453 211.734 261.886 210.537 261.866C208.04 261.845 205.544 261.453 203.047 261.432C199.25 261.37 195.433 261.536 191.636 261.536C189.325 261.536 187.035 261.432 184.724 261.247C182.64 261.061 180.597 260.586 178.534 260.421C175.398 260.174 172.241 260.132 169.084 259.905C166.236 259.699 163.409 259.266 160.562 259.121C156.848 258.915 153.113 258.936 149.399 258.771C147.79 258.688 146.18 258.255 144.571 258.193C141.084 258.048 137.576 257.945 134.068 257.966C130.602 257.987 127.527 256.295 124.081 256.026C121.151 255.799 118.242 254.582 115.436 253.509C111.453 252.003 107.574 250.249 103.674 248.536C101.178 247.422 98.7223 246.225 96.2875 244.987C93.7083 243.646 91.1703 242.243 88.4879 240.84ZM151.462 101.995C151.112 100.654 150.761 99.2919 150.389 97.9507C150.1 96.919 149.688 95.9286 149.502 94.8762C149.069 92.4827 147.769 90.7495 145.726 89.5321C144.199 88.6242 142.693 87.6544 141.042 87.056C139.371 86.4576 137.473 85.7355 135.822 86.0243C133.263 86.4576 130.829 87.6544 128.373 88.5829C123.73 90.3368 120.016 92.9779 119.17 98.3221C119.129 98.5903 118.985 98.8379 118.861 99.0855C117.994 100.943 116.859 102.696 116.302 104.636C115.394 107.834 114.094 110.393 110.442 110.971C109.225 111.156 108.008 111.59 106.914 112.147C101.59 114.829 96.8034 118.296 92.6766 122.608C89.891 125.517 86.6928 128.2 84.6088 131.563C82.7724 134.493 82.2359 138.228 81.1217 141.612C79.8217 145.574 80.8534 149.411 82.174 153.043C83.7009 157.211 87.188 159.955 90.6339 162.534C94.286 165.279 98.1239 167.755 101.921 170.313C102.663 170.809 103.509 171.159 104.335 171.531C107.038 172.748 109.72 173.945 112.444 175.121C113.29 175.493 114.156 175.864 115.044 176.091C117.685 176.813 120.347 177.411 122.967 178.154C125.918 178.98 128.476 180.672 131.86 180.589C135.801 180.486 139.784 181.394 143.725 181.972C148.326 182.652 152.927 183.602 157.591 183.602C159.736 183.602 161.759 184.51 164.07 183.89C165.947 183.395 168.155 184.241 170.218 184.283C173.293 184.324 176.367 184.179 179.421 184.138C184.167 184.056 188.933 184.076 193.679 183.87C196.465 183.746 196.795 182.879 195.99 180.115C195.516 178.505 195.144 176.751 195.268 175.1C195.598 170.313 199.044 167.693 202.758 165.609C204.801 164.474 207.277 164.165 209.547 163.422C211.445 162.803 213.281 161.833 215.221 161.565C220.111 160.904 225.022 160.45 229.953 160.079C239.239 159.378 248.524 159.357 257.747 160.863C258.077 160.925 258.634 160.739 258.779 160.492C260.058 158.366 261.833 156.324 262.369 154.013C263.236 150.278 264.412 146.564 263.958 142.478C263.401 137.485 262.328 132.781 259.831 128.489C255.952 121.803 249.947 117.078 243.84 112.58C240.951 110.455 239.342 106.679 240.126 103.254C240.497 101.582 240.456 99.7871 240.456 98.0538C240.456 96.8777 239.94 95.681 240.085 94.5461C240.456 91.451 238.351 89.4083 236.866 87.3449C234.658 84.2498 230.779 83.7752 227.312 83.1562C223.743 82.5166 220.194 82.888 216.603 83.8578C213.219 84.7657 210.454 86.0037 208.494 89.0988C206.451 92.3176 204.285 95.3714 203.542 99.2712C203.15 101.397 202.077 103.398 201.149 105.399C200.922 105.895 200.055 106.411 199.498 106.411C193.638 106.369 187.778 106.266 181.938 106.101C178.348 105.998 174.758 105.461 171.209 105.709C166.381 106.039 161.573 106.926 156.765 107.525C153.051 107.876 150.988 105.915 151.462 101.995ZM118.469 183.952C115.621 189.482 112.753 195.074 109.885 200.686C109.411 201.594 108.874 202.523 108.606 203.493C106.625 210.962 104.52 218.411 104.562 226.252C104.582 230.667 104.747 234.815 109.473 236.94C112.856 238.446 116.24 239.911 119.645 241.376C120.594 241.789 121.523 242.222 122.513 242.491C126.103 243.398 129.673 244.471 133.325 245.049C136.812 245.606 140.485 246.287 143.869 245.73C149.213 244.843 154.454 243.171 159.592 241.438C164.998 239.602 170.301 237.456 175.542 235.166C178.101 234.031 180.948 232.751 182.681 230.688C185.075 227.861 187.86 225.756 190.77 223.672C193.72 221.568 197.084 220.598 200.653 220.33C203.047 220.144 205.482 220.289 207.813 219.835C209.113 219.587 210.434 218.576 211.383 217.586C212.621 216.286 212.002 213.975 210.351 213.5C207.297 212.633 204.223 212.778 201.107 214.098C200.488 213.046 199.849 211.952 199.271 210.962C201.417 209.043 203.893 208.527 206.534 208.094C208.102 207.846 209.608 206.732 210.97 205.742C211.507 205.35 211.919 204.132 211.692 203.575C211.465 202.997 210.372 202.502 209.65 202.482C207.607 202.44 205.564 202.688 203.521 202.729C201.953 202.77 200.364 202.688 198.796 202.564C198.507 202.543 198.095 202.11 198.012 201.801C197.517 199.923 198.92 197.942 200.86 197.55C204.037 196.91 207.236 196.25 210.392 195.466C211.094 195.301 212.167 194.579 212.146 194.104C212.146 193.279 211.631 192.288 211.012 191.669C208.866 189.565 205.853 189.441 203.171 188.533C200.137 187.501 197.104 188.203 194.071 188.327C193.493 188.347 192.854 188.265 192.338 188.492C191.636 188.801 191.079 189.462 190.378 189.812C188.149 190.927 185.673 191.649 183.692 193.093C180.927 195.115 178.513 197.633 175.996 199.985C173.107 202.688 170.404 205.618 167.35 208.115C164.503 210.467 161.284 212.365 158.251 214.49C153.773 217.647 148.718 219.236 143.374 219.835C140.093 220.206 136.689 220.577 133.49 219.277C132.768 218.989 131.159 218.865 131.881 217.482C132.211 216.843 133.532 216.265 134.295 216.389C138.773 217.111 142.92 215.625 146.84 214.14C153.134 211.767 158.643 207.846 163.512 203.142C165.576 201.161 167.495 199.015 169.579 197.055C171.291 195.425 173.169 193.96 175.418 192.061C174.221 191.69 173.54 191.525 172.88 191.277C169.868 190.081 166.793 192.371 163.636 190.927C162.089 190.204 159.963 190.865 158.127 190.7C153.835 190.328 149.543 189.874 145.252 189.358C142.26 189.008 139.247 188.554 136.276 188.017C133.284 187.481 130.313 186.8 127.362 186.119C124.473 185.417 121.543 184.695 118.469 183.952ZM325.818 254.087C329.45 253.323 332.627 253.261 335.97 254.211C338.941 255.057 341.479 256.48 343.728 258.317C346.287 260.401 347.607 263.454 348.949 266.467C349.98 268.778 350.104 271.048 349.341 273.256C348.164 276.619 346.926 280.003 345.234 283.098C343.295 286.647 340.963 290.01 338.508 293.208C337.229 294.88 335.454 296.242 333.679 297.397C330.357 299.564 326.953 301.627 323.425 303.422C321.175 304.557 318.658 305.155 316.265 305.96C314.593 306.517 312.819 307.631 311.271 307.384C308.424 306.951 307.846 308.869 306.69 310.5C303.699 314.812 300.604 319.063 297.55 323.334C297.261 323.726 297.034 324.139 296.972 324.242C298.85 324.304 300.665 324.427 302.461 324.386C305.37 324.324 308.279 323.251 311.209 324.304C311.333 324.345 311.539 324.324 311.622 324.262C313.479 322.55 315.976 323.458 318.06 322.715C318.864 322.426 319.958 322.983 320.783 322.735C322.826 322.096 324.745 321.126 326.767 320.424C327.551 320.156 328.562 320.486 329.285 320.136C331.307 319.166 333.287 318.052 335.186 316.855C341.128 313.161 346.823 309.22 351.342 303.711C355.82 298.284 360.772 293.229 363.392 286.564C365.229 281.922 366.797 277.155 368.241 272.368C368.943 270.057 369.335 267.602 369.397 265.208C369.438 263.558 368.592 261.886 368.22 260.215C367.725 257.925 367.663 255.469 366.776 253.365C365.249 249.733 362.587 246.617 359.41 244.513C356.542 242.614 353.612 240.613 349.98 239.705C346.431 238.818 342.923 238.776 339.457 238.941C336.671 239.065 333.968 240.489 331.183 241.087C328.005 241.789 325.674 242.986 326.375 246.824C326.396 246.886 326.313 246.947 326.313 247.03C326.169 249.258 326.004 251.487 325.818 254.087ZM212.786 186.47C213.405 187.811 213.57 189.111 214.272 189.524C215.799 190.431 215.799 191.896 216.211 193.238C216.438 193.96 216.438 194.765 216.748 195.466C217.325 196.807 216.81 197.798 215.819 198.561C214.334 199.717 213.116 200.831 215.076 202.605C215.241 202.75 215.2 203.142 215.262 203.41C215.943 206.361 215.448 208.919 212.518 210.508C219.822 216.244 217.738 222.765 209.443 226.479C210.846 227.139 212.043 227.634 213.157 228.233C216.562 230.09 220.09 230.997 224.052 230.378C226.549 229.986 229.149 230.11 231.687 230.131C234.266 230.152 236.824 230.44 239.28 229.14C240.25 228.625 241.55 228.686 242.684 228.48C244.789 228.109 247.038 228.088 248.936 227.263C251.763 226.045 254.487 224.457 256.984 222.641C258.263 221.712 259.439 220.041 259.79 218.514C261.131 212.695 262.348 206.856 263.153 200.934C264.061 194.145 264.453 187.316 265.072 180.486C265.113 180.073 264.99 179.64 264.948 179.124C262.513 180.713 260.429 182.591 257.995 183.54C251.186 186.201 244.191 188.059 236.701 187.481C232.347 187.151 227.952 187.481 223.577 187.316C220.152 187.213 216.768 186.8 212.786 186.47ZM151.958 348.796C152.205 350.859 152.411 352.634 152.618 354.388C152.969 357.359 153.608 360.351 153.546 363.322C153.505 365.324 154.248 366.025 155.857 366.128C158.787 366.293 161.449 367.8 164.647 367.139C167.061 366.623 169.744 367.49 172.302 367.614C175.851 367.8 179.277 368.811 182.95 368.377C188.397 367.738 193.906 367.655 199.395 367.408C204.367 367.181 209.34 367.016 214.313 366.912C217.614 366.85 220.895 366.954 224.197 366.892C224.857 366.871 225.517 366.293 226.177 366.273C229.211 366.231 232.264 366.397 235.297 366.273C237.856 366.17 240.415 365.778 242.994 365.53C245.532 365.303 248.07 365.22 250.608 364.89C252.857 364.601 255.085 364.065 257.314 363.714C258.717 363.508 260.161 363.301 261.585 363.384C263.999 363.528 265.526 362.497 265.939 360.165C266.331 357.999 266.702 355.832 267.074 353.665C267.404 351.747 267.754 349.828 268.147 347.702C267.239 347.764 266.558 347.62 266.042 347.867C263.752 348.899 261.564 350.199 259.212 351.128C255.065 352.737 250.897 354.388 246.625 355.584C242.334 356.781 237.918 357.441 233.544 358.329C232.76 358.494 231.955 358.494 231.191 358.659C228.942 359.133 226.734 360.062 224.485 360.103C221.473 360.165 218.44 359.608 215.489 360.619C215.303 360.681 215.035 360.764 214.87 360.681C212.745 359.505 210.558 360.186 208.329 360.206C205.193 360.248 202.056 359.711 198.941 359.237C195.041 358.638 191.059 358.597 187.241 357.359C185.199 356.699 183.032 356.307 180.907 355.997C178.328 355.626 175.707 355.461 173.107 355.192C172.983 355.172 172.839 355.11 172.715 355.048C171.188 354.367 169.641 353.067 168.155 353.129C164.544 353.253 161.841 349.869 158.127 350.88C157.962 350.921 157.57 350.653 157.467 350.447C156.27 348.012 154.083 349.023 151.958 348.796ZM294.248 200.377C292.886 200.15 291.669 199.944 290.452 199.696C289.998 199.613 289.523 199.242 289.09 199.304C286.036 199.84 283.581 198.004 281.001 197.014C279.351 196.374 278.216 196.56 277.06 197.406C275.946 198.21 274.894 199.201 274.13 200.315C273.697 200.955 273.511 202.482 273.903 202.853C275.203 204.029 276.71 205.288 278.34 205.7C282.301 206.732 286.387 207.33 290.431 208.094C291.483 208.3 292.536 208.218 293.196 209.476C293.526 210.095 294.517 210.322 295.136 210.818C295.507 211.127 296.043 211.746 295.94 212.056C295.383 213.995 292.659 215.171 290.658 214.656C286.511 213.603 282.157 213.108 278.236 211.54C275.699 210.529 274.708 211.849 274.027 213.191C273.284 214.635 272.872 216.76 273.388 218.205C273.862 219.566 275.183 220.804 277.184 221.32C279.124 221.815 281.063 221.65 282.858 222.125C285.396 222.806 287.79 223.157 290.39 222.661C291.401 222.455 292.515 222.682 293.567 222.682C294.909 222.682 296.291 222.868 297.55 222.579C300.645 221.857 303.719 220.949 306.773 220.041C308.032 219.67 309.579 219.422 310.425 218.555C312.798 216.1 314.8 213.376 316.12 210.075C317.152 207.496 316.306 205.659 314.923 203.843C312.509 200.666 309.703 197.756 307.557 194.414C305.597 191.381 302.605 189.957 299.861 188.059C299.448 187.77 298.87 187.522 298.416 187.563C295.404 187.955 292.701 186.759 290.122 185.603C287.006 184.221 284.014 184.2 280.898 185.129C278.278 185.913 277.349 189.524 279.413 191.215C280.589 192.185 282.157 193.196 283.601 193.279C285.85 193.423 287.707 194.414 289.75 194.95C292.68 195.734 293.98 196.518 294.248 200.377ZM263.752 169.426C262.967 168.848 262.348 168.064 261.626 167.92C258.531 167.383 255.395 167.033 252.279 166.62C249.638 166.269 246.997 165.671 244.356 165.65C240.188 165.609 236.02 165.939 231.852 166.145C227.188 166.372 222.484 166.331 217.883 166.991C213.9 167.569 210.083 169.22 206.121 170.004C203.583 170.499 202.428 172.212 201.272 174.069C200.942 174.605 200.901 175.905 201.252 176.173C202.614 177.246 204.099 178.34 205.709 178.876C207.359 179.434 209.216 179.269 210.97 179.537C216.624 180.445 222.257 181.518 228.014 181.435C230.799 181.394 233.626 181.765 236.391 181.476C240.435 181.043 244.459 180.218 248.462 179.454C253.723 178.464 258.325 176.07 262.163 172.336C262.823 171.717 263.091 170.685 263.752 169.426ZM311.684 300.327C312.385 300.389 312.55 300.451 312.654 300.41C316.347 298.903 320.123 297.542 323.693 295.788C325.921 294.673 327.881 293.002 329.842 291.434C331.554 290.051 333.473 288.731 334.691 286.956C337.125 283.366 339.89 280.003 341.19 275.628C342.098 272.575 342.8 269.603 342.717 266.446C342.696 265.951 342.428 265.353 342.077 265.002C340.365 263.351 338.673 261.68 336.795 260.215C335.784 259.431 334.484 258.75 333.246 258.647C331.513 258.482 329.697 258.812 327.943 259.08C324.951 259.513 324.91 259.947 324.167 262.939C322.867 268.18 321.237 273.338 319.71 278.538C319.112 280.581 318.431 282.603 317.791 284.625C317.049 286.915 316.409 289.247 315.542 291.475C314.366 294.343 313.046 297.191 311.684 300.327ZM270.086 182.838C271.984 182.632 274.295 182.859 276.214 182.116C280.114 180.589 283.973 179.908 288.099 180.713C288.718 180.837 289.771 180.61 290.039 180.156C291.133 178.423 290.369 175.369 288.718 174.069C287.749 173.305 286.841 172.439 285.768 171.82C284.736 171.221 283.56 170.54 282.446 170.52C278.113 170.479 274.357 172.501 270.581 174.316C270.127 174.543 269.777 175.41 269.756 176.008C269.715 177.102 270.004 178.196 270.065 179.289C270.127 180.465 270.086 181.662 270.086 182.838ZM98.3096 216.286C92.8623 218.638 89.5403 222.641 87.5594 227.82C87.1055 229.017 86.8991 230.358 86.796 231.637C86.6928 233.102 88.034 234.093 89.1482 233.556C91.5417 232.401 93.9972 231.328 96.3494 230.11C96.9478 229.801 97.6081 229.017 97.6493 228.398C97.9589 224.477 98.1033 220.536 98.3096 216.286ZM317.111 230.09C320.082 228.294 320.969 222.744 318.287 219.979C316.822 221.485 315.377 222.971 314.181 224.209C315.212 226.272 316.12 228.109 317.111 230.09ZM274.976 194.125C272.191 188.678 272.191 188.678 274.007 187.646C273.346 187.171 272.397 186.263 272.211 186.408C271.448 186.965 270.458 187.811 270.396 188.616C270.189 191.525 270.313 194.476 270.313 197.302C271.634 196.374 273.243 195.301 274.976 194.125ZM267.569 218.679C266.97 220.577 265.258 221.774 266.908 223.507C267.816 223.115 268.662 222.765 269.529 222.393C268.91 221.217 268.332 220.165 267.569 218.679ZM269.302 210.095C271.138 210.24 272.088 209.249 272.294 207.888C272.356 207.475 270.911 206.835 269.9 206.113C269.57 207.496 269.385 208.197 269.24 208.94C269.199 209.229 269.281 209.58 269.302 210.095Z" fill="#000000"/>
<path d="M88.4879 240.839C91.1703 242.263 93.7289 243.646 96.3081 244.945C98.7429 246.183 101.198 247.401 103.695 248.494C107.595 250.228 111.474 251.961 115.456 253.467C118.263 254.54 121.172 255.758 124.102 255.985C127.548 256.253 130.622 257.945 134.089 257.924C137.596 257.903 141.083 258.007 144.591 258.151C146.201 258.213 147.81 258.667 149.42 258.729C153.134 258.894 156.868 258.894 160.582 259.08C163.43 259.224 166.257 259.657 169.104 259.864C172.241 260.091 175.398 260.132 178.554 260.38C180.639 260.545 182.681 261.019 184.745 261.205C187.035 261.411 189.346 261.494 191.657 261.494C195.454 261.514 199.271 261.349 203.067 261.391C205.564 261.432 208.061 261.803 210.558 261.824C211.754 261.845 212.951 261.391 214.148 261.184C214.457 261.122 214.746 261.102 215.056 261.102C218.171 261.04 221.349 261.329 224.423 260.854C230.366 259.946 236.391 259.884 242.313 258.584C242.086 258.502 241.797 258.378 241.013 258.069C242.251 257.924 243.097 257.594 243.84 257.78C246.687 258.461 249.349 257.677 252.052 257.099C255.725 256.335 259.398 254.994 263.071 254.912C268.126 254.808 272.645 252.869 277.39 251.817C285.025 250.145 292.598 248.185 300.129 246.101C302.956 245.317 305.576 243.831 308.3 242.676C311.725 241.231 315.171 239.787 318.596 238.343C318.968 238.178 319.339 237.992 319.69 237.806C321.072 239.147 320.267 240.509 320.061 241.974C319.545 245.564 319.256 249.196 318.988 252.828C318.452 259.719 316.615 266.26 314.242 272.719C312.262 278.063 310.59 283.531 308.527 288.854C306.876 293.125 304.895 297.273 302.956 301.441C301.573 304.412 300.253 307.466 298.416 310.148C295.92 313.8 293.093 317.267 290.183 320.589C287.48 323.663 284.633 326.655 281.538 329.358C278.154 332.309 274.44 334.868 270.849 337.55C268.394 339.386 266.001 341.347 263.359 342.894C261.028 344.256 258.407 345.205 255.869 346.154C252.031 347.578 248.152 348.981 244.232 350.178C241.323 351.065 238.351 351.705 235.359 352.283C231.563 353.046 227.766 353.913 223.949 354.243C219.595 354.593 215.2 354.387 210.826 354.428C208.597 354.449 206.369 354.635 204.14 354.552C203.047 354.511 201.974 354.036 200.88 353.83C197.765 353.252 194.628 352.716 191.513 352.159C191.306 352.117 191.079 352.056 190.894 352.097C187.613 352.695 184.724 351.292 181.691 350.467C178.967 349.745 176.078 349.621 173.293 349.084C172.179 348.878 171.168 348.135 170.053 347.846C166.566 346.897 163.058 346.113 159.592 345.143C158.478 344.834 157.487 344.091 156.414 343.616C153.546 342.378 150.616 341.285 147.81 339.902C146.304 339.159 145.128 337.798 143.683 336.89C139.082 334.001 134.378 331.236 129.817 328.306C127.238 326.655 124.556 325.005 122.431 322.859C119.666 320.094 117.437 316.813 114.92 313.8C113.682 312.335 112.361 310.932 111.02 309.571C107.574 306.042 106.13 301.379 103.963 297.149C102.292 293.868 100.765 290.484 99.3 287.1C98.4334 285.099 97.9176 282.953 97.0716 280.951C95.6685 277.609 94.1003 274.307 92.6972 270.965C92.3671 270.242 92.5115 269.293 92.3052 268.468C91.7068 266.178 90.9021 263.908 90.4275 261.597C90.0148 259.616 89.9323 257.553 89.7259 255.531C89.2101 250.929 88.6943 246.328 88.2403 241.747C88.1784 241.335 88.4466 240.922 88.4879 240.839Z" fill="#000000"/>
<path d="M118.469 183.952C121.543 184.695 124.473 185.438 127.424 186.098C130.395 186.779 133.366 187.46 136.338 187.996C139.309 188.533 142.301 188.987 145.313 189.338C149.605 189.853 153.897 190.307 158.189 190.679C160.025 190.844 162.171 190.184 163.698 190.906C166.855 192.371 169.929 190.06 172.942 191.257C173.602 191.525 174.283 191.69 175.48 192.041C173.231 193.96 171.353 195.425 169.641 197.034C167.557 198.994 165.638 201.14 163.574 203.121C158.705 207.825 153.195 211.746 146.902 214.119C142.982 215.604 138.834 217.09 134.357 216.368C133.593 216.244 132.273 216.822 131.943 217.461C131.22 218.844 132.83 218.968 133.552 219.257C136.75 220.557 140.134 220.185 143.436 219.814C148.78 219.215 153.835 217.627 158.313 214.47C161.346 212.344 164.565 210.425 167.412 208.094C170.466 205.597 173.148 202.667 176.058 199.964C178.575 197.612 180.989 195.115 183.754 193.072C185.714 191.628 188.211 190.906 190.439 189.792C191.141 189.441 191.698 188.78 192.4 188.471C192.895 188.244 193.534 188.347 194.133 188.306C197.166 188.161 200.199 187.481 203.232 188.512C205.915 189.42 208.927 189.544 211.073 191.649C211.692 192.247 212.208 193.258 212.208 194.083C212.208 194.537 211.135 195.259 210.454 195.445C207.297 196.229 204.099 196.869 200.921 197.529C198.961 197.921 197.558 199.923 198.074 201.78C198.156 202.089 198.569 202.523 198.858 202.543C200.426 202.667 202.015 202.75 203.583 202.708C205.626 202.667 207.669 202.399 209.711 202.461C210.434 202.481 211.507 202.997 211.754 203.554C211.981 204.111 211.568 205.329 211.032 205.721C209.67 206.691 208.164 207.805 206.596 208.073C203.955 208.506 201.458 209.022 199.333 210.941C199.91 211.932 200.55 213.025 201.169 214.078C204.285 212.778 207.359 212.613 210.413 213.479C212.064 213.954 212.683 216.244 211.445 217.565C210.495 218.576 209.175 219.566 207.875 219.814C205.543 220.268 203.109 220.123 200.715 220.309C197.145 220.577 193.782 221.547 190.831 223.652C187.922 225.736 185.116 227.84 182.743 230.667C181.01 232.71 178.162 234.01 175.604 235.145C170.383 237.435 165.06 239.602 159.654 241.417C154.495 243.151 149.254 244.822 143.931 245.709C140.547 246.266 136.874 245.585 133.387 245.028C129.735 244.45 126.165 243.378 122.575 242.47C121.584 242.222 120.635 241.768 119.707 241.355C116.302 239.89 112.918 238.425 109.534 236.919C104.788 234.794 104.644 230.626 104.623 226.231C104.582 218.369 106.687 210.941 108.668 203.472C108.936 202.481 109.472 201.573 109.947 200.666C112.732 195.074 115.621 189.461 118.469 183.952Z" fill="#FFFFFF"/>
<path d="M325.818 254.087C326.004 251.487 326.169 249.258 326.334 247.009C326.334 246.947 326.396 246.865 326.396 246.803C325.694 242.944 328.026 241.768 331.204 241.067C333.989 240.448 336.692 239.045 339.478 238.921C342.944 238.756 346.452 238.797 350.001 239.684C353.632 240.592 356.562 242.594 359.431 244.492C362.608 246.597 365.27 249.712 366.797 253.344C367.684 255.448 367.746 257.904 368.241 260.194C368.613 261.866 369.438 263.537 369.417 265.188C369.355 267.581 368.963 270.057 368.262 272.348C366.817 277.135 365.249 281.901 363.413 286.544C360.792 293.208 355.84 298.264 351.363 303.69C346.823 309.2 341.128 313.12 335.206 316.834C333.288 318.031 331.327 319.145 329.305 320.115C328.583 320.466 327.572 320.135 326.788 320.404C324.766 321.105 322.847 322.075 320.804 322.715C319.979 322.983 318.885 322.405 318.08 322.694C315.976 323.458 313.479 322.529 311.643 324.242C311.56 324.324 311.354 324.324 311.23 324.283C308.3 323.231 305.391 324.304 302.481 324.365C300.666 324.407 298.85 324.262 296.993 324.221C297.055 324.138 297.302 323.705 297.57 323.313C300.624 319.042 303.719 314.791 306.711 310.479C307.867 308.828 308.424 306.909 311.292 307.363C312.86 307.611 314.635 306.497 316.285 305.939C318.699 305.135 321.217 304.557 323.445 303.401C326.974 301.606 330.378 299.543 333.7 297.376C335.475 296.221 337.27 294.838 338.529 293.188C340.984 289.969 343.316 286.606 345.255 283.077C346.947 279.982 348.185 276.598 349.361 273.235C350.145 271.006 350.001 268.757 348.969 266.446C347.628 263.434 346.328 260.38 343.749 258.296C341.479 256.46 338.962 255.036 335.991 254.19C332.648 253.261 329.45 253.323 325.818 254.087Z" fill="#000000"/>
<path d="M212.786 186.47C216.789 186.8 220.152 187.192 223.536 187.316C227.91 187.46 232.305 187.151 236.659 187.481C244.149 188.058 251.144 186.201 257.953 183.54C260.388 182.591 262.451 180.713 264.907 179.124C264.969 179.64 265.072 180.073 265.031 180.486C264.432 187.295 264.02 194.145 263.112 200.934C262.328 206.835 261.09 212.695 259.748 218.514C259.398 220.041 258.221 221.692 256.942 222.641C254.445 224.456 251.722 226.045 248.895 227.263C246.997 228.088 244.748 228.109 242.643 228.48C241.508 228.686 240.208 228.625 239.238 229.14C236.783 230.44 234.224 230.151 231.645 230.131C229.087 230.11 226.507 229.986 224.011 230.378C220.049 231.018 216.541 230.09 213.116 228.232C212.002 227.634 210.805 227.139 209.402 226.479C217.697 222.765 219.801 216.244 212.476 210.508C215.406 208.899 215.902 206.361 215.221 203.41C215.159 203.142 215.2 202.75 215.035 202.605C213.075 200.831 214.292 199.717 215.778 198.561C216.789 197.777 217.284 196.807 216.706 195.466C216.417 194.785 216.417 193.96 216.17 193.238C215.736 191.896 215.757 190.431 214.23 189.523C213.549 189.131 213.384 187.811 212.786 186.47Z" fill="#FFFFFF"/>
<path d="M151.958 348.796C154.083 349.023 156.291 347.991 157.446 350.488C157.549 350.694 157.921 350.963 158.107 350.921C161.821 349.91 164.544 353.294 168.135 353.17C169.641 353.129 171.168 354.408 172.695 355.089C172.818 355.151 172.942 355.213 173.087 355.234C175.687 355.502 178.286 355.646 180.886 356.038C183.032 356.348 185.178 356.74 187.221 357.4C191.038 358.638 195.02 358.68 198.92 359.278C202.036 359.753 205.193 360.289 208.309 360.248C210.537 360.227 212.724 359.546 214.849 360.722C214.994 360.805 215.262 360.722 215.468 360.66C218.419 359.629 221.452 360.186 224.465 360.145C226.714 360.103 228.942 359.195 231.171 358.7C231.955 358.535 232.76 358.535 233.523 358.37C237.897 357.483 242.334 356.823 246.605 355.626C250.876 354.429 255.044 352.799 259.192 351.169C261.544 350.261 263.731 348.961 266.021 347.909C266.537 347.682 267.218 347.806 268.126 347.744C267.755 349.848 267.404 351.788 267.053 353.707C266.661 355.873 266.31 358.04 265.918 360.206C265.505 362.538 263.958 363.549 261.564 363.425C260.161 363.343 258.717 363.529 257.293 363.755C255.044 364.086 252.836 364.643 250.587 364.932C248.07 365.241 245.511 365.344 242.973 365.571C240.415 365.798 237.856 366.211 235.277 366.314C232.244 366.438 229.19 366.252 226.157 366.314C225.497 366.335 224.836 366.912 224.176 366.933C220.875 366.995 217.594 366.892 214.292 366.954C209.32 367.057 204.347 367.222 199.374 367.449C193.886 367.697 188.376 367.779 182.929 368.419C179.256 368.852 175.831 367.841 172.282 367.655C169.723 367.511 167.041 366.665 164.627 367.181C161.449 367.841 158.787 366.355 155.837 366.17C154.227 366.066 153.485 365.386 153.526 363.363C153.608 360.392 152.948 357.4 152.597 354.429C152.412 352.634 152.205 350.88 151.958 348.796Z" fill="#FFFFFF"/>
<path d="M294.248 200.377C293.98 196.518 292.68 195.734 289.771 194.95C287.728 194.414 285.891 193.403 283.622 193.279C282.177 193.196 280.63 192.185 279.433 191.216C277.37 189.524 278.298 185.913 280.919 185.129C284.014 184.2 287.026 184.221 290.142 185.603C292.721 186.738 295.424 187.955 298.437 187.563C298.891 187.501 299.469 187.77 299.881 188.059C302.625 189.957 305.638 191.381 307.578 194.414C309.724 197.756 312.53 200.666 314.944 203.843C316.326 205.659 317.172 207.496 316.141 210.075C314.82 213.376 312.819 216.1 310.446 218.555C309.6 219.422 308.052 219.67 306.794 220.041C303.74 220.949 300.686 221.857 297.57 222.579C296.291 222.868 294.908 222.682 293.588 222.682C292.536 222.682 291.421 222.476 290.41 222.661C287.831 223.157 285.438 222.785 282.879 222.125C281.084 221.65 279.144 221.795 277.205 221.32C275.203 220.804 273.883 219.566 273.408 218.205C272.913 216.74 273.305 214.635 274.048 213.191C274.729 211.849 275.74 210.529 278.257 211.54C282.177 213.108 286.531 213.603 290.679 214.656C292.68 215.171 295.404 213.975 295.961 212.056C296.043 211.746 295.527 211.127 295.156 210.818C294.558 210.302 293.547 210.096 293.216 209.476C292.577 208.238 291.504 208.3 290.452 208.094C286.407 207.331 282.322 206.753 278.36 205.701C276.73 205.267 275.224 204.029 273.924 202.853C273.532 202.502 273.718 200.975 274.151 200.315C274.914 199.201 275.967 198.21 277.081 197.406C278.236 196.56 279.392 196.395 281.022 197.014C283.601 198.004 286.036 199.841 289.11 199.304C289.523 199.221 289.998 199.593 290.472 199.696C291.669 199.944 292.886 200.129 294.248 200.377Z" fill="#FFFFFF"/>
<path d="M263.752 169.426C263.091 170.706 262.823 171.717 262.183 172.356C258.346 176.112 253.744 178.485 248.483 179.475C244.48 180.238 240.456 181.043 236.412 181.497C233.647 181.786 230.82 181.415 228.034 181.456C222.257 181.538 216.645 180.465 210.991 179.558C209.237 179.269 207.359 179.434 205.729 178.897C204.12 178.361 202.634 177.267 201.272 176.194C200.922 175.926 200.963 174.626 201.293 174.09C202.428 172.233 203.583 170.52 206.142 170.025C210.104 169.261 213.921 167.611 217.903 167.012C222.505 166.331 227.209 166.393 231.872 166.166C236.04 165.96 240.208 165.63 244.376 165.671C247.018 165.692 249.659 166.29 252.3 166.641C255.416 167.053 258.552 167.384 261.647 167.941C262.348 168.044 262.967 168.849 263.752 169.426Z" fill="#FFFFFF"/>
<path d="M270.086 182.838C270.086 181.661 270.127 180.485 270.065 179.289C270.003 178.195 269.714 177.101 269.756 176.008C269.776 175.43 270.127 174.543 270.581 174.316C274.357 172.5 278.112 170.478 282.446 170.519C283.56 170.54 284.757 171.221 285.768 171.819C286.82 172.438 287.728 173.305 288.718 174.068C290.39 175.368 291.132 178.422 290.039 180.155C289.771 180.588 288.698 180.815 288.099 180.712C283.972 179.887 280.114 180.588 276.214 182.115C274.295 182.858 271.984 182.631 270.086 182.838Z" fill="#FFFFFF"/>
<path d="M98.3094 216.286C98.103 220.536 97.9586 224.477 97.6491 228.398C97.6078 229.017 96.9269 229.801 96.3492 230.11C93.9969 231.348 91.5621 232.421 89.148 233.556C88.0337 234.093 86.6719 233.102 86.7957 231.637C86.8989 230.358 87.0846 229.017 87.5592 227.82C89.54 222.641 92.862 218.638 98.3094 216.286Z" fill="#FFFFFF"/>
<path d="M317.11 230.089C316.12 228.129 315.212 226.292 314.16 224.229C315.356 222.991 316.821 221.505 318.266 219.999C320.969 222.723 320.082 228.273 317.11 230.089Z" fill="#FFFFFF"/>
<path d="M274.976 194.125C273.243 195.301 271.634 196.395 270.313 197.282C270.313 194.455 270.189 191.505 270.395 188.595C270.457 187.791 271.448 186.945 272.211 186.388C272.397 186.243 273.346 187.172 274.006 187.626C272.17 188.657 272.17 188.657 274.976 194.125Z" fill="#FFFFFF"/>
<path d="M267.569 218.679C268.353 220.164 268.91 221.237 269.529 222.393C268.662 222.764 267.816 223.115 266.908 223.507C265.237 221.774 266.95 220.577 267.569 218.679Z" fill="#FFFFFF"/>
<path d="M269.302 210.095C269.281 209.579 269.199 209.229 269.26 208.919C269.384 208.197 269.591 207.475 269.921 206.092C270.932 206.814 272.376 207.475 272.314 207.867C272.087 209.249 271.138 210.26 269.302 210.095Z" fill="#FFFFFF"/>
<path d="M113.826 135.772C114.28 136.453 114.734 136.927 114.961 137.484C116.24 140.744 119.315 141.384 122.1 142.519C124.143 143.344 126.083 144.459 128.084 145.366C129.075 145.82 130.086 146.212 131.138 146.46C136.482 147.76 141.847 148.977 147.191 150.257C148.697 150.628 150.183 151.247 151.71 151.453C153.361 151.68 155.053 151.515 156.724 151.536C160.768 151.577 164.792 151.742 168.815 151.618C171.333 151.536 173.829 150.814 176.347 150.649C184.353 150.133 192.173 148.544 199.91 146.543C204.904 145.243 209.918 143.901 214.684 142.003C219.368 140.146 223.763 137.526 228.303 135.277C229.396 134.719 230.49 134.1 231.645 133.77C232.099 133.646 233.069 134.142 233.296 134.616C234.782 137.67 234.39 139.094 231.645 140.683C226.384 143.736 221.308 147.162 215.86 149.844C212.126 151.701 207.916 152.671 203.872 153.826C200.034 154.92 196.176 156.055 192.255 156.591C185.797 157.478 179.277 157.912 172.777 158.49C169.661 158.758 166.546 159.026 163.43 159.088C161.263 159.129 159.055 158.985 156.91 158.655C151.07 157.747 145.169 156.983 139.433 155.621C134.46 154.445 129.776 152.423 125.195 149.927C121.234 147.76 117.623 145.222 114.218 142.354C112.464 140.93 112.093 137.649 113.826 135.772Z" fill="#000000"/>
<path d="M139.618 124.465C139.639 120.607 142.28 118.069 146.242 118.089C149.461 118.11 152.184 120.235 152.184 122.711C152.184 126.879 148.924 131.233 145.808 131.213C142.363 131.213 139.598 128.2 139.618 124.465Z" fill="#000000"/>
<path d="M227.478 102.366C227.498 105.75 224.506 108.784 221.06 108.845C219.41 108.866 215.943 105.606 215.964 104.058C216.026 100.262 218.729 96.9604 221.783 96.9811C223.825 96.9811 227.478 100.427 227.478 102.366Z" fill="#000000"/>
<path d="M218.687 93.1632C218.357 93.2045 217.841 93.4315 217.449 93.287C216.748 93.0188 215.964 92.6474 215.572 92.0903C215.386 91.822 215.881 90.8935 216.273 90.4396C217.408 89.0571 218.729 88.6444 220.627 89.0365C222.69 89.4698 224.919 89.119 227.044 89.4079C228.22 89.5729 229.334 90.2745 230.387 90.9141C230.717 91.0998 230.965 92.1315 230.799 92.2966C230.201 92.8743 229.417 93.6172 228.695 93.6378C226.59 93.6584 224.465 93.3283 222.36 93.2045C221.164 93.1013 219.987 93.1632 218.687 93.1632Z" fill="#000000"/>
<path d="M189.016 123.866C190.151 123.805 193.019 126.054 193.081 127.085C193.225 129.211 190.646 131.749 188.232 131.852C187.035 131.893 184.146 129.706 184.043 128.695C183.837 126.611 186.498 124.011 189.016 123.866Z" fill="#000000"/>
<path d="M160.768 128.385C160.809 126.198 163.306 123.701 165.39 123.784C166.711 123.846 168.939 126.631 168.877 128.179C168.795 129.953 166.628 132.12 164.895 132.12C162.625 132.12 160.727 130.387 160.768 128.385Z" fill="#000000"/>
<path d="M127.713 99.0229C126.33 97.104 127.279 95.5977 128.683 94.8549C130.746 93.7407 133.057 92.8534 135.347 92.5027C136.523 92.317 137.968 93.4518 139.185 94.174C139.515 94.3597 139.763 95.3914 139.536 95.6803C139.226 96.1342 138.401 96.5881 137.926 96.485C134.501 95.6596 131.716 97.2897 128.827 98.6515C128.517 98.796 128.187 98.8785 127.713 99.0229Z" fill="#000000"/>
<path d="M263.958 142.416C263.401 137.423 262.328 132.718 259.831 128.426C255.952 121.741 249.948 117.016 243.84 112.518C240.951 110.392 239.342 106.616 240.126 103.191C240.497 101.52 240.456 99.7248 240.456 97.9915C240.456 96.8154 239.94 95.6186 240.085 94.4838C240.456 91.3887 238.352 89.3459 236.866 87.2826C234.658 84.1875 230.779 83.7129 227.312 83.0939C223.743 82.4543 220.194 82.8257 216.603 83.7955C213.22 84.7033 210.455 85.9414 208.494 89.0364C206.452 92.2553 204.285 95.3091 203.542 99.2089C203.15 101.334 202.077 103.336 201.149 105.337C200.922 105.832 200.055 106.348 199.498 106.348C193.638 106.307 187.778 106.204 181.939 106.039C178.348 105.936 174.758 105.399 171.209 105.647C166.381 105.977 161.573 106.864 156.765 107.462C153.051 107.916 150.988 105.956 151.463 102.036C151.112 100.695 150.761 99.3327 150.39 97.9915C150.101 96.9598 149.688 95.9694 149.502 94.9171C149.069 92.5236 147.769 90.7903 145.726 89.5729C144.199 88.665 142.693 87.6952 141.042 87.0969C139.371 86.4985 137.473 85.7763 135.822 86.0652C133.264 86.4985 130.829 87.6952 128.373 88.6238C123.731 90.3776 120.017 93.0188 119.171 98.3629C119.129 98.6312 118.985 98.8788 118.861 99.1264C117.995 100.983 116.86 102.737 116.303 104.677C115.395 107.875 114.095 110.434 110.443 111.011C109.225 111.197 108.008 111.63 106.914 112.188C101.591 114.87 96.8036 118.336 92.6768 122.649C89.8913 125.558 86.693 128.241 84.609 131.604C82.7726 134.534 82.2361 138.269 81.1219 141.653C79.822 145.614 80.8537 149.452 82.1742 153.084C83.7011 157.252 87.1883 159.996 90.6341 162.575C94.2863 165.32 98.1242 167.796 101.921 170.354C102.664 170.849 103.51 171.2 104.335 171.572C107.038 172.789 109.72 173.986 112.444 175.162C113.29 175.533 114.157 175.905 115.044 176.132C117.685 176.854 120.347 177.452 122.967 178.195C125.918 179.02 128.477 180.712 131.86 180.63C135.802 180.527 139.784 181.435 143.725 182.012C148.326 182.693 152.928 183.642 157.591 183.642C159.737 183.642 161.759 184.55 164.07 183.931C165.947 183.436 168.155 184.282 170.219 184.323C173.293 184.365 176.368 184.22 179.421 184.179C184.167 184.096 188.934 184.117 193.679 183.911C196.465 183.787 196.795 182.92 195.99 180.155C195.516 178.546 195.144 176.792 195.268 175.141C195.598 170.354 199.044 167.734 202.758 165.65C204.801 164.515 207.277 164.205 209.547 163.463C211.445 162.844 213.281 161.874 215.221 161.606C220.111 160.945 225.022 160.491 229.954 160.12C239.239 159.418 248.524 159.398 257.747 160.904C258.077 160.966 258.635 160.78 258.779 160.533C260.058 158.407 261.833 156.365 262.369 154.054C263.257 150.195 264.412 146.502 263.958 142.416ZM216.253 90.4189C217.388 89.0364 218.708 88.6238 220.606 89.0158C222.67 89.4491 224.898 89.0983 227.024 89.3872C228.2 89.5523 229.314 90.2538 230.366 90.8935C230.696 91.0792 230.944 92.1109 230.779 92.2759C230.181 92.8537 229.396 93.5965 228.674 93.6171C226.57 93.6378 224.444 93.3076 222.34 93.1838C221.184 93.1219 220.029 93.1632 218.708 93.1632C218.378 93.2045 217.862 93.4314 217.47 93.287C216.769 93.0188 215.984 92.6474 215.592 92.0902C215.365 91.822 215.881 90.8935 216.253 90.4189ZM227.478 102.366C227.498 105.75 224.506 108.783 221.06 108.845C219.41 108.866 215.943 105.605 215.964 104.058C216.026 100.261 218.729 96.9598 221.783 96.9805C223.825 96.9805 227.478 100.426 227.478 102.366ZM189.016 123.866C190.151 123.804 193.019 126.053 193.081 127.085C193.225 129.21 190.646 131.748 188.232 131.852C187.035 131.893 184.147 129.706 184.043 128.695C183.837 126.611 186.499 124.011 189.016 123.866ZM165.39 123.784C166.711 123.846 168.939 126.631 168.877 128.179C168.795 129.953 166.628 132.12 164.895 132.12C162.625 132.12 160.727 130.407 160.768 128.406C160.81 126.198 163.306 123.701 165.39 123.784ZM128.683 94.8552C130.746 93.7409 133.057 92.8537 135.348 92.5029C136.524 92.3172 137.968 93.4521 139.185 94.1743C139.516 94.36 139.763 95.3917 139.536 95.6805C139.227 96.1345 138.401 96.5884 137.927 96.4852C134.502 95.6599 131.716 97.29 128.827 98.6518C128.518 98.7962 128.188 98.8788 127.713 99.0232C126.331 97.1249 127.28 95.6186 128.683 94.8552ZM231.646 140.703C226.384 143.757 221.308 147.183 215.861 149.865C212.126 151.722 207.917 152.692 203.872 153.847C200.035 154.941 196.176 156.076 192.256 156.612C185.797 157.499 179.277 157.933 172.777 158.51C169.662 158.779 166.546 159.047 163.43 159.109C161.264 159.15 159.056 159.006 156.91 158.676C151.071 157.768 145.169 157.004 139.433 155.642C134.46 154.466 129.776 152.444 125.196 149.947C121.234 147.781 117.623 145.243 114.219 142.375C112.485 140.93 112.135 137.65 113.847 135.772C114.301 136.453 114.755 136.928 114.982 137.485C116.261 140.745 119.336 141.384 122.121 142.519C124.164 143.345 126.104 144.459 128.105 145.367C129.096 145.821 130.107 146.213 131.159 146.46C136.503 147.76 141.868 148.978 147.212 150.257C148.718 150.628 150.204 151.247 151.731 151.454C153.382 151.681 155.073 151.516 156.745 151.536C160.789 151.578 164.813 151.743 168.836 151.619C171.354 151.536 173.85 150.814 176.368 150.649C184.373 150.133 192.194 148.544 199.931 146.543C204.925 145.243 209.939 143.902 214.705 142.003C219.389 140.146 223.784 137.526 228.323 135.277C229.417 134.72 230.511 134.101 231.666 133.771C232.12 133.647 233.09 134.142 233.317 134.617C234.782 137.691 234.39 139.115 231.646 140.703Z" fill="#FFFFFF"/>
<path d="M141.125 105.523C141.145 108.907 138.154 111.94 134.708 112.002C133.057 112.023 129.591 108.763 129.611 107.215C129.673 103.419 132.376 100.117 135.43 100.138C137.473 100.117 141.104 103.563 141.125 105.523Z" fill="#000000"/>
</svg>
