<svg width="449" height="449" viewBox="0 0 449 449" fill="none" xmlns="http://www.w3.org/2000/svg">
<g clip-path="url(#clip0_702_1173)">
<path d="M144.895 152.542C142.874 150.414 140.81 148.486 139.021 146.315C133.032 139.016 132.642 127.819 137.895 119.877C140.998 115.164 145.097 111.55 149.931 108.694C151.216 107.922 151.966 107.051 151.836 105.423C151.028 94.625 159.644 85.241 169.486 82.6987C177.193 80.6848 184.784 80.7847 191.754 84.8554C194.756 86.6122 197.238 89.2831 199.778 91.7255C200.846 92.7539 201.596 93.3395 203.271 93.1395C209.043 92.4539 214.845 91.9969 220.646 91.597C222.032 91.497 222.71 91.0685 223.302 89.8259C227.934 80.0849 235.67 74.9716 246.652 75.0001C256.884 75.0287 266.077 81.2132 269.613 90.74C270.565 93.2966 271.922 94.4536 274.563 95.1534C283.424 97.5244 290.38 102.595 294.089 111.05C298.49 121.106 296.571 130.504 289.759 138.945C287.869 141.287 285.617 143.344 283.467 145.472C283.02 145.915 282.298 146.115 281.706 146.415C281.88 146.744 282.053 147.072 282.226 147.386C283.207 147.472 284.174 147.601 285.156 147.643C292.66 147.872 300.006 148.9 306.933 151.957C310.974 153.742 314.654 155.942 317.295 159.598C317.656 160.098 318.421 160.455 319.056 160.627C326.228 162.555 333.025 165.197 339.375 169.168C344.946 172.653 346.562 177.466 345.841 183.579C344.874 191.764 344.138 199.976 343.113 208.146C342.06 216.445 340.891 224.729 339.549 232.999C337.701 244.496 335.941 256.008 333.632 267.406C329.316 288.674 324.655 309.87 320.109 331.094C319.272 334.993 318.175 338.821 317.41 342.735C316.342 348.248 313.355 352.433 308.896 355.718C299.429 362.702 288.634 366.645 277.204 368.958C268.689 370.687 260.146 372.486 251.53 373.543C238.989 375.1 226.332 375.286 213.69 374.572C207.037 374.2 200.37 373.715 193.746 372.915C179.978 371.258 166.758 367.444 153.986 362.103C149.123 360.06 144.26 357.989 140.204 354.504C136.466 351.305 134.258 347.163 133.162 342.478C129.741 327.98 126.119 313.512 123.132 298.915C118.658 277.076 114.372 255.194 110.533 233.241C108.007 219.058 106.434 204.675 104.443 190.364C104.024 187.322 103.721 184.265 103.202 181.237C102.206 175.41 104.962 171.496 109.537 168.339C116.161 163.755 123.767 161.584 131.401 159.513C134.59 158.641 137.65 157.899 140.074 155.313C141.287 153.985 143.307 153.414 144.895 152.542ZM108.195 186.779C108.224 187.493 108.209 187.879 108.267 188.25C109.638 198.491 110.807 208.76 112.423 218.973C114.949 234.927 117.503 250.867 120.534 266.735C125.34 291.902 131.141 316.854 137.722 341.635C138.934 346.22 141.431 349.662 145.371 352.162C147.088 353.261 148.863 354.304 150.682 355.204C160.784 360.203 171.506 363.317 182.547 365.573C193.774 367.873 205.074 369.387 216.533 369.715C231.903 370.158 247.2 369.273 262.368 366.63C275.414 364.359 288.186 361.274 300.078 355.232C306.991 351.719 311.854 346.92 313.485 338.878C316.53 323.881 320.369 309.056 323.515 294.073C326.82 278.39 330.009 262.679 332.665 246.882C335.32 231.085 337.283 215.159 339.491 199.291C339.996 195.634 340.256 191.949 340.645 188.107C340.198 188.25 340.01 188.264 339.866 188.379C334.281 192.506 327.931 195.092 321.379 197.191C306.933 201.805 291.996 204.09 276.973 205.889C261.993 207.675 246.941 208.646 231.874 208.932C214.34 209.275 196.834 208.589 179.372 206.746C164.045 205.118 148.849 202.861 134.013 198.662C124.95 196.106 116.002 193.092 108.195 186.779ZM216.461 164.397C226.78 164.355 236.896 162.955 246.854 160.455C247.59 160.27 248.413 159.984 248.961 159.498C254.2 154.799 260.434 152.157 267.203 150.529C268.025 150.329 268.934 150.243 269.656 149.829C276.497 145.972 282.702 141.33 287.205 134.803C291.91 127.976 293.136 120.606 289.832 112.836C286.339 104.623 279.7 100.124 271.128 98.3528C268.487 97.8101 267.174 96.596 266.467 94.0822C264.894 88.5832 261.69 84.2698 256.538 81.4275C244.776 74.9573 230.171 80.8276 226.477 93.6394C226.058 95.1106 225.106 95.2963 223.821 95.4105C216.187 96.0533 208.552 96.6531 200.947 97.4815C199.259 97.6672 198.349 97.1959 197.498 95.9533C196.574 94.5964 195.708 93.1824 194.583 92.0112C187.54 84.7268 176.702 83.1271 167.22 87.7548C159.817 91.3684 154.823 99.5669 156.498 107.365C156.873 109.108 155.805 110.136 154.405 110.993C150.451 113.393 146.756 116.107 143.726 119.677C137.087 127.519 137.534 138.388 144.851 145.615C149.339 150.057 154.751 153 160.639 155.113C163.353 156.085 166.152 157.213 168.981 157.399C175.634 157.856 182.07 159.113 188.262 161.512C190.614 162.426 192.952 162.969 195.521 163.069C202.491 163.355 209.476 163.94 216.461 164.397ZM133.912 162.941C128.471 163.883 123.363 165.426 118.586 167.768C115.483 169.282 112.481 171.21 109.912 173.481C106.521 176.495 106.694 180.294 109.927 183.465C111.225 184.736 112.726 185.893 114.285 186.836C122.829 192.049 132.281 194.906 141.936 197.205C159.153 201.29 176.644 203.333 194.294 204.404C215.523 205.69 236.752 205.747 257.938 203.904C270.695 202.79 283.424 201.219 296.109 199.476C306.053 198.105 315.852 195.806 325.175 192.006C329.417 190.278 333.559 188.121 337.355 185.593C342.637 182.08 342.781 177.166 337.918 173.067C335.825 171.31 333.401 169.839 330.904 168.711C327.238 167.04 323.371 165.783 319.373 164.269C319.373 165.34 319.489 165.954 319.359 166.497C318.81 168.668 320.124 169.325 321.841 170.111C324.467 171.296 327.08 172.639 329.403 174.324C333.025 176.938 333.256 180.509 329.692 183.137C326.834 185.236 323.472 186.836 320.109 188.064C309.098 192.064 297.552 193.906 286.022 195.777C268.083 198.677 250 199.476 231.888 199.948C213.979 200.391 196.141 199.691 178.333 198.091C164.016 196.805 149.96 194.149 136.12 190.407C130.059 188.764 124.113 186.736 119.192 182.622C115.858 179.837 115.901 175.938 119.509 173.567C122.02 171.925 124.705 170.382 127.533 169.396C130.737 168.282 132.815 166.426 133.912 162.941ZM293.31 175.924C293.31 175.938 293.31 175.952 293.31 175.967C294.031 175.967 294.767 175.967 295.489 175.967C300.583 176.009 305.49 175.052 310.079 172.853C315.347 170.325 316.299 165.826 312.691 161.284C310.166 158.113 306.717 156.313 302.979 155.156C288.677 150.729 274.563 151.6 260.752 157.127C252.598 160.398 246.825 166.24 243.405 174.267C242.164 177.166 243.001 179.752 245.281 180.894C247.547 182.008 250.231 181.08 251.876 178.495C252.583 177.395 252.988 176.109 253.709 175.024C255.239 172.753 256.797 170.496 258.544 168.397C259.006 167.84 260.218 167.911 261.084 167.682C260.939 168.497 260.968 169.396 260.636 170.125C259.28 173.167 257.577 176.067 256.451 179.18C255.138 182.808 257.043 185.665 260.607 186.079C263.032 186.365 265.355 184.808 266.885 181.794C268.011 179.58 268.963 177.281 270.161 175.095C270.782 173.967 271.633 172.924 272.557 172.024C272.889 171.696 273.899 171.625 274.303 171.882C274.635 172.096 274.736 173.024 274.592 173.538C274.361 174.41 273.74 175.167 273.466 176.038C272.672 178.58 271.691 181.108 271.345 183.708C271.042 185.965 272.658 187.279 274.996 187.422C277.694 187.593 279.614 186.279 280.768 184.036C281.764 182.137 282.385 180.037 283.251 178.066C283.741 176.938 284.304 175.809 285.04 174.824C285.257 174.538 286.151 174.753 286.743 174.738C286.772 176.209 287.883 175.895 288.749 175.924C290.264 175.952 291.78 175.924 293.31 175.924ZM172.791 194.463C176.24 194.449 177.799 192.149 176.312 189.207C175.042 186.707 173.411 184.394 172.026 181.937C171.723 181.408 171.752 180.694 171.636 180.052C172.416 180.009 173.267 179.737 173.945 179.966C174.638 180.209 175.259 180.866 175.692 181.494C177.308 183.794 178.794 186.193 180.425 188.478C181.363 189.793 182.301 191.249 183.586 192.164C186.645 194.32 190.903 192.635 191.263 189.25C191.364 188.336 191.162 187.222 190.701 186.422C188.781 183.094 186.674 179.866 184.74 176.538C184.423 175.981 184.596 175.138 184.553 174.438C185.245 174.538 186.155 174.395 186.588 174.767C188.016 176.009 189.459 177.309 190.571 178.823C192.173 180.966 193.399 183.379 194.987 185.55C196.719 187.921 199.663 188.55 201.813 187.222C203.891 185.936 204.338 183.594 203.083 180.766C201.005 176.081 197.599 172.482 193.572 169.396C187.8 164.983 181.06 162.969 174.003 162.012C164.478 160.727 154.997 160.898 145.833 164.183C142.109 165.511 138.444 167.111 135.976 170.439C133.335 173.996 133.97 177.695 137.534 180.366C141.2 183.108 145.501 183.808 149.859 184.108C152.875 184.308 156.093 184.508 158.922 183.694C161.145 183.051 161.866 183.751 162.775 185.222C163.988 187.164 165.243 189.093 166.47 191.035C167.985 193.406 170.135 194.549 172.791 194.463ZM324.9 173.624C324.843 173.724 324.727 173.838 324.727 173.938C324.742 177.823 322.562 180.237 318.724 180.794C317.627 180.951 316.602 181.58 315.549 181.994C315.606 182.194 315.664 182.394 315.722 182.594C316.01 182.722 316.285 182.88 316.588 182.98C318.565 183.579 318.637 183.851 317.252 185.408C316.819 185.893 316.443 186.422 315.679 187.393C316.747 187.236 317.208 187.25 317.598 187.093C320.095 186.065 322.591 185.036 325.045 183.922C327.224 182.922 329.605 181.851 329.663 179.08C329.735 176.252 327.282 175.067 325.276 173.71C325.189 173.61 325.03 173.638 324.9 173.624ZM123.492 173.467C117.821 176.866 117.777 179.852 123.319 183.137C125.21 184.265 127.302 185.079 129.323 185.979C129.712 186.15 130.218 186.05 130.679 186.079C129.943 184.836 129.15 183.608 128.082 183.308C126.148 182.751 125.484 181.865 126.249 180.094C122.857 178.038 122.8 177.895 123.492 173.467ZM129.525 171.31C126.783 171.782 126.393 172.524 127.75 174.795C128.111 175.41 128.269 176.138 128.63 176.738C128.948 177.252 129.438 177.638 130.015 178.266C129.842 175.71 129.698 173.581 129.525 171.31ZM146.843 156.256C146.727 156.085 146.597 155.928 146.482 155.756C142.874 156.727 140.464 159.241 138.559 162.412C141.315 160.355 144.072 158.313 146.843 156.256ZM316.819 173.524C318.262 174.167 319.46 175.909 321.047 174.424C321.855 173.667 321.48 172.539 320.268 171.882C318.449 170.882 318.247 170.925 316.819 173.524ZM297.913 180.38C299.501 182.137 301.694 181.78 303.267 179.78C301.233 180.009 299.573 180.194 297.913 180.38ZM300.583 185.236C299.429 183.279 298.014 183.322 296.73 185.279C298.389 186.536 298.592 186.536 300.583 185.236Z" fill="#2E1A14"/>
<path d="M108.195 186.779C116.003 193.078 124.936 196.091 134.028 198.662C148.864 202.847 164.06 205.118 179.387 206.746C196.849 208.603 214.354 209.275 231.889 208.932C246.97 208.632 262.008 207.675 276.988 205.889C292.011 204.09 306.933 201.805 321.394 197.191C327.946 195.106 334.296 192.506 339.881 188.378C340.025 188.279 340.213 188.264 340.66 188.107C340.271 191.949 340.011 195.634 339.506 199.291C337.298 215.159 335.335 231.085 332.679 246.882C330.024 262.679 326.82 278.39 323.53 294.073C320.384 309.041 316.53 323.881 313.5 338.878C311.869 346.92 307.006 351.719 300.093 355.232C288.216 361.274 275.429 364.359 262.383 366.63C247.215 369.273 231.918 370.158 216.548 369.715C205.089 369.387 193.789 367.873 182.562 365.573C171.521 363.317 160.799 360.203 150.696 355.204C148.864 354.304 147.103 353.247 145.386 352.162C141.446 349.648 138.949 346.22 137.737 341.635C131.17 316.854 125.355 291.902 120.549 266.735C117.518 250.881 114.964 234.927 112.438 218.973C110.807 208.775 109.638 198.505 108.267 188.264C108.224 187.879 108.224 187.507 108.195 186.779ZM326.315 231.113C326.084 231.07 325.868 231.042 325.637 230.999C325.392 231.342 325.031 231.67 324.915 232.056C323.948 235.37 322.866 238.655 322.116 242.011C319.907 251.838 317.887 261.693 315.679 271.52C315.376 272.877 314.986 275.133 313.182 274.705C311.364 274.276 312.158 272.205 312.432 270.763C313.615 264.393 314.856 258.051 315.996 251.666C316.242 250.338 316.242 248.938 316.17 247.582C316.112 246.582 315.636 246.025 314.438 246.61C313.038 247.282 312.057 246.567 312.518 245.111C312.865 243.982 313.716 242.982 314.467 241.997C316.559 239.24 316.631 236.069 316.444 232.87C316.415 232.37 315.693 231.57 315.246 231.542C314.669 231.499 313.745 231.942 313.5 232.427C313.096 233.241 312.995 234.255 312.995 235.184C312.98 237.255 310.931 239.369 308.824 239.355C307.078 239.355 305.938 238.083 306.024 236.041C306.053 235.298 306.472 234.57 306.789 233.856C307.496 232.27 306.804 231.042 305.072 231.085C304.321 231.099 303.398 231.27 302.835 231.727C300.584 233.513 298.26 235.255 296.326 237.341C293.7 240.154 290.727 241.983 286.859 242.582C284.752 242.911 282.4 243.311 280.74 244.496C277.652 246.71 274.462 247.81 270.681 248.039C268.949 248.139 266.77 249.081 265.731 250.367C262.715 254.123 259.035 255.88 254.258 255.851C252.468 255.837 250.794 256.466 249.827 258.294C247.793 262.179 242.005 263.507 238.527 260.822C237.719 260.193 237.055 259.094 236.796 258.094C236.19 255.794 234.876 254.709 232.553 255.294C231.398 255.594 230.359 256.394 229.277 256.994C227.386 258.037 225.626 259.479 223.62 260.065C218.15 261.679 212.666 261.507 207.355 259.179C204.021 257.708 200.731 257.68 197.441 259.422C194.251 261.108 191.062 261.065 188.089 258.936C184.495 256.366 180.469 255.537 176.139 255.394C172.777 255.28 169.4 254.98 166.066 254.523C161.953 253.966 158.648 251.638 155.271 249.41C152.674 247.696 149.845 246.196 146.915 245.111C144.78 244.311 143.452 245.625 143.221 247.924C143.149 248.681 143.062 249.51 142.701 250.167C141.749 251.924 142.052 253.466 142.875 255.194C143.755 257.065 144.433 259.065 144.837 261.093C144.982 261.793 144.188 263.136 143.524 263.379C142.932 263.593 141.821 262.793 141.157 262.207C140.652 261.765 140.378 260.979 140.205 260.308C139.498 257.665 138.805 255.009 138.228 252.323C138.098 251.709 138.531 250.995 138.617 250.31C138.733 249.453 139.137 248.224 138.733 247.781C136.597 245.468 136.178 242.54 135.24 239.769C134.706 238.198 133.667 236.798 132.859 235.312C132.599 235.398 132.339 235.47 132.08 235.555C131.979 236.284 131.733 237.026 131.82 237.726C132.253 241.226 132.758 244.711 133.278 248.21C133.696 250.981 134.244 253.752 134.576 256.537C134.649 257.165 134.014 257.865 133.71 258.537C133.047 258.108 132.065 257.822 131.791 257.223C130.867 255.137 130.03 252.995 129.482 250.795C128.226 245.782 127.202 240.726 125.975 235.698C125.73 234.698 124.994 233.813 124.489 232.87C124.243 232.956 124.012 233.041 123.767 233.127C123.767 233.998 123.637 234.898 123.781 235.755C125.961 247.596 127.967 259.465 130.434 271.234C132.758 282.375 135.572 293.401 138.155 304.485C138.646 306.599 139.858 308.17 141.446 309.684C144.015 312.141 146.266 314.926 148.647 317.582C148.503 317.768 148.373 317.94 148.229 318.125C147.81 318.182 147.218 318.439 146.988 318.268C144.274 316.068 141.619 313.812 139.021 311.626C140.45 314.426 141.316 317.754 144 320.053C150.653 325.795 158.547 329.295 166.773 332.051C184.495 337.964 202.867 339.85 221.426 340.25C232.206 340.478 242.972 339.807 253.681 338.45C265.442 336.979 277.017 334.779 288.1 330.509C294.032 328.223 299.761 325.552 304.826 321.682C308.03 319.239 310.123 316.097 310.541 311.455C308.752 313.469 307.28 315.126 305.808 316.783C305.505 316.583 305.202 316.368 304.899 316.168C306.154 313.783 307.034 311.084 308.766 309.084C310.484 307.099 311.638 305.085 312.201 302.614C313.745 295.929 315.477 289.274 316.848 282.546C319.965 267.178 322.938 251.766 325.897 236.369C326.286 234.641 326.2 232.856 326.315 231.113ZM198.335 363.131C206.085 365.616 245.137 365.93 248.182 363.259C245.411 362.888 245.455 362.888 245.859 360.16C246.436 356.089 246.883 351.99 247.547 347.934C247.677 347.134 248.485 346.263 249.207 345.791C250.246 345.134 251.502 344.82 252.656 344.363C252.627 344.206 252.598 344.049 252.569 343.892C233.823 345.434 215.076 345.534 196.3 343.963C197.859 344.606 199.533 344.82 200.991 345.477C202.073 345.977 203.415 346.92 203.704 347.92C205.075 352.662 206.128 357.489 207.37 362.645C204.685 364.031 201.453 362.731 198.335 363.131ZM141.98 319.239C140.234 319.454 138.92 321.253 139.728 323.067C140.609 325.038 142.139 326.709 143.365 328.523C143.813 329.195 144.404 329.837 144.606 330.58C145.948 335.565 147.276 340.55 148.46 345.563C148.95 347.634 150.004 349.248 151.851 350.133C155.56 351.947 159.37 353.59 163.151 355.232C163.728 355.49 164.45 355.418 165.056 355.49C163.555 349.262 162.112 343.306 160.568 336.979C162.877 337.664 164.637 338.193 166.413 338.707C168.188 339.207 169.963 339.721 171.752 340.178C173.542 340.635 175.331 341.078 177.15 341.392C178.881 341.692 180.642 341.806 182.403 342.006C182.432 341.835 182.461 341.678 182.489 341.506C182.143 341.378 181.811 341.207 181.45 341.107C177.381 340.035 173.268 339.093 169.227 337.893C161.246 335.536 153.395 332.837 146.468 328.066C143.51 326.038 140.768 323.81 142.139 319.568C142.153 319.482 142.038 319.354 141.98 319.239ZM119.452 199.733C122.483 200.962 125.124 202.133 127.837 203.133C138.646 207.104 149.787 209.832 161.188 211.317C172.503 212.802 183.86 214.116 195.247 215.073C207.701 216.116 220.214 216.416 232.726 215.63C236.132 215.416 239.523 215.088 242.929 214.816C242.929 214.616 242.915 214.431 242.915 214.231C240.952 214.231 238.975 214.216 237.012 214.231C215.826 214.359 194.713 213.274 173.643 211.003C159.226 209.46 145.01 206.932 131.272 202.247C126.249 200.533 121.011 199.134 116.926 195.42C116.681 195.191 116.162 195.249 115.772 195.163C115.656 195.306 115.527 195.449 115.411 195.591C115.988 196.406 116.58 197.22 117.114 198.062C117.446 198.577 117.836 199.134 117.937 199.719C119.337 207.632 120.65 215.545 122.079 223.443C122.237 224.343 122.93 225.157 123.377 226.014C123.68 225.914 123.984 225.814 124.272 225.714C123.406 217.102 121.545 208.618 119.452 199.733ZM286.845 355.247C287.667 355.061 288.331 355.032 288.894 354.775C292.473 353.133 296.11 351.562 299.544 349.662C300.728 349.005 301.81 347.591 302.229 346.291C303.6 342.006 304.711 337.636 305.808 333.279C306.385 330.98 306.948 328.795 308.968 327.181C310.094 326.281 310.628 324.952 310.022 323.753C306.688 326.138 303.614 328.737 300.179 330.694C296.543 332.765 292.56 334.236 288.735 335.979C287.884 336.365 287.032 336.779 286.181 337.193C286.224 337.293 286.267 337.393 286.311 337.479C287.826 337.35 289.356 337.222 290.842 337.107C289.486 343.249 288.201 349.076 286.845 355.247ZM334.022 195.92C333.906 195.777 333.776 195.62 333.661 195.477C320.615 204.333 305.072 205.775 290.496 210.174C303.86 209.16 316.747 206.289 329.23 200.676C329.187 201.447 329.216 202.019 329.115 202.562C327.874 209.317 326.604 216.059 325.406 222.815C325.247 223.672 325.392 224.572 325.392 225.457C325.709 225.514 326.026 225.557 326.344 225.614C326.806 224.529 327.455 223.472 327.686 222.343C328.797 216.773 329.735 211.16 330.876 205.59C331.482 202.619 331.005 199.262 333.762 196.963C333.993 196.777 333.949 196.277 334.022 195.92ZM250.159 255.166C250.087 254.894 250.015 254.623 249.928 254.352C248.096 253.266 246.032 253.752 244.069 253.809C242.756 253.852 241.558 254.594 241.731 255.923C241.904 257.265 243.29 258.08 244.589 257.665C246.508 257.065 248.298 256.023 250.159 255.166ZM265.212 341.921C269.267 343.178 277.06 341.407 278.893 338.793C273.986 339.921 269.599 340.921 265.212 341.921ZM276.569 211.731C276.584 211.931 276.613 212.117 276.627 212.317C280.408 212.003 284.247 212.074 287.884 210.817C287.84 210.531 287.797 210.26 287.768 209.974C284.03 210.574 280.307 211.16 276.569 211.731ZM255.355 214.074C252.988 212.817 250.693 213.088 249.539 214.673C251.256 215.93 252.974 215.788 255.355 214.074ZM263.393 213.702C265.37 214.688 266.943 214.402 268.502 213.259C266.972 211.703 265.212 211.803 263.393 213.702ZM299.083 214.245C300.439 215.845 301.363 216.045 302.229 215.088C302.445 214.845 302.171 214.174 302.113 213.702C301.247 213.859 300.367 214.002 299.083 214.245Z" fill="#FFFCF7"/>
<path d="M216.461 164.397C209.477 163.94 202.492 163.355 195.492 163.069C192.923 162.969 190.6 162.426 188.233 161.512C182.042 159.113 175.605 157.856 168.952 157.399C166.124 157.213 163.324 156.085 160.611 155.113C154.723 152.985 149.311 150.057 144.823 145.615C137.52 138.388 137.059 127.519 143.697 119.677C146.713 116.107 150.408 113.393 154.377 110.993C155.791 110.136 156.844 109.122 156.469 107.365C154.795 99.5811 159.774 91.3684 167.192 87.7548C176.673 83.1271 187.512 84.7268 194.554 92.0111C195.68 93.1823 196.546 94.6106 197.469 95.9532C198.321 97.1958 199.23 97.6672 200.919 97.4815C208.524 96.6531 216.173 96.0389 223.793 95.4105C225.077 95.3105 226.015 95.1105 226.448 93.6394C230.143 80.8418 244.733 74.9572 256.509 81.4274C261.676 84.2697 264.88 88.5832 266.438 94.0822C267.16 96.5817 268.459 97.7957 271.1 98.3528C279.672 100.124 286.311 104.609 289.803 112.836C293.108 120.591 291.881 127.961 287.176 134.803C282.688 141.33 276.483 145.972 269.628 149.829C268.906 150.229 267.997 150.329 267.174 150.529C260.406 152.157 254.171 154.799 248.933 159.498C248.384 159.984 247.576 160.27 246.826 160.455C236.897 162.955 226.78 164.354 216.461 164.397ZM269.238 115.207C265.861 118.62 261.373 121.077 256.538 122.877C242.929 127.933 228.685 129.932 214.282 130.618C206.576 130.989 198.826 130.704 191.105 130.318C183.904 129.961 176.832 128.618 170.078 125.976C169.472 125.733 168.823 125.476 168.375 125.048C166.744 123.534 164.782 123.491 163.411 125.205C162.992 125.733 162.617 126.79 162.877 127.247C163.209 127.819 164.161 128.104 164.912 128.361C165.676 128.618 166.528 128.618 167.278 128.89C168.447 129.304 169.559 129.918 170.742 130.318C181.292 133.96 192.231 135.117 203.314 135.017C210.039 134.946 216.779 134.389 223.504 133.946C234.689 133.218 245.584 131.004 256.134 127.233C262.34 125.019 268.17 122.191 272.557 117.049C272.831 116.721 273.279 116.478 273.697 116.364C275.112 115.992 275.184 114.964 274.491 114.135C273.741 113.236 272.673 112.422 271.576 112.064C270.811 111.822 269.671 112.236 268.92 112.707C268.617 112.864 269.065 114.093 269.238 115.207ZM186.343 101.552C186.314 101.424 186.27 101.295 186.242 101.181C181.84 101.938 177.409 102.552 173.065 103.523C170.064 104.195 167.163 105.323 164.262 106.38C163.728 106.58 163.411 107.365 163.007 107.88C163.613 108.194 164.204 108.751 164.811 108.765C166.052 108.794 167.307 108.594 168.534 108.379C169.602 108.194 170.237 108.437 170.713 109.479C172.315 112.979 175.259 114.578 178.982 114.992C184.279 115.578 189.503 112.25 189.821 107.808C189.965 105.78 190.542 104.894 192.649 104.852C193.313 104.837 193.948 103.923 194.612 103.423C193.963 102.98 193.356 102.252 192.649 102.138C190.557 101.795 188.45 101.724 186.343 101.552ZM250.535 106.708C255.903 106.737 259.612 103.823 259.843 99.5811C259.93 97.9528 260.305 97.1816 262.109 97.353C262.614 97.3958 263.624 96.6388 263.624 96.2246C263.638 95.6104 263.133 94.7106 262.571 94.4107C261.806 93.9965 260.795 93.9536 259.886 93.8822C252.252 93.2966 244.921 94.6392 237.921 97.6529C236.796 98.1385 234.905 98.4956 235.497 100.124C236.045 101.666 237.777 100.967 238.989 100.638C240.331 100.281 241.168 100.495 241.89 101.781C243.867 105.294 247.201 106.466 250.535 106.708ZM227.891 111.936C227.603 110.179 226.246 108.679 225.005 108.794C223.605 108.922 222.681 109.736 222.58 111.165C222.494 112.379 224.11 114.007 225.279 113.693C226.246 113.421 227.04 112.536 227.891 111.936ZM214.499 114.693C215.956 114.564 216.88 113.907 216.894 112.379C216.909 110.736 215.855 110.008 214.383 109.965C212.926 109.922 212.016 110.722 212.016 112.25C212.031 113.85 212.998 114.55 214.499 114.693Z" fill="#FFFCF7"/>
<path d="M133.913 162.94C132.816 166.425 130.738 168.282 127.519 169.396C124.691 170.382 122.006 171.924 119.495 173.567C115.887 175.938 115.844 179.837 119.178 182.622C124.099 186.736 130.045 188.778 136.106 190.407C149.946 194.149 164.003 196.805 178.319 198.091C196.127 199.676 213.965 200.39 231.846 199.919C249.957 199.448 268.055 198.648 285.979 195.748C297.51 193.877 309.055 192.035 320.066 188.036C323.429 186.807 326.791 185.208 329.649 183.108C333.214 180.494 332.983 176.923 329.36 174.295C327.037 172.61 324.425 171.267 321.798 170.082C320.081 169.311 318.767 168.654 319.316 166.468C319.46 165.926 319.33 165.311 319.33 164.24C323.328 165.754 327.196 167.011 330.861 168.682C333.358 169.825 335.782 171.282 337.875 173.039C342.738 177.123 342.594 182.037 337.312 185.565C333.502 188.093 329.36 190.25 325.132 191.978C315.823 195.777 306.024 198.077 296.066 199.448C283.381 201.19 270.652 202.761 257.895 203.875C236.709 205.732 215.48 205.661 194.251 204.375C176.616 203.304 159.11 201.262 141.893 197.177C132.238 194.891 122.786 192.021 114.242 186.807C112.684 185.85 111.183 184.708 109.884 183.437C106.651 180.266 106.478 176.466 109.869 173.453C112.438 171.182 115.454 169.254 118.543 167.74C123.363 165.426 128.472 163.883 133.913 162.94Z" fill="#FFFCF7"/>
<path d="M293.31 175.924C291.795 175.924 290.265 175.952 288.75 175.909C287.884 175.895 286.772 176.195 286.744 174.724C286.152 174.738 285.257 174.524 285.041 174.81C284.305 175.795 283.742 176.923 283.251 178.052C282.385 180.023 281.75 182.108 280.769 184.022C279.6 186.265 277.695 187.579 274.996 187.407C272.658 187.264 271.042 185.936 271.345 183.694C271.691 181.094 272.687 178.552 273.467 176.024C273.741 175.152 274.361 174.395 274.592 173.524C274.736 173.01 274.635 172.082 274.304 171.867C273.899 171.61 272.904 171.682 272.557 172.01C271.634 172.91 270.768 173.953 270.162 175.081C268.978 177.266 268.026 179.566 266.886 181.78C265.356 184.793 263.032 186.336 260.608 186.065C257.043 185.65 255.138 182.794 256.452 179.166C257.577 176.052 259.28 173.153 260.637 170.11C260.969 169.382 260.94 168.482 261.084 167.668C260.218 167.882 259.006 167.825 258.544 168.382C256.798 170.482 255.239 172.739 253.71 175.01C252.988 176.095 252.57 177.381 251.877 178.48C250.232 181.066 247.547 181.994 245.282 180.88C242.987 179.751 242.164 177.166 243.405 174.253C246.826 166.225 252.598 160.384 260.752 157.113C274.563 151.585 288.692 150.714 302.979 155.142C306.717 156.299 310.166 158.098 312.692 161.269C316.3 165.811 315.347 170.31 310.08 172.839C305.49 175.038 300.584 175.995 295.489 175.952C294.768 175.952 294.032 175.952 293.31 175.952C293.31 175.952 293.31 175.938 293.31 175.924Z" fill="#FFFCF7"/>
<path d="M172.791 194.463C170.121 194.563 167.971 193.406 166.47 191.049C165.244 189.107 163.988 187.193 162.776 185.236C161.852 183.765 161.145 183.065 158.923 183.708C156.094 184.522 152.876 184.336 149.859 184.122C145.501 183.822 141.2 183.122 137.535 180.38C133.97 177.709 133.335 174.024 135.976 170.453C138.444 167.125 142.11 165.526 145.833 164.197C154.997 160.926 164.479 160.741 174.004 162.026C181.061 162.983 187.8 164.997 193.573 169.411C197.599 172.496 201.005 176.095 203.083 180.78C204.339 183.608 203.892 185.95 201.813 187.236C199.663 188.564 196.719 187.936 194.987 185.565C193.414 183.394 192.187 180.98 190.571 178.837C189.445 177.338 188.017 176.024 186.588 174.781C186.141 174.395 185.246 174.538 184.553 174.452C184.611 175.167 184.423 175.995 184.741 176.552C186.675 179.88 188.782 183.108 190.701 186.436C191.163 187.236 191.35 188.336 191.264 189.264C190.903 192.649 186.646 194.334 183.586 192.178C182.302 191.278 181.364 189.807 180.426 188.493C178.795 186.207 177.308 183.808 175.692 181.508C175.259 180.88 174.624 180.223 173.946 179.98C173.268 179.737 172.416 180.009 171.637 180.066C171.767 180.694 171.723 181.408 172.026 181.951C173.426 184.393 175.057 186.707 176.313 189.221C177.814 192.149 176.24 194.449 172.791 194.463Z" fill="#FFFCF7"/>
<path d="M324.901 173.624C325.031 173.638 325.189 173.61 325.276 173.681C327.282 175.038 329.735 176.238 329.663 179.052C329.591 181.822 327.224 182.908 325.045 183.893C322.592 185.008 320.095 186.036 317.598 187.064C317.209 187.221 316.761 187.207 315.679 187.364C316.444 186.393 316.819 185.865 317.252 185.379C318.623 183.836 318.551 183.565 316.588 182.951C316.285 182.865 316.011 182.694 315.722 182.565C315.665 182.365 315.607 182.165 315.549 181.965C316.603 181.551 317.627 180.923 318.724 180.766C322.548 180.208 324.742 177.795 324.728 173.91C324.728 173.838 324.843 173.724 324.901 173.624Z" fill="#FFFCF7"/>
<path d="M123.493 173.467C122.8 177.895 122.858 178.038 126.264 180.095C125.485 181.866 126.163 182.751 128.097 183.308C129.15 183.608 129.944 184.837 130.694 186.079C130.233 186.051 129.727 186.151 129.338 185.979C127.317 185.079 125.225 184.265 123.334 183.137C117.792 179.852 117.821 176.867 123.493 173.467Z" fill="#FFFCF7"/>
<path d="M129.525 171.311C129.684 173.582 129.843 175.71 130.03 178.266C129.453 177.638 128.962 177.252 128.645 176.738C128.27 176.138 128.125 175.41 127.765 174.796C126.394 172.525 126.783 171.768 129.525 171.311Z" fill="#FFFCF7"/>
<path d="M146.843 156.256C144.087 158.313 141.33 160.355 138.574 162.412C140.479 159.241 142.889 156.728 146.497 155.756C146.598 155.928 146.713 156.085 146.843 156.256Z" fill="#FFFCF7"/>
<path d="M316.819 173.524C318.248 170.925 318.45 170.882 320.283 171.882C321.481 172.539 321.856 173.667 321.062 174.424C319.46 175.895 318.262 174.167 316.819 173.524Z" fill="#FFFCF7"/>
<path d="M297.914 180.38C299.573 180.194 301.233 180.009 303.268 179.78C301.68 181.794 299.487 182.151 297.914 180.38Z" fill="#FFFCF7"/>
<path d="M300.583 185.236C298.592 186.536 298.39 186.536 296.73 185.279C298.015 183.322 299.443 183.28 300.583 185.236Z" fill="#FFFCF7"/>
<path d="M326.315 231.114C326.2 232.856 326.286 234.641 325.954 236.341C322.981 251.738 320.023 267.15 316.906 282.518C315.535 289.245 313.803 295.887 312.259 302.586C311.696 305.057 310.527 307.071 308.824 309.056C307.107 311.041 306.212 313.741 304.956 316.14C305.259 316.34 305.562 316.554 305.865 316.754C307.337 315.098 308.81 313.441 310.599 311.427C310.181 316.069 308.088 319.211 304.884 321.653C299.819 325.524 294.075 328.195 288.158 330.48C277.074 334.751 265.486 336.936 253.738 338.422C243.016 339.764 232.264 340.45 221.484 340.221C202.925 339.821 184.539 337.95 166.831 332.023C158.605 329.266 150.711 325.767 144.058 320.025C141.388 317.711 140.508 314.383 139.079 311.598C141.677 313.784 144.332 316.04 147.045 318.24C147.276 318.425 147.853 318.154 148.286 318.097C148.431 317.911 148.561 317.74 148.705 317.554C146.324 314.912 144.072 312.127 141.503 309.656C139.916 308.142 138.704 306.571 138.213 304.457C135.615 293.373 132.816 282.347 130.492 271.206C128.024 259.422 126.018 247.553 123.839 235.727C123.68 234.884 123.825 233.97 123.825 233.099C124.07 233.013 124.301 232.927 124.546 232.842C125.051 233.784 125.787 234.67 126.033 235.67C127.259 240.683 128.284 245.754 129.54 250.767C130.088 252.967 130.94 255.109 131.849 257.194C132.108 257.794 133.104 258.08 133.768 258.508C134.071 257.837 134.706 257.137 134.634 256.509C134.302 253.724 133.754 250.967 133.335 248.182C132.816 244.697 132.311 241.197 131.878 237.698C131.791 236.998 132.051 236.241 132.137 235.527C132.397 235.441 132.657 235.37 132.917 235.284C133.725 236.77 134.764 238.169 135.298 239.74C136.236 242.511 136.654 245.439 138.79 247.753C139.194 248.196 138.79 249.424 138.675 250.281C138.588 250.967 138.155 251.681 138.285 252.295C138.848 254.98 139.541 257.637 140.262 260.279C140.45 260.965 140.724 261.751 141.215 262.179C141.879 262.765 142.99 263.564 143.582 263.35C144.245 263.107 145.025 261.765 144.895 261.065C144.491 259.051 143.813 257.037 142.932 255.166C142.11 253.438 141.792 251.895 142.759 250.138C143.12 249.481 143.206 248.653 143.279 247.896C143.509 245.611 144.837 244.297 146.973 245.082C149.888 246.168 152.731 247.668 155.329 249.381C158.706 251.61 161.996 253.938 166.124 254.495C169.458 254.938 172.835 255.252 176.197 255.366C180.527 255.509 184.553 256.337 188.147 258.908C191.105 261.036 194.309 261.079 197.498 259.394C200.789 257.651 204.065 257.694 207.413 259.151C212.724 261.479 218.208 261.651 223.677 260.037C225.698 259.437 227.458 258.008 229.334 256.966C230.417 256.366 231.441 255.566 232.61 255.266C234.934 254.666 236.247 255.766 236.853 258.066C237.113 259.065 237.777 260.165 238.585 260.794C242.049 263.493 247.85 262.165 249.885 258.266C250.838 256.437 252.512 255.809 254.316 255.823C259.093 255.852 262.773 254.095 265.789 250.338C266.828 249.039 269.021 248.11 270.739 248.01C274.52 247.782 277.709 246.668 280.798 244.468C282.443 243.283 284.81 242.883 286.917 242.554C290.784 241.954 293.757 240.126 296.384 237.312C298.332 235.227 300.656 233.485 302.893 231.699C303.455 231.256 304.365 231.071 305.129 231.056C306.876 231.014 307.568 232.242 306.847 233.827C306.529 234.527 306.111 235.27 306.082 236.013C305.981 238.069 307.121 239.326 308.882 239.326C311.003 239.341 313.052 237.212 313.052 235.156C313.052 234.227 313.153 233.213 313.558 232.399C313.803 231.913 314.726 231.471 315.304 231.513C315.751 231.542 316.473 232.356 316.502 232.842C316.689 236.041 316.617 239.226 314.524 241.969C313.774 242.94 312.923 243.954 312.576 245.082C312.114 246.539 313.11 247.268 314.496 246.582C315.693 245.996 316.184 246.553 316.227 247.553C316.3 248.91 316.285 250.31 316.054 251.638C314.914 258.008 313.673 264.364 312.49 270.735C312.215 272.177 311.422 274.248 313.24 274.677C315.044 275.105 315.434 272.863 315.737 271.492C317.93 261.665 319.965 251.81 322.173 241.983C322.924 238.626 324.006 235.327 324.973 232.028C325.088 231.642 325.449 231.328 325.695 230.971C325.868 231.042 326.084 231.071 326.315 231.114ZM140.84 282.29C141.561 282.204 142.182 282.304 142.398 282.061C142.903 281.475 143.625 280.647 143.509 280.033C143.351 279.133 142.615 278.276 141.965 277.548C141.85 277.419 140.551 277.89 140.436 278.276C139.714 280.604 138.112 282.832 139.44 285.446C139.887 286.317 140.147 287.289 140.652 288.103C140.97 288.603 141.59 288.903 142.081 289.288C142.153 288.703 142.384 288.088 142.268 287.546C141.879 285.832 141.345 284.118 140.84 282.29ZM133.119 266.093C133.508 267.349 133.855 268.435 134.187 269.506C134.562 269.349 134.937 269.178 135.327 269.021C134.894 268.049 134.475 267.064 134.028 266.093C134.013 266.078 133.912 266.093 133.119 266.093Z" fill="#2E1A14"/>
<path d="M198.335 363.131C201.438 362.731 204.685 364.031 207.384 362.66C206.143 357.518 205.089 352.676 203.718 347.934C203.43 346.92 202.088 345.977 201.005 345.492C199.548 344.82 197.874 344.62 196.315 343.978C215.076 345.549 233.823 345.463 252.584 343.906C252.613 344.063 252.642 344.22 252.671 344.378C251.516 344.835 250.246 345.149 249.221 345.806C248.485 346.277 247.692 347.148 247.562 347.948C246.883 352.005 246.45 356.104 245.873 360.175C245.484 362.903 245.426 362.903 248.197 363.274C245.152 365.931 206.085 365.616 198.335 363.131Z" fill="#2E1A14"/>
<path d="M141.98 319.239C142.037 319.354 142.153 319.496 142.124 319.582C140.753 323.824 143.51 326.052 146.454 328.08C153.366 332.851 161.217 335.55 169.212 337.907C173.253 339.093 177.366 340.05 181.436 341.121C181.797 341.221 182.129 341.378 182.475 341.521C182.446 341.692 182.417 341.849 182.388 342.021C180.642 341.821 178.867 341.706 177.135 341.406C175.317 341.092 173.527 340.635 171.738 340.192C169.948 339.735 168.173 339.235 166.398 338.721C164.623 338.221 162.877 337.679 160.553 336.993C162.083 343.32 163.526 349.276 165.042 355.504C164.435 355.432 163.714 355.504 163.137 355.247C159.341 353.59 155.545 351.947 151.837 350.148C149.989 349.248 148.936 347.648 148.445 345.577C147.262 340.564 145.934 335.565 144.592 330.594C144.39 329.852 143.798 329.209 143.351 328.537C142.124 326.724 140.594 325.038 139.714 323.081C138.92 321.253 140.234 319.454 141.98 319.239Z" fill="#2E1A14"/>
<path d="M119.452 199.734C121.53 208.618 123.406 217.087 124.287 225.729C123.984 225.829 123.68 225.929 123.392 226.029C122.944 225.172 122.252 224.357 122.093 223.458C120.664 215.559 119.351 207.632 117.951 199.734C117.85 199.148 117.46 198.605 117.128 198.077C116.595 197.234 115.988 196.434 115.426 195.606C115.541 195.463 115.671 195.32 115.786 195.177C116.176 195.263 116.681 195.206 116.941 195.434C121.025 199.148 126.264 200.548 131.286 202.262C145.025 206.946 159.24 209.475 173.657 211.017C194.713 213.274 215.841 214.359 237.027 214.245C238.989 214.231 240.966 214.245 242.929 214.245C242.929 214.445 242.944 214.631 242.944 214.831C239.538 215.102 236.146 215.431 232.74 215.645C220.243 216.43 207.73 216.13 195.261 215.088C183.889 214.131 172.532 212.817 161.203 211.331C149.802 209.832 138.66 207.118 127.851 203.147C125.124 202.133 122.483 200.976 119.452 199.734Z" fill="#2E1A14"/>
<path d="M286.845 355.247C288.201 349.077 289.486 343.249 290.842 337.108C289.341 337.236 287.826 337.365 286.311 337.479C286.267 337.379 286.224 337.279 286.181 337.193C287.032 336.793 287.884 336.379 288.735 335.979C292.559 334.237 296.543 332.765 300.179 330.694C303.614 328.738 306.688 326.138 310.022 323.753C310.628 324.953 310.079 326.281 308.968 327.181C306.948 328.795 306.385 330.98 305.808 333.28C304.711 337.65 303.6 342.021 302.229 346.291C301.81 347.591 300.728 349.005 299.544 349.662C296.11 351.562 292.473 353.119 288.894 354.776C288.331 355.033 287.653 355.076 286.845 355.247Z" fill="#2E1A14"/>
<path d="M334.022 195.92C333.95 196.277 333.993 196.777 333.762 196.948C330.991 199.234 331.482 202.604 330.876 205.575C329.735 211.146 328.797 216.759 327.686 222.329C327.455 223.458 326.806 224.515 326.344 225.6C326.027 225.543 325.709 225.5 325.392 225.443C325.392 224.557 325.262 223.658 325.406 222.801C326.618 216.045 327.888 209.303 329.115 202.547C329.216 202.005 329.187 201.433 329.23 200.662C316.747 206.275 303.86 209.146 290.496 210.16C305.072 205.775 320.615 204.333 333.661 195.463C333.776 195.62 333.906 195.777 334.022 195.92Z" fill="#2E1A14"/>
<path d="M250.159 255.166C248.312 256.023 246.522 257.065 244.589 257.665C243.29 258.079 241.904 257.265 241.731 255.923C241.558 254.594 242.77 253.852 244.069 253.809C246.046 253.752 248.096 253.266 249.928 254.352C250 254.623 250.073 254.894 250.159 255.166Z" fill="#2E1A14"/>
<path d="M265.212 341.921C269.599 340.921 273.986 339.921 278.893 338.793C277.074 341.407 269.267 343.178 265.212 341.921Z" fill="#2E1A14"/>
<path d="M276.569 211.731C280.293 211.146 284.031 210.56 287.754 209.989C287.797 210.274 287.84 210.546 287.869 210.831C284.233 212.088 280.394 212.017 276.613 212.331C276.613 212.131 276.598 211.931 276.569 211.731Z" fill="#2E1A14"/>
<path d="M255.355 214.074C252.974 215.788 251.256 215.93 249.539 214.673C250.693 213.088 252.988 212.817 255.355 214.074Z" fill="#2E1A14"/>
<path d="M263.393 213.702C265.211 211.817 266.972 211.703 268.502 213.26C266.943 214.402 265.385 214.688 263.393 213.702Z" fill="#2E1A14"/>
<path d="M299.083 214.245C300.381 214.016 301.247 213.859 302.128 213.702C302.185 214.173 302.46 214.845 302.243 215.088C301.348 216.045 300.425 215.845 299.083 214.245Z" fill="#2E1A14"/>
<path d="M269.238 115.207C269.05 114.093 268.617 112.85 268.877 112.693C269.628 112.222 270.782 111.793 271.533 112.05C272.629 112.407 273.697 113.236 274.448 114.121C275.141 114.95 275.083 115.978 273.654 116.35C273.236 116.464 272.788 116.707 272.514 117.035C268.141 122.177 262.296 125.005 256.091 127.219C245.541 130.99 234.645 133.189 223.461 133.932C216.736 134.375 210.011 134.946 203.271 135.003C192.202 135.117 181.248 133.946 170.699 130.304C169.515 129.904 168.419 129.29 167.235 128.876C166.485 128.604 165.619 128.604 164.868 128.347C164.132 128.09 163.165 127.805 162.833 127.233C162.574 126.776 162.949 125.719 163.367 125.191C164.738 123.477 166.701 123.505 168.332 125.034C168.794 125.462 169.443 125.733 170.035 125.962C176.789 128.604 183.875 129.947 191.062 130.304C198.826 130.704 206.576 130.99 214.282 130.633C228.685 129.947 242.915 127.947 256.538 122.891C261.387 121.092 265.861 118.635 269.238 115.207Z" fill="#2E1A14"/>
<path d="M186.343 101.552C188.45 101.724 190.557 101.795 192.649 102.123C193.356 102.238 193.962 102.966 194.612 103.409C193.962 103.909 193.313 104.823 192.649 104.837C190.542 104.894 189.965 105.766 189.821 107.794C189.503 112.236 184.293 115.578 178.982 114.978C175.259 114.564 172.301 112.964 170.713 109.465C170.237 108.422 169.602 108.179 168.534 108.365C167.307 108.579 166.052 108.779 164.811 108.751C164.204 108.736 163.613 108.179 163.007 107.865C163.425 107.351 163.728 106.551 164.262 106.366C167.163 105.309 170.064 104.18 173.065 103.509C177.409 102.538 181.84 101.924 186.242 101.167C186.27 101.309 186.314 101.424 186.343 101.552ZM176.688 105.551C175.721 106.508 175.057 107.165 174.408 107.808C175.144 108.451 175.894 109.608 176.601 109.593C177.308 109.579 178.189 108.465 178.578 107.637C178.723 107.365 177.583 106.494 176.688 105.551Z" fill="#2E1A14"/>
<path d="M250.535 106.709C247.201 106.466 243.867 105.295 241.905 101.781C241.183 100.481 240.346 100.267 239.004 100.638C237.792 100.967 236.06 101.667 235.511 100.124C234.934 98.4959 236.81 98.1389 237.936 97.6532C244.95 94.6395 252.267 93.3112 259.901 93.8825C260.81 93.954 261.82 93.9968 262.585 94.411C263.134 94.711 263.653 95.6108 263.639 96.2249C263.624 96.6392 262.614 97.3962 262.123 97.3533C260.305 97.1819 259.944 97.9675 259.858 99.5815C259.612 103.823 255.889 106.737 250.535 106.709ZM249.409 99.9242C249.38 99.6529 249.366 99.3815 249.337 99.1244C248.702 98.7959 247.98 98.096 247.446 98.2103C246.624 98.3817 245.931 99.1244 245.181 99.6243C245.873 100.196 246.523 101.153 247.273 101.238C247.923 101.31 248.687 100.396 249.409 99.9242Z" fill="#2E1A14"/>
<path d="M227.891 111.936C227.025 112.536 226.232 113.422 225.279 113.679C224.11 113.993 222.479 112.379 222.58 111.151C222.681 109.737 223.605 108.922 225.005 108.78C226.246 108.68 227.603 110.179 227.891 111.936Z" fill="#2E1A14"/>
<path d="M214.499 114.693C212.984 114.55 212.017 113.85 212.017 112.25C212.017 110.736 212.926 109.922 214.383 109.965C215.855 110.008 216.909 110.751 216.894 112.379C216.88 113.907 215.956 114.564 214.499 114.693Z" fill="#2E1A14"/>
<path d="M140.84 282.289C141.345 284.118 141.879 285.817 142.283 287.56C142.413 288.102 142.167 288.717 142.095 289.302C141.605 288.917 140.97 288.602 140.667 288.117C140.161 287.303 139.887 286.331 139.454 285.46C138.127 282.846 139.728 280.604 140.45 278.29C140.566 277.904 141.864 277.433 141.98 277.562C142.629 278.29 143.365 279.133 143.524 280.047C143.625 280.647 142.918 281.475 142.413 282.075C142.182 282.304 141.561 282.204 140.84 282.289Z" fill="#FFFCF7"/>
<path d="M133.119 266.092C133.912 266.092 134.013 266.078 134.028 266.092C134.461 267.064 134.894 268.049 135.327 269.02C134.951 269.177 134.576 269.349 134.187 269.506C133.855 268.435 133.508 267.363 133.119 266.092Z" fill="#FFFCF7"/>
<path d="M176.688 105.551C177.568 106.494 178.708 107.365 178.578 107.637C178.189 108.465 177.308 109.579 176.601 109.593C175.88 109.608 175.129 108.451 174.408 107.808C175.072 107.165 175.721 106.508 176.688 105.551Z" fill="#FFFCF7"/>
<path d="M249.409 99.9242C248.702 100.396 247.937 101.31 247.287 101.238C246.537 101.153 245.888 100.196 245.195 99.6242C245.945 99.1243 246.638 98.3816 247.461 98.2102C247.995 98.096 248.716 98.7958 249.351 99.1243C249.366 99.3814 249.38 99.6528 249.409 99.9242Z" fill="#FFFCF7"/>
</g>
<defs>
<clipPath id="clip0_702_1173">
<rect width="243" height="300" fill="white" transform="translate(103 75)"/>
</clipPath>
</defs>
</svg>
