<svg id="Layer_1" data-name="Layer 1" xmlns="http://www.w3.org/2000/svg" viewBox="0 0 340.157 340.157"><defs><style>.cls-1{stroke:#000;stroke-miterlimit:10;stroke-width:0.75px;}.cls-2{fill:#fff;}.cls-3{fill:#2e1a14;}</style></defs><path class="cls-1" d="M113.848,119.858c-1.315-1.066-2.309-1.757-3.168-2.589-3-2.9-5.122-6.278-5.26-10.584a12.327,12.327,0,0,1,.409-3.783c.754-2.582,1.636-5.135,2.6-7.645,1.531-3.967,4.554-6.813,7.571-9.629a5.443,5.443,0,0,0,1.534-2.652c.841-2.828,1.332-5.8,3.231-8.26a17.52,17.52,0,0,1,10.459-6.445,19.452,19.452,0,0,1,8.459-.105,9.774,9.774,0,0,1,6.643,4.2c.832,1.308,1.881,2.477,2.72,3.562l17.536-3.279c.1-.286.3-.737.425-1.207a14.839,14.839,0,0,1,15.011-10.554,32.085,32.085,0,0,1,4.43.524,8.563,8.563,0,0,1,6.526,5.238c.647,1.495,1.333,2.974,2.068,4.606,2.111.26,4.275.667,6.454.761,2.893.126,5.346,1.433,7.752,2.733a20.492,20.492,0,0,1,11.069,15.528,24.329,24.329,0,0,1-.14,10.345,10.971,10.971,0,0,1-1.133,3.186,25.921,25.921,0,0,1-7.556,8.547c-1.344.9-2.621,1.9-3.987,2.9.287.233.423.418.6.478,3.161,1.071,6.341,2.036,9.75,1.733a17.318,17.318,0,0,0,6.024-1.176,9.674,9.674,0,0,0,2.347-1.422,29.653,29.653,0,0,0,5.185-6.538,31.8,31.8,0,0,1-2.926-7.74,5.208,5.208,0,0,1,.156-3.132c.744-2.026,1.78-2.8,3.887-2.382a23.83,23.83,0,0,1,4.046,1.619c.226-.4.531-1.016.9-1.589a13.258,13.258,0,0,1,1.57-2.257,3.649,3.649,0,0,1,6.06.93,18.728,18.728,0,0,1,.942,2.595c.156.456.282.922.486,1.6.523-.319.915-.549,1.3-.794a5.16,5.16,0,0,1,3.247-.8,4.329,4.329,0,0,1,3.909,5.615,2.56,2.56,0,0,1-.326.784c-2.783,3.8-3.784,8.38-5.536,12.623a23.428,23.428,0,0,1-3.85,6.8,19.932,19.932,0,0,0-1.22,1.743,19.688,19.688,0,0,0,3.219,1.488c3.936,1.024,5.512,3.915,6.25,7.539.142.7.233,1.4.392,2.095A5.476,5.476,0,0,1,252.3,140.7a4.6,4.6,0,0,0-1.143,1.965c-1.164,3.872-2.228,7.774-3.372,11.652-.883,2.993-1.871,5.954-2.742,8.95a83.61,83.61,0,0,0-2.195,8.214c-1.575,8.588-3.424,17.111-5.706,25.537a229.937,229.937,0,0,0-5.021,23.723c-.9,5.6-2.13,11.154-3.146,16.74-.7,3.837-1.276,7.7-1.926,11.544a17.213,17.213,0,0,1-.566,2.486,22.03,22.03,0,0,0-1.288,7.731,6.422,6.422,0,0,1-3.183,5.845,78.28,78.28,0,0,1-20.032,10.2,51.6,51.6,0,0,1-6.856,1.413c-1.115.206-2.29.163-3.37.472-3.18.909-6.483.685-9.706,1.177a54.844,54.844,0,0,1-5.5.554c-3.613.184-7.229.344-10.846.393-5.922.081-11.723-1.009-17.531-1.987-3.5-.589-7-1.189-10.484-1.838A20.344,20.344,0,0,1,127.1,270.35a8.089,8.089,0,0,0-2.876-1.732,7.592,7.592,0,0,1-5.176-4.912,43.759,43.759,0,0,1-1.668-4.806c-1.179-5.253-2.41-10.5-3.775-15.7a73.774,73.774,0,0,0-2.624-7.865,134.416,134.416,0,0,1-4.8-16.545,150.656,150.656,0,0,0-4.919-15.839c-1.051-2.863-2.215-5.693-3.1-8.608-1.088-3.6-1.908-7.272-2.9-10.9-1.064-3.9-2.191-7.779-3.292-11.667-.135-.478-.293-.95-.425-1.429-.6-2.183-1.232-4.357-1.774-6.554-.763-3.1-1.456-6.215-2.177-9.324-.594-2.556-1.264-5.1-1.754-7.675a41.9,41.9,0,0,1-.856-6.524,14.973,14.973,0,0,1,1.868-7.578,13.694,13.694,0,0,1,5.706-5.286c5.778-3.121,12.022-5.038,18.269-6.931C111.687,120.212,112.592,120.108,113.848,119.858Zm134.526,23.667c-.947.54-1.49.868-2.05,1.165-3.438,1.832-6.748,3.946-10.549,5-2.869.8-5.733,1.639-8.644,2.247-5.9,1.232-11.82,2.361-17.747,3.448-3.206.588-6.445,1-9.669,1.492-3.647.552-7.278,1.318-10.946,1.6-6.227.477-12.479.627-18.719.953-8.338.436-16.573-.717-24.834-1.516-4.167-.4-8.34-.749-12.515-1.071-2.329-.18-4.675-.166-7-.405a103.6,103.6,0,0,1-15.94-2.6,49.593,49.593,0,0,0-5.546-1.454,26.369,26.369,0,0,1-10.053-3.861c-1.624-.987-3.349-1.808-5.1-2.74a32.757,32.757,0,0,0,1.405,8.42,18.226,18.226,0,0,1,.477,2.072,88.455,88.455,0,0,0,2.282,10.379c1.952,6.892,3.912,13.784,5.7,20.721a109.97,109.97,0,0,0,4.085,12.754,151.591,151.591,0,0,1,6.27,20.086,113.865,113.865,0,0,0,3.836,13.5,139.25,139.25,0,0,1,5.53,18.541c.754,3.39,1.683,6.741,2.482,10.121a3.776,3.776,0,0,0,1.966,2.586c3.569,2.037,7.067,4.2,10.63,6.246a7.834,7.834,0,0,0,2.583.9q8.922,1.458,17.86,2.809a86.005,86.005,0,0,0,23.979.5c4.36-.556,8.753-.788,13.088-1.635,4.034-.788,8.132-1.241,11.929-2.959.128-.058.277-.066.41-.115a72.511,72.511,0,0,0,16.949-8.784,4.637,4.637,0,0,0,2.305-4.025,14.891,14.891,0,0,1,.386-3.591,95.671,95.671,0,0,0,1.965-10.426c.747-5.9,1.9-11.758,2.868-17.635.579-3.495,1.067-7.008,1.732-10.486.786-4.109,1.7-8.194,2.593-12.282q.974-4.47,2.025-8.922,2.3-9.826,4.641-19.647a105.232,105.232,0,0,1,2.669-10.723c1.675-4.75,3.318-9.505,4.807-14.315C247.124,147.928,247.666,145.959,248.374,143.525Zm-119.467-23.87a27.017,27.017,0,0,1,9.03,1.236,23.246,23.246,0,0,1,8.534,4.144,2.668,2.668,0,0,0,2.136.688c2.256-.234,4.519-.407,6.774-.657,2.676-.3,5.352-.614,8.019-.988,3.3-.464,6.612-.9,9.886-1.523,4.315-.821,8.6-1.8,12.894-2.733,7.306-1.594,14.394-3.816,20.865-7.658a27.071,27.071,0,0,0,9-8.3c1.525-2.306,2.626-4.712,2.339-7.558-.27-2.681-.547-5.362-.858-8.038a4.773,4.773,0,0,0-.457-1.412,21.728,21.728,0,0,0-4.206-6.364,16.986,16.986,0,0,0-6.386-4.511c-3.007-1-6.057-2.074-9.338-1.839-.7.05-1.42-.059-2.129-.044a2.087,2.087,0,0,1-2.177-1.626c-.622-1.656-1.363-3.272-2.123-4.872a7.025,7.025,0,0,0-4.514-3.921A14.048,14.048,0,0,0,175.865,64.7c-.825.4-1.54,1.023-2.363,1.425a6.97,6.97,0,0,0-3.385,3.675,10.832,10.832,0,0,0-.985,3.021c-.207,1.932-1.287,2.714-3.061,2.865-.211.018-.42.068-.63.106-5.433.99-10.976,1.37-16.31,2.913a2.331,2.331,0,0,1-2.5-.762,6.418,6.418,0,0,1-.971-1.389,12.566,12.566,0,0,0-3.718-4.046,8.446,8.446,0,0,0-3.169-1.677,14.906,14.906,0,0,0-12.439,2.942,16.281,16.281,0,0,0-6.472,10.4,6.591,6.591,0,0,1-1.419,2.786c-.933,1.143-2.131,2.065-3.145,3.149a37.213,37.213,0,0,0-5.6,8.493,14.424,14.424,0,0,0-1.612,8.234c.237,2.389.5,4.808,2.149,6.789a21.366,21.366,0,0,0,10,6.57,4.44,4.44,0,0,0,1.678.056C124.25,120.068,126.578,119.856,128.907,119.655Zm14.706,21.856c1.409,0,2.589,0,3.769,0,2.694.008,5.391-.073,8.079.053,2.9.136,5.795.6,8.7.686,5.747.167,11.5.279,17.249.211,7.024-.082,14.072.461,21.065-.471,3.856-.514,7.674-1.325,11.5-2.053a2.118,2.118,0,0,0,1.16-.776c.806-1.071,1.532-2.2,2.271-3.324.468-.71.9-1.448,1.355-2.166a4.13,4.13,0,0,1,2.951-1.886,15,15,0,0,0,2.249-.6,53.836,53.836,0,0,1,5.42-1.859,23.4,23.4,0,0,0,8.733-4.185,28.263,28.263,0,0,0,5.37-5.707,27.108,27.108,0,0,0,3.231-5.468c1.916-4.1,3.4-8.416,5.844-12.267a1.891,1.891,0,0,0,.2-2.185,2.23,2.23,0,0,0-2.166-1.065,3.279,3.279,0,0,0-2.3.95c-.451.452-.853.954-1.31,1.4-.992.968-1.991.746-2.41-.543-.13-.4-.119-.843-.215-1.257-.289-1.243-.522-2.506-.923-3.712-.346-1.037-.971-1.232-2.029-.921a3.012,3.012,0,0,0-1.981,1.807c-.517,1.239-.908,2.529-1.358,3.8-.4,1.13-1.316,1.334-2.082.442-.274-.319-.407-.762-.689-1.07a10.985,10.985,0,0,0-1.962-1.914,1.594,1.594,0,0,0-2.526,1.433,2.58,2.58,0,0,0,.065.847,63.668,63.668,0,0,0,2.3,7.283,3.843,3.843,0,0,1-.3,4.159c-1.181,1.685-2.361,3.373-3.616,5a6.425,6.425,0,0,1-1.733,1.553,20.033,20.033,0,0,1-14.186,2.346c-3.466-.6-6.827-1.807-10.364-2.779-6.092,2.919-12.724,4.443-19.389,5.849-5.824,1.229-11.618,2.617-17.546,3.3-3.873.448-7.737.978-11.605,1.468-.775.1-1.556.157-2.326.282s-1.645-.1-2.342.3c.747,1.47,1.465,2.761,2.071,4.1,1.185,2.618-.5,6.079-3.246,6.133a23.814,23.814,0,0,0-2.8.359ZM241.8,126.522a25.856,25.856,0,0,1-12.366,6.43c-1.52.3-2.969.951-4.462,1.406a4.978,4.978,0,0,1-1.857.373,2.42,2.42,0,0,0-2.427,1.38c-1,1.553-2.039,3.086-2.891,4.717a4.5,4.5,0,0,1-3.312,2.4c-1.874.394-3.745.822-5.638,1.1-3.578.528-7.161,1.071-10.761,1.4a86.854,86.854,0,0,1-9.363.367c-4.254-.072-8.5-.371-12.754-.6-1.984-.109-3.962-.349-5.946-.424-5.179-.2-10.361-.343-15.542-.5-3.265-.1-6.542-.368-9.795-.2a18.655,18.655,0,0,1-6.889-.981c-.666-.217-1.332-.436-1.679-.55a20.074,20.074,0,0,1-3.257,1.147,35.491,35.491,0,0,1-5.3.474c-2.7.028-5.4-.135-8.094-.183a19.671,19.671,0,0,1-12.721-4.59c-2.474-2.054-3.167-4.59-3.306-7.487a3.84,3.84,0,0,1,1.125-2.676,16.18,16.18,0,0,1,4.712-3.6,11.075,11.075,0,0,0,3.223-2.367,55.549,55.549,0,0,0-13.239,3.593,10.158,10.158,0,0,0-1.289.746c-1.892,1.122-3.728,2.355-5.689,3.339a7.252,7.252,0,0,0-4.189,5.531,12.71,12.71,0,0,1-.294,1.889c-.605,1.787.26,2.91,1.681,3.684,3.487,1.9,7.013,3.727,10.527,5.577a2.776,2.776,0,0,0,.6.2c3.706.948,7.39,2,11.128,2.8,2.977.637,6.04.86,9.028,1.451a78.089,78.089,0,0,0,11.633,1.166c2.55.116,5.114.214,7.64.557,7.18.975,14.377,1.761,21.612,2.14,2.975.156,5.964.231,8.94.145,3.406-.1,6.8-.527,10.207-.611a87.65,87.65,0,0,0,14.826-1.344c2.919-.573,5.874-.965,8.817-1.417s5.913-.771,8.835-1.337c5.221-1.011,10.4-2.261,15.623-3.232,6.979-1.3,13.088-4.543,19.052-8.158a16.727,16.727,0,0,0,2.195-1.686,3.188,3.188,0,0,0,1.345-2.752,25.382,25.382,0,0,0-1-4.343,4.213,4.213,0,0,0-2.518-2.743C245.944,127.963,243.872,127.265,241.8,126.522ZM136.326,140.084a5.564,5.564,0,0,0,6.594-.915,2.33,2.33,0,0,0,.748-2.861c-1.145-1.918-2.036-4.155-4.717-4.487a2.074,2.074,0,0,1-.8-.284c-.7-.426-.942-.992-.373-1.949,1.371.341,2.743.638,4.083,1.042a2.317,2.317,0,0,1,1.187.845c1.121,1.683,2.719,3.127,2.822,5.353,0,.106.17.2.343.4a26.426,26.426,0,0,0,2.642-.527,1.337,1.337,0,0,0,1.1-1.769c-.378-1.855-.581-3.791-2.027-5.259-.594-.6-1.039-1.352-1.623-1.966a5.929,5.929,0,0,0-1.481-1.172q-2.255-1.188-4.583-2.234a19.115,19.115,0,0,0-2.99-1.077c-1.5-.391-3.038-.673-4.565-.975a14.349,14.349,0,0,0-2.72-.431c-2.411,0-4.823.1-7.232.2a10.07,10.07,0,0,0-4.659,1.322c-.609.348-1.308.535-1.954.822a28.235,28.235,0,0,0-7.694,4.865,11.559,11.559,0,0,0-2.28,3.043,4.109,4.109,0,0,0,1.129,5.177c.6.5,1.293.88,1.888,1.381A13.559,13.559,0,0,0,117,141.6c3.315.274,6.66.271,9.992.251,1.893-.012,3.786-.3,5.774-.468.279-1.975.445-3.624-1.354-5.041a14.357,14.357,0,0,0-5.114-2.465c-.37-.106-.731-.248-1.1-.373a1.914,1.914,0,0,1,1.478-.806,14.449,14.449,0,0,1,6.9,2.568A7.563,7.563,0,0,1,136.326,140.084Z"/><path class="cls-2" d="M248.374,143.525c-.708,2.434-1.25,4.4-1.854,6.353-1.489,4.81-3.132,9.565-4.807,14.315a105.232,105.232,0,0,0-2.669,10.723q-2.336,9.82-4.641,19.647-1.044,4.454-2.025,8.922c-.89,4.088-1.807,8.173-2.593,12.282-.665,3.478-1.153,6.991-1.732,10.486-.972,5.877-2.121,11.731-2.868,17.635a95.671,95.671,0,0,1-1.965,10.426,14.891,14.891,0,0,0-.386,3.591,4.637,4.637,0,0,1-2.305,4.025,72.511,72.511,0,0,1-16.949,8.784c-.133.049-.282.057-.41.115-3.8,1.718-7.895,2.171-11.929,2.959-4.335.847-8.728,1.079-13.088,1.635a86.005,86.005,0,0,1-23.979-.5q-8.935-1.367-17.86-2.809a7.834,7.834,0,0,1-2.583-.9c-3.563-2.048-7.061-4.209-10.63-6.246a3.776,3.776,0,0,1-1.966-2.586c-.8-3.38-1.728-6.731-2.482-10.121a139.25,139.25,0,0,0-5.53-18.541,113.865,113.865,0,0,1-3.836-13.5,151.591,151.591,0,0,0-6.27-20.086,109.97,109.97,0,0,1-4.085-12.754c-1.786-6.937-3.746-13.829-5.7-20.721a88.455,88.455,0,0,1-2.282-10.379,18.226,18.226,0,0,0-.477-2.072,32.757,32.757,0,0,1-1.405-8.42c1.747.932,3.472,1.753,5.1,2.74a26.369,26.369,0,0,0,10.053,3.861,49.593,49.593,0,0,1,5.546,1.454,103.6,103.6,0,0,0,15.94,2.6c2.321.239,4.667.225,7,.405,4.175.322,8.348.667,12.515,1.071,8.261.8,16.5,1.952,24.834,1.516,6.24-.326,12.492-.476,18.719-.953,3.668-.281,7.3-1.047,10.946-1.6,3.224-.489,6.463-.9,9.669-1.492,5.927-1.087,11.848-2.216,17.747-3.448,2.911-.608,5.775-1.451,8.644-2.247,3.8-1.054,7.111-3.168,10.549-5C246.884,144.393,247.427,144.065,248.374,143.525Zm-147.15,32.838c-.941,1.4,0,2.714.4,4,.67,2.165,1.568,4.258,2.3,6.406,1.257,3.693,2.426,7.415,3.7,11.1.74,2.143,1.715,4.209,2.4,6.368,1.867,5.88,4.039,11.663,5.4,17.708.823,3.659,2.031,7.23,3.03,10.852,1.075,3.9,2.147,7.8,3.149,11.713,1.2,4.669,2.305,9.36,3.489,14.032a2.116,2.116,0,0,0,.751,1.2c1.909,1.2,3.692,2.634,5.919,3.291.946.279,1.827.775,2.755,1.125,2.185.824,4.355,1.7,6.579,2.406,2.838.9,5.71,1.688,8.591,2.437,3.015.783,6.063,1.443,9.087,2.193a20.359,20.359,0,0,0,6.777.245c.99-.087,1.978-.26,2.968-.276a82.829,82.829,0,0,0,13.16-.817c4.122-.725,8.28-1.243,12.417-1.884a8.467,8.467,0,0,0,2.04-.588c2.993-1.294,6.032-2.506,8.932-3.987a95.184,95.184,0,0,0,9.409-5.392,9.235,9.235,0,0,0,4.2-5.359c.79-3.086,1.793-6.117,2.683-9.178a21.56,21.56,0,0,0,.524-2.276c.924-5.239,1.86-10.476,2.739-15.723,1.008-6.015,2.48-11.936,3.486-17.958a102.787,102.787,0,0,1,3.412-13.381,62.105,62.105,0,0,0,2.016-7.336c.6-3.335,1.725-6.574,2.584-9.865.318-1.218.235-2.525.989-3.655a2.147,2.147,0,0,0,.058-1.441.965.965,0,0,0-1.468-.713c-2.345,1.512-5.106,2.385-6.61,5.136a5.519,5.519,0,0,1-6.413,3.077c-.116-.026-.263.083-.655.22-.254.847-.6,1.836-.844,2.851-.626,2.623-1.151,5.272-1.831,7.88a9.925,9.925,0,0,1-1.331,3.1,2.321,2.321,0,0,1-4.061-.133,6.558,6.558,0,0,1-.848-1.939c-.284-1.1-.405-2.233-.657-3.339a32.7,32.7,0,0,0-1.16-4.518c-.76-1.976-1.451-2.243-3.468-1.726-1.441.369-2.853.852-4.3,1.208-4.339,1.069-8.673,2.163-13.037,3.118a3.2,3.2,0,0,0-2.766,3.02c-.13.986-.173,1.987-.36,2.961a11.487,11.487,0,0,1-.786,2.847c-1.344,2.772-4.207,3.08-6.2.72a7.371,7.371,0,0,1-1.652-3.865,22.737,22.737,0,0,0-.5-2.939c-.208-.762-.4-1.664-1.691-1.869-.246.771-.453,1.5-.712,2.211a19.694,19.694,0,0,1-1.32,3.35c-1.028,1.729-2.818,1.722-3.957.045a11.147,11.147,0,0,1-1.078-2.3c-.378-.994-.631-2.036-1.016-3.027-.773-1.993-1-2.106-3.116-1.913a9.375,9.375,0,0,1-1.276.036c-2.2-.1-4.405-.128-6.592-.349-2.8-.284-5.659-.062-8.386-1.174a7.76,7.76,0,0,0-4.416-.219,2.258,2.258,0,0,0-1.888,1.481A21.083,21.083,0,0,0,141.718,189c-.614,3.388-.129,6.8-.137,10.209,0,2.2-.13,4.4-.262,6.592a5.506,5.506,0,0,1-.455,1.848c-.875,1.984-2.9,2.276-4.232.589a6.857,6.857,0,0,1-1.209-2.234c-.68-2.31-1.283-4.646-1.819-6.993-.414-1.812-.682-3.657-1.014-5.488a4.528,4.528,0,0,0-.941,1.514c-1,2-3.163,2.179-4.393.3a7.1,7.1,0,0,1-.96-2.561c-.463-2.513-.8-5.048-1.2-7.573a11.986,11.986,0,0,0-2.153-5.045,2.144,2.144,0,0,0-2.358-1.071c-1.09.261-1.367,1.089-1.46,2.087a25.249,25.249,0,0,1-.447,3.162,17.572,17.572,0,0,1-.981,3.251,2.364,2.364,0,0,1-3.292,1.445,6.8,6.8,0,0,1-2.336-1.366,11.81,11.81,0,0,1-3.592-6.181c-.63-2.81-2.493-4.142-4.972-4.989C102.767,176.248,102.056,175.849,101.224,176.363Z"/><path class="cls-2" d="M128.907,119.655c-2.329.2-4.657.413-6.988.594a4.44,4.44,0,0,1-1.678-.056,21.366,21.366,0,0,1-10-6.57c-1.648-1.981-1.912-4.4-2.149-6.789A14.424,14.424,0,0,1,109.7,98.6a37.213,37.213,0,0,1,5.6-8.493c1.014-1.084,2.212-2.006,3.145-3.149a6.591,6.591,0,0,0,1.419-2.786,16.281,16.281,0,0,1,6.472-10.4,14.906,14.906,0,0,1,12.439-2.942,8.446,8.446,0,0,1,3.169,1.677,12.566,12.566,0,0,1,3.718,4.046,6.418,6.418,0,0,0,.971,1.389,2.331,2.331,0,0,0,2.5.762c5.334-1.543,10.877-1.923,16.31-2.913.21-.038.419-.088.63-.106,1.774-.151,2.854-.933,3.061-2.865a10.832,10.832,0,0,1,.985-3.021,6.97,6.97,0,0,1,3.385-3.675c.823-.4,1.538-1.027,2.363-1.425A14.048,14.048,0,0,1,186.2,63.677a7.025,7.025,0,0,1,4.514,3.921c.76,1.6,1.5,3.216,2.123,4.872a2.087,2.087,0,0,0,2.177,1.626c.709-.015,1.424.094,2.129.044,3.281-.235,6.331.84,9.338,1.839a16.986,16.986,0,0,1,6.386,4.511,21.728,21.728,0,0,1,4.206,6.364,4.773,4.773,0,0,1,.457,1.412c.311,2.676.588,5.357.858,8.038.287,2.846-.814,5.252-2.339,7.558a27.071,27.071,0,0,1-9,8.3c-6.471,3.842-13.559,6.064-20.865,7.658-4.293.937-8.579,1.912-12.894,2.733-3.274.623-6.584,1.059-9.886,1.523-2.667.374-5.343.691-8.019.988-2.255.25-4.518.423-6.774.657a2.668,2.668,0,0,1-2.136-.688,23.246,23.246,0,0,0-8.534-4.144A27.017,27.017,0,0,0,128.907,119.655Zm26.164-13.029,0,.2a60,60,0,0,0,7.01-.05c4.079-.483,8.13-1.22,12.176-1.948,2.018-.364,3.984-1.009,6-1.413A37.34,37.34,0,0,0,191.881,99.5c1.464-.849,3.047-1.5,4.468-2.415,1.723-1.106,3.364-2.35,4.974-3.617a8.771,8.771,0,0,0,1.685-1.9,1.422,1.422,0,0,0-.283-1.916c-.7-.343-1.2.01-1.638.562-2.361,2.966-5.562,4.784-8.9,6.37a77.633,77.633,0,0,1-15.353,4.924,88.991,88.991,0,0,1-18.771,2.3,74.056,74.056,0,0,1-19.654-1.853,33.236,33.236,0,0,1-7.333-2.8.976.976,0,0,0-1.34.183c-.4.49-.186.939.1,1.36a6.167,6.167,0,0,0,3.509,2.26c1.013.311,2.036.6,3.066.85,3.989.976,7.936,2.17,12.069,2.429C150.678,106.382,152.875,106.5,155.071,106.626ZM189.646,77.7c2.145.31,2.145.31,2.448-1.187-3.631-1.564-7.5-1.639-11.375-1.742-3.654-.1-7.173.308-10.4,2.163.3,1.146.3,1.146,2.05,1.2.856,4.917,4.64,6.3,8.869,6.526C185.88,84.914,187.994,81.5,189.646,77.7ZM127.455,85.08c.3.554.5,1,.76,1.415a7.97,7.97,0,0,0,10.633,2.641,6.126,6.126,0,0,0,1.493-1.179c1.207-1.376,2.349-2.808,3.667-4.4l1.7-.127.29-1.587a5.953,5.953,0,0,0-.646-.407,4.13,4.13,0,0,0-.8-.279,26.065,26.065,0,0,0-11.39-.283,27.612,27.612,0,0,0-6.873,2.173,6.729,6.729,0,0,0-1.538,1.09.979.979,0,0,0-.162.932,1.392,1.392,0,0,0,1.009.527A9.018,9.018,0,0,0,127.455,85.08Zm28.312,8.158c.142-.034.421-.085.69-.167a2.674,2.674,0,0,0,1.808-2.974c-.214-.891-1.293-1.234-2.73-.821a3.349,3.349,0,0,0-1.131.553,2.227,2.227,0,0,0-.691,2.314A2.121,2.121,0,0,0,155.767,93.238Zm7.561-2.247a1.747,1.747,0,0,0,1.81,1.908,2.835,2.835,0,0,0,2.289-2.671c-.055-.993-.887-1.592-2.148-1.544A2.087,2.087,0,0,0,163.328,90.991Z"/><path class="cls-2" d="M143.613,141.511l2.176-2.437a23.814,23.814,0,0,1,2.8-.359c2.747-.054,4.431-3.515,3.246-6.133-.606-1.341-1.324-2.632-2.071-4.1.7-.4,1.559-.175,2.342-.3s1.551-.184,2.326-.282c3.868-.49,7.732-1.02,11.605-1.468,5.928-.687,11.722-2.075,17.546-3.3,6.665-1.406,13.3-2.93,19.389-5.849,3.537.972,6.9,2.175,10.364,2.779a20.033,20.033,0,0,0,14.186-2.346,6.425,6.425,0,0,0,1.733-1.553c1.255-1.629,2.435-3.317,3.616-5a3.843,3.843,0,0,0,.3-4.159,63.668,63.668,0,0,1-2.3-7.283,2.58,2.58,0,0,1-.065-.847,1.594,1.594,0,0,1,2.526-1.433,10.985,10.985,0,0,1,1.962,1.914c.282.308.415.751.689,1.07.766.892,1.681.688,2.082-.442.45-1.267.841-2.557,1.358-3.8a3.012,3.012,0,0,1,1.981-1.807c1.058-.311,1.683-.116,2.029.921.4,1.206.634,2.469.923,3.712.1.414.085.857.215,1.257.419,1.289,1.418,1.511,2.41.543.457-.446.859-.948,1.31-1.4a3.279,3.279,0,0,1,2.3-.95,2.23,2.23,0,0,1,2.166,1.065,1.891,1.891,0,0,1-.2,2.185c-2.444,3.851-3.928,8.164-5.844,12.267a27.108,27.108,0,0,1-3.231,5.468,28.263,28.263,0,0,1-5.37,5.707,23.4,23.4,0,0,1-8.733,4.185,53.836,53.836,0,0,0-5.42,1.859,15,15,0,0,1-2.249.6,4.13,4.13,0,0,0-2.951,1.886c-.458.718-.887,1.456-1.355,2.166-.739,1.121-1.465,2.253-2.271,3.324a2.118,2.118,0,0,1-1.16.776c-3.825.728-7.643,1.539-11.5,2.053-6.993.932-14.041.389-21.065.471-5.748.068-11.5-.044-17.249-.211-2.9-.084-5.795-.55-8.7-.686-2.688-.126-5.385-.045-8.079-.053C146.2,141.508,145.022,141.511,143.613,141.511Z"/><path class="cls-2" d="M241.8,126.522c2.071.743,4.143,1.441,6.179,2.231A4.213,4.213,0,0,1,250.5,131.5a25.382,25.382,0,0,1,1,4.343,3.188,3.188,0,0,1-1.345,2.752,16.727,16.727,0,0,1-2.195,1.686c-5.964,3.615-12.073,6.863-19.052,8.158-5.228.971-10.4,2.221-15.623,3.232-2.922.566-5.891.885-8.835,1.337s-5.9.844-8.817,1.417a87.65,87.65,0,0,1-14.826,1.344c-3.405.084-6.8.513-10.207.611-2.976.086-5.965.011-8.94-.145-7.235-.379-14.432-1.165-21.612-2.14-2.526-.343-5.09-.441-7.64-.557a78.089,78.089,0,0,1-11.633-1.166c-2.988-.591-6.051-.814-9.028-1.451-3.738-.8-7.422-1.855-11.128-2.8a2.776,2.776,0,0,1-.6-.2c-3.514-1.85-7.04-3.677-10.527-5.577-1.421-.774-2.286-1.9-1.681-3.684a12.71,12.71,0,0,0,.294-1.889,7.252,7.252,0,0,1,4.189-5.531c1.961-.984,3.8-2.217,5.689-3.339a10.158,10.158,0,0,1,1.289-.746,55.549,55.549,0,0,1,13.239-3.593,11.075,11.075,0,0,1-3.223,2.367,16.18,16.18,0,0,0-4.712,3.6,3.84,3.84,0,0,0-1.125,2.676c.139,2.9.832,5.433,3.306,7.487a19.671,19.671,0,0,0,12.721,4.59c2.7.048,5.4.211,8.094.183a35.491,35.491,0,0,0,5.3-.474,20.074,20.074,0,0,0,3.257-1.147c.347.114,1.013.333,1.679.55a18.655,18.655,0,0,0,6.889.981c3.253-.168,6.53.1,9.795.2,5.181.156,10.363.3,15.542.5,1.984.075,3.962.315,5.946.424,4.25.232,8.5.531,12.754.6a86.854,86.854,0,0,0,9.363-.367c3.6-.328,7.183-.871,10.761-1.4,1.893-.279,3.764-.707,5.638-1.1a4.5,4.5,0,0,0,3.312-2.4c.852-1.631,1.9-3.164,2.891-4.717a2.42,2.42,0,0,1,2.427-1.38,4.978,4.978,0,0,0,1.857-.373c1.493-.455,2.942-1.1,4.462-1.406A25.856,25.856,0,0,0,241.8,126.522Z"/><path class="cls-2" d="M136.326,140.084a7.563,7.563,0,0,0-2.753-4.823,14.449,14.449,0,0,0-6.9-2.568,1.914,1.914,0,0,0-1.478.806c.365.125.726.267,1.1.373a14.357,14.357,0,0,1,5.114,2.465c1.8,1.417,1.633,3.066,1.354,5.041-1.988.171-3.881.456-5.774.468-3.332.02-6.677.023-9.992-.251a13.559,13.559,0,0,1-7.827-2.969c-.595-.5-1.289-.884-1.888-1.381a4.109,4.109,0,0,1-1.129-5.177,11.559,11.559,0,0,1,2.28-3.043,28.235,28.235,0,0,1,7.694-4.865c.646-.287,1.345-.474,1.954-.822a10.07,10.07,0,0,1,4.659-1.322c2.409-.095,4.821-.2,7.232-.2a14.349,14.349,0,0,1,2.72.431c1.527.3,3.061.584,4.565.975a19.115,19.115,0,0,1,2.99,1.077q2.326,1.041,4.583,2.234a5.929,5.929,0,0,1,1.481,1.172c.584.614,1.029,1.363,1.623,1.966,1.446,1.468,1.649,3.4,2.027,5.259a1.337,1.337,0,0,1-1.1,1.769,26.426,26.426,0,0,1-2.642.527c-.173-.2-.338-.3-.343-.4-.1-2.226-1.7-3.67-2.822-5.353a2.317,2.317,0,0,0-1.187-.845c-1.34-.4-2.712-.7-4.083-1.042-.569.957-.331,1.523.373,1.949a2.074,2.074,0,0,0,.8.284c2.681.332,3.572,2.569,4.717,4.487a2.33,2.33,0,0,1-.748,2.861A5.564,5.564,0,0,1,136.326,140.084Z"/><path class="cls-3" d="M101.224,176.363c.832-.514,1.543-.115,2.28.137,2.479.847,4.342,2.179,4.972,4.989a11.81,11.81,0,0,0,3.592,6.181,6.8,6.8,0,0,0,2.336,1.366,2.364,2.364,0,0,0,3.292-1.445,17.572,17.572,0,0,0,.981-3.251,25.249,25.249,0,0,0,.447-3.162c.093-1,.37-1.826,1.46-2.087a2.144,2.144,0,0,1,2.358,1.071,11.986,11.986,0,0,1,2.153,5.045c.4,2.525.738,5.06,1.2,7.573a7.1,7.1,0,0,0,.96,2.561c1.23,1.878,3.39,1.7,4.393-.3a4.528,4.528,0,0,1,.941-1.514c.332,1.831.6,3.676,1.014,5.488.536,2.347,1.139,4.683,1.819,6.993a6.857,6.857,0,0,0,1.209,2.234c1.336,1.687,3.357,1.395,4.232-.589a5.506,5.506,0,0,0,.455-1.848c.132-2.195.257-4.394.262-6.592.008-3.405-.477-6.821.137-10.209a21.083,21.083,0,0,1,1.055-3.442,2.258,2.258,0,0,1,1.888-1.481,7.76,7.76,0,0,1,4.416.219c2.727,1.112,5.583.89,8.386,1.174,2.187.221,4.393.248,6.592.349a9.375,9.375,0,0,0,1.276-.036c2.116-.193,2.343-.08,3.116,1.913.385.991.638,2.033,1.016,3.027a11.147,11.147,0,0,0,1.078,2.3c1.139,1.677,2.929,1.684,3.957-.045a19.694,19.694,0,0,0,1.32-3.35c.259-.711.466-1.44.712-2.211,1.289.2,1.483,1.107,1.691,1.869a22.737,22.737,0,0,1,.5,2.939,7.371,7.371,0,0,0,1.652,3.865c1.994,2.36,4.857,2.052,6.2-.72a11.487,11.487,0,0,0,.786-2.847c.187-.974.23-1.975.36-2.961a3.2,3.2,0,0,1,2.766-3.02c4.364-.955,8.7-2.049,13.037-3.118,1.444-.356,2.856-.839,4.3-1.208,2.017-.517,2.708-.25,3.468,1.726a32.7,32.7,0,0,1,1.16,4.518c.252,1.106.373,2.243.657,3.339a6.558,6.558,0,0,0,.848,1.939,2.321,2.321,0,0,0,4.061.133,9.925,9.925,0,0,0,1.331-3.1c.68-2.608,1.2-5.257,1.831-7.88.243-1.015.59-2,.844-2.851.392-.137.539-.246.655-.22a5.519,5.519,0,0,0,6.413-3.077c1.5-2.751,4.265-3.624,6.61-5.136a.965.965,0,0,1,1.468.713,2.147,2.147,0,0,1-.058,1.441c-.754,1.13-.671,2.437-.989,3.655-.859,3.291-1.98,6.53-2.584,9.865a62.105,62.105,0,0,1-2.016,7.336,102.787,102.787,0,0,0-3.412,13.381c-1.006,6.022-2.478,11.943-3.486,17.958-.879,5.247-1.815,10.484-2.739,15.723a21.56,21.56,0,0,1-.524,2.276c-.89,3.061-1.893,6.092-2.683,9.178a9.235,9.235,0,0,1-4.2,5.359,95.184,95.184,0,0,1-9.409,5.392c-2.9,1.481-5.939,2.693-8.932,3.987a8.467,8.467,0,0,1-2.04.588c-4.137.641-8.3,1.159-12.417,1.884a82.829,82.829,0,0,1-13.16.817c-.99.016-1.978.189-2.968.276a20.359,20.359,0,0,1-6.777-.245c-3.024-.75-6.072-1.41-9.087-2.193-2.881-.749-5.753-1.541-8.591-2.437-2.224-.7-4.394-1.582-6.579-2.406-.928-.35-1.809-.846-2.755-1.125-2.227-.657-4.01-2.087-5.919-3.291a2.116,2.116,0,0,1-.751-1.2c-1.184-4.672-2.293-9.363-3.489-14.032-1-3.917-2.074-7.816-3.149-11.713-1-3.622-2.207-7.193-3.03-10.852-1.358-6.045-3.53-11.828-5.4-17.708-.685-2.159-1.66-4.225-2.4-6.368-1.272-3.688-2.441-7.41-3.7-11.1-.731-2.148-1.629-4.241-2.3-6.406C101.226,179.077,100.283,177.767,101.224,176.363Zm116.31,24.04a2.882,2.882,0,0,0-2.508,2.023,60.957,60.957,0,0,0-2.082,5.8c-3.292,11.648-4.865,23.613-6.425,35.576a23.719,23.719,0,0,0-.043,3.827c.01.286.343.8.52.793.355-.007.906-.214,1.017-.486a11.99,11.99,0,0,0,.661-2.446c1.259-7.054,2.384-14.134,3.773-21.163,1.4-7.1,3.064-14.142,4.6-21.212C217.225,202.313,217.341,201.5,217.534,200.4ZM163.24,252.962a4.509,4.509,0,0,0,.524-3.014c-.389-7.876-.758-15.753-1.16-23.628-.265-5.178-.532-10.357-.892-15.53a31.638,31.638,0,0,0-.839-4.6c-.058-.259-.532-.644-.738-.6-.345.071-.834.393-.9.69a9.529,9.529,0,0,0-.17,2.322c.139,4.83.231,9.664.481,14.489.393,7.59.868,15.177,1.378,22.761.123,1.835.5,3.656.8,5.477C161.85,252.1,162.085,252.86,163.24,252.962ZM185.107,235.5c0,4.017-.008,7.989.009,11.96a5.773,5.773,0,0,0,.217,1.886,1.653,1.653,0,0,0,.977.953c.592.138.81-.47.91-.957a11.75,11.75,0,0,0,.188-1.688c.181-3.114.345-6.23.526-9.344.476-8.212.99-16.421,1.416-24.635.114-2.189-.032-4.392-.058-6.589,0-.141.062-.327,0-.417-.28-.375-.555-.941-.916-1.013a1.442,1.442,0,0,0-1.133.664,3.865,3.865,0,0,0-.391,1.623c-.2,2.473-.388,4.948-.54,7.426C185.9,222.1,185.5,228.819,185.107,235.5ZM139.16,251.777a15.96,15.96,0,0,0-.252-1.647c-.486-1.779-1.084-3.53-1.495-5.325-1.583-6.918-3.086-13.853-4.668-20.77A43.282,43.282,0,0,0,129.2,214.1c-.8-.195-1.258.123-1.268.793a9.007,9.007,0,0,0,.283,2.3c.33,1.306.817,2.572,1.141,3.879,1.708,6.886,3.356,13.787,5.09,20.666.606,2.405,1.359,4.774,2.118,7.136A4.056,4.056,0,0,0,139.16,251.777Z"/><path d="M155.071,106.626c-2.2-.127-4.393-.244-6.588-.383-4.133-.259-8.08-1.453-12.069-2.429-1.03-.253-2.053-.539-3.066-.85a6.167,6.167,0,0,1-3.509-2.26c-.29-.421-.508-.87-.1-1.36a.976.976,0,0,1,1.34-.183,33.236,33.236,0,0,0,7.333,2.8,74.056,74.056,0,0,0,19.654,1.853,88.991,88.991,0,0,0,18.771-2.3,77.633,77.633,0,0,0,15.353-4.924c3.339-1.586,6.54-3.4,8.9-6.37.439-.552.936-.9,1.638-.562a1.422,1.422,0,0,1,.283,1.916,8.771,8.771,0,0,1-1.685,1.9c-1.61,1.267-3.251,2.511-4.974,3.617-1.421.912-3,1.566-4.468,2.415a37.34,37.34,0,0,1-11.629,3.918c-2.013.4-3.979,1.049-6,1.413-4.046.728-8.1,1.465-12.176,1.948a60,60,0,0,1-7.01.05Z"/><path d="M189.646,77.7c-1.652,3.8-3.766,7.211-8.407,6.96-4.229-.229-8.013-1.609-8.869-6.526-1.75-.054-1.75-.054-2.05-1.2,3.226-1.855,6.745-2.259,10.4-2.163,3.877.1,7.744.178,11.375,1.742C191.791,78.013,191.791,78.013,189.646,77.7Zm-14.888-.038c.517,1.919,1.53,2.981,2.666,2.869,1.564-.153,2.441-1.256,2.573-3.234A9.682,9.682,0,0,0,174.758,77.665Z"/><path d="M127.455,85.08a9.018,9.018,0,0,1-1.859.515,1.392,1.392,0,0,1-1.009-.527.979.979,0,0,1,.162-.932,6.729,6.729,0,0,1,1.538-1.09,27.612,27.612,0,0,1,6.873-2.173,26.065,26.065,0,0,1,11.39.283,4.13,4.13,0,0,1,.8.279,5.953,5.953,0,0,1,.646.407l-.29,1.587-1.7.127c-1.318,1.593-2.46,3.025-3.667,4.4a6.126,6.126,0,0,1-1.493,1.179A7.97,7.97,0,0,1,128.215,86.5C127.951,86.085,127.75,85.634,127.455,85.08Zm1.992-.763a4.7,4.7,0,0,0,.233.79c.652,1.328,1.562,1.842,2.669,1.535a2.961,2.961,0,0,0,1.892-2.582c.012-.766-.422-1.342-1.122-1.229C131.821,83.042,130.412,83.073,129.447,84.317Z"/><path d="M155.767,93.238a2.121,2.121,0,0,1-2.054-1.095,2.227,2.227,0,0,1,.691-2.314,3.349,3.349,0,0,1,1.131-.553c1.437-.413,2.516-.07,2.73.821a2.674,2.674,0,0,1-1.808,2.974C156.188,93.153,155.909,93.2,155.767,93.238Z"/><path d="M163.328,90.991a2.087,2.087,0,0,1,1.951-2.307c1.261-.048,2.093.551,2.148,1.544a2.835,2.835,0,0,1-2.289,2.671A1.747,1.747,0,0,1,163.328,90.991Z"/><path class="cls-2" d="M217.534,200.4c-.193,1.093-.309,1.91-.484,2.715-1.539,7.07-3.2,14.115-4.6,21.212-1.389,7.029-2.514,14.109-3.773,21.163a11.99,11.99,0,0,1-.661,2.446c-.111.272-.662.479-1.017.486-.177,0-.51-.507-.52-.793a23.719,23.719,0,0,1,.043-3.827c1.56-11.963,3.133-23.928,6.425-35.576a60.957,60.957,0,0,1,2.082-5.8A2.882,2.882,0,0,1,217.534,200.4Z"/><path class="cls-2" d="M163.24,252.962c-1.155-.1-1.39-.859-1.518-1.633-.3-1.821-.675-3.642-.8-5.477-.51-7.584-.985-15.171-1.378-22.761-.25-4.825-.342-9.659-.481-14.489a9.529,9.529,0,0,1,.17-2.322c.066-.3.555-.619.9-.69.206-.043.68.342.738.6a31.638,31.638,0,0,1,.839,4.6c.36,5.173.627,10.352.892,15.53.4,7.875.771,15.752,1.16,23.628A4.509,4.509,0,0,1,163.24,252.962Z"/><path class="cls-2" d="M185.107,235.5c.4-6.684.789-13.408,1.2-20.131.152-2.478.337-4.953.54-7.426a3.865,3.865,0,0,1,.391-1.623,1.442,1.442,0,0,1,1.133-.664c.361.072.636.638.916,1.013.067.09,0,.276,0,.417.026,2.2.172,4.4.058,6.589-.426,8.214-.94,16.423-1.416,24.635-.181,3.114-.345,6.23-.526,9.344a11.75,11.75,0,0,1-.188,1.688c-.1.487-.318,1.095-.91.957a1.653,1.653,0,0,1-.977-.953,5.773,5.773,0,0,1-.217-1.886C185.1,243.492,185.107,239.52,185.107,235.5Z"/><path class="cls-2" d="M139.16,251.777a4.056,4.056,0,0,1-2.594-2.9c-.759-2.362-1.512-4.731-2.118-7.136-1.734-6.879-3.382-13.78-5.09-20.666-.324-1.307-.811-2.573-1.141-3.879a9.007,9.007,0,0,1-.283-2.3c.01-.67.468-.988,1.268-.793a43.282,43.282,0,0,1,3.543,9.936c1.582,6.917,3.085,13.852,4.668,20.77.411,1.795,1.009,3.546,1.495,5.325A15.96,15.96,0,0,1,139.16,251.777Z"/><path class="cls-2" d="M174.758,77.665A9.682,9.682,0,0,1,180,77.3c-.132,1.978-1.009,3.081-2.573,3.234C176.288,80.646,175.275,79.584,174.758,77.665Z"/><path class="cls-2" d="M129.447,84.317c.965-1.244,2.374-1.275,3.672-1.486.7-.113,1.134.463,1.122,1.229a2.961,2.961,0,0,1-1.892,2.582c-1.107.307-2.017-.207-2.669-1.535A4.7,4.7,0,0,1,129.447,84.317Z"/></svg>