<svg width="449" height="449" viewBox="0 0 449 449" fill="none" xmlns="http://www.w3.org/2000/svg">
<path d="M351.355 215.086C351.306 214.873 351.274 214.659 351.241 214.429C350.162 212.574 348.984 210.784 347.578 209.142C347.545 209.093 347.545 209.044 347.513 209.011C347.235 208.814 346.973 208.6 346.728 208.387C346.155 207.894 345.649 207.336 345.125 206.794C336.001 200.686 326.189 196.203 315.462 193.691C313.713 193.281 312.012 192.525 310.246 192.23C307.842 191.836 306.322 190.653 305.618 188.305C303.574 181.573 300.337 175.679 293.518 172.395C294.532 170.966 295.137 170.079 295.758 169.226C296.396 168.355 297.099 167.518 297.72 166.615C306.076 154.579 308.529 141.345 304.556 127.322C300.991 114.712 292.046 106.847 279.962 102.495C276.675 101.313 274.468 99.5563 273.029 96.2559C271.59 92.9555 269.676 89.8193 267.534 86.913C260.683 77.6522 251.329 73.6787 240.03 75.3863C229.368 76.9955 221.012 82.4304 217.088 92.9227C215.878 96.141 214.193 96.9455 211.25 97.2411C202.812 98.0785 194.326 98.7681 185.986 100.197C180.59 101.133 176.861 100.213 174.817 94.7945C174.523 93.99 173.722 93.3824 173.133 92.6764C164.352 82.1349 149.75 80.8541 138.27 84.5978C126.693 88.3744 118.55 99.5234 118.108 112.216C117.928 117.388 116.636 121.362 111.894 123.89C95.4767 132.708 92.5497 155.088 99.5811 169.226C104.699 179.488 113.301 185.81 123.21 190.703C126.235 192.197 129.375 193.494 132.792 195.021C124.763 198.666 117.127 201.54 110.096 205.464C98.9597 211.687 95.8692 219.24 97.9296 231.818C101.233 251.899 107.185 271.308 113.153 290.683C118.648 308.498 125.516 325.903 130.438 343.867C133.463 354.934 139.807 361.387 149.929 365.097C151.957 365.836 154.001 366.625 156.078 367.216C171.253 371.534 186.722 374.375 202.502 374.687C222.713 375.097 242.941 375.623 263.07 372.519C277.574 370.286 291.85 367.363 305.39 361.452C311.914 358.612 316.28 354.195 318.193 347.069C321.349 335.361 325.11 323.818 328.43 312.144C328.675 311.273 328.969 310.502 329.296 309.779C329.296 309.681 329.296 309.582 329.329 309.467C329.738 308.154 330.621 307.185 331.259 306.003C331.929 304.755 332.305 303.326 332.845 302.013C333.417 300.65 333.891 299.32 334.202 297.858C334.447 296.709 334.676 295.543 334.987 294.41C335.02 294.18 335.085 293.95 335.118 293.721C335.15 293.458 335.281 293.294 335.412 293.162V293.146C336.066 290.289 336.72 287.612 338.045 285.281C338.895 282.227 339.925 279.222 340.776 276.168C341.119 274.427 341.479 272.703 341.838 270.963C341.773 271.012 341.708 271.061 341.626 271.11C343.883 261.39 345.943 252.786 347.84 244.149C347.938 243.722 348.069 243.361 348.216 243.016C348.216 241.538 348.249 240.077 348.445 238.616C348.625 237.204 348.968 235.808 349.213 234.412C349.23 233.46 349.246 232.524 349.246 231.572C349.213 231.572 349.197 231.555 349.181 231.555C349.213 231.391 349.23 231.26 349.262 231.095C349.262 230.931 349.262 230.783 349.262 230.619C349.262 230.389 349.328 230.209 349.426 230.061C350.031 226.514 350.603 223.115 351.159 219.848C351.176 219.848 351.176 219.848 351.192 219.848C351.208 218.961 351.241 218.091 351.355 217.221C351.372 217.04 351.421 216.876 351.437 216.712C351.421 216.449 351.405 216.17 351.388 215.907C351.421 215.595 351.372 215.349 351.355 215.086ZM295.791 187.156C299.47 196.482 301.171 206.154 301.122 216.613H293.632C294.057 213.444 294.875 210.193 294.826 206.958C294.761 203.182 294.139 199.372 293.371 195.661C292.39 190.9 291.883 190.621 287.157 191.244C281.466 192 275.776 192.903 270.102 193.757C270.02 193.313 269.938 192.854 269.856 192.41C276.773 189.914 283.69 187.452 290.574 184.89C293.142 183.921 294.842 184.775 295.791 187.156ZM113.366 171.393C102.721 159.784 103.686 140.721 115.95 130.721C117.765 129.243 119.662 127.716 121.771 126.813C125.434 125.237 126.399 122.708 125.859 118.997C124.78 111.641 126.628 104.958 131.043 99.0144C140.805 85.8622 161.212 87.1101 169.372 101.362C169.994 102.463 170.746 103.546 171.073 104.745C171.972 108.111 174.245 108.833 177.303 108.407C183.37 107.536 189.436 106.453 195.536 105.878C203.27 105.155 211.021 104.827 218.772 104.351C224.332 104.006 224.724 103.727 225.395 98.1606C225.836 94.5811 227.439 91.724 229.99 89.1954C238.787 80.4929 258.377 78.9166 265.016 96.9127C265.637 98.6039 266.177 100.344 266.798 102.036C267.943 105.123 269.889 107.356 273.29 107.898C293.959 111.198 307.286 137.913 290.46 160.408C286.192 166.106 280.829 171.377 274.974 175.416C256.268 188.338 235.19 194.808 211.201 196.433C207.211 197.78 203.712 194.184 199.804 191.655C189.044 184.66 177.336 181.146 164.417 181.869C158.269 182.214 152.66 183.987 147.722 187.55C145.514 189.143 143.552 189.143 141.246 188.371C130.716 184.792 121.117 179.833 113.366 171.393ZM163.387 216.876C163.78 218.928 165.104 221.161 162.194 222.491C159.61 223.674 157.582 222.409 155.898 220.702C152.938 217.713 152.497 213.953 153.641 210.111C154.443 207.385 155.734 204.807 156.83 202.131C154.132 200.374 152.677 202.229 151.532 204.036C148.67 208.551 146.626 213.296 148.212 218.879C148.474 219.831 148.245 220.915 148.245 221.999C142.833 220.488 140.053 215.907 141.148 210.538C143.176 200.538 152.284 191.359 162.439 189.898C174.785 188.125 185.986 191.507 196.075 198.765C196.484 199.06 196.68 199.635 197.302 200.555C193.819 201.835 190.516 203.017 187.229 204.249C183.337 205.71 180.394 208.042 179.085 212.278C178.529 214.101 177.417 215.989 176.011 217.237C174.834 218.288 172.316 219.355 171.367 218.781C169.797 217.845 168.097 215.562 168.129 213.887C168.178 211.375 169.617 208.863 170.599 206.416C171.138 205.103 171.956 203.904 172.659 202.64L171.482 201.95C164.663 204.676 162.014 209.569 163.387 216.876ZM173.444 226.728C176.207 225.184 179.085 223.657 181.424 221.555C189.24 214.544 198.365 209.848 208.11 206.433C221.715 201.655 235.729 199.372 250.152 201.589C253.488 202.098 256.856 203.1 259.947 204.462C263.414 206.006 263.822 208.567 261.206 211.392C259.636 213.083 257.674 214.495 255.679 215.677C246.325 221.243 236.351 225.365 225.836 228.156C212.738 231.621 199.689 235.315 186.051 235.808C180.851 235.988 175.602 235.808 170.419 235.381C168.456 235.217 166.592 233.87 164.679 233.066C164.63 232.425 164.581 231.785 164.532 231.145C167.492 229.683 170.55 228.353 173.444 226.728ZM281.973 357.413C272.424 359.236 262.743 360.631 253.063 361.567C231.281 363.669 209.435 363.817 187.638 361.633C180.116 360.878 172.659 359.482 165.219 358.103C160.166 357.167 159.43 356.067 158.858 350.845C158.694 349.285 158.596 347.725 158.416 345.624C202.191 355.426 245.557 355.968 288.792 345.213C290.803 353.357 289.642 355.952 281.973 357.413ZM338.993 247.679C334.938 268.155 329.166 288.154 321.104 307.398C312.748 327.315 296.886 337.841 276.43 342.307C243.186 349.548 209.795 349.86 176.338 343.932C169.797 342.767 163.322 340.993 156.945 339.039C145.138 335.427 136.962 327.43 132.433 316.101C126.922 302.341 121.771 288.417 116.963 274.394C113.513 264.313 110.831 253.952 107.888 243.706C107.414 242.031 107.299 240.258 106.972 238.222C108.052 238.517 108.64 238.534 109.049 238.813C122.016 247.515 136.733 250.684 151.843 252.819C161.834 254.231 171.792 255.955 181.783 257.4C184.809 257.843 187.899 257.892 190.957 258.024C220.62 259.288 250.201 259.009 279.586 254.05C294.548 251.538 309.527 248.993 323.737 243.459C327.563 241.965 331.03 239.601 334.66 237.63C336.181 236.809 337.685 235.956 340.301 234.494C339.827 239.634 339.778 243.739 338.993 247.679ZM336.393 228.205C331.635 231.916 326.075 235.085 320.384 237.039C303.64 242.803 286.437 246.596 268.728 248.517C238.64 251.801 208.568 252.359 178.415 250.389C159.397 249.141 140.74 246.037 123.046 238.632C118.779 236.842 114.592 234.429 111.044 231.473C104.699 226.202 104.781 219.421 110.864 213.756C112.957 211.802 115.361 209.947 117.945 208.83C122.981 206.679 128.246 205.07 133.904 203.067C131.37 208.83 129.326 213.625 127.151 218.354C123.962 225.283 125.81 231.457 133.038 234.297C139.366 236.777 146.087 238.566 152.791 239.765C180.263 244.691 207.44 242.983 234.192 234.987C240.749 233.033 247.323 231.112 252.948 229.437C254.878 230.816 255.744 231.555 256.725 232.113C258.868 233.328 261.01 234.56 263.25 235.545C264.624 236.153 266.177 236.58 267.665 236.629C274.844 236.859 282.055 237.351 289.201 236.924C294.728 236.596 300.337 235.512 305.651 233.92C311.832 232.064 318.062 229.864 323.688 226.761C331.569 222.442 331.259 215.841 323.442 211.556C320.761 210.094 317.85 209.06 315.021 207.861C310.769 206.055 310.491 205.497 311.522 200.144C312.486 200.144 313.549 199.98 314.547 200.177C321.905 201.54 328.789 204.2 335.069 208.288C343.032 213.46 343.883 222.344 336.393 228.205Z" fill="#2E1A14"/>
<path d="M211.218 196.434C207.228 197.78 203.728 194.201 199.82 191.656C189.06 184.661 177.352 181.147 164.434 181.869C158.286 182.214 152.677 183.987 147.738 187.551C145.531 189.143 143.569 189.143 141.263 188.372C130.7 184.792 121.101 179.85 113.366 171.394C102.721 159.785 103.686 140.721 115.95 130.722C117.765 129.244 119.662 127.717 121.771 126.814C125.434 125.237 126.399 122.709 125.859 118.998C124.78 111.642 126.628 104.959 131.043 99.015C140.805 85.8627 161.213 87.1106 169.372 101.363C169.994 102.463 170.746 103.547 171.073 104.745C171.972 108.112 174.245 108.834 177.303 108.407C183.37 107.537 189.436 106.453 195.536 105.878C203.27 105.156 211.021 104.828 218.772 104.351C224.332 104.007 224.724 103.727 225.395 98.1611C225.836 94.5816 227.439 91.7246 229.99 89.1959C238.787 80.4934 258.377 78.9171 265.016 96.9132C265.638 98.6045 266.177 100.345 266.799 102.036C267.943 105.123 269.889 107.356 273.307 107.898C293.976 111.198 307.303 137.914 290.477 160.409C286.209 166.106 280.845 171.377 274.991 175.416C256.284 188.339 235.206 194.808 211.218 196.434ZM192.265 164.152C205.184 164.793 220.048 163.167 234.683 159.67C247.372 156.632 259.685 152.478 270.576 145.04C273.356 143.151 275.907 140.672 277.951 137.979C279.39 136.091 279.324 133.398 276.921 131.707C274.566 130.048 272.996 131.641 271.312 133.185C268.025 136.222 264.967 139.802 261.141 141.871C255.794 144.777 250.005 147.224 244.102 148.636C222.075 153.923 199.673 156.993 177.009 155.548C164.418 154.744 151.271 154.892 140.56 145.959C138.123 143.923 133.414 145.253 132.384 147.552C131.419 149.703 132.727 152.248 136.21 153.791C140.331 155.614 144.533 157.371 148.867 158.504C162.374 162.1 176.142 163.857 192.265 164.152ZM265.834 103.415C258.394 104.401 251.673 105.238 244.968 106.207C241.24 106.749 237.496 107.356 233.833 108.21C232.802 108.456 231.413 109.573 231.249 110.476C231.102 111.297 232.345 112.446 233.097 113.317C233.735 114.056 234.896 114.482 235.272 115.303C237.61 120.492 242.123 121.28 246.947 121.149C252.163 121.001 256.807 119.523 259.522 114.335C258.41 112.988 257.494 111.855 256.399 110.509C260.061 108.965 264.591 109.491 265.834 103.415ZM139.481 120.87C140.576 122.955 141.05 125.04 142.359 126.19C148.262 131.313 159.332 129.375 163.551 122.709C162.913 121.346 162.276 119.983 161.556 118.423C164.777 117.569 168.081 117.356 168.865 112.742C156.896 113.645 145.318 114.532 133.708 115.418C134.052 119.967 137.567 119.885 139.481 120.87Z" fill="#FFFCF7"/>
<path d="M106.972 238.222C108.052 238.517 108.64 238.534 109.049 238.813C122.016 247.516 136.733 250.685 151.843 252.819C161.834 254.231 171.792 255.955 181.783 257.4C184.809 257.844 187.899 257.893 190.957 258.024C220.62 259.289 250.201 259.009 279.586 254.051C294.548 251.538 309.527 248.993 323.737 243.46C327.563 241.966 331.03 239.601 334.66 237.631C336.181 236.81 337.685 235.956 340.301 234.495C339.794 239.65 339.745 243.739 338.96 247.696C334.905 268.172 329.133 288.171 321.071 307.415C312.715 327.332 296.854 337.857 276.397 342.324C243.153 349.565 209.762 349.877 176.305 343.949C169.765 342.783 163.289 341.01 156.912 339.056C145.106 335.444 136.929 327.447 132.4 316.117C126.889 302.358 121.738 288.434 116.931 274.411C113.48 264.329 110.799 253.969 107.855 243.723C107.414 242.031 107.299 240.258 106.972 238.222ZM125.041 265.052C125.483 267.269 125.581 268.155 125.843 268.993C129.816 281.587 133.757 294.197 137.796 306.775C142.195 320.502 151.303 328.991 165.399 332.357C178.987 335.608 192.756 336.921 206.622 338.153C233.26 340.517 259.211 337.184 284.802 330.042C298.914 326.101 308.202 316.873 312.993 303.064C315.25 296.578 317.457 290.059 319.436 283.475C321.545 276.431 323.36 269.305 325.421 261.768C324.113 262.08 323.54 262.08 323.115 262.343C307.401 272.408 289.724 276.398 271.688 279.764C240.864 285.495 209.876 284.033 178.905 282.769C163.24 282.128 148.441 277.383 134.526 270.093C131.697 268.615 128.884 267.088 125.041 265.052Z" fill="#FFFCF7"/>
<path d="M252.964 229.454C254.894 230.833 255.761 231.572 256.742 232.13C258.884 233.345 261.026 234.577 263.266 235.562C264.64 236.169 266.193 236.596 267.681 236.646C274.86 236.876 282.071 237.368 289.217 236.941C294.744 236.613 300.353 235.529 305.667 233.936C311.849 232.081 318.079 229.881 323.704 226.777C331.586 222.459 331.275 215.858 323.459 211.573C320.777 210.111 317.866 209.077 315.037 207.878C310.786 206.072 310.508 205.514 311.538 200.161C312.503 200.161 313.566 199.997 314.563 200.194C321.922 201.557 328.806 204.217 335.085 208.305C343.049 213.477 343.899 222.36 336.41 228.206C331.651 231.917 326.091 235.086 320.401 237.04C303.656 242.803 286.454 246.596 268.744 248.517C238.656 251.801 208.585 252.359 178.431 250.389C159.414 249.141 140.756 246.038 123.063 238.632C118.795 236.843 114.609 234.429 111.06 231.473C104.716 226.203 104.797 219.421 110.88 213.756C112.974 211.802 115.377 209.947 117.961 208.83C122.997 206.679 128.263 205.07 133.921 203.067C131.386 208.83 129.342 213.625 127.167 218.354C123.979 225.283 125.826 231.457 133.054 234.298C139.382 236.777 146.103 238.567 152.807 239.765C180.279 244.691 207.456 242.984 234.208 234.987C240.766 233.033 247.339 231.112 252.964 229.454Z" fill="#FFFCF7"/>
<path d="M169.111 227.122C172.659 225.66 176.273 224.33 179.707 222.705C182.994 221.161 186.411 219.634 189.175 217.533C198.446 210.521 209.288 205.825 220.832 202.41C236.972 197.632 253.619 195.35 270.723 197.566C274.68 198.075 278.67 199.077 282.349 200.44C286.47 201.983 286.944 204.545 283.854 207.369C282.006 209.06 279.651 210.472 277.297 211.654C266.193 217.221 254.371 221.342 241.878 224.133C226.343 227.598 210.841 231.292 194.653 231.785C188.472 231.966 182.258 231.785 176.093 231.358C173.755 231.194 171.547 229.848 169.274 229.043C169.225 228.403 169.16 227.762 169.111 227.122Z" fill="#FFFCF7"/>
<path d="M288.792 345.23C290.803 353.375 289.642 355.969 281.973 357.43C272.423 359.253 262.743 360.649 253.062 361.585C231.281 363.686 209.435 363.834 187.637 361.65C180.115 360.895 172.659 359.499 165.219 358.12C160.166 357.184 159.43 356.084 158.858 350.862C158.694 349.303 158.596 347.743 158.416 345.641C202.207 355.427 245.557 355.969 288.792 345.23Z" fill="#FFFCF7"/>
<path d="M351.486 223.017C351.568 222.409 351.617 221.785 351.634 221.178C351.388 220.965 351.225 220.669 351.225 220.357C351.225 220.176 351.241 220.012 351.241 219.832C351.225 219.832 351.225 219.832 351.208 219.832C350.652 223.099 350.064 226.498 349.475 230.045C349.966 229.257 351.47 229.437 351.47 230.603C351.47 230.669 351.47 230.718 351.47 230.784C351.486 230.816 351.519 230.833 351.535 230.866C351.683 229.749 351.846 228.633 351.928 227.516C352.01 226.432 352.042 225.349 352.075 224.265C351.601 224.035 351.405 223.542 351.486 223.017Z" fill="#FFFCF7"/>
<path d="M171.481 201.934C164.663 204.66 162.014 209.553 163.387 216.877C163.78 218.929 165.104 221.162 162.193 222.492C159.61 223.674 157.582 222.41 155.898 220.702C152.938 217.714 152.497 213.954 153.641 210.112C154.442 207.386 155.734 204.808 156.83 202.132C154.132 200.375 152.676 202.23 151.532 204.036C148.67 208.552 146.626 213.297 148.212 218.88C148.49 219.832 148.245 220.916 148.245 221.999C142.832 220.489 140.053 215.908 141.148 210.538C143.176 200.539 152.284 191.36 162.439 189.899C174.785 188.125 185.986 191.508 196.075 198.765C196.484 199.061 196.68 199.636 197.302 200.555C193.818 201.836 190.515 203.018 187.229 204.25C183.337 205.711 180.393 208.043 179.085 212.279C178.529 214.102 177.417 215.99 176.011 217.238C174.834 218.289 172.315 219.356 171.367 218.781C169.797 217.845 168.097 215.563 168.129 213.888C168.178 211.376 169.617 208.864 170.598 206.417C171.138 205.103 171.956 203.905 172.659 202.641C172.266 202.411 171.874 202.164 171.481 201.934Z" fill="#FFFCF7"/>
<path d="M269.839 192.396C276.756 189.9 283.673 187.437 290.558 184.875C293.125 183.923 294.842 184.777 295.774 187.141C299.453 196.468 301.154 206.139 301.105 216.598C298.03 216.598 295.431 216.598 293.615 216.598C294.041 213.429 294.858 210.178 294.809 206.944C294.744 203.167 294.122 199.358 293.354 195.647C292.373 190.885 291.866 190.606 287.14 191.23C281.449 191.985 275.759 192.888 270.085 193.742C270.019 193.299 269.937 192.855 269.839 192.396Z" fill="#FFFCF7"/>
<path d="M192.265 164.153C176.142 163.841 162.373 162.084 148.866 158.537C144.533 157.404 140.33 155.647 136.21 153.825C132.727 152.281 131.418 149.736 132.383 147.585C133.413 145.27 138.123 143.956 140.559 145.992C151.27 154.925 164.417 154.777 177.008 155.582C199.672 157.027 222.075 153.956 244.101 148.669C250.004 147.257 255.793 144.81 261.14 141.904C264.967 139.819 268.024 136.239 271.311 133.218C272.996 131.674 274.565 130.082 276.92 131.74C279.307 133.415 279.373 136.108 277.95 138.012C275.923 140.705 273.372 143.168 270.575 145.073C259.669 152.495 247.355 156.665 234.682 159.703C220.047 163.184 205.183 164.81 192.265 164.153Z" fill="#2E1A14"/>
<path d="M125.042 265.053C128.884 267.089 131.713 268.616 134.542 270.093C148.474 277.384 163.257 282.113 178.922 282.769C209.893 284.034 240.88 285.495 271.704 279.765C289.757 276.415 307.417 272.425 323.132 262.343C323.541 262.081 324.129 262.081 325.437 261.769C323.377 269.305 321.562 276.431 319.453 283.476C317.474 290.06 315.266 296.562 313.01 303.064C308.219 316.873 298.931 326.101 284.819 330.042C259.228 337.185 233.26 340.518 206.639 338.154C192.772 336.922 179.004 335.608 165.415 332.357C151.32 328.975 142.195 320.486 137.813 306.775C133.79 294.198 129.833 281.604 125.859 268.993C125.581 268.156 125.483 267.269 125.042 265.053Z" fill="#2E1A14"/>
<path d="M158.661 114.155C158.694 118.49 154.851 122.381 150.469 122.463C148.359 122.496 143.928 118.309 143.944 116.322C144.01 111.446 147.476 107.209 151.368 107.226C153.985 107.242 158.629 111.659 158.661 114.155Z" fill="#2E1A14"/>
<path d="M253.144 102.726C253.177 107.061 249.334 110.952 244.952 111.035C242.842 111.067 238.411 106.88 238.427 104.893C238.493 100.017 241.959 95.7805 245.851 95.7969C248.468 95.8133 253.128 100.23 253.144 102.726Z" fill="#2E1A14"/>
<path d="M229.908 134.12C229.94 136.912 227.471 139.408 224.642 139.457C223.285 139.473 220.44 136.797 220.456 135.516C220.505 132.38 222.713 129.671 225.215 129.687C226.899 129.687 229.891 132.528 229.908 134.12Z" fill="#2E1A14"/>
<path d="M210.22 136.928C210.252 139.719 207.783 142.215 204.954 142.264C203.597 142.281 200.752 139.604 200.768 138.324C200.817 135.188 203.025 132.478 205.527 132.495C207.227 132.478 210.203 135.319 210.22 136.928Z" fill="#2E1A14"/>
</svg>
