<?xml version="1.0" encoding="utf-8"?>
<!-- Generator: Adobe Illustrator 25.1.0, SVG Export Plug-In . SVG Version: 6.00 Build 0)  -->
<svg version="1.1" id="Layer_1" xmlns="http://www.w3.org/2000/svg" xmlns:xlink="http://www.w3.org/1999/xlink" x="0px" y="0px"
	 viewBox="0 0 340.2 340.2" style="enable-background:new 0 0 340.2 340.2;" xml:space="preserve">
<style type="text/css">
	.st0{fill:#030303;}
	.st1{fill:#2E1A14;}
	.st2{fill:#FDFDFD;}
</style>
<g>
	<path class="st0" d="M173.4,61.6c0.4,0.1,0.8,0.2,1.2,0.2c0.8,0.2,1.7,0.2,2.5,0.5c2,0.8,3.8,2,5.4,3.5c1,1,1.8,2.2,2.2,3.5
		c0.5,1.6,1.1,3.2,1.6,4.8c0.2,0.8,0.6,1.1,1.4,1.1c2.4,0,4.5,0.7,6.6,1.9c4.2,2.4,8.2,5.2,11.7,8.7c7.9,7.8,9.7,19.2,4.8,29.3
		c-3,6-7.3,10.9-12.5,15.1c-0.7,0.6-1.4,1.1-2.1,1.7c0,0,0,0.1-0.1,0.2c2,0.7,3.9,1.6,6,1.7c7.8,0.2,15.3,1.9,22.8,4.2
		c3.8,1.2,7.5,2.5,11,4.4c3,1.6,5.6,3.7,7.7,6.4c1.2,1.5,2,3.2,2.1,5.1c0,0.5,0,1,0,1.6c-0.2,1.8-0.4,3.6-0.7,5.4
		c-0.4,2.8-0.8,5.7-1.2,8.5c-0.1,0.8-0.2,1.6-0.3,2.5c1.3,0,2.6,0,3.9,0c3.9-0.1,7.5,0.9,10.7,3.1c1.4,1,2.6,2.3,3.3,3.9
		c1.5,3.1,3,6.3,4.3,9.5c1.5,3.5,2.2,7.1,2.5,10.9c0,0.6,0.1,1.2,0.2,1.8c0,3,0,6.1,0,9.1c-0.2,1.2-0.3,2.5-0.5,3.7
		c-0.6,3.6-1.1,7.2-2,10.7c-1.2,4.7-3.4,9-6.9,12.4c-1.9,1.9-4,3.5-6.1,5.2c-5.1,4.1-10.9,6.9-16.8,9.6c-4.7,2.1-9.5,3.8-14.6,4.5
		c-4.7,0.7-9.4,1.4-14.2,0.9c-0.8-0.1-1.4,0.2-1.9,0.8c-0.3,0.4-0.6,0.8-0.9,1.1c-2,2.4-4,4.9-6.1,7.2c-1.2,1.3-1.9,2.7-2.1,4.4
		c-0.1,1.1-0.2,2.2-0.3,3.2c-0.1,1.3-0.8,2.2-2,2.6c-0.6,0.2-1.1,0.4-1.7,0.4c-5,0.6-10,1.4-15,1.3c-6.1-0.1-12.1,0.7-18.2,0.2
		c-2.8-0.3-5.7-0.2-8.5-0.2c-2.9,0-5.8,0-8.8-0.1c-5.8-0.1-11.4-1.4-16.9-3c-1.8-0.5-2.5-1.4-2.7-3.2c-0.2-1.7-0.4-3.4-0.5-5.1
		c-0.1-1-0.6-1.8-1.3-2.5c-1.6-1.6-3.3-3.1-4.8-4.8c-4.4-4.7-8.2-9.8-11.1-15.6c-2.7-5.4-5.6-10.8-8.6-16
		c-3.7-6.5-6.7-13.2-8.9-20.3c-2.7-9-5.4-17.9-8.3-26.8c-1.3-4-2.7-8-3.3-12.2c-0.1-0.6-0.3-1.3-0.7-1.8c-1.3-2-2.5-4.2-3.2-6.5
		c0-0.1-0.1-0.1-0.2-0.1c0-0.6,0-1.3,0-1.9c0.1-0.1,0.2-0.2,0.2-0.4c0.3-2,1.1-3.6,2.4-5.1c1.6-1.9,3.4-3.5,5.5-4.8
		c3.4-2,6.8-3.8,10.5-5.1c1.6-0.6,3.1-1.1,4.9-1.7c-0.8-0.5-1.4-0.9-2-1.4c-3.5-2.2-6.4-5-9-8.2c-4.4-5.6-6.1-11.9-4.9-19
		c1-5.7,3.4-10.6,7.3-14.8c2-2.2,4.1-4.2,6.1-6.2c0.9-0.9,1.7-1.9,1.8-3.2c0.1-2.2,0.3-4.3,0.4-6.5c0.2-2.4,1.1-4.4,2.8-6.1
		c3.4-3.2,7.5-5.1,12-6c2.9-0.6,5.7-0.6,8.4,0.7c1.7,0.8,3.3,1.7,5,2.6c2.2,1.3,3.6,3.2,4.3,5.7c0.2,0.7,0.4,1.4,0.6,2.1
		c8.4-1,16.8-2,25.3-3c0.2-0.7,0.3-1.4,0.5-2.1c0.5-1.8,0.7-3.7,1.5-5.4c1.6-3.8,4.8-5.9,8.6-7c2.1-0.6,4.4-0.7,6.6-1.1
		c0.7-0.1,1.3-0.3,2-0.5C172.6,61.6,173,61.6,173.4,61.6z M102.8,147.6c0.1,0,0.2-0.1,0.3-0.1c0.4-0.7,0.9-1.4,1.4-2.1
		c-1.9-0.8-3.5-1.6-5.3-2.2c-0.6-0.2-1.4-0.2-2,0c-5.5,1.8-10.9,4.2-15.8,7.3c-1.8,1.1-3.3,2.5-4.6,4.2c-2.2,2.9-2,5.7,0.5,8.3
		c2.2,2.2,4.7,4,7.5,5.2c6.9,3,14.1,5.2,21.6,6.5c6.6,1.2,13.2,2.2,19.9,2.6c4,0.3,8,0.5,12.1,0.8c8.7,0.5,17.3,0.8,26,0.3
		c4.1-0.3,8.3-0.3,12.4-0.7c6.3-0.6,12.5-1.5,18.8-2.3c9.4-1.3,18.7-3.5,27.7-6.4c4.6-1.5,9.1-3.3,13.1-6c2.1-1.4,3.9-3.1,5.4-5.1
		c1.3-1.9,1.4-3.8,0.3-5.9c-0.8-1.5-1.9-2.7-3.3-3.6c-3.8-2.5-7.8-4.6-12.1-5.8c-5.5-1.5-11.1-2.9-16.7-4.3
		c-1.2-0.3-2.5-0.5-3.9-0.7c0.5,1.6,0.7,3.1,2.5,3.4c0.2,0.4,0.4,0.8,0.5,1.2c0.7,2.9,1.6,5.7,2.8,8.5c0.9,2.1,0.8,4.2-0.2,6.3
		c-0.8,1.7-2,3.1-3.5,4.3c-1.9,1.5-3.9,2.8-6.3,3.6c-2.3,0.8-4.6,1.3-7,1.5c-2.9,0.2-5.8,0.6-8.7,0.7c-2.5,0-4.9-0.2-7.4-0.4
		c-1.7-0.1-3.4-0.4-5.1-0.5c-2.3-0.1-4.6-0.4-6.9-0.1c-2.5,0.3-5,1-7.4,1.6c-4,1-8,1.9-12.1,2.2c-2.6,0.2-5.2,0.5-7.8,0.7
		c-1.2,0.1-2.5,0.1-3.7,0.3c-2.9,0.3-5.8,0.7-8.7,0.9c-2.2,0.1-4.4,0.1-6.5,0c-1.9-0.1-3.9-0.2-5.8-0.5c-3.7-0.4-7.1-1.8-10.1-3.9
		c-1.4-0.9-2.2-2.3-2.6-4c-0.3-1.7,0-3.2,0.5-4.8c0.3-1.1,0.3-2.1,0.1-3.3c-0.2-1.3-0.1-2.7-0.1-4.1
		C102.6,149.8,102.7,148.7,102.8,147.6L102.8,147.6z M210.3,102.9c-0.4-5.8-2-9.8-5.4-13.5c-3.2-3.5-6.9-6.4-11.2-8.6
		c-2.1-1.1-4.2-1.9-6.6-1.9c-2.3,0-3-0.4-3.7-2.6c-0.6-1.7-1.1-3.5-1.6-5.3c-1.1-3.7-4.9-6.5-8.4-6.2c-2.5,0.2-5,0.5-7.5,0.8
		c-5,0.8-8.4,3.8-9.4,8.6c-0.3,1.4-0.6,2.9-1,4.3c-0.4,1.5-1.5,2.4-3,2.4c-0.8,0-1.5,0-2.3,0c-4.6,0.5-9.1,1.1-13.7,1.5
		c-3,0.3-6,0.4-9,0.6c-1.6,0.1-2.7-0.7-3.2-2.2c-0.3-0.8-0.5-1.7-0.8-2.5c-0.4-1.2-1-2.2-2.1-2.8c-1.4-0.9-2.8-1.8-4.4-2.4
		c-1.1-0.5-2.5-0.8-3.7-0.8c-5-0.2-9.3,1.8-13.1,4.9c-1.5,1.2-2.2,2.8-2.5,4.6c-0.1,1-0.2,1.9-0.3,2.9c-0.3,2.5-0.5,5-0.8,7.5
		c-0.1,0.9-0.4,1.6-1.3,2c-4.5,1.7-7.6,5.1-10.1,9c-2.5,3.7-3.7,7.9-3.8,12.3c-0.1,6.2,2.3,11.3,6.6,15.7c4.5,4.6,9.8,7.9,15.8,10.1
		c2.9,1.1,3,1.1,5.2-1.2c2.3-2.5,5.1-4.2,8.3-5.3c4.2-1.4,8.5-0.9,12.7-0.8c1.5,0.1,3,0.6,4.5,0.8c2.6,0.4,5.3,0.8,7.9,1.2
		c1.7,0.3,3.3,0.7,5,0.8c3.6,0.1,7,0.8,10.5,1.8c0.9,0.2,1.9,0.2,2.8,0c1.7-0.4,3.4-1,5-1.6c7-2.6,14.1-4.3,21.6-4.7
		c1.6-0.1,3-0.6,4.3-1.6c1.3-1,2.7-2,4-3c5.7-4.4,10.4-9.6,13.2-16.4C209.8,108.8,210.5,105.9,210.3,102.9z M242.2,162.7
		c-0.5,0.3-0.9,0.5-1.3,0.7c-1.2,0.9-2.4,1.9-3.7,2.7c-6.9,4.3-14.5,7.2-22.3,9.2c-8.7,2.2-17.6,3.9-26.6,5.1
		c-8.1,1.1-16.3,1.8-24.5,2c-6.6,0.2-13.1,0.2-19.7,0.2c-4.1,0-8.2-0.1-12.2-0.4c-7.5-0.7-15-1.5-22.5-2.6c-7.1-1-14-2.8-20.7-5.2
		c-3.3-1.1-6.4-2.6-9.4-4.5c-0.5-0.3-1-0.8-1.8-0.5c0.5,1.9,1,3.8,1.6,5.6c3.4,10.2,6.9,20.5,10.2,30.7c1.5,4.7,3,9.4,5.3,13.7
		c4.8,9,9.7,18,14.7,27c0.7,1.3,1.6,2.5,2.5,3.6c3.8,4.6,8,8.9,12.4,12.9c1.6,1.5,3.6,2.4,5.7,2.8c6.9,1.2,13.8,2.5,20.7,3.7
		c7.9,1.4,15.7,1.5,23.6,0.4c4.9-0.6,9.7-1.5,14.5-2.3c3.5-0.6,6.4-2.3,8.6-5.2c1.1-1.4,2.3-2.9,3.4-4.3c6.7-8.3,12.3-17.4,17.1-27
		c4.9-9.8,9-19.9,12.7-30.2c1.8-5,3.4-10.2,5-15.3c1.7-5.3,3.5-10.6,5.1-15.9C241.6,167.6,242.2,165.3,242.2,162.7z M105.7,159.6
		c-0.3,0.7-0.7,1.3-0.9,1.9c-0.6,1.7-0.2,2.8,1.4,3.7c0.9,0.6,1.9,1,2.8,1.5c2.4,1.1,5,1.4,7.5,1.8c3.1,0.5,6.2,0.8,9.3,0.5
		c6.3-0.7,12.7-1.5,19-2.3c6.2-0.8,12.3-1.8,18.3-3.5c7.1-2,14.2-4.3,21.3-6.4c2.4-0.7,4.9-1.5,7.3-2.3c4.3-1.5,7.6-4.4,10.9-7.5
		c0.7-0.7,1.2-1.6,1.5-2.5c1.2-3-0.1-5.9-2.9-7.3c-2.6-1.3-5.4-2-8.3-1.9c-2.3,0-4.6,0.2-6.9,0.4c-1.8,0.1-3.5,0.3-5.2,0.5
		c-4.6,0.5-9,1.8-13.3,3.3c-7.3,2.5-14.6,5.1-21.3,9.1c-2.3,1.3-4.5,2.7-6.7,4.1c-2.9,1.9-5.1,4.5-7.1,7.3c-2.1,2.9-5,3.1-7.5,0.5
		c-0.5-0.5-1-1-1.4-1.5c-1.1,0.8-2.2,1.7-3.3,2.4c-1.5,1-3.1,1.1-4.8,0.2c-0.6-0.4-1.3-0.7-1.8-1.1c-0.5-0.4-1-0.5-1.6-0.2
		c-1.5,0.6-3,0.6-4.5,0C106.8,159.9,106.3,159.8,105.7,159.6z M208.6,253.5c0.1,0.1,0.1,0.2,0.2,0.3c1.8,0,3.6,0,5.4,0
		c5.2-0.2,10.3-0.9,15.1-2.9c4.1-1.7,8.2-3.5,12.2-5.5c5.3-2.6,9.8-6.3,14-10.4c2.4-2.4,4.3-5.2,5.5-8.5c1.4-3.7,2.9-7.4,3.1-11.4
		c0.1-2.1,0.1-4.2,0.2-6.3c0.3-3.9,0.3-7.8-0.1-11.7c-0.2-2.5-0.6-5.1-1.5-7.5c-1.1-2.7-2.2-5.3-3.3-8c-1-2.4-2.6-4.1-4.8-5.3
		c-3.5-1.7-7.2-2.1-11-2c-0.3,0-0.9,0.4-1,0.7c-0.6,1.7-1.1,3.5-1.6,5.2c0.1,0.1,0.1,0.1,0.2,0.1c0.7,0,1.4,0.1,2.1,0.1
		c5.1,0.1,8.5,2.6,10.6,7.2c2.7,6,3.4,12.3,2.4,18.7c-0.8,5.7-2.9,10.9-5.9,15.8c-1.7,2.8-3.5,5.4-5.2,8.2
		c-2.7,4.2-6.3,7.1-10.9,9.1c-3.6,1.5-7.5,2-11.3,2.9c-1.3,0.3-2.5,0.1-3.7-0.3c-0.9-0.3-1.9-0.6-2.8-0.9c-0.7,1.1-1.3,2.3-2,3.3
		c-1.6,2.5-3.3,4.9-5,7.3C209.2,252.4,208.9,253,208.6,253.5z M218.4,238c1.5,0.9,3.2,1,5,0.6c1.5-0.3,3-0.7,4.6-1
		c6.1-1.2,10.8-4.5,14.2-9.6c1-1.5,1.8-3,2.8-4.5c2.1-3.2,3.8-6.6,5.2-10.2c3-7.7,3.9-15.5,1.1-23.5c-1.5-4.4-5-7.2-10.2-7
		c-0.7,0-1.1,0.3-1.3,1c-0.4,1.3-0.9,2.7-1.2,4c-3.4,12.1-7.6,23.9-12.7,35.3C223.4,228.1,220.9,233,218.4,238z M126.4,149.2
		c-0.1,0.6-0.1,1.1-0.2,1.6c-0.2,1.1-0.5,2.2-0.7,3.3c-0.3,1.5,0.2,2.8,1.3,3.8c0.9,0.9,1.8,0.9,2.8,0.1c0.5-0.4,0.8-1,1.2-1.5
		c2.7-3.8,6.2-6.9,10.4-9c3.8-1.9,7.7-3.8,11.5-5.7c0.3-0.2,0.6-0.4,0.9-0.6c-0.4-0.3-0.6-0.3-0.9-0.3c-1.9-0.2-3.8-0.3-5.7-0.5
		c-5.1-0.6-10.1-1.7-15-2.9c-3.3-0.8-6.6-1.2-10-0.7c-7,1.1-11.8,5.1-15,11.3c-1.2,2.3-1.2,4.6-0.1,6.9c1,2.2,2.2,2.8,4.7,2.1
		c0-0.4,0-0.9,0-1.4c-0.1-1.8,0.1-3.6,1-5.2c0.9-1.7,2-3.3,3.2-4.9c0.5-0.6,1.3-1.1,2-1.5c0.3-0.2,0.9-0.1,1.1,0.1
		c0.2,0.2,0.2,0.8,0,1.1c-0.5,0.8-1,1.5-1.6,2.3c-1.2,1.7-2.1,3.6-2.5,5.6c-0.3,1.5-0.3,2.9,0.6,4.3c0.6,0.9,1.5,1.2,2.5,1
		c1.5-0.3,2.5-1.1,3.1-2.6c0.8-1.8,1.5-3.7,2.4-5.5C124.1,148.8,124.5,148.6,126.4,149.2z M174.4,163.7c0,0.1,0,0.2,0.1,0.3
		c1,0.1,1.9,0.3,2.9,0.3c4.5,0,8.9,0,13.4-0.1c2.2-0.1,4.4-0.2,6.5-0.6c3.4-0.7,6.5-2.3,9-4.7c2.5-2.4,2.4-6.4,0-8.5
		c-1-0.9-1.4-0.8-2.4,0c-1.7,1.3-3.5,2.7-5.2,4c-2.2,1.6-4.6,2.7-7.2,3.4c-5.3,1.3-10.5,3-15.5,5.3
		C175.5,163.2,175,163.4,174.4,163.7z M124,267.5c0.2,1.2,0.4,2.2,0.6,3.3c0.1,1,0.6,1.5,1.5,1.7c4.8,1.2,9.6,2,14.5,2.3
		c4.8,0.2,9.7,0.3,14.5,0.5c10.4,0.3,20.8,0,31.3-0.6c1.9-0.1,3.9-0.4,5.8-0.7c0.4-0.1,1-0.5,1.1-0.9c0.3-1.1,0.4-2.3,0.5-3.5
		c-0.5,0.2-0.9,0.3-1.2,0.4c-9,2.6-18.2,3.9-27.6,4.1c-5.2,0.1-10.3-0.3-15.4-1.1c-8.2-1.3-16.3-2.7-24.2-5
		C125,267.7,124.6,267.6,124,267.5z"/>
	<path class="st1" d="M268.7,210.2c-0.1,0-0.2,0-0.2,0c0-3,0-6.1,0-9.1c0.1,0,0.2,0,0.2,0C268.7,204.1,268.7,207.1,268.7,210.2z"/>
	<path class="st2" d="M210.3,102.9c0.2,3.1-0.5,5.9-1.7,8.7c-2.8,6.8-7.5,12-13.2,16.4c-1.3,1-2.7,2-4,3c-1.3,1-2.7,1.5-4.3,1.6
		c-7.4,0.4-14.6,2.1-21.6,4.7c-1.6,0.6-3.3,1.2-5,1.6c-0.9,0.2-1.9,0.2-2.8,0c-3.4-1-6.9-1.6-10.5-1.8c-1.7-0.1-3.3-0.5-5-0.8
		c-2.6-0.4-5.3-0.8-7.9-1.2c-1.5-0.2-3-0.8-4.5-0.8c-4.3-0.1-8.5-0.6-12.7,0.8c-3.2,1.1-6,2.8-8.3,5.3c-2.1,2.3-2.2,2.3-5.2,1.2
		c-6-2.2-11.3-5.5-15.8-10.1c-4.2-4.4-6.7-9.5-6.6-15.7c0.1-4.4,1.4-8.6,3.8-12.3c2.6-3.9,5.6-7.3,10.1-9c0.9-0.3,1.2-1.1,1.3-2
		c0.3-2.5,0.5-5,0.8-7.5c0.1-1,0.2-1.9,0.3-2.9c0.2-1.9,1-3.5,2.5-4.6c3.8-3.1,8.1-5.1,13.1-4.9c1.2,0,2.6,0.3,3.7,0.8
		c1.5,0.6,2.9,1.6,4.4,2.4c1.1,0.6,1.7,1.7,2.1,2.8c0.3,0.8,0.5,1.7,0.8,2.5c0.6,1.5,1.7,2.2,3.2,2.2c3-0.2,6-0.3,9-0.6
		c4.6-0.4,9.1-1,13.7-1.5c0.8-0.1,1.5,0,2.3,0c1.5,0,2.7-0.9,3-2.4c0.4-1.4,0.6-2.9,1-4.3c1.1-4.8,4.4-7.8,9.4-8.6
		c2.5-0.4,5-0.6,7.5-0.8c3.6-0.3,7.3,2.5,8.4,6.2c0.5,1.8,1,3.5,1.6,5.3c0.8,2.1,1.5,2.6,3.7,2.6c2.4,0,4.5,0.8,6.6,1.9
		c4.2,2.2,8,5,11.2,8.6C208.3,93.1,209.9,97.1,210.3,102.9z M106.3,115c0.4,1.2,1.2,2.1,2.4,2.6c0.9,0.4,1.9,0.8,2.9,1.1
		c4.1,1.4,8.3,1.5,12.5,1.6c5.8,0.2,11.6,0.3,17.4,0.5c5.2,0.2,10.3,0,15.4-0.8c6.5-1,12.8-2.7,19-4.7c3.9-1.2,7.7-2.6,11.2-4.7
		c1-0.6,2-1.5,2.8-2.4c0.8-0.8,0.5-1.8-0.4-2.4c-0.8-0.5-1.4,0-2.1,0.3c-1.9,1-3.8,2.2-5.8,3c-12.6,5.1-25.7,7.7-39.3,7.8
		c-5.1,0-10.1-0.2-15.2-0.5c-4.3-0.2-8.7-0.5-13-1c-1.7-0.2-3.4-0.7-5.1-1.1C108.1,114.3,107.1,114.1,106.3,115z M170.6,87.1
		c3.1,0,5.9-2.5,5.9-5.3c0-2.9-2.5-5.3-5.5-5.4c-2.5,0-5.6,1.9-5.7,5.5C165.3,84.5,168.5,87.3,170.6,87.1z M107.1,89.8
		c0.1,0.7,0.1,1.2,0.2,1.7c0.2,1.1,0.7,2.1,1.7,2.6c1.4,0.8,3,1,4.6,0.7c0.9-0.2,1.6-0.7,2.1-1.5c0.5-1,1.1-2.1,1.4-3.1
		c0.7-2.2-0.1-4.5-2-6c-0.6-0.5-1.3-0.7-2-0.5c-0.9,0.2-1.8,0.5-2.7,0.7c-1.9,0.4-2.8,1.6-3.1,3.5C107.2,88.6,107.1,89.4,107.1,89.8
		z M155.6,101.6c0.1,1.2,0.6,2.3,1.8,3c1.2,0.6,2.4,0.6,3.3-0.3c0.8-0.7,1.6-1.6,2.1-2.6c0.8-1.4,0.1-3.1-1.3-3.8
		C159,96.8,155.6,98.8,155.6,101.6z M146.2,98.9c-1.3,0-2.5,0.8-3.1,2.3c-0.7,1.5-0.5,3,0.5,4.4c0.5,0.7,1.3,0.9,2.1,0.8
		c2.1-0.4,3.5-1.9,3.9-4C150,100.2,148.9,98.9,146.2,98.9z M176.1,69.4c-2.1-1-4.2-0.5-6.3-0.1c-1,0.2-1.9,0.6-2.8,1.1
		c-0.5,0.2-1,0.7-0.8,1.3c0.2,0.5,0.6,0.9,1.1,1.1c0.4,0.2,0.9,0.3,1.4,0.2c2.1-0.3,4.2-0.6,6.2-1c0.9-0.1,1.2-0.7,1.2-1.5
		C176.1,70.1,176.1,69.8,176.1,69.4z M111.9,78.5c-2.1,0-4.1,0.6-5.9,1.7c-0.6,0.4-1,0.9-0.7,1.6c0.2,0.6,1,0.9,1.7,0.8
		c1.8-0.4,3.5-0.7,5.3-1.1c1.4-0.3,1.9-0.8,1.8-1.7C114,78.8,113.5,78.5,111.9,78.5z"/>
	<path class="st2" d="M242.2,162.7c-0.1,2.6-0.6,4.9-1.3,7.2c-1.6,5.3-3.4,10.6-5.1,15.9c-1.7,5.1-3.2,10.3-5,15.3
		c-3.8,10.3-7.8,20.4-12.7,30.2c-4.8,9.5-10.4,18.6-17.1,27c-1.1,1.4-2.3,2.9-3.4,4.3c-2.2,2.8-5.1,4.6-8.6,5.2
		c-4.8,0.8-9.7,1.6-14.5,2.3c-7.9,1-15.8,0.9-23.6-0.4c-6.9-1.2-13.8-2.5-20.7-3.7c-2.2-0.4-4.1-1.3-5.7-2.8
		c-4.4-4-8.6-8.3-12.4-12.9c-0.9-1.1-1.8-2.4-2.5-3.6c-4.9-9-9.8-18-14.7-27c-2.3-4.3-3.7-9-5.3-13.7c-3.4-10.2-6.8-20.5-10.2-30.7
		c-0.6-1.8-1.1-3.7-1.6-5.6c0.8-0.4,1.3,0.1,1.8,0.5c2.9,1.9,6.1,3.3,9.4,4.5c6.8,2.4,13.7,4.2,20.7,5.2c7.5,1,15,1.9,22.5,2.6
		c4,0.4,8.1,0.4,12.2,0.4c6.6,0,13.1,0,19.7-0.2c8.2-0.3,16.3-0.9,24.5-2c8.9-1.2,17.8-2.9,26.6-5.1c7.9-2,15.4-4.9,22.3-9.2
		c1.3-0.8,2.4-1.8,3.7-2.7C241.3,163.2,241.7,163,242.2,162.7z M163.5,262.3c5.4-0.3,9.2-0.4,13-0.7c5.8-0.5,11.3-1.8,16.8-3.7
		c2.4-0.8,4.1-2.5,5.1-4.8c0.2-0.5,0.5-1,0.8-1.5c1.3-2.3,2.7-4.5,3.8-6.9c2.5-5.1,4.8-10.2,7.4-15.3c2.9-5.7,6.1-11.3,8.9-17.1
		c4.5-9.6,8.4-19.5,11.7-29.6c0.3-0.8,0.5-1.6,0.5-2.4c0-1.6-1.6-2.5-3-1.8c-1.7,0.8-3.5,1.6-5.2,2.3c-6.5,2.9-13.4,4.9-20.3,6.8
		c-7.8,2.1-15.8,3.7-23.8,4.7c-3.4,0.4-6.8,0.7-10.2,0.6c-6.1-0.1-12.2-0.5-18.3-0.8c-6.4-0.3-12.7-0.8-18.9-1.9
		c-4.4-0.8-8.8-1.6-13.2-2.3c-4.3-0.7-8.5-1.2-12.7-2.4c-5.2-1.5-10.4-3-15.7-4.4c-0.7-0.2-1.3-0.4-1.9,0.3c-0.5,0.7,0,1.3,0.3,1.9
		c0.1,0.2,0.3,0.4,0.4,0.6c0.4,0.9,0.8,1.7,1.1,2.6c0.8,2,1.4,4.1,2.2,6c0.7,1.7,1.6,3.3,2.3,5c1.4,3.6,2.6,7.2,4.2,10.7
		c3.3,7.1,6.8,14.1,10.3,21.1c2.1,4.1,4.5,8.1,6.4,12.3c2.1,4.6,4.3,9.2,7.7,13c0.8,0.9,1.6,1.7,2.7,2c2.2,0.6,4.5,1.3,6.7,1.7
		c5.8,1,11.7,1.8,17.5,2.8C155,262.1,160,262.6,163.5,262.3z"/>
	<path class="st2" d="M105.7,159.6c0.7,0.2,1.1,0.3,1.6,0.5c1.5,0.6,3,0.6,4.5,0c0.6-0.3,1.1-0.2,1.6,0.2c0.6,0.4,1.2,0.8,1.8,1.1
		c1.6,0.9,3.2,0.8,4.8-0.2c1.1-0.7,2.2-1.6,3.3-2.4c0.5,0.5,0.9,1,1.4,1.5c2.5,2.5,5.5,2.4,7.5-0.5c2-2.8,4.2-5.4,7.1-7.3
		c2.2-1.4,4.5-2.8,6.7-4.1c6.7-4,14-6.6,21.3-9.1c4.3-1.5,8.8-2.7,13.3-3.3c1.7-0.2,3.5-0.4,5.2-0.5c2.3-0.2,4.6-0.3,6.9-0.4
		c2.9,0,5.7,0.7,8.3,1.9c2.9,1.4,4.1,4.4,2.9,7.3c-0.4,0.9-0.8,1.9-1.5,2.5c-3.2,3-6.5,6-10.9,7.5c-2.4,0.8-4.9,1.5-7.3,2.3
		c-7.1,2.2-14.2,4.4-21.3,6.4c-6,1.7-12.1,2.7-18.3,3.5c-6.3,0.8-12.7,1.5-19,2.3c-3.1,0.4-6.2,0.1-9.3-0.5
		c-2.5-0.4-5.1-0.7-7.5-1.8c-1-0.5-1.9-1-2.8-1.5c-1.6-1-1.9-2-1.4-3.7C105,160.8,105.3,160.2,105.7,159.6z"/>
	<path class="st1" d="M102.8,147.6c-0.1,1.1-0.1,2.2-0.1,3.3c0,1.4-0.1,2.8,0.1,4.1c0.2,1.1,0.2,2.2-0.1,3.3
		c-0.4,1.6-0.8,3.1-0.5,4.8c0.3,1.7,1.2,3.1,2.6,4c3.1,2.1,6.4,3.5,10.1,3.9c1.9,0.2,3.9,0.4,5.8,0.5c2.2,0.1,4.4,0.1,6.5,0
		c2.9-0.2,5.8-0.6,8.7-0.9c1.2-0.1,2.5-0.2,3.7-0.3c2.6-0.2,5.2-0.5,7.8-0.7c4.1-0.3,8.1-1.2,12.1-2.2c2.5-0.6,4.9-1.3,7.4-1.6
		c2.3-0.2,4.6,0,6.9,0.1c1.7,0.1,3.4,0.4,5.1,0.5c2.5,0.2,4.9,0.5,7.4,0.4c2.9-0.1,5.8-0.5,8.7-0.7c2.4-0.2,4.7-0.7,7-1.5
		c2.3-0.8,4.4-2.1,6.3-3.6c1.5-1.2,2.7-2.5,3.5-4.3c1-2.1,1.2-4.3,0.2-6.3c-1.2-2.7-2.1-5.6-2.8-8.5c-0.1-0.4-0.3-0.8-0.5-1.2
		c1.2,0.2,2.4,0.3,3.7,0.5c6.3,1.1,12.2,3.2,17.8,6.2c1.3,0.7,2.5,1.6,3.5,2.8c2,2.6,2,4.8,0,7.4c-1.3,1.6-2.9,2.7-4.7,3.7
		c-4.9,2.8-10.1,4.8-15.5,6.3c-2.2,0.6-4.4,1.3-6.6,1.6c-5.6,0.8-11.2,1.4-16.9,2.1c-5.7,0.7-11.5,1.5-17.3,2
		c-7.7,0.7-15.5,1.1-23.2,1.6c-4.9,0.3-9.8,0.6-14.7,0.7c-7.1,0.2-14-1-20.9-2.1c-7.6-1.2-14.9-3.9-22-6.7c-2.1-0.8-4-2-5.7-3.5
		c-2.5-2.2-2.7-4.5-0.6-7c1.5-1.8,3.2-3.2,5.4-4.1C94.9,150.7,98.8,149.1,102.8,147.6z"/>
	<path class="st2" d="M102.8,147.6c-3.9,1.5-7.9,3.1-11.8,4.6c-2.2,0.9-3.9,2.3-5.4,4.1c-2.1,2.5-1.9,4.8,0.6,7
		c1.7,1.5,3.6,2.6,5.7,3.5c7.1,2.9,14.4,5.5,22,6.7c6.9,1.1,13.9,2.4,20.9,2.1c4.9-0.2,9.8-0.4,14.7-0.7c7.7-0.5,15.5-0.9,23.2-1.6
		c5.8-0.5,11.5-1.3,17.3-2c5.6-0.7,11.3-1.3,16.9-2.1c2.2-0.3,4.4-1,6.6-1.6c5.4-1.5,10.6-3.5,15.5-6.3c1.7-1,3.4-2.1,4.7-3.7
		c2.1-2.5,2.1-4.8,0-7.4c-1-1.2-2.2-2.1-3.5-2.8c-5.6-3-11.5-5.1-17.8-6.2c-1.2-0.2-2.4-0.3-3.7-0.5c-1.8-0.3-2-1.8-2.5-3.4
		c1.4,0.3,2.7,0.4,3.9,0.7c5.6,1.4,11.1,2.8,16.7,4.3c4.4,1.2,8.4,3.3,12.1,5.8c1.4,0.9,2.5,2.1,3.3,3.6c1.1,2,1,4-0.3,5.9
		c-1.5,2-3.3,3.7-5.4,5.1c-4,2.7-8.5,4.5-13.1,6c-9,3-18.3,5.2-27.7,6.4c-6.3,0.8-12.5,1.7-18.8,2.3c-4.1,0.4-8.3,0.5-12.4,0.7
		c-8.7,0.5-17.3,0.2-26-0.3c-4-0.2-8.1-0.5-12.1-0.8c-6.7-0.5-13.3-1.4-19.9-2.6c-7.4-1.3-14.7-3.5-21.6-6.5c-2.8-1.2-5.4-3-7.5-5.2
		c-2.5-2.6-2.7-5.4-0.5-8.3c1.3-1.7,2.8-3.1,4.6-4.2c4.9-3.2,10.3-5.5,15.8-7.3c0.6-0.2,1.4-0.2,2,0c1.7,0.6,3.4,1.4,5.3,2.2
		c-0.5,0.8-0.9,1.5-1.4,2.1C103,147.5,102.9,147.5,102.8,147.6L102.8,147.6z"/>
	<path class="st2" d="M208.6,253.5c0.3-0.6,0.6-1.2,1-1.7c1.7-2.4,3.4-4.9,5-7.3c0.7-1.1,1.3-2.2,2-3.3c0.9,0.3,1.9,0.6,2.8,0.9
		c1.2,0.4,2.4,0.5,3.7,0.3c3.8-0.9,7.7-1.4,11.3-2.9c4.6-1.9,8.2-4.9,10.9-9.1c1.7-2.7,3.6-5.4,5.2-8.2c2.9-4.9,5-10.1,5.9-15.8
		c0.9-6.5,0.3-12.7-2.4-18.7c-2.1-4.6-5.5-7.1-10.6-7.2c-0.7,0-1.4-0.1-2.1-0.1c0,0-0.1,0-0.2-0.1c0.5-1.7,1-3.5,1.6-5.2
		c0.1-0.3,0.6-0.7,1-0.7c3.8-0.1,7.5,0.3,11,2c2.3,1.1,3.9,2.9,4.8,5.3c1.1,2.7,2.2,5.3,3.3,8c1,2.4,1.3,4.9,1.5,7.5
		c0.4,3.9,0.4,7.8,0.1,11.7c-0.2,2.1-0.1,4.2-0.2,6.3c-0.2,4-1.8,7.7-3.1,11.4c-1.2,3.2-3,6.1-5.5,8.5c-4.2,4.1-8.7,7.8-14,10.4
		c-4,2-8.1,3.8-12.2,5.5c-4.8,2-9.9,2.7-15.1,2.9c-1.8,0.1-3.6,0-5.4,0C208.7,253.8,208.6,253.7,208.6,253.5z"/>
	<path class="st2" d="M126.4,149.2c-1.9-0.6-2.4-0.5-3.2,1.2c-0.8,1.8-1.6,3.6-2.4,5.5c-0.6,1.4-1.6,2.3-3.1,2.6
		c-1,0.2-1.9-0.1-2.5-1c-0.9-1.3-0.9-2.8-0.6-4.3c0.4-2.1,1.3-3.9,2.5-5.6c0.5-0.7,1.1-1.5,1.6-2.3c0.2-0.3,0.2-0.9,0-1.1
		c-0.2-0.2-0.8-0.2-1.1-0.1c-0.7,0.4-1.5,0.8-2,1.5c-1.2,1.6-2.3,3.2-3.2,4.9c-0.9,1.6-1.1,3.4-1,5.2c0,0.5,0,0.9,0,1.4
		c-2.5,0.7-3.7,0.1-4.7-2.1c-1-2.3-1-4.7,0.1-6.9c3.2-6.1,8-10.2,15-11.3c3.4-0.5,6.7-0.1,10,0.7c5,1.2,10,2.3,15,2.9
		c1.9,0.2,3.8,0.3,5.7,0.5c0.3,0,0.5,0.1,0.9,0.3c-0.3,0.2-0.6,0.4-0.9,0.6c-3.8,1.9-7.7,3.8-11.5,5.7c-4.2,2.1-7.7,5.1-10.4,9
		c-0.4,0.5-0.7,1.1-1.2,1.5c-0.9,0.8-1.9,0.8-2.8-0.1c-1.1-1-1.6-2.3-1.3-3.8c0.2-1.1,0.5-2.2,0.7-3.3
		C126.4,150.3,126.4,149.8,126.4,149.2z"/>
	<path class="st2" d="M174.4,163.7c0.5-0.3,1.1-0.6,1.6-0.8c5-2.3,10.1-4,15.5-5.3c2.6-0.6,5-1.8,7.2-3.4c1.8-1.3,3.5-2.7,5.2-4
		c1-0.8,1.4-0.8,2.4,0c2.4,2.1,2.5,6.2,0,8.5c-2.5,2.4-5.6,4-9,4.7c-2.1,0.4-4.3,0.6-6.5,0.6c-4.5,0.1-8.9,0.1-13.4,0.1
		c-1,0-1.9-0.2-2.9-0.3C174.5,163.9,174.5,163.8,174.4,163.7z"/>
	<path class="st2" d="M124,267.5c0.5,0.1,0.9,0.2,1.3,0.3c8,2.3,16.1,3.7,24.2,5c5.1,0.8,10.2,1.2,15.4,1.1
		c9.4-0.2,18.6-1.6,27.6-4.1c0.3-0.1,0.7-0.2,1.2-0.4c-0.2,1.2-0.2,2.4-0.5,3.5c-0.1,0.4-0.7,0.8-1.1,0.9c-1.9,0.3-3.9,0.6-5.8,0.7
		c-10.4,0.6-20.8,0.8-31.3,0.6c-4.8-0.1-9.7-0.2-14.5-0.5c-4.9-0.2-9.8-1-14.5-2.3c-1-0.2-1.4-0.7-1.5-1.7
		C124.5,269.7,124.2,268.6,124,267.5z"/>
	<path class="st1" d="M102.8,147.6c0.1,0,0.2-0.1,0.3-0.1C103,147.5,102.9,147.5,102.8,147.6z"/>
	<path class="st0" d="M106.3,115c0.8-1,1.8-0.7,2.6-0.5c1.7,0.3,3.4,0.9,5.1,1.1c4.3,0.4,8.7,0.8,13,1c5.1,0.2,10.1,0.5,15.2,0.5
		c13.6-0.1,26.7-2.7,39.3-7.8c2-0.8,3.9-2,5.8-3c0.7-0.3,1.3-0.8,2.1-0.3c0.9,0.6,1.2,1.6,0.4,2.4c-0.9,0.9-1.8,1.7-2.8,2.4
		c-3.5,2.2-7.3,3.5-11.2,4.7c-6.2,2-12.6,3.6-19,4.7c-5.1,0.8-10.2,1-15.4,0.8c-5.8-0.2-11.6-0.3-17.4-0.5
		c-4.2-0.2-8.5-0.2-12.5-1.6c-1-0.3-2-0.7-2.9-1.1C107.6,117.1,106.7,116.3,106.3,115z"/>
	<path class="st0" d="M170.6,87.1c-2.1,0.3-5.3-2.5-5.2-5.1c0.1-3.6,3.2-5.5,5.7-5.5c2.9,0,5.5,2.5,5.5,5.4
		C176.5,84.6,173.8,87.1,170.6,87.1z"/>
	<path class="st0" d="M107.1,89.8c0.1-0.5,0.1-1.2,0.2-1.9c0.3-1.8,1.2-3.1,3.1-3.5c0.9-0.2,1.8-0.5,2.7-0.7c0.8-0.2,1.4,0,2,0.5
		c1.9,1.4,2.7,3.7,2,6c-0.3,1.1-0.9,2.1-1.4,3.1c-0.4,0.8-1.2,1.3-2.1,1.5c-1.6,0.4-3.2,0.1-4.6-0.7c-1-0.5-1.5-1.5-1.7-2.6
		C107.2,91,107.1,90.5,107.1,89.8z"/>
	<path class="st0" d="M155.6,101.6c0.1-2.8,3.4-4.8,5.9-3.6c1.4,0.7,2,2.3,1.3,3.8c-0.5,1-1.3,1.8-2.1,2.6c-1,0.9-2.2,0.9-3.3,0.3
		C156.1,104,155.6,102.9,155.6,101.6z"/>
	<path class="st0" d="M146.2,98.9c2.7,0,3.7,1.3,3.3,3.5c-0.4,2.1-1.8,3.6-3.9,4c-0.9,0.2-1.6-0.1-2.1-0.8c-1-1.4-1.2-2.9-0.5-4.4
		C143.8,99.7,145,98.9,146.2,98.9z"/>
	<path class="st0" d="M176.1,69.4c0,0.4,0,0.8,0.1,1.1c0,0.8-0.3,1.4-1.2,1.5c-2.1,0.3-4.2,0.7-6.2,1c-0.5,0.1-1,0-1.4-0.2
		c-0.4-0.2-0.9-0.7-1.1-1.1c-0.2-0.6,0.3-1.1,0.8-1.3c0.9-0.4,1.8-0.9,2.8-1.1C171.8,68.9,173.9,68.4,176.1,69.4z"/>
	<path class="st0" d="M111.9,78.5c1.6,0,2.1,0.3,2.2,1.3c0.1,1-0.4,1.5-1.8,1.7c-1.8,0.4-3.5,0.7-5.3,1.1c-0.7,0.1-1.5-0.2-1.7-0.8
		c-0.2-0.7,0.1-1.2,0.7-1.6C107.9,79.1,109.8,78.6,111.9,78.5z"/>
	<path class="st1" d="M163.5,262.3c-3.5,0.3-8.5-0.2-13.5-1.1c-5.8-1-11.7-1.8-17.5-2.8c-2.3-0.4-4.5-1.1-6.7-1.7
		c-1.1-0.3-1.9-1.2-2.7-2c-3.4-3.8-5.6-8.4-7.7-13c-1.9-4.2-4.3-8.2-6.4-12.3c-3.5-7-7-14-10.3-21.1c-1.6-3.5-2.7-7.1-4.2-10.7
		c-0.7-1.7-1.6-3.3-2.3-5c-0.8-2-1.4-4-2.2-6c-0.3-0.9-0.7-1.7-1.1-2.6c-0.1-0.2-0.3-0.4-0.4-0.6c-0.4-0.6-0.8-1.2-0.3-1.9
		c0.5-0.7,1.2-0.5,1.9-0.3c5.2,1.5,10.4,2.9,15.7,4.4c4.2,1.2,8.4,1.7,12.7,2.4c4.4,0.7,8.8,1.5,13.2,2.3c6.3,1.1,12.6,1.7,18.9,1.9
		c6.1,0.2,12.2,0.7,18.3,0.8c3.4,0.1,6.8-0.2,10.2-0.6c8-1,16-2.6,23.8-4.7c6.9-1.9,13.7-3.9,20.3-6.8c1.7-0.8,3.5-1.5,5.2-2.3
		c1.5-0.7,3.1,0.2,3,1.8c0,0.8-0.3,1.7-0.5,2.4c-3.2,10.1-7.1,20-11.7,29.6c-2.7,5.8-6,11.4-8.9,17.1c-2.6,5-4.9,10.2-7.4,15.3
		c-1.2,2.3-2.5,4.6-3.8,6.9c-0.3,0.5-0.6,1-0.8,1.5c-1,2.3-2.7,3.9-5.1,4.8c-5.4,1.9-11,3.2-16.8,3.7
		C172.7,261.8,168.9,262,163.5,262.3z"/>
</g>
</svg>
