<?xml version="1.0" encoding="utf-8"?>
<!-- Generator: Adobe Illustrator 25.1.0, SVG Export Plug-In . SVG Version: 6.00 Build 0)  -->
<svg version="1.1" id="Layer_1" xmlns="http://www.w3.org/2000/svg" xmlns:xlink="http://www.w3.org/1999/xlink" x="0px" y="0px"
	 viewBox="0 0 340.2 340.2" style="enable-background:new 0 0 340.2 340.2;" xml:space="preserve">
<style type="text/css">
	.st0{fill:#F57F20;}
	.st1{fill:#FFFFFF;}
</style>
<g>
	<path d="M102.8,155.7c-7.3-3-13.4-6.9-17.5-13.7c-0.3,0.3-0.6,0.6-0.9,0.9c-2.2,3.1-5.9,4.9-9.7,4.8c-3,0-5.9-0.8-8.4-2.3
		c-1.5-0.9-2.7-2.1-3.7-3.6c-1.5-2.2-1.7-4.9-0.7-7.3c0.1-0.3,0.2-0.7,0.3-1c-2-0.7-3.9-1.4-5.8-1.9c-3.3-1-5.6-4.2-5.5-7.6
		c0-1.4,0.2-2.8,0.5-4.2c1.1-4.5,5.2-7.6,9.9-7.3c0.7,0,1.5,0,2.3,0c0.2-0.6,0.3-1,0.5-1.5c0.9-2.9,2.6-4.2,5.6-4.4
		c2.5-0.1,5-0.1,7.2,1.2c0.4,0.1,0.8,0.2,1.2,0.3c-0.4-1.3-0.7-2.3-1-3.4c-0.9-3.1-0.2-6.4,1.8-9c0.6-0.8,1.2-1.6,1.7-2.4
		c1.7-2.5,4-4.5,6.8-5.7c3.3-1.8,7-2.5,10.7-2.2c0.3,0,0.6,0,0.9-0.1c0.1-1.2,0.2-2.4,0.4-3.6c1-4.5,3.3-8.6,6.6-11.9
		c0.6-0.6,1.4-1.2,2.2-1.5c4.7-2.4,10.1-3.2,15.4-2.5c1.9,0.3,3.7,1,5.2,2.2c1.8-1.3,3.8-2.4,6-3.1c3.7-1.4,8.3-0.3,9.9,4
		c0.1,0.3,0.3,0.5,0.5,0.8c2.1-0.8,4.3-1.6,6.6-0.7c2.1,0.8,4.3,1.2,6.2,2.5c1.9,1.4,3.4,3.4,4.2,5.6c1.3-1.9,2.9-3.3,5-3.5
		c3.1-0.5,6.2-0.1,9,1.3c3.8,2.1,5.4,5.8,6.5,9.6c0.5,2,0.8,4.1,1,6.2c0.1,0.8,0.1,1.6,0.2,2.7c1.9,0.8,3.9,1.5,5.8,2.3
		c5.7,2.5,10.9,5.9,14.3,11.3c3.9,5.7,4.5,13.1,1.5,19.4c-1.9,4.4-4.7,8.4-8.1,11.8c-0.6,0.6-1.2,1.3-2,2.1c0.5,0.4,1,0.7,1.5,1.1
		c1.9,1.6,3.9,3.1,5.8,4.7c0.7,0.8,1.8,1.1,2.8,0.9c7.1-1,14.4,0.4,20.6,4.1c2.9,1.7,5.4,4.2,7.1,7.2c0.4,0.9,1.3,1.5,2.3,1.5
		c2.1,0.3,4.1,1,5.9,2c2.1,1.2,4.2,2.3,6.2,3.6c3.9,2.6,6.7,6.6,7.8,11.2c0.5,1.5,0.6,3,0.5,4.6c-0.1,1.1-0.1,2.2,0,3.3
		c1.6-0.4,3.1-0.7,4.6-1c6.9-1.7,14.2-0.3,20,3.8c7,4.8,9.8,11.6,8.8,19.9c-0.4,2.6-0.9,5.2-1.7,7.7c-1,3.5-3.4,6.3-5.6,9.2
		c-1.3,1.8-2.8,3.6-4.4,5.1c-2.2,2.1-4.8,3.8-7.1,5.9c-4.8,4.4-10.7,6.2-16.8,7.8c-4.2,1-8.5,1.2-12.7,1.7c-1.6,0.2-3.1,0.3-4.7,0.6
		c-0.6,0.1-1.1,0.3-1.6,0.7c-2.7,3-6.1,5.2-9.1,7.7c-0.1,0-0.1,0.1,0.1-0.1c-0.4,2.1-0.8,3.9-1.2,5.7c-0.4,1.8-0.9,3.5-1.3,5.3
		c-0.2,1.2-0.8,2.3-1.8,3c-1.4,1-2.9,1.9-4.3,2.9c-0.1,0-0.1,0.1-0.2,0.1c-4.3,2.9-9.3,3.1-14.3,3.4c-7,0.4-14,1-20.9,1.4
		c-7,0.3-14,0.2-21-0.3c-3.7-0.3-7.3-0.7-11-1c-5.5-0.7-11-2-16.2-3.9c-2.6-0.9-5.3-1.8-7.9-2.7c-2-0.8-3.6-2.2-4.5-4.1
		c-1.8-3.3-3.1-6.9-3.6-10.6c-0.1-1.2-0.9-2.2-2-2.7c-3.6-1.9-7.1-4-10.3-6.5c-6.3-4.7-10.9-11.4-13-19c-1.7-5.7-3.6-11.3-5.1-17.1
		c-1-4.3-1.8-8.7-2.3-13.1c-0.2-2.5-0.7-5.1-1.4-7.5c-0.8-1.7-0.9-3.7-0.5-5.5c0.1-0.3,0.1-0.6,0.1-0.9c-0.7-4.4,1.3-7.6,4.4-10.3
		c2.5-2.2,5.3-4,8.4-5.2c1-0.2,1.7-1,1.9-2c0.4-1.5,1.2-2.9,2.3-4C100.8,158,101.7,157,102.8,155.7z M252.4,184.3l-0.4-0.3
		c-0.4,0.4-0.8,0.8-1.3,1.2c-1.5,1.4-3.1,2.6-4.7,3.8c-7.2,4.8-15.4,7.5-23.7,9.7c-5.8,1.5-11.8,2.4-17.7,3.4
		c-3.8,0.7-7.6,1.2-11.4,1.6c-3.4,0.4-6.7,0.5-10.1,0.7c-6.2,0.3-12.5,0.6-18.7,0.6c-5.5,0-11-0.5-16.4-0.7c-6.7-0.3-13.4-0.9-20-2
		c-6.8-1-13.6-2.4-20.3-4.4c-6.6-2-13.2-4.3-18.8-8.6c-0.5-0.4-1.2-0.7-2-1.2c0.1,6.5,1.1,13,3,19.2c1.7,5.5,3.5,10.9,5.3,16.3
		c1.8,5.8,4.7,11.2,9.2,15.3c3,2.6,6.3,4.9,9.7,7c3.3,2,6.8,3.8,10.4,5.4c6.2,2.9,12.7,5.2,19.3,6.7c9.4,2.3,19.1,3.3,28.9,2.8
		c6.3-0.4,12.6-0.7,18.9-0.9c5.9,0,11.9-0.8,17.6-2.3c4.6-1.2,8.9-3.2,12.7-6c0.9-0.8,1.9-1.5,2.9-2.2c3.9-2.6,7.3-5.8,10.1-9.6
		c2.3-2.8,4.1-5.9,5.4-9.3c1.6-4.1,3.3-8.1,5.1-12c2.4-5,4-10.4,4.9-15.9c0.3-2.6,0.4-5.2,0.4-7.9c0-2.5,0.3-5,1-7.3
		C252,186.3,252.2,185.3,252.4,184.3L252.4,184.3z M86.3,139.3c1.6,2.6,3.7,4.8,6,6.7c3.1,2.2,6.1,4.7,9.8,6
		c0.2,0.1,0.4,0.2,0.6,0.3c2,1.4,4.4,2.3,6.9,2.6c3.6,0.6,7.2,1.5,10.8,2.1c1.5,0.3,3,0.2,4.5,0.5c4.2,0.8,8.4,0.9,12.6,0.4
		c4.9-0.5,9.8-1.3,14.8-2c3.1-0.3,6.1-0.9,9.1-1.6c6.5-1.8,12.8-4.4,18.7-7.7c4.3-2.5,8.5-5.2,12.6-7.9c1.1-0.8,2.1-1.7,3-2.7
		c2.9-2.9,4.5-6.6,6.3-10.1c2.8-5.4,2.1-14.7-3.2-19.7c-4.8-4.4-10-7.9-16.4-9.4c-1.9-0.5-2.3-0.8-2.2-2.8c0.1-2-0.1-4.1-0.5-6
		c-0.5-2.5-1.4-4.9-2.6-7.2c-2.4-4.6-10.9-5.9-13.4-0.9c-0.2,0.3-0.4,0.6-0.7,0.9c-0.7,0.7-1.1,1.6-1.1,2.6c-0.2,2.7-1,5.4-2.3,7.7
		c-2.6,4.5-6.4,7.1-11.8,7c-0.6,0-1.2,0-1.8,0c-0.2,0.5-0.4,0.9-0.5,1.3c-0.8,2.5-2.9,4.5-5.4,5.3c-3.5,1.3-7.3,1.4-10.9,0.4
		c-0.4-0.1-0.8-0.2-1.2-0.2c-1,3.8-3.6,6.2-6.5,8.2c-3.1,2-6.6,1.8-9.9,0.2c-1-0.5-1.9-1.1-3.1-1.8c-1,2.5-2.9,4.6-5.4,5.7
		c2,4,1.8,8,1.2,12.1c-0.5,3.7-2.6,7-5.7,9.1c-3.5,2.4-7.1,3.5-11.2,1.2C87,139.3,86.7,139.3,86.3,139.3z M104.6,90
		c-1.1,0.4-1.6-0.2-2.3-0.5c-2.7-1.3-5.5-2-8.5-1c-2.1,0.7-4.1,1.5-6.1,2.3c-3.9,1.6-5.8,5.1-7.8,8.5c-0.1,0.1-0.1,0.3-0.1,0.4
		c-0.4,1.3-0.5,2.7-0.1,4c1.5,4.9,4.2,8.6,9.4,10.1c2.9,0.8,5.9,1.2,8.9,1c3.2,0.1,6.2-1.8,7.7-4.7c0.2-0.5,0.5-0.9,0.7-1.4
		c0.8-1.4,1.6-1.4,2.9-0.5c1.3,1,2.7,1.8,4.2,2.5c1.7,0.8,3.6,0.7,5.2-0.2c3.5-2.2,7.1-4.6,6.5-9.6c0.1-0.6,0.4-1.1,0.9-1.3
		c0.6-0.1,1.1,0,1.6,0.3c0.2,0.1,0.4,0.4,0.5,0.7c0.6,1,1.7,1.7,2.9,1.9c2.7,0.5,5.4,0.3,7.9-0.8c2.4-0.9,4-3.1,4.3-5.6
		c0.3-1.8,0.6-2,2.3-1.5c1.9,0.6,3.9,0.5,5.7-0.4c2.8-1.3,4.9-3.6,6.1-6.4c1.1-2.7,1.6-5.7,1.4-8.6c0-1.5-0.6-2.8-1.8-3.7
		c-1.3-0.8-2.7-1.6-4.2-2.2c-2.2-1.1-4.8-1-6.9,0.3c-2.4,1.3-3.3,0.8-3.8-1.9c0-0.1,0-0.3,0-0.4c-0.5-2.6-2.1-4-4.8-3.7
		c-2.8,0.3-5.5,1-6.9,3.9c-0.6,1.3-1.6,1.3-2.5,0.3c-0.1-0.2-0.3-0.4-0.4-0.6c-0.8-1.3-2.1-2.2-3.7-2.4c-1.9-0.3-3.9-0.4-5.8-0.4
		c-5.7,0.3-10.8,2-13.7,7.6c0,0.1-0.1,0.1-0.1,0.2c-2.3,3-3.2,6.8-2.4,10.6C103,87.6,104.8,87.9,104.6,90z M245,230.4
		c-2.1,3.8-4,7.5-6.1,11.3c4.4-0.7,8.8-1.4,13.2-2c3.3-0.5,6.3-1.9,9.4-3c1.9-0.7,3.6-1.8,5.1-3.2c1.4-1.2,3-2.3,4.5-3.4
		c0.6-0.5,1.2-0.9,1.8-1.4c3-2.8,5.7-6,8.1-9.4c3.3-4.2,5-9.5,4.8-14.9c-0.2-5.6-2.2-10.2-6.8-13.6c-3.5-2.6-7.7-4.1-12.1-4.3
		c-3.5-0.1-7.1,0.3-10.5,1.1c-0.5,0.1-1.1,0.3-1.6,0.5c-0.5,3.2-1.2,6.3-0.5,9.5c1.6-0.4,3-0.8,4.4-1c2.4-0.4,4.8-0.4,6.6,1.3
		c4.1,3.9,5.7,8.3,2.8,13.3c-1.1,1.9-2.6,3.5-3.7,5.4c-2.6,4.4-6.4,7.4-10.8,10C250.9,228.3,248,229.6,245,230.4z M100.4,118.1
		c-2.9-0.2-5.6-0.4-8.4-0.7c-3-0.2-5.8-1.2-8.2-2.9c-1.7-1.3-3.5-2.3-5.3-3.4c-1.9-1.1-4-1.9-6.1-2.1c-2.6-0.5-5.2,1.2-5.7,3.9
		c0,0.2-0.1,0.5-0.1,0.7c0,0.4,0,0.7-0.1,1.1c-0.2,0.7-0.9,1.2-1.6,1c0,0-0.1,0-0.1,0c-0.4-0.1-0.8-0.3-1.3-0.5
		c-2.4-0.7-4.9-0.2-6.8,1.4c-2.5,2.1-3.7,5.3-3.2,8.5c0.1,1.8,1.3,3.4,3,4.2c2.6,1.2,5.4,1.8,8.3,1.6c0.5,0,1.1,0,1.6,0.1
		c0.8,1.6-0.2,2.3-1,3.1c-2.1,2.5-2,4.9,0.2,7.2c2.4,2.5,5.4,3,8.6,3.1c3.2,0.1,6.1-1.5,7.8-4.2c0.7-1,1.2-2.1,1.7-3.2
		c0.8-1.8,1.6-2.1,3.3-1.1c0.2,0.1,0.4,0.2,0.6,0.4c1.6,1,3.6,1.3,5.4,0.6c3.7-1.1,6.5-4,7.6-7.7
		C101.9,125.5,102.2,121.7,100.4,118.1z M194,171.1c-0.8,0.1-1.5,0.2-2.3,0.2c-4.7,0.3-7.9-3.1-7.3-7.8c0.4-2.8,1.6-5.5,3.6-7.7
		c2.5-3,5.8-5.3,9.5-6.7c0.4-0.2,0.8-0.4,1.1-0.6c-2.5-1.9-4.4-4-6.9-5.3c-13.2,9.1-27.9,14.1-43.4,16.6c1,1.3,1.9,2.7,2.6,4.2
		c0.5,1.5,0.7,3.1,0.5,4.6c-0.3,1.6-1,3.2-1.9,4.5c-1,1.3-2.2,2.5-3.5,3.5c1.5,0.4,3,0.8,4.5,1.1c2.1,0.5,4.1,0.8,6.2,1
		c3.9,0.3,7.8-0.1,11.6-1c5.9-1.2,11.8-2.1,17.8-2.5c2-0.2,4-0.5,6-1c1.1-0.4,2.1-0.8,3.1-1.3C194.7,172.3,194.4,171.7,194,171.1z
		 M120.3,252.8l-0.4,0.3c0.4,1.9,1,3.7,1.7,5.5c1.2,2.4,2.5,4.7,5.5,5.6c3,0.8,5.8,1.9,8.8,2.9c2.9,0.9,5.7,1.9,8.6,2.6
		c6.6,1.4,13.4,2.1,20.1,2.2c7.8,0.4,15.6,0.3,23.5-0.3c5.5-0.5,11.1-0.6,16.7-1c3.5-0.2,7-0.4,10.1-2.5c1.2-0.8,2.5-1.3,3.7-2.1
		c0.6-0.4,1-0.9,1.2-1.5c0.7-2.5,1.2-5.1,1.9-7.8c-0.3,0.1-0.7,0.2-1,0.4c-7.2,4-15,5.7-23.1,6.3c-5.3,0.4-10.5,0.4-15.8,0.6
		c-3.3,0.1-6.6,0.3-9.9,0.4c-1.9,0.2-3.7,0.2-5.6,0.2c-7.1-0.5-14.1-1.5-21-3c-5.8-1.3-11.5-3-17-5.2
		C125.6,255.2,123,254,120.3,252.8L120.3,252.8z M210.2,172.5c0.6,0.4,1.3,0.7,1.9,0.8c3.1,0.2,6.3,0.6,9.4-0.6
		c3.5-1.3,6.8-2.9,8.6-6.5c0.4-0.8,0.6-1.7,1-2.5c0.8-1.3,0.6-3.1-0.5-4.2c-1.5-1.8-3-3.6-4.6-5.2c-1.3-1.3-3-2.3-4.8-2.8
		c-1.6-0.5-3.1-1-4.7-1.4c-5-1.4-10.4-1.2-15.3,0.6c-3.4,1.2-6.6,3-9.4,5.2c-1.8,1.5-3.3,3.5-4.3,5.7c-0.5,1.1-0.7,2.3-0.6,3.5
		c-0.1,1.8,1.3,3.4,3.2,3.5c1.8,0.4,3.7-0.3,4.9-1.6c0.7-0.9,1.5-1.7,2.4-2.4c1.3-0.9,2.6-1.8,4-2.6c0.8-0.5,1.8-0.5,2.6,0
		c-0.1,1.2-1,1.7-1.8,2.3c-1.4,1.1-2.7,2.1-4,3.2c-1,0.8-1.5,2.1-1.1,3.3c0.3,0.2,0.6,0.4,0.9,0.6c3.4,2,9.3,1.8,12.1-2.3
		c0.6-0.8,1.3-1.5,2.1-2.1c1.2-1.1,2.8-1.8,4.4-2.1c0.6-0.2,1.2,0.1,1.4,0.6c0,0.1,0.1,0.2,0.1,0.3
		C214.9,167.6,212.3,169.9,210.2,172.5L210.2,172.5z M145.1,171.9c2.7-2.2,3.5-4.7,2.4-7.3c-1.3-2.5-3.8-4.1-6.6-4.2
		c-5.6,0.5-11.3,0.4-16.9-0.1c-5.2-0.3-10.3-1.3-15.3-2.8c-1.9-0.8-4.1-0.2-5.4,1.5c-0.4,0.4-0.8,0.9-1.2,1.3
		c-3.3,4.3-2.6,9.4,1.6,12.7c2.2,1.6,4.7,2.7,7.4,3.2c4.2,0.8,8.5,1.1,12.8,1.1c2.3,0.2,4.6-0.4,6.4-1.8c0.5-2.4-0.6-4.1-2.6-5.3
		c-0.8-0.5-1.9-0.7-2.1-1.9c0.6-1.1,1.6-0.8,2.4-0.6c2.6,0.6,4.7,2.6,5.5,5.1c0.2,0.5,0.6,1.2,1,1.3c2.4,0.6,5,0.5,7.4-0.3
		c0.1-1-0.3-2-1-2.7c-1.1-1.1-2.2-2.1-3.2-3.2c-0.4-0.4-0.6-1-0.6-1.5c0.2-0.8,1-0.8,1.7-0.6c0.4,0.1,0.7,0.3,1,0.4
		C142.1,167.7,144.2,169.1,145.1,171.9L145.1,171.9z M246.2,226.9c0.8-0.3,1.7-0.6,2.5-1c2.6-1.6,5.2-3.3,7.8-5
		c0.5-0.3,0.9-0.8,1.3-1.3c2.4-3.1,4.7-6.2,7-9.4c1.8-2.3,1.9-5.6,0.1-8c-0.8-1.3-2.1-2.2-3.6-2.4c-2-0.2-4.1,0.1-6,0.7
		c-0.8,0.1-1.3,0.8-1.3,1.6c-0.8,6.9-2.7,13.6-5.7,19.8C247.4,223.4,246.9,224.9,246.2,226.9L246.2,226.9z M140.9,186
		c-0.9,0-1.6,0.6-1.7,1.5c-0.1,0.7,0.4,1.3,1,1.4c0,0,0,0,0.1,0c1,0,1.9-0.5,2.3-1.4C142.7,186.7,141.9,186,140.9,186z M121.8,194.7
		c0.6,0,1.1-0.6,1.1-1.2c0-0.1,0-0.1,0-0.2c-0.1-0.6-0.4-1.1-1.1-1.1c-0.9,0-1.6,0.6-1.5,1.3C120.3,194.2,121,194.7,121.8,194.7z
		 M235.4,177.5c0.7-0.4,1.3-0.9,2-1.4c0.1-0.1-0.1-0.9-0.2-0.9c-0.5-0.1-1-0.1-1.4,0.1c-0.4,0.3-0.7,0.7-0.8,1.1
		C234.8,176.7,235.2,177,235.4,177.5z M166,196.9c1.1-0.1,1.7-0.7,1.5-1.2c-0.2-0.4-0.5-0.6-0.9-0.7c-0.6,0-1.1,0.4-1.2,1
		c0,0.1,0,0.2,0,0.3C165.5,196.6,165.9,196.8,166,196.9z M202.3,194.8c-0.5-0.2-1-0.2-1.5-0.2c-0.4,0.1-0.6,0.5-0.7,0.9
		c0.1,0.4,0.4,0.7,0.8,0.8C201.6,196.3,202.2,196,202.3,194.8L202.3,194.8z M249.8,177.4c-0.6-0.4-0.8-0.7-1.1-0.7
		c-0.6-0.1-1.2,0.1-1.2,0.9c0,0.3,0.5,0.8,0.6,0.7C248.6,178,249.2,177.7,249.8,177.4L249.8,177.4z M241.9,184.1
		c-0.7-0.3-1.1-0.7-1.5-0.7c-0.2,0-0.5,0.5-0.7,0.8c0.3,0.2,0.6,0.6,0.9,0.6S241.3,184.5,241.9,184.1L241.9,184.1z M225.5,186.4
		c-0.3,0.5-0.7,0.8-0.7,1c0.1,0.3,0.5,0.6,0.8,0.8c0.2-0.2,0.6-0.4,0.5-0.6C226,187.2,225.8,186.8,225.5,186.4L225.5,186.4z
		 M145.2,196.5c0.8-0.3,1.2-0.6,0.8-1.3c-0.2-0.2-0.5-0.3-0.7-0.2C144.6,195.3,144.7,195.8,145.2,196.5L145.2,196.5z M154.5,193.8
		c0.8,0.7,1.4,0.7,1.9-0.1C155.7,193.1,155.2,193.1,154.5,193.8L154.5,193.8z M97.2,187c-0.4-0.2-0.7-0.5-0.8-0.4
		c-0.2,0.1-0.4,0.4-0.4,0.6c0,0.2,0.3,0.3,0.5,0.5L97.2,187z M105.3,191.4c-0.2-0.1-0.5-0.2-0.8-0.2c-0.1,0-0.3,0.4-0.3,0.5
		c0.2,0.2,0.4,0.3,0.6,0.4C104.9,192,105.1,191.7,105.3,191.4L105.3,191.4z"/>
	<path class="st0" d="M252.4,184.3c-0.2,1-0.4,2.1-0.7,3c-0.7,2.4-1,4.9-1,7.3c0,2.6-0.1,5.3-0.4,7.9c-0.9,5.5-2.6,10.8-4.9,15.9
		c-1.8,4-3.5,8-5.1,12c-1.3,3.4-3.1,6.5-5.4,9.3c-2.8,3.7-6.2,6.9-10.1,9.6c-1,0.7-2,1.4-2.9,2.2c-3.8,2.8-8.1,4.9-12.7,6
		c-5.7,1.5-11.7,2.3-17.6,2.3c-6.3,0.2-12.6,0.5-18.9,0.9c-9.7,0.4-19.4-0.5-28.9-2.8c-6.7-1.5-13.2-3.7-19.3-6.7
		c-3.6-1.6-7-3.4-10.4-5.4c-3.4-2-6.7-4.4-9.7-7c-4.5-4.1-7.4-9.4-9.2-15.3c-1.7-5.4-3.6-10.8-5.3-16.3c-1.9-6.2-2.9-12.7-3-19.2
		c0.8,0.5,1.5,0.8,2,1.2c5.6,4.3,12.1,6.6,18.8,8.6c6.6,1.9,13.4,3.4,20.3,4.4c6.6,1.1,13.3,1.7,20,2c5.5,0.2,11,0.7,16.4,0.7
		c6.2,0,12.5-0.3,18.7-0.6c3.4-0.1,6.8-0.3,10.1-0.7c3.8-0.4,7.6-0.9,11.4-1.6c5.9-1,11.9-1.9,17.7-3.4c8.3-2.1,16.4-4.9,23.7-9.7
		c1.6-1.2,3.2-2.5,4.7-3.8c0.4-0.4,0.9-0.8,1.3-1.2L252.4,184.3z"/>
	<path class="st1" d="M86.3,139.3c0.3,0,0.7,0.1,1,0.2c4,2.3,7.7,1.1,11.2-1.2c3.1-2.1,5.2-5.4,5.7-9.1c0.7-4.1,0.9-8.1-1.2-12.1
		c2.5-1.1,4.4-3.2,5.4-5.7c1.2,0.7,2.1,1.3,3.1,1.8c3.3,1.7,6.8,1.9,9.9-0.2c3-1.9,5.6-4.3,6.5-8.2c0.4,0,0.8,0.1,1.2,0.2
		c3.6,1,7.4,0.9,10.9-0.4c2.6-0.8,4.6-2.7,5.4-5.3c0.1-0.4,0.3-0.8,0.5-1.3c0.6,0,1.2,0,1.8,0c5.4,0.1,9.2-2.5,11.8-7
		c1.4-2.4,2.2-5,2.3-7.7c0-1,0.4-1.9,1.1-2.6c0.3-0.2,0.5-0.5,0.7-0.9c2.5-5,11.1-3.6,13.4,0.9c1.2,2.3,2.1,4.7,2.6,7.2
		c0.4,2,0.6,4,0.5,6c-0.1,2,0.2,2.3,2.2,2.8c6.4,1.5,11.6,5,16.4,9.4c5.3,4.9,6,14.3,3.2,19.7c-1.8,3.5-3.5,7.2-6.3,10.1
		c-0.9,1-1.9,1.9-3,2.7c-4.2,2.7-8.4,5.4-12.6,7.9c-5.9,3.3-12.2,5.9-18.7,7.7c-3,0.8-6,1.3-9.1,1.6c-4.9,0.7-9.8,1.5-14.8,2
		c-4.2,0.5-8.4,0.4-12.6-0.4c-1.5-0.3-3-0.2-4.5-0.5c-3.6-0.7-7.2-1.5-10.8-2.1c-2.5-0.3-4.8-1.2-6.9-2.6c-0.2-0.1-0.4-0.3-0.6-0.3
		c-3.7-1.2-6.7-3.8-9.8-6C90,144.1,88,141.8,86.3,139.3z M120.3,134.9l-0.4,0.4c0.2,0.5,0.2,1,0.5,1.3c0.8,0.8,1.7,1.5,2.7,2
		c3.8,1.7,7.9,2.5,12.1,2.2c5.8-0.1,11.6-0.8,17.2-2.1c6.4-1.4,12.6-3.6,18.4-6.5c3.3-1.6,6.2-3.7,8.8-6.2c1.4-1.4,2.4-3.1,2.7-5.1
		c0.2-0.8-0.2-1.7-1.1-1.9c0,0,0,0-0.1,0c-0.8-0.2-1.6,0.3-1.8,1.1c0,0.1,0,0.1,0,0.2c-0.6,2.8-2.7,4.5-4.8,6
		c-3,2.1-6.3,3.9-9.7,5.3c-7.4,3.1-15.1,5.1-23,6.1c-4.4,0.6-8.9,0.6-13.3,0c-2.5-0.2-4.9-1-7-2.3
		C121.3,135.2,120.8,135,120.3,134.9z M118.8,120.9c0,1,0.7,1.4,1.4,1.9c2.7,2,5.7,2.4,9,2.4c3.4-0.1,6.5-1.7,8.5-4.4
		c0.3-0.3,0.5-0.7,0.6-1.2c0.1-0.5-0.1-1-0.4-1.4c-0.5-0.4-1.1-0.4-1.5,0.1c0,0,0,0.1-0.1,0.1c-0.2,0.2-0.4,0.5-0.6,0.7
		c-2,2.1-4.7,3.3-7.6,3.4c-2.5,0.1-4.9-0.5-7.2-1.6C120.1,120.5,119.5,120.1,118.8,120.9z M163.7,111c-0.1,1.1,0.7,1.4,1.3,1.6
		c1.3,0.4,2.7,0.8,4.1,1c4.8,0.4,9.3-2.1,11.4-6.4c0.3-0.6,0.4-1.3,0.4-1.9c-0.1-0.5-0.7-0.9-1.1-1.2c-0.2-0.1-0.8,0.3-1.1,0.6
		c-0.2,0.3-0.4,0.6-0.5,1c-1.1,2.4-3.3,4.2-5.8,4.9c-1.9,0.6-3.9,0.7-5.8,0.3C165.6,110.7,164.6,110.4,163.7,111L163.7,111z
		 M166.1,91.7c1.7-1.2,3.4-2.2,5.4-1.8c0.7,0.1,1.4,0.4,2.2,0.5c0.4,0.1,0.9,0,1.2-0.3c0.2-0.4,0.2-0.9,0-1.3
		c-0.2-0.4-0.5-0.7-0.9-1c-2.4-1.7-6.8-1-8.5,1.4C164.8,90.1,164.9,90.9,166.1,91.7L166.1,91.7z"/>
	<path class="st1" d="M104.6,90c0.2-2.1-1.6-2.4-2.6-3.5c-0.7-3.7,0.2-7.6,2.4-10.6c0-0.1,0.1-0.1,0.1-0.2c2.9-5.6,7.9-7.3,13.7-7.6
		c2,0,3.9,0.1,5.8,0.4c1.5,0.1,2.9,1,3.7,2.4c0.1,0.2,0.2,0.4,0.4,0.6c0.9,1,1.9,1,2.5-0.3c1.4-2.9,4.1-3.6,6.9-3.9
		c2.6-0.3,4.3,1.2,4.8,3.7c0,0.1,0,0.3,0,0.4c0.5,2.7,1.5,3.2,3.8,1.9c2.1-1.3,4.7-1.4,6.9-0.3c1.4,0.6,2.8,1.4,4.2,2.2
		c1.2,0.9,1.9,2.2,1.8,3.7c0.2,2.9-0.3,5.9-1.4,8.6c-1.2,2.8-3.3,5.1-6.1,6.4c-1.8,0.9-3.8,1-5.7,0.4c-1.8-0.5-2.1-0.3-2.3,1.5
		c-0.2,2.5-1.9,4.7-4.3,5.6c-2.5,1.1-5.3,1.4-7.9,0.8c-1.2-0.2-2.3-0.8-2.9-1.9c-0.1-0.3-0.3-0.6-0.5-0.7c-0.5-0.3-1.1-0.4-1.6-0.3
		c-0.5,0.3-0.8,0.8-0.9,1.3c0.6,5.1-2.9,7.4-6.5,9.6c-1.6,1-3.6,1.1-5.2,0.2c-1.5-0.7-2.9-1.5-4.2-2.5c-1.3-0.9-2.1-0.9-2.9,0.5
		c-0.3,0.5-0.5,0.9-0.7,1.4c-1.4,2.9-4.4,4.8-7.7,4.7c-3,0.1-6-0.2-8.9-1c-5.1-1.4-7.9-5.2-9.4-10.1c-0.4-1.3-0.4-2.7,0.1-4
		c0-0.1,0.1-0.3,0.1-0.4c2-3.4,3.9-6.8,7.8-8.5c2-0.8,4-1.6,6.1-2.3c3-1,5.8-0.3,8.5,1C103,89.8,103.5,90.4,104.6,90z"/>
	<path class="st0" d="M245,230.4c3-0.9,5.9-2.1,8.6-3.8c4.4-2.5,8.2-5.5,10.8-10c1.1-1.9,2.6-3.5,3.7-5.4c2.9-5.1,1.3-9.4-2.8-13.3
		c-1.8-1.7-4.3-1.7-6.6-1.3c-1.4,0.2-2.8,0.6-4.4,1c-0.7-3.2,0-6.3,0.5-9.5c0.5-0.2,1-0.4,1.6-0.5c3.4-0.8,7-1.2,10.5-1.1
		c4.4,0.2,8.6,1.7,12.1,4.3c4.6,3.4,6.6,8,6.8,13.6c0.2,5.4-1.5,10.7-4.8,14.9c-2.4,3.4-5.1,6.5-8.1,9.4c-0.6,0.5-1.2,0.9-1.8,1.4
		c-1.5,1.1-3.1,2.2-4.5,3.4c-1.5,1.4-3.2,2.5-5.1,3.2c-3.1,1.1-6.1,2.5-9.4,3c-4.4,0.6-8.7,1.3-13.2,2
		C241,237.9,242.9,234.3,245,230.4z"/>
	<path class="st1" d="M100.4,118.1c1.8,3.7,1.6,7.5,0.4,11.3c-1,3.7-3.9,6.6-7.6,7.7c-1.8,0.7-3.8,0.5-5.4-0.6
		c-0.2-0.1-0.4-0.2-0.6-0.4c-1.8-1-2.5-0.7-3.3,1.1c-0.5,1.1-1.1,2.2-1.7,3.2c-1.7,2.7-4.6,4.3-7.8,4.2c-3.2-0.1-6.3-0.6-8.6-3.1
		c-2.2-2.4-2.3-4.8-0.2-7.2c0.7-0.8,1.7-1.6,1-3.1c-0.5-0.1-1.1-0.1-1.6-0.1c-2.9,0.2-5.7-0.4-8.3-1.6c-1.7-0.7-2.9-2.3-3-4.2
		c-0.6-3.2,0.6-6.5,3.2-8.5c1.9-1.6,4.4-2.2,6.8-1.4c0.4,0.1,0.8,0.4,1.3,0.5c0.7,0.2,1.5-0.2,1.7-0.9c0,0,0-0.1,0-0.1
		c0.1-0.4,0.1-0.7,0.1-1.1c0.1-2.7,2.4-4.8,5.1-4.7c0.2,0,0.5,0,0.7,0.1c2.2,0.3,4.3,1,6.1,2.1c1.7,1.1,3.6,2.1,5.3,3.4
		c2.4,1.7,5.2,2.7,8.2,2.9C94.7,117.6,97.5,117.8,100.4,118.1z"/>
	<path class="st1" d="M194,171.1c0.4,0.6,0.7,1.2,1.2,1.9c-1,0.5-2.1,1-3.1,1.3c-2,0.4-4,0.8-6,1c-6,0.4-11.9,1.3-17.8,2.5
		c-3.8,1-7.7,1.3-11.6,1c-2.1-0.2-4.2-0.6-6.2-1c-1.5-0.3-3-0.7-4.5-1.1c1.3-1.1,2.4-2.2,3.5-3.5c1-1.3,1.6-2.9,1.9-4.5
		c0.2-1.6,0-3.1-0.5-4.6c-0.7-1.5-1.6-2.9-2.6-4.2c15.6-2.5,30.2-7.5,43.4-16.6c2.5,1.3,4.5,3.4,6.9,5.3c-0.4,0.2-0.7,0.4-1.1,0.6
		c-3.7,1.4-6.9,3.7-9.5,6.7c-1.9,2.1-3.2,4.8-3.6,7.7c-0.6,4.7,2.6,8.1,7.3,7.8C192.5,171.3,193.2,171.2,194,171.1z"/>
	<path class="st1" d="M120.3,252.8c2.7,1.2,5.4,2.3,8,3.5c5.5,2.2,11.2,3.9,17,5.2c6.9,1.6,13.9,2.6,21,3c1.9,0.1,3.8,0,5.6-0.2
		c3.3-0.1,6.6-0.3,9.9-0.4c5.3-0.2,10.5-0.3,15.8-0.6c8.1-0.6,15.9-2.3,23.1-6.3c0.3-0.1,0.6-0.3,1-0.4c-0.6,2.8-1.2,5.3-1.9,7.8
		c-0.2,0.6-0.7,1.2-1.2,1.5c-1.2,0.8-2.6,1.3-3.7,2.1c-3.1,2.1-6.6,2.3-10.1,2.5c-5.6,0.3-11.1,0.4-16.7,1
		c-7.8,0.6-15.6,0.7-23.5,0.3c-6.8-0.1-13.5-0.8-20.1-2.2c-2.9-0.7-5.8-1.7-8.6-2.6c-2.9-0.9-5.8-2.1-8.8-2.9s-4.4-3.1-5.5-5.6
		c-0.7-1.8-1.3-3.6-1.7-5.5L120.3,252.8z"/>
	<path class="st1" d="M210.2,172.6c2.1-2.7,4.7-4.9,7.7-6.6c0-0.6-0.6-1.1-1.2-1c-0.1,0-0.2,0-0.3,0.1c-1.7,0.2-3.2,0.9-4.4,2.1
		c-0.8,0.6-1.4,1.3-2.1,2.1c-2.8,4.1-8.7,4.3-12.1,2.3c-0.3-0.2-0.6-0.4-0.9-0.6c-0.3-1.2,0.1-2.5,1.1-3.3c1.3-1.1,2.7-2.2,4-3.2
		c0.8-0.6,1.6-1.1,1.8-2.3c-0.8-0.5-1.8-0.5-2.6,0c-1.4,0.8-2.7,1.6-4,2.6c-0.9,0.7-1.7,1.5-2.4,2.4c-1.2,1.4-3.1,2-4.9,1.6
		c-1.8-0.1-3.2-1.6-3.2-3.5c-0.1-1.2,0.1-2.4,0.6-3.5c1-2.2,2.5-4.1,4.3-5.7c2.9-2.2,6.1-3.9,9.4-5.2c4.9-1.8,10.2-2.1,15.3-0.6
		c1.6,0.4,3.2,0.9,4.7,1.4c1.8,0.5,3.5,1.5,4.8,2.8c1.6,1.7,3.2,3.4,4.6,5.2c1.1,1.1,1.3,2.9,0.5,4.2c-0.4,0.8-0.6,1.7-1,2.5
		c-1.8,3.6-5.1,5.2-8.6,6.5c-3,1.1-6.2,0.8-9.4,0.6C211.5,173.2,210.8,172.9,210.2,172.6z"/>
	<path class="st1" d="M145.1,171.9c-0.8-2.9-3-4.3-5.2-5.6c-0.3-0.2-0.7-0.3-1-0.4c-0.7-0.2-1.5-0.2-1.7,0.6c0,0.6,0.2,1.1,0.6,1.5
		c1,1.1,2.1,2.1,3.2,3.2c0.7,0.7,1.1,1.7,1,2.7c-2.4,0.8-4.9,0.9-7.4,0.3c-0.4-0.1-0.8-0.8-1-1.3c-0.8-2.6-2.9-4.6-5.5-5.1
		c-0.9-0.2-1.8-0.4-2.4,0.6c0.2,1.2,1.3,1.4,2.1,1.9c2,1.2,3,2.9,2.6,5.3c-1.9,1.3-4.1,2-6.4,1.8c-4.3,0.1-8.6-0.3-12.8-1.1
		c-2.7-0.5-5.2-1.6-7.4-3.2c-4.2-3.3-4.9-8.5-1.6-12.7c0.4-0.5,0.8-0.9,1.2-1.3c1.2-1.7,3.5-2.3,5.4-1.5c5,1.5,10.1,2.5,15.3,2.8
		c5.6,0.5,11.3,0.6,16.9,0.1c2.8,0.1,5.4,1.7,6.6,4.2C148.5,167.3,147.7,169.7,145.1,171.9z"/>
	<path class="st1" d="M140.9,186c1,0,1.8,0.7,1.7,1.4c-0.4,0.9-1.3,1.5-2.3,1.4c-0.7-0.1-1.2-0.7-1.1-1.4c0,0,0,0,0-0.1
		C139.3,186.6,140.1,185.9,140.9,186z"/>
	<path class="st1" d="M121.8,194.7c-0.8,0-1.4-0.5-1.6-1.2c-0.1-0.6,0.7-1.2,1.5-1.3c0.8,0,1,0.5,1.1,1.1c0.1,0.6-0.2,1.2-0.9,1.4
		C121.9,194.7,121.9,194.7,121.8,194.7z"/>
	<path class="st1" d="M235.4,177.5c-0.2-0.4-0.6-0.8-0.5-1.1c0.1-0.5,0.4-0.9,0.8-1.1c0.4-0.2,0.9-0.2,1.4-0.1
		c0.1,0,0.3,0.8,0.2,0.9C236.7,176.6,236,177,235.4,177.5z"/>
	<path class="st1" d="M166,196.9c-0.1-0.1-0.5-0.3-0.6-0.6c-0.1-0.6,0.3-1.2,0.9-1.3c0.1,0,0.2,0,0.3,0c0.4,0.1,0.7,0.3,0.9,0.7
		C167.7,196.3,167.1,196.8,166,196.9z"/>
	<path class="st1" d="M202.3,194.9c-0.1,1.2-0.7,1.4-1.4,1.4c-0.4-0.1-0.7-0.4-0.8-0.8c0.1-0.4,0.3-0.7,0.7-0.9
		C201.3,194.6,201.8,194.7,202.3,194.9z"/>
	<path class="st1" d="M249.8,177.4c-0.5,0.3-1.1,0.6-1.7,0.9c-0.1,0-0.6-0.5-0.6-0.7c0-0.8,0.6-1,1.2-0.9
		C249,176.7,249.2,177,249.8,177.4z"/>
	<path class="st1" d="M241.9,184.1c-0.6,0.4-1,0.8-1.3,0.8s-0.6-0.4-0.9-0.6c0.2-0.3,0.5-0.8,0.7-0.8
		C240.9,183.5,241.3,183.8,241.9,184.1z"/>
	<path class="st1" d="M225.5,186.4c0.3,0.4,0.5,0.8,0.7,1.3c0,0.1-0.3,0.4-0.5,0.6c-0.3-0.3-0.7-0.5-0.8-0.8
		C224.8,187.2,225.2,186.9,225.5,186.4z"/>
	<path class="st1" d="M145.2,196.5c-0.5-0.6-0.6-1.2,0.1-1.6c0.3-0.1,0.5,0,0.7,0.2C146.4,195.9,146,196.2,145.2,196.5z"/>
	<path class="st1" d="M154.5,193.8c0.7-0.7,1.3-0.7,1.9-0.1C155.8,194.4,155.3,194.5,154.5,193.8z"/>
	<path class="st1" d="M97.2,187l-0.6,0.8c-0.2-0.2-0.5-0.3-0.5-0.5c0-0.3,0.2-0.5,0.4-0.6C96.5,186.6,96.8,186.8,97.2,187z"/>
	<path class="st1" d="M105.3,191.4c-0.2,0.3-0.3,0.6-0.4,0.6c-0.2-0.1-0.5-0.2-0.6-0.4c0,0,0.2-0.5,0.3-0.5
		C104.8,191.2,105,191.3,105.3,191.4z"/>
	<path d="M120.3,134.9c0.5,0.1,0.9,0.3,1.4,0.6c2.1,1.3,4.5,2.1,7,2.3c4.4,0.6,8.9,0.6,13.3,0c7.9-1,15.7-3.1,23-6.1
		c3.4-1.4,6.7-3.1,9.7-5.3c2.1-1.6,4.1-3.3,4.8-6c0.1-0.8,0.8-1.4,1.7-1.3c0.1,0,0.1,0,0.2,0c0.8,0.2,1.3,1.1,1.1,1.9c0,0,0,0,0,0.1
		c-0.3,1.9-1.3,3.7-2.7,5.1c-2.6,2.5-5.6,4.6-8.8,6.2c-5.9,2.9-12.1,5.1-18.4,6.5c-5.7,1.3-11.4,2-17.2,2.1
		c-4.1,0.3-8.3-0.5-12.1-2.2c-1-0.5-1.9-1.2-2.7-2c-0.3-0.3-0.4-0.9-0.5-1.3L120.3,134.9z"/>
	<path d="M118.8,120.9c0.7-0.8,1.4-0.4,2-0.1c2.2,1.1,4.7,1.7,7.2,1.6c2.9-0.1,5.6-1.3,7.6-3.4c0.2-0.2,0.4-0.5,0.6-0.7
		c0.3-0.5,1-0.6,1.5-0.3c0,0,0.1,0,0.1,0.1c0.3,0.4,0.5,0.9,0.4,1.4c-0.1,0.4-0.3,0.9-0.6,1.2c-2,2.7-5.1,4.3-8.5,4.4
		c-3.2,0.1-6.3-0.4-8.9-2.4C119.5,122.3,118.8,121.8,118.8,120.9z"/>
	<path d="M163.7,111c0.9-0.6,2-0.3,3-0.1c1.9,0.4,3.9,0.3,5.8-0.3c2.6-0.7,4.7-2.5,5.8-4.9c0.1-0.4,0.3-0.7,0.5-1
		c0.3-0.3,0.8-0.7,1.1-0.6c0.5,0.2,1.1,0.7,1.1,1.2c0,0.7-0.1,1.3-0.4,1.9c-2.1,4.3-6.6,6.9-11.4,6.4c-1.4-0.2-2.8-0.6-4.1-1
		C164.3,112.4,163.6,112.1,163.7,111z"/>
	<path d="M166.1,91.7c-1.2-0.8-1.3-1.5-0.6-2.4c1.7-2.4,6.1-3.2,8.5-1.4c0.4,0.2,0.7,0.6,0.9,1c0.2,0.4,0.2,0.9,0,1.3
		c-0.3,0.3-0.8,0.4-1.2,0.3c-0.7-0.1-1.4-0.4-2.2-0.5C169.5,89.5,167.8,90.4,166.1,91.7z"/>
</g>
</svg>
