<svg width="449" height="449" viewBox="0 0 449 449" fill="none" xmlns="http://www.w3.org/2000/svg">
<path d="M129.39 207.58C121.15 203.325 113.19 198.818 108.345 190.485C107.124 191.205 106.183 191.646 105.382 192.253C97.5869 198.199 83.866 195.813 82.1875 180.309C82.0476 178.996 82.3909 177.607 82.0603 176.37C81.717 175.12 81.0939 173.668 80.1147 172.91C74.723 168.731 73.4005 162.444 77.0755 156.509C80.6743 150.689 85.9261 147.167 92.7547 146.056C94.357 145.79 95.9719 145.513 97.5869 145.412C99.9648 145.26 100.868 144.162 100.893 141.75C100.931 138.253 101.033 134.693 101.669 131.258C103.258 122.66 110.354 116.07 119.052 114.706C119.344 114.656 119.637 114.58 119.929 114.593C125.512 114.858 129.072 113.153 131.476 107.295C134.312 100.351 141.534 98.6213 148.516 98.1667C152.432 97.9016 156.412 98.6718 159.68 98.9116C163.991 96.6895 167.844 94.2781 172.015 92.6999C176.237 91.109 180.37 92.46 184.35 94.4548C186.181 95.3765 188.546 95.9825 190.543 95.73C196.736 94.9851 201.275 97.2829 204.404 102.371C205.561 104.252 206.654 105.06 208.931 104.833C225.398 103.204 233.32 111.436 238.928 123.178C240.645 126.764 242.858 128.935 246.622 130.299C267.985 138.051 275.627 162.216 262.746 180.902C261.08 183.314 259.262 185.611 257.787 187.594C261.347 191.318 264.615 194.98 268.188 198.325C269.053 199.133 270.897 199.108 272.296 199.146C280.739 199.348 288.713 201.204 295.821 205.838C298.25 207.428 300.183 209.752 302.484 211.557C304.506 213.148 306.553 214.865 308.868 215.9C314.794 218.526 320.936 220.66 326.874 223.248C331.198 225.129 334.58 228.248 336.399 232.654C337.187 234.573 338.331 235.419 340.302 235.583C341.917 235.71 343.52 236.051 345.135 236.227C363.7 238.323 374.675 250.229 374.992 268.827C375.221 281.679 370.237 292.537 361.628 301.88C349.967 314.519 335.318 322.031 318.761 326.147C315.328 327.005 311.627 327.03 308.359 328.23C302.878 330.237 297.309 332.535 295.617 339.063C294.193 344.555 290.633 347.711 285.266 349.453C274.369 352.989 263.127 354.617 251.797 355.703C225.093 358.254 198.656 356.802 172.6 350.097C171.176 349.731 169.777 349.239 168.34 348.885C161.613 347.219 157.697 343.052 156.336 336.26C156.031 334.745 154.861 333.028 153.564 332.156C145.044 326.323 138.139 318.849 132.239 310.592C118.607 291.477 111.715 269.849 109.413 246.681C109.095 243.474 108.752 240.268 108.574 237.048C108.116 228.501 111.88 222.112 119.573 218.615C124.622 216.304 127.025 212.365 129.39 207.58ZM116.089 242.767C116.089 243.853 116.025 244.573 116.102 245.28C118.492 269.597 126.173 291.957 141.433 311.375C151.3 323.937 163.712 333.709 179.124 338.116C209.223 346.714 239.793 347.686 270.185 339.29C289.768 333.874 304.341 321.766 314.26 304.153C322.283 289.899 327.09 274.559 329.672 258.511C330.905 250.848 331.643 243.108 332.469 235.394C332.711 233.197 332.431 230.975 329.837 229.624C330.129 235.773 326.887 240.053 322.703 243.765C320.847 245.419 318.736 246.82 316.625 248.159C306.884 254.332 295.999 257.691 284.859 260.039C253.641 266.604 222.156 267.577 190.467 263.827C170.311 261.441 150.423 257.981 131.488 250.444C126.351 248.398 121.557 245.52 116.089 242.767ZM116.229 187.329C118.111 189.601 119.522 191.621 121.252 193.338C127.699 199.752 135.99 202.694 144.663 203.906C154.301 205.244 164.08 205.522 173.808 206.153C191.662 207.327 208.892 204.045 225.614 198.237C237.034 194.273 247.397 188.402 254.925 178.516C268.036 161.32 260.47 138.859 239.564 133.177C237.161 132.521 235.851 131.082 234.897 128.923C233.486 125.703 232.214 122.357 230.319 119.416C226.225 113.052 220.299 109.479 212.529 109.782C206.375 110.022 205.103 111.802 206.019 117.888C207.468 127.597 202.42 133.013 192.819 131.713C190.111 131.347 188.648 132.092 187.593 134.402C186.27 137.319 183.689 138.531 180.751 139.49C176.695 140.816 172.842 139.856 168.989 138.909C167.145 138.455 165.924 138.682 164.792 140.235C159.274 147.836 151.784 151.03 142.424 149.767C140.008 149.439 138.508 150.31 137.529 152.495C136.384 155.032 135.392 157.722 133.752 159.918C131.806 162.519 131.628 164.729 132.391 167.936C135.303 180.056 128.03 186.318 119.522 186.584C118.67 186.634 117.844 186.962 116.229 187.329ZM303.425 224.978C300.971 225.862 298.886 226.645 296.775 227.352C292.184 228.905 287.593 231.67 282.99 231.682C275.322 231.707 267.642 231.278 259.936 231.278C256.846 231.278 253.819 228.69 250.627 227.793C245.134 226.253 240.442 223.955 238.788 218.034C223.732 217.87 209.07 218.665 194.587 220.698C193.366 230.735 189.195 234.498 179.238 235.053C178.412 235.104 177.521 235.47 176.809 235.912C170.896 239.649 164.97 238.273 158.93 236.215C156.781 235.482 154.454 234.99 152.191 234.902C146.01 234.662 139.665 235.47 133.854 232.818C131.412 231.707 129.848 231.695 128.157 233.828C126.351 236.114 126.555 238.285 128.526 240.078C130.458 241.846 132.569 243.588 134.909 244.686C138.762 246.492 142.768 248.171 146.901 249.206C166.407 254.093 186.181 257.678 206.349 257.931C222.88 258.133 239.412 257.804 255.943 257.262C274.127 256.656 291.726 253.07 308.219 245.154C312.441 243.134 316.714 240.899 320.325 237.995C325.463 233.866 325.234 229.485 319.715 225.811C316.116 223.412 311.882 221.822 307.761 220.319C303.769 218.867 303.667 219.132 301.556 223.476C302.281 224.069 303.031 224.662 303.425 224.978ZM136.015 126.057C134.222 124.112 133.053 121.802 131.209 121.032C123.643 117.825 113.864 121.057 109.286 127.849C104.403 135.084 106.005 144.528 112.935 149.338C119.879 154.174 128.844 152.406 133.968 145.083C135.151 143.392 136.486 142.773 138.444 143.164C140.759 143.631 143.073 144.162 145.4 144.439C150.22 144.995 154.48 143.606 157.926 140.172C160.749 137.357 162.122 134.187 159.909 130.286C159.68 129.882 160.087 128.746 160.532 128.481C161.003 128.203 161.982 128.342 162.516 128.657C164.017 129.579 165.377 130.728 166.827 131.738C174.851 137.344 181.552 135.387 185.227 126.385C186.296 123.759 187.733 123.266 190.378 124.63C190.899 124.895 191.382 125.261 191.916 125.501C194.345 126.625 196.787 126.827 199.025 125.11C201.199 123.431 201.11 121.171 200.678 118.721C200.296 116.587 200.118 114.365 200.207 112.194C200.627 103.154 195.884 99.3662 187.338 102.22C185.151 102.952 183.752 102.573 182.354 100.831C180.484 98.5076 177.865 97.5102 174.915 97.586C171.646 97.6491 168.849 98.8864 166.84 101.5C165.11 103.76 167.679 105.212 168.099 107.068C168.289 107.926 168.773 108.772 168.747 109.606C168.709 111.323 168.582 113.166 167.209 113.343C164.691 110.313 163.063 107.194 160.494 105.49C154.238 101.361 147.32 101.386 140.682 104.719C133.434 108.356 132.48 112.926 137.135 119.567C139.144 122.446 138.788 124.15 136.015 126.057ZM337.327 254.85C339.87 254.85 341.485 254.774 343.087 254.863C353.553 255.443 358.563 261.807 356.579 271.996C355.308 278.548 351.709 283.902 347.347 288.75C341.765 294.962 335.152 299.759 327.179 302.625C325.59 303.193 323.72 304.077 322.856 305.378C319.715 310.112 316.955 315.087 313.98 320.086C314.539 320.137 314.972 320.251 315.391 320.213C316.269 320.124 317.159 320.023 318.011 319.796C333.703 315.592 347.017 307.524 357.66 295.34C365.125 286.793 368.774 276.92 367.948 265.392C366.918 250.936 353.477 239.876 338.344 241.985C338.026 246.025 337.696 250.166 337.327 254.85ZM88.8127 169.602C88.4693 174.135 87.6555 177.897 88.0497 181.521C88.4439 185.245 91.1906 187.783 94.9801 188.667C98.8712 189.576 102.979 187.972 104.861 184.45C106.056 182.203 106.399 179.501 107.048 176.976C107.442 175.448 107.658 173.87 107.951 172.317C108.269 172.342 108.599 172.367 108.917 172.392C109.324 173.428 109.693 174.488 110.138 175.511C111.88 179.551 115.886 182.139 119.853 181.824C123.401 181.533 126.644 178.554 127.712 174.45C128.538 171.256 127.572 168.378 125.804 165.714C125.105 164.666 124.355 163.656 123.63 162.646C130.204 157.734 129.467 159.009 130.153 155.6C120.514 158.403 112.147 155.499 104.543 149.692C103.678 151.687 103.068 153.101 102.61 154.174C100.105 152.596 98.2481 150.626 96.0991 150.222C90.682 149.187 83.5481 153.429 81.132 158.466C78.8813 163.138 80.7505 167.342 85.7099 168.769C86.9307 169.11 88.1769 169.425 88.8127 169.602ZM169.981 221.014C171.151 220.925 171.723 220.748 172.206 220.875C175.296 221.758 176.898 224.183 178.513 226.708C179.302 227.945 180.51 229.561 181.705 229.738C183.943 230.053 186.003 228.879 187.16 226.72C188.635 223.993 188.241 221.342 186.792 218.754C184.63 214.878 181.006 212.681 176.886 211.948C169.345 210.61 161.728 209.651 154.098 208.956C149.571 208.539 144.917 208.539 140.403 209.045C135.176 209.625 131.578 214.082 131.539 219.006C131.488 224.523 133.79 227.528 139.818 228.564C143.696 229.233 147.753 229.283 151.707 229.107C154.772 228.968 157.392 229.511 160.202 230.748C163.063 232.01 166.382 232.894 169.472 232.793C173.796 232.654 175.182 229.397 173.045 225.647C172.231 224.195 171.214 222.857 169.981 221.014ZM277.866 221.291C275.895 225.508 276.556 226.619 281.006 226.682C285.762 226.758 290.035 225.18 293.697 222.251C297.499 219.221 297.627 214.309 293.824 211.292C291.688 209.6 289.145 208.123 286.538 207.315C277.217 204.398 267.667 203.666 258.168 206.267C254.696 207.214 251.339 208.981 248.351 210.989C246.876 211.974 245.986 214.271 245.503 216.14C244.905 218.463 246.431 220.029 248.618 220.748C250.716 221.43 251.25 219.663 252.28 218.425C253.844 216.557 255.574 214.764 257.532 213.337C258.397 212.706 259.986 213.047 261.245 212.946C261.411 213.35 261.563 213.754 261.729 214.17C260.597 215.092 259.363 215.913 258.371 216.973C256.591 218.855 255.154 221.14 256.388 223.703C257.736 226.506 260.762 226.985 263.305 226.304C266.345 225.483 269.231 223.88 271.978 222.276C273.809 221.216 275.335 219.827 277.866 221.291ZM327.879 294.381C328.209 294.608 328.527 294.848 328.858 295.075C332.1 292.828 335.623 290.883 338.535 288.27C343.698 283.636 348.237 278.422 349.738 271.326C351.175 264.534 347.576 260.544 340.569 261.037C337.518 261.251 335.928 262.476 335.292 265.683C333.982 272.261 332.24 278.75 330.574 285.252C329.786 288.333 328.782 291.338 327.879 294.381ZM243.735 206.923C224.762 205.636 206.705 209.019 187.923 211.342C190.009 214.057 190.823 216.355 194.459 216.026C206.96 214.915 219.498 213.981 232.036 213.564C236.741 213.413 240.721 213.135 242.985 208.464C243.112 208.211 243.226 207.959 243.735 206.923ZM124.062 222.566C120.031 224.839 116.204 227.175 116.038 232.49C115.911 236.568 118.543 239.763 123.782 241.757C121.506 237.995 120.769 234.296 123.681 231.076C126.199 228.311 126.122 225.761 124.062 222.566ZM259.681 199.373C257.049 197.303 255.129 195.611 253.018 194.209C252.331 193.755 250.92 193.629 250.246 194.033C246.952 196.002 243.811 198.212 240.009 200.724C253.082 202.025 253.082 202.025 259.681 199.373Z" fill="black"/>
<path d="M116.09 242.766C121.545 245.519 126.339 248.41 131.476 250.455C150.411 257.993 170.299 261.465 190.454 263.838C222.143 267.588 253.616 266.616 284.847 260.051C295.999 257.702 306.872 254.344 316.613 248.17C318.723 246.832 320.834 245.43 322.691 243.776C326.875 240.064 330.117 235.784 329.825 229.636C332.432 230.987 332.699 233.209 332.457 235.406C331.618 243.12 330.893 250.859 329.659 258.523C327.065 274.558 322.259 289.91 314.247 304.164C304.329 321.777 289.768 333.898 270.173 339.301C239.781 347.697 209.224 346.725 179.111 338.127C163.712 333.708 151.301 323.923 141.433 311.374C126.186 291.956 118.493 269.596 116.102 245.279C116.039 244.572 116.09 243.84 116.09 242.766Z" fill="#F6F3EC"/>
<path d="M116.229 187.328C117.844 186.962 118.671 186.633 119.51 186.608C128.017 186.33 135.291 180.081 132.379 167.96C131.603 164.753 131.794 162.544 133.74 159.943C135.38 157.746 136.372 155.057 137.516 152.519C138.495 150.335 139.996 149.464 142.412 149.792C151.771 151.067 159.261 147.86 164.78 140.26C165.912 138.707 167.132 138.479 168.976 138.934C172.829 139.894 176.682 140.84 180.739 139.515C183.676 138.555 186.245 137.343 187.58 134.427C188.636 132.116 190.098 131.371 192.807 131.737C202.42 133.038 207.469 127.634 206.006 117.912C205.091 111.827 206.375 110.059 212.517 109.807C220.287 109.491 226.212 113.077 230.307 119.44C232.202 122.382 233.473 125.728 234.885 128.947C235.826 131.094 237.136 132.545 239.552 133.202C260.47 138.884 268.023 161.344 254.913 178.54C247.372 188.426 237.021 194.297 225.602 198.262C208.88 204.069 191.649 207.339 173.796 206.178C164.068 205.547 154.276 205.269 144.65 203.93C135.978 202.718 127.687 199.777 121.239 193.363C119.523 191.621 118.111 189.6 116.229 187.328ZM174.877 185.295C180.904 184.929 185.05 184.815 189.157 184.399C202.496 183.086 215.442 180.194 227.255 173.68C230.256 172.026 232.736 169.324 235.139 166.811C236.398 165.498 236.563 163.453 234.859 162.089C233.003 160.599 231.744 161.988 230.282 163.15C227.42 165.422 224.546 167.746 221.38 169.526C212.402 174.576 202.547 177.354 192.425 178.78C180.879 180.409 169.218 182.025 157.989 176.76C156.896 176.243 155.294 176.217 154.124 176.583C153.195 176.874 152.229 178.01 151.949 178.957C151.797 179.462 152.979 180.535 153.755 181.066C154.582 181.634 155.612 182.025 156.616 182.202C163.292 183.376 169.981 184.474 174.877 185.295ZM161.448 168.882C166.815 168.162 171.85 166.243 177.14 162.203C178.755 160.966 181.108 159.413 179.315 157.329C177.484 155.183 176.034 157.733 174.737 158.933C169.777 163.567 165.327 164.311 159.02 161.61C157.557 160.978 155.968 160.372 154.416 160.334C153.488 160.309 152.191 161.18 151.682 162.026C151.364 162.556 151.924 164.248 152.56 164.602C155.446 166.18 158.485 167.48 161.448 168.882ZM210.597 148.706C211.296 149.552 211.652 150.234 212.212 150.613C216.751 153.693 226.072 153.681 230.218 150.133C232.125 148.517 233.524 146.055 234.478 143.719C234.898 142.684 234.046 140.298 233.054 139.729C231.286 138.707 230.243 140.424 229.519 141.977C228.959 143.151 228.552 144.502 227.687 145.411C224.992 148.277 221.711 149.337 217.68 148.555C215.594 148.163 213.356 146.446 210.597 148.706ZM226.645 123.657C224.496 119.314 221.291 117.723 216.357 118.203C212.313 118.594 211.182 119.478 210.075 123.695C212.962 123.001 215.505 121.902 218.061 121.889C220.719 121.889 223.377 122.937 226.645 123.657Z" fill="#FFFCF8"/>
<path d="M303.426 224.977C303.032 224.662 302.281 224.056 301.569 223.487C303.68 219.144 303.782 218.879 307.775 220.331C311.895 221.821 316.129 223.412 319.728 225.823C325.247 229.497 325.476 233.878 320.339 238.007C316.727 240.911 312.454 243.145 308.233 245.166C291.74 253.082 274.14 256.667 255.956 257.273C239.438 257.829 222.894 258.157 206.363 257.943C186.195 257.69 166.421 254.104 146.914 249.218C142.794 248.183 138.788 246.504 134.923 244.698C132.583 243.6 130.459 241.858 128.539 240.09C126.568 238.285 126.364 236.126 128.17 233.84C129.849 231.707 131.413 231.719 133.867 232.83C139.691 235.469 146.024 234.674 152.204 234.914C154.467 235.002 156.795 235.494 158.944 236.227C164.971 238.285 170.897 239.661 176.823 235.924C177.535 235.469 178.425 235.103 179.251 235.065C189.196 234.51 193.379 230.747 194.6 220.71C209.084 218.677 223.746 217.882 238.802 218.046C240.442 223.98 245.134 226.265 250.641 227.805C253.832 228.702 256.859 231.29 259.949 231.29C267.655 231.29 275.336 231.719 283.004 231.694C287.607 231.681 292.197 228.916 296.788 227.363C298.886 226.644 300.972 225.861 303.426 224.977Z" fill="#A76C55"/>
<path d="M136.016 126.057C138.788 124.138 139.157 122.446 137.135 119.567C132.481 112.926 133.434 108.343 140.683 104.719C147.32 101.386 154.238 101.361 160.494 105.49C163.076 107.194 164.704 110.325 167.209 113.343C168.582 113.166 168.709 111.323 168.747 109.606C168.773 108.76 168.29 107.926 168.099 107.068C167.679 105.212 165.111 103.76 166.84 101.5C168.849 98.8864 171.647 97.6491 174.902 97.5733C177.852 97.4976 180.472 98.495 182.341 100.818C183.74 102.56 185.139 102.939 187.326 102.207C195.871 99.3535 200.614 103.141 200.195 112.181C200.093 114.353 200.284 116.575 200.665 118.709C201.11 121.171 201.199 123.431 199.012 125.097C196.774 126.814 194.333 126.612 191.904 125.488C191.37 125.249 190.886 124.882 190.365 124.617C187.72 123.254 186.296 123.746 185.215 126.372C181.54 135.374 174.838 137.331 166.814 131.726C165.365 130.715 164.004 129.567 162.504 128.645C161.982 128.317 160.99 128.178 160.52 128.468C160.075 128.733 159.681 129.882 159.897 130.274C162.109 134.175 160.736 137.344 157.913 140.159C154.467 143.594 150.207 144.982 145.388 144.427C143.048 144.162 140.733 143.619 138.432 143.152C136.461 142.76 135.138 143.379 133.956 145.071C128.831 152.406 119.866 154.161 112.923 149.326C105.993 144.503 104.403 135.071 109.273 127.837C113.851 121.044 123.63 117.812 131.196 121.019C133.053 121.814 134.223 124.125 136.016 126.057Z" fill="white"/>
<path d="M337.328 254.85C337.696 250.166 338.027 246.012 338.345 241.984C353.477 239.888 366.906 250.936 367.948 265.392C368.775 276.919 365.125 286.805 357.661 295.34C347.017 307.524 333.703 315.604 318.012 319.796C317.16 320.023 316.269 320.124 315.392 320.212C314.972 320.25 314.553 320.149 313.98 320.086C316.956 315.086 319.716 310.112 322.856 305.377C323.721 304.077 325.59 303.193 327.18 302.625C335.153 299.746 341.766 294.961 347.348 288.749C351.71 283.889 355.308 278.548 356.58 271.995C358.564 261.806 353.554 255.443 343.088 254.862C341.486 254.774 339.871 254.85 337.328 254.85Z" fill="#FFFCF8"/>
<path d="M88.8127 169.602C88.1769 169.425 86.9307 169.109 85.6972 168.756C80.7252 167.317 78.8686 163.125 81.1194 158.453C83.5355 153.429 90.682 149.186 96.0864 150.209C98.2482 150.613 100.105 152.583 102.597 154.161C103.055 153.088 103.678 151.661 104.53 149.679C112.134 155.486 120.502 158.39 130.141 155.587C129.454 158.996 130.192 157.721 123.617 162.633C124.329 163.643 125.092 164.653 125.792 165.701C127.559 168.365 128.526 171.243 127.699 174.437C126.631 178.553 123.388 181.533 119.84 181.811C115.873 182.139 111.855 179.538 110.125 175.498C109.68 174.475 109.311 173.415 108.904 172.379C108.587 172.354 108.256 172.329 107.938 172.304C107.646 173.857 107.417 175.422 107.035 176.963C106.399 179.488 106.043 182.19 104.848 184.437C102.966 187.972 98.8586 189.563 94.9674 188.654C91.178 187.77 88.4312 185.232 88.037 181.508C87.6556 177.897 88.4694 174.134 88.8127 169.602Z" fill="#FFFCF8"/>
<path d="M169.981 221.014C171.214 222.845 172.232 224.183 173.058 225.635C175.195 229.385 173.808 232.642 169.485 232.781C166.395 232.882 163.076 231.998 160.215 230.736C157.404 229.498 154.785 228.943 151.72 229.094C147.766 229.284 143.722 229.221 139.831 228.551C133.803 227.516 131.489 224.524 131.552 218.994C131.603 214.07 135.189 209.613 140.416 209.032C144.93 208.527 149.584 208.527 154.111 208.944C161.741 209.638 169.358 210.61 176.899 211.936C181.019 212.668 184.643 214.853 186.805 218.741C188.241 221.33 188.636 223.994 187.173 226.708C186.003 228.867 183.956 230.041 181.718 229.726C180.523 229.561 179.302 227.933 178.526 226.695C176.911 224.17 175.309 221.746 172.219 220.862C171.723 220.749 171.151 220.938 169.981 221.014Z" fill="#FFFCF8"/>
<path d="M277.866 221.29C275.323 219.826 273.81 221.214 271.991 222.275C269.245 223.891 266.358 225.495 263.319 226.303C260.776 226.984 257.749 226.505 256.401 223.702C255.168 221.126 256.605 218.853 258.385 216.972C259.377 215.924 260.61 215.104 261.742 214.169C261.577 213.765 261.424 213.361 261.259 212.945C260 213.046 258.41 212.705 257.546 213.336C255.587 214.763 253.858 216.568 252.294 218.424C251.264 219.649 250.73 221.429 248.632 220.747C246.432 220.028 244.906 218.449 245.516 216.139C245.999 214.27 246.889 211.973 248.364 210.988C251.353 208.98 254.723 207.213 258.181 206.266C267.68 203.665 277.23 204.397 286.551 207.314C289.158 208.134 291.689 209.599 293.838 211.291C297.64 214.308 297.513 219.22 293.711 222.25C290.048 225.166 285.776 226.744 281.02 226.681C276.556 226.618 275.895 225.507 277.866 221.29Z" fill="#FFFCF8"/>
<path d="M243.735 206.923C243.227 207.959 243.112 208.211 242.985 208.464C240.722 213.148 236.741 213.413 232.036 213.564C219.498 213.981 206.96 214.915 194.46 216.026C190.823 216.342 190.009 214.057 187.924 211.342C206.706 209.019 224.763 205.635 243.735 206.923Z" fill="#FFFCF8"/>
<path d="M124.063 222.566C126.123 225.76 126.199 228.311 123.681 231.076C120.757 234.282 121.507 237.982 123.783 241.757C118.557 239.762 115.925 236.568 116.039 232.49C116.204 227.174 120.032 224.839 124.063 222.566Z" fill="#FFFCF8"/>
<path d="M259.681 199.373C253.082 202.037 253.082 202.037 240.022 200.724C243.811 198.212 246.965 196.002 250.259 194.033C250.933 193.629 252.344 193.755 253.031 194.209C255.129 195.611 257.049 197.29 259.681 199.373Z" fill="#FFFCF8"/>
<path d="M174.876 185.294C169.981 184.474 163.292 183.375 156.629 182.201C155.637 182.024 154.594 181.633 153.767 181.065C152.992 180.535 151.809 179.461 151.962 178.956C152.241 177.997 153.208 176.861 154.136 176.583C155.306 176.217 156.896 176.254 158.002 176.759C169.23 182.024 180.891 180.408 192.438 178.78C202.56 177.353 212.402 174.575 221.393 169.525C224.559 167.745 227.433 165.422 230.294 163.149C231.756 161.988 233.015 160.599 234.872 162.089C236.576 163.465 236.41 165.497 235.152 166.811C232.748 169.323 230.256 172.025 227.267 173.679C215.454 180.194 202.509 183.072 189.169 184.398C185.037 184.802 180.904 184.928 174.876 185.294Z" fill="black"/>
<path d="M163.088 167.304C159.82 167.304 155.446 166.18 152.585 164.589C151.949 164.236 151.389 162.544 151.707 162.014C152.203 161.168 153.5 160.297 154.441 160.322C155.993 160.372 157.582 160.978 159.045 161.597C165.352 164.299 169.803 163.554 174.762 158.92C176.046 157.708 177.496 155.171 179.34 157.317C181.133 159.4 178.78 160.966 177.165 162.191C171.85 166.243 168.455 166.584 163.088 167.304Z" fill="black"/>
<path d="M210.597 148.706C213.356 146.446 215.594 148.151 217.692 148.555C221.711 149.325 225.004 148.277 227.7 145.411C228.565 144.489 228.972 143.151 229.531 141.977C230.256 140.424 231.299 138.707 233.066 139.73C234.045 140.298 234.91 142.684 234.491 143.719C233.537 146.068 232.138 148.517 230.231 150.133C226.085 153.668 216.764 153.693 212.224 150.613C211.652 150.234 211.296 149.552 210.597 148.706Z" fill="black"/>
<path d="M226.644 123.657C223.376 122.937 220.718 121.889 218.061 121.889C215.517 121.889 212.961 122.988 210.075 123.695C211.181 119.478 212.313 118.606 216.357 118.202C221.303 117.723 224.508 119.301 226.644 123.657Z" fill="black"/>
</svg>
