<?xml version="1.0" encoding="utf-8"?>
<!-- Generator: Adobe Illustrator 25.1.0, SVG Export Plug-In . SVG Version: 6.00 Build 0)  -->
<svg version="1.1" id="Layer_1" xmlns="http://www.w3.org/2000/svg" xmlns:xlink="http://www.w3.org/1999/xlink" x="0px" y="0px"
	 viewBox="0 0 340.2 340.2" style="enable-background:new 0 0 340.2 340.2;" xml:space="preserve">
<style type="text/css">
	.st0{fill:#F57F20;}
	.st1{fill:#FFFFFF;}
</style>
<g>
	<path d="M90.1,138.8c-1.4-1-2.4-1.9-3.5-2.6c-3.5-2.5-4.8-5.8-4.6-10c0.1-2.7,0.5-5.5,1.2-8.1c1.2-3.8,3.5-7.1,6.6-9.7
		c2.7-2.4,5.6-4.5,8.4-6.7l0.4,0.2c0-1-0.1-1.9,0-2.9c0.1-2,0.2-3.9,0.5-5.9c0.2-2.1,1.4-4.1,3.1-5.3c3.7-2.5,7.6-4.6,12.1-5.3
		c1.7-0.4,3.5-0.2,5.2,0.5c3.6,1.6,6.7,3.6,8.5,7.4c1.5-0.2,2.9-0.4,4.4-0.5c4.6-0.4,9.1-0.7,13.7-1c0.4,0,0.7,0,1.1,0
		c2.6,0,4.8-0.5,5.6-3.6c0.5-1.4,1.2-2.7,2.1-3.9c2.4-3.8,6.3-5.4,10.5-6.1c4.7-0.9,9.5,0.4,13.1,3.3c2.9,2.4,5.1,5.6,6.3,9.1
		c0.3,0.7,0.5,1.5,0.7,2.3c1.3,0.4,2.7,0.8,4.1,1.1c5.4,0.8,10.2,3.3,15,5.6c1.1,0.6,2.1,1.5,2.8,2.5c2.4,2.7,3.8,6.2,3.9,9.8
		c0,2.4,0.3,4.8-0.4,7.2c-0.3,1.3-0.7,2.6-1.2,3.8c-0.9,2.1-2,4.2-3,6.3c-0.9,1.8-2.1,3.3-3.6,4.6c-1.3,1.1-2.5,2.3-3.9,3.6
		c2.1,0.6,4,0.1,5.9,0.4s3.7,0.7,5.8,1.1c0.1-1,0.3-2.1,0.4-3.2c0.4-4.4,1.1-8.8,2.1-13.1c0.3-0.9,0.6-1.9,0.9-2.8
		c0.8-2.1,1.6-4.2,2.3-6.3c0.7-2.3,2-3.8,4.4-4.3c3.1-0.6,6.3-0.6,9.4,0.1c4.4,1,8.7,2.3,12.9,3.8c3.1,1.4,6,3.1,8.8,5.1
		c1.6,1.1,1.8,2.3,0.9,4c-0.7,1.4-1.5,2.7-2.3,4c-2.7,4.5-5.4,9.1-8.2,13.6c-0.7,1.2-1.6,2.3-2.3,3.5c2.8,1.3,5.4,2.5,8.1,3.7
		c2.6,1.2,5.1,2.8,7.2,4.8c3,2.4,4.5,6.2,4,10c-0.3,2.4-0.9,4.8-1.4,7.2c-0.2,1-0.4,2-0.7,3.3c1.4-0.6,2.6-1.2,3.7-1.6
		c4-1.4,8.3-1.8,12.5-1.3c1.7,0.2,3.3,0.7,4.8,1.4c2.1,1,3.7,2.7,4.4,4.9c1.5,3.5,2.2,7.3,2.1,11.1c-0.2,3.7-0.2,7.3-1.3,10.9
		c-0.9,3.8-2.5,7.5-4.6,10.8c-2,2.8-3.6,5.9-6.6,7.9c-0.4,0.2-0.7,0.5-1,0.7c-2.6,1.7-5.1,3.6-7.7,5.2c-4.2,2.8-8.6,5.2-13.1,7.2
		c-4.6,1.8-9.5,3.1-14.5,3.7c-3,0.4-5.9,1.2-8.9,1.5c-1.4,0.2-2.8,0.9-3.7,2c-1.8,1.7-3.8,3.2-5.7,4.7c-1.2,1-2.4,1.9-3.7,2.9
		c0.8,4.2,0,8.3-0.2,12.5c0,1-0.7,1.9-1.7,2.1c-2.9,0.9-5.9,1.8-8.9,2.8c-4.5,1.4-9.1,1.9-13.7,2.6c-4,0.6-8,1.4-12,2.6
		c-1.9,0.6-3.9,0.9-5.8,0.9c-5.6,0.2-11.3,0.2-16.9,0.3c-9.3,0.1-18.4-1.1-27.6-2.1c-8.2-1-16.2-2.9-24-5.5c-0.3-0.1-0.7-0.3-1-0.4
		c-2.5-0.8-3.9-2.4-3.8-5.1c0.1-2.5,0-5.1,0.1-7.6c0-0.4,0-0.8,0.1-1.3c0.2-1.3-0.4-2.6-1.5-3.2c-2-1.3-3.9-2.8-5.8-4.2
		c-0.5-0.3-0.9-0.7-1.3-1.1c-2.7-3.2-5.7-6.3-8-9.8c-2.9-4.2-6.2-8.2-8.3-13c-0.5-0.8-1-1.6-1.5-2.3c-1-1.5-2.1-3-3-4.6
		c-1.7-3.2-3.3-6.5-5-9.8c-1.9-3.7-2.9-7.6-3.9-11.6c-0.6-2.2-1-4.6-1.6-6.8c-1.1-4.1-1.8-8.3-2.2-12.5c0-0.6-0.1-1.1-0.3-1.7
		c-1.4-3.9-0.2-7.2,2.5-10.1c2.3-2.3,4.9-4.3,7.8-5.7c5.8-2.9,11.9-5.1,18.2-6.6C86.2,139.8,87.9,139.4,90.1,138.8z M256.1,163.8
		c-4.7,4.1-10.2,7.2-16.2,9.3c-10.7,3.8-21.7,6.5-33,8.1c-4.7,0.7-9.5,1.2-14.2,1.9c-9.2,1.1-18.5,1.8-27.8,2
		c-7.8,0.2-15.6,0.1-23.5,0.1c-4.4,0-8.7-0.2-13.1-0.5c-7.9-0.7-15.7-1.3-23.5-2.4c-10.8-1.4-21.4-3.8-31.6-7.3
		c-4.8-1.7-9.5-3.7-13.4-7.1c-0.1-0.1-0.4-0.1-0.7-0.1c0.2,1.1,0.2,2.1,0.5,3c1.4,5.6,2.7,11.2,4.3,16.8c0.9,2.8,1.9,5.6,3.2,8.3
		c1,2.4,2.2,4.7,3.5,7c0.9,1.7,1.9,3.4,3,5.1c0.9,1.4,1.9,2.8,2.8,4.2c1.2,1.9,2.4,3.8,3.6,5.7c0.7,1.1,1.5,2,2.2,3.1
		c2.7,4.7,6.6,8.6,10.2,12.6c0.3,0.4,0.7,0.7,1.1,1c2.4,1.9,4.9,3.8,7.4,5.7c2.3,1.8,5.1,3,8,3.4c0.8,0.1,1.5,0.2,2.3,0.3
		c4.1,0.6,8.2,1.3,12.3,1.8c2,0.3,3.9,0.2,5.9,0.5c5.2,0.8,10.5,1.2,15.8,1.2c3.1,0,6.2,0.3,9.3,0.4c3.4,0.1,6.9,0.1,10.4,0.3
		c4.6,0.3,9.3,0.1,13.9-0.6c4.7-0.8,9.4-1.7,14.1-2.5c2.2-0.2,4.5-0.6,6.7-1.1c3.9-1.2,7.7-2.7,11.5-4.1c0.7-0.2,1.3-0.6,1.8-1.1
		c3.3-2.8,7-5.2,9.9-8.5c0.9-1,1.8-2,2.7-3c2.5-2.5,5.1-4.9,6.8-8c0.4-0.7,0.9-1.4,1.5-2c3.1-3.6,5.4-7.7,6.9-12.2
		c1-2.8,2.2-5.5,3.6-8.1c1.9-3.1,3.5-6.3,4.8-9.6c2.2-6,4-12.1,6-18.2C255.2,167.4,255.6,165.8,256.1,163.8z M183.2,92.1
		c-0.1-0.1-0.2-0.3-0.2-0.4c-0.6-2.7-1.9-5.1-3-7.6c-0.6-1.3-1.5-2.4-2.6-3.2c-2.3-1.8-5-2.9-7.9-3.2c-4.7-0.5-8.9,0.8-12,4.3
		c-1.8,2-3.1,4.4-3.9,7c-0.3,1-0.8,1.8-2,1.8c-1.2,0.1-2.4,0.4-3.5,0.5c-6.1,0.3-12.3,0.1-18.3,1.6c-1.9,0.5-3.9-0.3-4.9-2.1
		c-1.5-2.1-3.6-3.8-6-4.9c-1.4-0.7-3-0.8-4.5-0.5c-3.8,0.7-7,2.6-10.2,4.5c-1.2,0.7-2.1,1.9-2.4,3.3c-0.5,2.7-0.7,5.4-0.5,8.2
		c0,2.1-0.1,2.4-2.1,3.3c-3.2,1.3-6,3.5-8,6.3c-0.7,1-1.6,1.8-2.3,2.8c-0.7,1-1.4,2.1-2,3.2c-1.5,2.9-1.8,6-1.9,9.2
		c-0.2,2.7,0.9,5.4,2.9,7.1c3.9,3.5,8.3,6.5,13.1,8.9c4.4,2.4,9.3,3.4,14.2,3.1c5.8-0.4,11.7,0.1,17.4,1.6c1.3,0.3,2.6,0.5,4,0.5
		c6.8,0.1,13.5-0.2,20.3-0.9c2.6-0.3,5.2-0.7,7.7-1.2c4.4-0.9,8.8-2,13.2-2.8c2.7-0.5,5.3-1.4,7.7-2.8c4-2.4,7.8-5.1,11.2-8.3
		c0.6-0.6,1.2-1.2,1.8-1.7c3.1-2.3,5.6-5.4,7.2-8.9c0.6-1.3,1.1-2.6,1.6-3.9c1-2.9,0.8-5.9,0.5-8.8c-0.2-3.7-2.4-7.1-5.7-8.9
		c-0.7-0.4-1.4-0.9-2.2-1.3c-2.5-1.4-5-2.6-7.6-3.6C189.2,93.4,186.2,92.6,183.2,92.1z M140.1,166.4c3.1,1.3,5.7,0.4,7.2-2.6
		c0.6-1.2,1.1-2.5,0.5-3.8c-0.9-2.5-2.6-4.6-4.8-6.1c-2.4-1.6-5.1-2.8-7.9-3.5c-3.2-0.8-6.5-1.4-9.8-1.7c-4.3-0.3-8.6-0.2-12.9-0.1
		c-2.5,0-4.9,0.4-7.4,0.7c-0.4,0.1-0.8,0.1-1.3,0c-0.4-0.1-0.9-0.3-1-0.6c-0.1-0.5,0-0.9,0.2-1.3c0.2-0.3,0.5-0.6,0.9-0.8l-8.7-3.7
		c-0.9,0.7-2,1.4-3,2.1c-3.2,2.7-6,5.7-8.6,9c-1.2,1.6-2.1,3.3-2.9,5.1c-0.6,1.1-0.5,2.4,0.3,3.4c1.6,2.3,4.1,3.8,6.8,4.4
		c4,0.8,8.1,1,12.2,0.7c4.4-0.3,8.9-0.5,13.3-0.7c1.5,0,2.9,0.5,4.1,1.5c0.8,0.6,1.7,1.3,2.5,1.9l-0.3,0.5c0.9-0.1,1.8-0.2,2.7-0.4
		c1.6-0.2,2.8-1.5,3-3.1c0.4-1.5-0.1-3-1.2-4.1c-0.5-0.4-1.2-0.8-0.7-1.7c2.5,0.4,3.7,1.6,4.1,4.1c0.1,1.3,1,2.4,2.3,2.7
		c1.1,0.3,2.2,0.5,3.3,0.6c1.2,0.1,2.3-0.5,2.7-1.6c1.1-1.9,0.7-4.3-1-5.7c-0.7-0.7-1.6-1.2-1.5-2.3
		C136.8,158.1,139.5,161,140.1,166.4z M91.9,140.3c-3.5,1-6.8,1.9-10.1,2.9c-5.8,1.7-11.4,4.1-16.6,7.2c-2.3,1.3-4.3,3-5.9,5
		c-2,2.4-1.8,5.9,0.4,8.1c1,1.1,2.1,2.1,3.3,2.9c4.1,2.8,8.5,5,13.3,6.4c6.4,2.1,13,3.7,19.7,4.8c7.6,1.4,15.2,2.4,22.8,3.1
		c6.5,0.6,13.1,0.9,19.6,1.2c12.7,0.5,25.4,0.3,38.1-0.6c5.4-0.4,10.8-0.8,16.2-1.4c3.9-0.4,7.8-1,11.7-1.6
		c4.9-0.8,9.9-1.6,14.8-2.6c8.9-1.7,17.6-4.4,26-8.1c3.2-1.4,6.2-3.3,8.8-5.7c1-0.9,1.8-2,2.4-3.2c0.9-1.7,0.8-3.8-0.3-5.4
		c-1-1.6-2.4-3-4-4c-4.3-3-9.2-4.8-14-6.4l-3.1,1.9c-0.4,0.9-0.8,1.8-1.2,2.7c2.3,0.6,4.5,1.2,6.7,1.7c0.5,0.2,1.1,0.3,1.6,0.4
		c3.1,0.4,5.1,2.4,6.7,4.7c0.6,0.9,0.8,1.9,0.7,3c-0.3,3.1-2.3,5.8-5.2,6.9c-0.7,0.3-1.4,0.6-2.1,0.9c-3.1,1.6-6.4,2.7-9.7,3.4
		c-1,0.2-1.9,0.5-2.8,0.8c-4.2,1.6-8.6,2.8-13,3.6c-4,0.6-8.1,1.1-12.1,1.6c-2.7,0.3-5.3,0.6-8,0.8c-4.7,0.4-9.4,0.6-14.1,1
		c-6.3,0.6-12.6,1.4-19,1.6c-3,0.1-6.1,0.2-9.1,0.5c-4,0.3-8,0.4-12,0.1c-5.3-0.3-10.5-0.7-15.8-1.1c-3-0.2-6.1-0.2-9.1-0.5
		c-3.5-0.3-7-0.9-10.5-1.4c-2.4-0.3-4.7-0.7-7.1-1.1c-4.2-0.6-8.4-1-12.5-1.7c-3.2-0.6-6.3-1.5-9.4-2.3c-0.3-0.1-0.7-0.2-1-0.4
		c-2.1-1-4.2-1.9-6.2-3.1c-1.4-0.7-2.6-1.7-3.7-2.8c-1.8-1.6-2.4-4.2-1.4-6.4c0.9-2.3,2.5-4.1,4.7-5.2c3.4-1.8,7.1-3.1,10.9-3.9
		c2.7-0.3,5.2-1.5,7.1-3.3c1.2-1,2.5-1.9,3.8-2.6c0.5-0.3,1-0.7,1.7-1.1L91.9,140.3z M254.1,181.8c0.8-0.5,1.4-0.9,2-1.2
		c1-0.6,2-1.1,3-1.5c3.9-1.4,8.2,0.6,9.7,4.4c0.6,1.7,0.7,3.6,0.4,5.4c-0.6,3.3-1.5,6.4-2.8,9.5c-1.2,3.2-3.4,5.9-6.3,7.8
		c-1.1,0.7-2,1.5-3.1,2.3c-1.8,1.2-3.6,2.5-5.4,3.6c-1.4,0.8-3,1.2-4.4,2.1c-3.2,2.1-7,3-10.4,4.6c-0.8,0.3-1.4,0.8-1.9,1.5
		c-1.4,1.9-2.9,3.8-4.3,5.7c-0.4,0.6-0.9,1.2-1.4,1.9c0.6,0,1.1,0,1.7,0c3.6-0.8,7.3-1.5,10.9-2.3c2.3-0.5,4.5-1.2,6.6-2
		c1.9-0.7,3.7-1.8,5.5-2.7c3.8-1.8,7.3-4,10.6-6.6c0.9-0.7,2-1.4,3-1.9c2-1.1,3.7-2.6,5-4.5c0.8-1.2,1.6-2.5,2.6-3.6
		c2.4-3,3.5-6.6,4.6-10.1c1.1-4.4,1.5-8.9,1.3-13.4c-0.2-2.4-0.8-4.7-1.8-6.9c-0.4-1.1-1.3-2.1-2.4-2.6c-2.4-1.2-5.1-1.8-7.8-1.7
		c-4.1,0.3-8.1,0.8-11.8,3c-0.7,0.3-1.2,0.9-1.4,1.7c-0.5,2.1-1.1,4.2-1.6,6.3C254.2,180.9,254.1,181.3,254.1,181.8L254.1,181.8z
		 M143.5,151.5c0.7,0.5,1,0.8,1.4,1.1c2.2,1.5,4.1,3.5,5.3,5.9c0.9,1.7,1,3.6,0.5,5.4c0.7,0.1,1.3,0.1,2,0.2c1.6,0,3.2-0.1,4.9-0.2
		c6.8-0.5,13.6-1.1,20.4-1.7c6.4-0.5,12.7-1.6,18.9-3.3c1.5-0.4,3.1-0.9,4.3-1.2c1-1.9,1.8-3.5,2.6-5.2c0.8-1.6,2.5-2.6,3-4.5
		c-6.4-0.9-12.6-2.1-17.5-6c-2,1-4,1.9-6.1,2.6c-2.9,0.9-5.9,1.4-8.8,2.1c-4.3,1-8.6,2-13,2.8c-5.2,1-10.5,1.6-15.7,1.7
		C145.1,151.3,144.5,151.4,143.5,151.5z M239.8,214.1c1.3-0.3,2.6-0.8,3.8-1.5c1.8-0.9,3.6-1.8,5.4-2.8c1.5-0.8,2.9-1.6,4.3-2.6
		c2.2-1.6,4.4-3.3,6.5-5.1c1.5-1.1,2.6-2.6,3.4-4.3c0.5-1.1,1-2.2,1.4-3.3c0.8-2.5,1.9-5,2-7.7c0.2-4.2-3.4-6.8-7.2-5.1
		c-1.9,0.9-3.8,1.9-5.6,2.9c-0.6,0.3-1.1,0.9-1.3,1.5c-1.1,3.7-3.1,7.1-4.9,10.5c-1.5,2.9-3.3,5.6-4,8.8c-0.1,0.4-0.3,0.8-0.5,1.2
		C241.9,209.1,240.9,211.5,239.8,214.1L239.8,214.1z M212.8,145.6c-3.2,3.6-6.6,6.8-8.4,11.5c1.8,0.6,3.5,1.2,5.1,1.7
		c1.3,0.4,2.6,0.7,3.9,0.9c4.4,0.8,8.9,1.4,13.2,2.9c0.7,0.2,1.5,0.4,2.2,0.5c1.1-4.9-0.2-9.5,0.1-13.9c-2.2-1.6-3.5-2.4-5.9-2.7
		C219.6,146.2,216.1,145.9,212.8,145.6L212.8,145.6z M234.1,142.5c1.9-0.6,2.6-2.2,3.6-3.5c3.5-4.4,12.2-18.9,12.7-21.3l-3.2-1.8
		c-1.3,1.8-2.7,3.4-3.8,5.2c-2.9,4.8-5.8,9.7-8.7,14.5c-1.1,1.8-2.2,3.6-3.3,5.4L234.1,142.5z M230.9,109.3
		c-2.6,10-5.1,19.7-7.7,29.5l2.9,0.5c1.7-4.9,3.2-9.6,5-14.3c1.8-4.6,3.8-9.2,5.7-13.8L230.9,109.3z M229.9,140.3
		c1.8-3.1,3.4-5.9,5.1-8.8c1.6-2.8,3.2-5.6,4.9-8.4c1.7-2.8,3.5-5.6,5.4-8.5c-2.4-1.1-4.3-2.5-6.9-2.8l-9.9,27.8L229.9,140.3z
		 M229.1,109c-1.5-0.6-3.2-0.7-4.8-0.4c-1.1,5-2.1,9.9-3.3,14.7c-1.2,4.9-1.2,10-3,14.9l2.9,0.2C223.8,128.6,226.4,118.9,229.1,109
		L229.1,109z M216.6,138.6c0.5-10.3,3.4-20,6-29.8c-1.9,0-3.4,0.1-4,2c-0.8,2.6-1.8,5.2-2.6,7.8c-0.5,1.7-1,3.4-1.3,5.1
		c-0.8,4.6-1.6,9.2-2.3,13.7c0,0.6-0.1,1.2,0,1.8L216.6,138.6z M191.8,140.3c2.9,1.9,3.4,2,6.9,2.1c3.7-0.1,7.3,0.3,10.8,1.2
		c0.3,0,0.6,0,0.8-0.1c-0.1-1.8,0.7-3.6,0-5.2c-1-0.2-2-0.5-2.9-0.6c-3.2-0.4-6.4-0.7-9.6-1c-0.6-0.1-1.1,0.1-1.6,0.3
		C194.7,138.1,193.3,139.1,191.8,140.3z M232.7,144.5c-1.3-1-2.8-1.7-4.4-2c-1.6-0.4-3.2-0.6-4.7-1c-3.1-0.7-6.3-1-9.4-0.7
		c-2,0.1-2.3,0.7-1.7,2.9c2.8,0.2,5.5,0.4,8.3,0.5c3.3,0,6.4,1,9.1,2.9c0.3,0.2,0.7,0.3,1,0.4L232.7,144.5z"/>
	<path class="st0" d="M256.1,163.8c-0.5,2-0.8,3.6-1.3,5.2c-1.9,6.1-3.8,12.2-6,18.2c-1.3,3.3-2.9,6.6-4.8,9.6
		c-1.4,2.6-2.6,5.3-3.6,8.1c-1.5,4.5-3.9,8.6-6.9,12.2c-0.6,0.6-1.1,1.3-1.5,2c-1.7,3.2-4.3,5.6-6.8,8c-1,0.9-1.9,1.9-2.7,3
		c-2.8,3.4-6.6,5.7-9.9,8.5c-0.5,0.5-1.2,0.8-1.8,1.1c-3.8,1.4-7.6,2.9-11.5,4.1c-2.2,0.5-4.4,0.9-6.7,1.1
		c-4.7,0.8-9.4,1.7-14.1,2.5c-4.6,0.7-9.3,0.9-13.9,0.6c-3.4-0.2-6.9-0.1-10.4-0.3c-3.1-0.1-6.2-0.5-9.3-0.4
		c-5.3,0-10.6-0.4-15.8-1.2c-1.9-0.3-3.9-0.2-5.9-0.5c-4.1-0.6-8.2-1.2-12.3-1.8c-0.8-0.1-1.5-0.2-2.3-0.3c-2.9-0.4-5.7-1.6-8-3.4
		c-2.4-1.9-4.9-3.8-7.4-5.7c-0.4-0.3-0.8-0.6-1.1-1c-3.6-4.1-7.5-7.9-10.2-12.6c-0.6-1.1-1.5-2.1-2.2-3.1c-1.2-1.9-2.4-3.8-3.6-5.7
		c-0.9-1.4-1.9-2.8-2.8-4.2c-1-1.7-2.1-3.4-3-5.1c-1.2-2.3-2.4-4.6-3.5-7c-1.2-2.7-2.3-5.4-3.2-8.3c-1.6-5.6-2.9-11.2-4.3-16.8
		c-0.2-0.9-0.3-1.9-0.5-3c0.4,0.1,0.6,0,0.7,0.1c3.9,3.4,8.6,5.4,13.4,7.1c10.3,3.5,20.9,5.9,31.6,7.3c7.8,1.1,15.7,1.7,23.5,2.4
		c4.4,0.4,8.7,0.5,13.1,0.5c7.8,0.1,15.7,0.2,23.5-0.1c9.3-0.2,18.6-0.8,27.8-2c4.7-0.6,9.5-1.1,14.2-1.9c11.2-1.6,22.3-4.3,33-8.1
		C245.8,171,251.3,167.9,256.1,163.8z"/>
	<path class="st1" d="M183.2,92.1c3,0.6,6,1.3,8.9,2.1c2.6,1,5.1,2.3,7.6,3.6c0.8,0.4,1.4,0.9,2.2,1.3c3.3,1.8,5.5,5.1,5.7,8.9
		c0.3,2.9,0.5,5.9-0.5,8.8c-0.5,1.3-1,2.6-1.6,3.9c-1.6,3.5-4.1,6.6-7.2,8.9c-0.7,0.5-1.3,1.1-1.8,1.7c-3.4,3.1-7.2,5.9-11.2,8.3
		c-2.4,1.4-5,2.4-7.7,2.8c-4.4,0.9-8.8,1.9-13.2,2.8c-2.5,0.5-5.1,0.9-7.7,1.2c-6.7,0.8-13.5,1.1-20.3,0.9c-1.3,0-2.7-0.2-4-0.5
		c-5.7-1.4-11.5-2-17.4-1.6c-4.9,0.4-9.9-0.7-14.2-3.1c-4.7-2.4-9.1-5.4-13.1-8.9c-2-1.8-3.1-4.4-2.9-7.1c0.2-3.2,0.4-6.3,1.9-9.2
		c0.6-1.1,1.3-2.2,2-3.2c0.7-1,1.6-1.8,2.3-2.8c2-2.8,4.8-5,8-6.3c2-0.9,2.1-1.2,2.1-3.3c-0.2-2.7,0-5.5,0.5-8.2
		c0.3-1.4,1.2-2.6,2.4-3.3c3.2-1.9,6.4-3.8,10.2-4.5c1.5-0.4,3.1-0.2,4.5,0.5c2.4,1,4.5,2.7,6,4.9c0.9,1.7,3,2.6,4.9,2.1
		c6-1.5,12.2-1.3,18.3-1.6c1.2-0.1,2.4-0.4,3.5-0.5c1.2-0.1,1.7-0.8,2-1.8c0.8-2.6,2.1-4.9,3.9-7c3.2-3.6,7.3-4.8,12-4.3
		c2.9,0.3,5.6,1.4,7.9,3.2c1.1,0.9,2,2,2.6,3.2c1.1,2.5,2.5,4.9,3,7.6C183,91.8,183.1,92,183.2,92.1z M141.7,124.4
		c2.8-0.3,5.7-0.4,8.6-0.8c4.3-0.5,8.6-1.3,12.8-2.6c6.3-2.1,12.2-5.1,17.6-9c1.4-1.1,2.7-2.5,3.7-4c0.5-0.5,0.6-1.4,0.1-1.9
		c-0.1-0.1-0.2-0.2-0.4-0.3c-0.7-0.5-1.1-0.3-1.9,0.6c-1.1,1.3-2.3,2.5-3.6,3.5c-4.9,3.5-10.2,6.2-15.9,8.1
		c-5.7,1.7-11.5,2.8-17.4,3c-8.5,0.3-17.1-0.3-25.5-1.7c-3.3-0.5-6.9-1-9.3-4c-0.3-0.3-0.7-0.3-1.1-0.2c-0.3,0.3-0.5,0.6-0.5,1.1
		c0,0.5,0.2,1,0.5,1.3c0.9,1,1.9,1.9,3,2.6c1.7,0.8,3.5,1.4,5.4,1.8c3,0.6,6,0.9,9,1.2C131.9,123.6,136.8,124,141.7,124.4z
		 M111.7,101.3c3-0.2,5.8-1.2,8.2-3c0.7-0.6,1.3-1.4,1.8-2.3c0.6-1.1,0.5-1.9-0.2-2.5c-0.7-0.6-1.5-0.5-2.5,0.3
		c-1.4,1.1-3.1,2-4.8,2.5c-1.9,0.6-3.7,1.3-5.5,2c-0.4,0.2-1.1,0.8-1,1.1c0.2,0.6,0.6,1.1,1.1,1.3
		C109.7,101.1,110.7,101.2,111.7,101.3z M161.3,88.7c0,1,0.6,1.9,1.5,2.2c2.3,1.1,4.8,1.6,7.3,1.4c2.2-0.2,4.3-1.1,5.9-2.5
		c0.4-0.4,0.6-0.9,0.6-1.4c-0.1-0.7-0.7-0.8-1.3-0.7c-0.8,0-1.5,0.1-2.3,0.3c-2.9,0.7-6,1-9,0.7C163.1,88.7,162.2,88.7,161.3,88.7z
		 M159,103.3c-1.2,0-2.2,1-2.2,2.2c0,0,0,0,0,0.1c0.1,1.4,1.2,2.5,2.6,2.4c1.4,0,2.6-1.1,2.6-2.6c0,0,0-0.1,0-0.1
		C162.1,104.1,160.9,103.3,159,103.3z M147.8,104.6c-1.4,0-2.7,1.1-2.6,2.2c0.2,1.3,1.3,2.3,2.6,2.3c1.4-0.1,2.6-0.8,2.6-1.7
		C150.3,106,149.2,104.9,147.8,104.6z"/>
	<path class="st1" d="M140.1,166.4c-0.6-5.4-3.3-8.3-6.6-7.1c-0.1,1.1,0.9,1.6,1.5,2.3c1.7,1.4,2.1,3.8,1,5.7
		c-0.4,1.1-1.5,1.7-2.7,1.6c-1.1-0.1-2.2-0.3-3.3-0.6c-1.3-0.3-2.2-1.4-2.3-2.7c-0.4-2.5-1.6-3.7-4.1-4.1c-0.5,0.9,0.2,1.2,0.7,1.7
		c1.1,1,1.6,2.6,1.2,4.1c-0.2,1.6-1.4,2.9-3,3.1c-0.9,0.2-1.8,0.2-2.7,0.4l0.3-0.5c-0.8-0.6-1.7-1.3-2.5-1.9c-1.1-1-2.6-1.5-4.1-1.5
		c-4.4,0.2-8.9,0.3-13.3,0.7c-4.1,0.3-8.2,0.1-12.2-0.7c-2.7-0.6-5.2-2.1-6.8-4.4c-0.8-1-0.9-2.3-0.3-3.4c0.8-1.8,1.7-3.5,2.9-5.1
		c2.5-3.3,5.4-6.4,8.6-9c1-0.8,2-1.5,3-2.1l8.7,3.7c-0.3,0.2-0.6,0.5-0.9,0.8c-0.2,0.4-0.3,0.9-0.2,1.3c0.1,0.3,0.6,0.5,1,0.6
		c0.4,0.1,0.8,0.1,1.3,0c2.5-0.2,4.9-0.6,7.4-0.7c4.3-0.1,8.6-0.2,12.9,0.1c3.3,0.3,6.5,0.9,9.8,1.7c2.8,0.7,5.5,1.9,7.9,3.5
		c2.2,1.5,3.8,3.6,4.8,6.1c0.6,1.3,0.1,2.6-0.5,3.8C145.8,166.8,143.2,167.7,140.1,166.4z"/>
	<path class="st1" d="M91.9,140.3l1.9,1.4c-0.6,0.4-1.2,0.7-1.7,1.1c-1.4,0.7-2.6,1.6-3.8,2.6c-2,1.8-4.5,3-7.1,3.3
		c-3.8,0.8-7.4,2.1-10.9,3.9c-2.2,1-3.9,2.9-4.7,5.2c-1,2.2-0.4,4.8,1.4,6.4c1.1,1.1,2.3,2,3.7,2.8c2,1.1,4.2,2.1,6.2,3.1
		c0.3,0.2,0.7,0.3,1,0.4c3.1,0.8,6.2,1.8,9.4,2.3c4.2,0.7,8.4,1.2,12.5,1.7c2.4,0.3,4.7,0.7,7.1,1.1c3.5,0.5,7,1.1,10.5,1.4
		c3,0.3,6.1,0.3,9.1,0.5c5.3,0.3,10.5,0.7,15.8,1.1c4,0.3,8,0.3,12-0.1c3-0.3,6-0.4,9.1-0.5c6.4-0.2,12.6-0.9,19-1.6
		c4.7-0.5,9.4-0.7,14.1-1c2.7-0.2,5.3-0.5,8-0.8c4.1-0.5,8.1-1,12.1-1.6c4.4-0.8,8.8-1.9,13-3.6c0.9-0.4,1.9-0.6,2.8-0.8
		c3.4-0.7,6.7-1.9,9.7-3.4c0.7-0.3,1.4-0.6,2.1-0.9c2.9-1.1,4.9-3.8,5.2-6.9c0.1-1.1-0.1-2.1-0.7-3c-1.7-2.3-3.7-4.3-6.7-4.7
		c-0.6-0.1-1.1-0.2-1.6-0.4c-2.2-0.6-4.3-1.1-6.7-1.7c0.4-0.8,0.8-1.8,1.2-2.7l3.1-1.9c4.8,1.6,9.7,3.4,14,6.4c1.6,1.1,2.9,2.4,4,4
		c1.1,1.6,1.2,3.7,0.3,5.4c-0.6,1.2-1.4,2.3-2.4,3.2c-2.6,2.4-5.6,4.3-8.8,5.7c-8.3,3.7-17,6.4-26,8.1c-4.9,1-9.8,1.8-14.8,2.6
		c-3.9,0.6-7.8,1.2-11.7,1.6c-5.4,0.6-10.8,1-16.2,1.4c-12.7,0.9-25.4,1.1-38.1,0.6c-6.5-0.3-13.1-0.6-19.6-1.2
		c-7.6-0.7-15.3-1.6-22.8-3.1c-6.7-1.2-13.2-2.8-19.7-4.8c-4.7-1.4-9.2-3.6-13.3-6.4c-1.2-0.9-2.3-1.8-3.3-2.9
		c-2.2-2.2-2.4-5.7-0.4-8.1c1.6-2.1,3.6-3.8,5.9-5c5.2-3.1,10.8-5.5,16.6-7.2C85.1,142.2,88.4,141.3,91.9,140.3z"/>
	<path class="st0" d="M254.1,181.8c0-0.4,0.1-0.9,0.2-1.3c0.5-2.1,1.2-4.2,1.6-6.3c0.2-0.7,0.7-1.4,1.4-1.7c3.6-2.2,7.7-2.7,11.8-3
		c2.7-0.1,5.4,0.5,7.8,1.7c1.1,0.5,2,1.4,2.4,2.6c1,2.2,1.6,4.5,1.8,6.9c0.3,4.5-0.2,9-1.3,13.4c-1,3.6-2.2,7.1-4.6,10.1
		c-0.9,1.2-1.7,2.4-2.6,3.6c-1.3,1.9-3,3.4-5,4.5c-1.1,0.5-2.1,1.2-3,1.9c-3.3,2.6-6.8,4.8-10.6,6.6c-1.8,0.9-3.6,2-5.5,2.7
		c-2.2,0.8-4.4,1.5-6.6,2c-3.6,0.9-7.3,1.6-10.9,2.3c-0.6,0.1-1.1,0.1-1.7,0c0.5-0.7,1-1.3,1.4-1.9c1.4-1.9,2.9-3.8,4.3-5.7
		c0.5-0.7,1.2-1.2,1.9-1.5c3.4-1.6,7.2-2.5,10.4-4.6c1.3-0.9,3-1.3,4.4-2.1c1.9-1.1,3.6-2.4,5.4-3.6c1-0.7,2-1.6,3.1-2.3
		c2.9-1.8,5.1-4.6,6.3-7.8c1.3-3,2.3-6.2,2.8-9.5c0.3-1.8,0.2-3.7-0.4-5.4c-1.5-3.9-5.8-5.8-9.7-4.4c-1,0.4-2,0.9-3,1.5
		C255.5,180.9,254.9,181.3,254.1,181.8z"/>
	<path class="st1" d="M143.5,151.5c1-0.1,1.6-0.2,2.2-0.2c5.3-0.2,10.5-0.7,15.7-1.7c4.3-0.9,8.7-1.9,13-2.8
		c2.9-0.7,5.9-1.2,8.8-2.1c2.1-0.8,4.1-1.6,6.1-2.6c4.9,3.9,11,5.1,17.5,6c-0.5,1.9-2.2,2.9-3,4.5c-0.8,1.6-1.6,3.2-2.6,5.2
		c-1.2,0.3-2.7,0.8-4.3,1.2c-6.2,1.7-12.5,2.8-18.9,3.3c-6.8,0.6-13.6,1.1-20.4,1.7c-1.6,0.1-3.2,0.2-4.9,0.2c-0.7,0-1.3-0.1-2-0.2
		c0.6-1.8,0.4-3.8-0.5-5.4c-1.3-2.4-3.1-4.4-5.3-5.9C144.6,152.4,144.2,152.1,143.5,151.5z"/>
	<path class="st1" d="M212.8,145.6c3.3,0.3,6.8,0.5,10.2,0.9c2.4,0.3,3.7,1,5.9,2.7c-0.3,4.5,1,9.1-0.1,13.9
		c-0.7-0.1-1.5-0.3-2.2-0.5c-4.3-1.5-8.7-2.1-13.2-2.9c-1.3-0.2-2.6-0.5-3.9-0.9c-1.7-0.5-3.3-1.1-5.1-1.7
		C206.2,152.5,209.6,149.3,212.8,145.6z"/>
	<path class="st1" d="M234.1,142.5l-2.6-1.6c1.1-1.8,2.2-3.6,3.3-5.4c2.9-4.8,5.7-9.7,8.7-14.5c1.1-1.8,2.5-3.4,3.8-5.2l3.2,1.8
		c-0.5,2.3-9.2,16.8-12.7,21.3C236.7,140.2,236,141.9,234.1,142.5z"/>
	<path class="st1" d="M230.9,109.3l5.9,2c-1.9,4.6-3.9,9.2-5.7,13.8c-1.8,4.7-3.3,9.4-5,14.3l-2.9-0.5
		C225.8,129,228.3,119.3,230.9,109.3z"/>
	<path class="st1" d="M229.9,140.3l-1.4-0.6l9.9-27.8c2.5,0.3,4.5,1.7,6.9,2.8c-1.9,3-3.7,5.7-5.4,8.5c-1.7,2.8-3.3,5.6-4.9,8.4
		C233.3,134.4,231.7,137.3,229.9,140.3z"/>
	<path class="st1" d="M229.1,109c-2.7,9.8-5.4,19.6-8.1,29.5l-2.9-0.2c1.8-4.9,1.7-10,3-14.9c1.2-4.8,2.2-9.7,3.3-14.7
		C225.9,108.3,227.6,108.5,229.1,109z"/>
	<path class="st1" d="M216.6,138.6l-4.2,0.6c0-0.6,0-1.2,0-1.8c0.8-4.6,1.5-9.2,2.3-13.7c0.3-1.7,0.8-3.4,1.3-5.1
		c0.8-2.6,1.8-5.2,2.6-7.8c0.6-1.9,2.1-2,4-2C220,118.6,217.1,128.3,216.6,138.6z"/>
	<path class="st1" d="M191.8,140.3c1.6-1.2,2.9-2.2,4.4-3.2c0.5-0.3,1-0.4,1.6-0.3c3.2,0.3,6.4,0.6,9.6,1c1,0.1,1.9,0.4,2.9,0.6
		c0.7,1.6-0.1,3.4,0,5.2c-0.3,0.1-0.6,0.1-0.8,0.1c-3.5-0.9-7.2-1.3-10.8-1.2C195.1,142.3,194.7,142.2,191.8,140.3z"/>
	<path class="st1" d="M232.7,144.5l-1.8,2.9c-0.4-0.1-0.7-0.2-1-0.4c-2.7-1.9-5.8-2.9-9.1-2.9c-2.8-0.1-5.6-0.3-8.3-0.5
		c-0.6-2.2-0.4-2.7,1.7-2.9c3.2-0.3,6.3-0.1,9.4,0.7c1.6,0.4,3.2,0.6,4.7,1C229.8,142.8,231.3,143.5,232.7,144.5z"/>
	<path d="M141.7,124.4c-5-0.4-9.9-0.8-14.8-1.3c-3-0.3-6-0.6-9-1.2c-1.9-0.4-3.7-1-5.4-1.8c-1.1-0.7-2.1-1.6-3-2.6
		c-0.3-0.4-0.5-0.8-0.5-1.3c0-0.4,0.2-0.8,0.5-1.1c0.4-0.1,0.8,0,1.1,0.2c2.4,3,5.9,3.5,9.3,4c8.4,1.4,16.9,2,25.5,1.7
		c5.9-0.3,11.8-1.3,17.4-3c5.7-1.8,11.1-4.6,15.9-8.1c1.3-1,2.5-2.2,3.6-3.5c0.8-0.9,1.2-1.1,1.9-0.6c0.7,0.3,0.9,1.1,0.6,1.8
		c-0.1,0.1-0.2,0.3-0.3,0.4c-1.1,1.5-2.3,2.8-3.7,4c-5.4,3.9-11.3,6.9-17.6,9c-4.2,1.2-8.5,2.1-12.8,2.6
		C147.5,124,144.6,124.2,141.7,124.4z"/>
	<path d="M111.7,101.3c-1-0.1-1.9-0.3-2.9-0.6c-0.5-0.3-1-0.7-1.1-1.3c-0.1-0.3,0.6-0.9,1-1.1c1.8-0.7,3.7-1.4,5.5-2
		c1.7-0.5,3.4-1.4,4.8-2.5c1-0.8,1.8-0.8,2.5-0.3c0.7,0.6,0.8,1.4,0.2,2.5c-0.5,0.9-1.1,1.6-1.8,2.3
		C117.5,100.1,114.6,101.2,111.7,101.3z"/>
	<path d="M161.3,88.7c0.9,0,1.9,0,2.8,0c3,0.2,6,0,9-0.7c0.8-0.1,1.5-0.2,2.3-0.3c0.6,0,1.3,0.1,1.3,0.7c0,0.5-0.2,1.1-0.6,1.4
		c-1.7,1.4-3.7,2.3-5.9,2.5c-2.5,0.2-5.1-0.3-7.3-1.4C161.9,90.6,161.2,89.7,161.3,88.7z"/>
	<path d="M159,103.3c1.9,0,3.1,0.7,3.1,2.1c0,1.4-1.1,2.6-2.5,2.7c0,0-0.1,0-0.1,0c-1.4,0-2.5-1-2.6-2.4
		C156.8,104.4,157.7,103.4,159,103.3C159,103.3,159,103.3,159,103.3z"/>
	<path d="M147.8,104.6c1.4,0.3,2.5,1.4,2.6,2.8c0,0.9-1.2,1.6-2.6,1.7c-1.3-0.1-2.4-1-2.6-2.3C145.1,105.7,146.4,104.6,147.8,104.6z
		"/>
</g>
</svg>
