<svg width="449" height="449" viewBox="0 0 449 449" fill="none" xmlns="http://www.w3.org/2000/svg">
<path d="M155.892 141.714C155.506 141.276 155.146 140.992 154.953 140.618C154.245 139.2 153.228 138.633 151.568 138.724C150.551 138.775 149.302 138.324 148.491 137.679C147.475 136.867 146.857 137.048 145.943 137.705C142.506 140.167 138.697 140.206 134.977 138.711C129.172 136.365 127.859 130.616 131.553 125.975C130.575 124.467 129.365 123.178 128.863 121.644C128.425 120.329 128.477 118.641 128.889 117.287C130.047 113.433 133.175 111.912 136.856 111.28C137.165 111.229 137.474 111.203 137.783 111.242C139.803 111.5 141.155 110.92 142.545 109.141C144.489 106.627 147.59 106.124 150.667 106.692C152.366 107.001 153.421 106.55 154.888 105.544C158.209 103.263 159.265 100.35 160.011 96.4955C161.646 88.0009 167.554 82.8578 175.547 80.2926C185.2 77.199 194.133 78.4494 201.636 85.8741C201.817 86.0545 202.035 86.2092 202.125 86.4283C203.425 89.2771 205.511 89.3286 208.381 88.9935C213.89 88.3361 219.476 88.3103 225.023 88.1427C226.079 88.1169 226.516 87.7818 226.954 86.8924C230.558 79.4548 236.685 75.6909 244.742 75.085C252.477 74.4921 259.106 76.9928 264.396 82.8062C266.584 85.2038 268.103 87.9365 268.734 91.0946C268.952 92.1902 269.48 92.6156 270.445 92.9507C276.353 95.0389 281.463 98.313 285.17 103.482C291.76 112.685 291.734 124.699 285.144 134.083C284.076 135.604 282.931 137.061 281.489 138.981C284.231 139.561 286.766 140.257 289.366 140.605C292.88 141.07 296.239 141.817 299.277 143.789C299.959 144.228 300.989 144.395 301.812 144.292C305.725 143.789 308.132 144.782 309.973 148.262C310.809 149.848 312.071 150.273 313.551 150.312C317.528 150.428 321.029 151.356 323.088 155.223C323.282 155.584 323.886 155.726 324.298 155.983C326.988 157.633 329.794 159.116 332.317 160.972C337.285 164.607 338.83 169.647 338.264 175.705C337.375 185.218 336.809 194.757 336.075 204.27C335.355 213.602 334.788 222.96 333.836 232.267C332.523 245.209 331.12 258.163 329.37 271.053C327.413 285.529 323.5 299.515 317.657 312.946C313.628 322.201 309.793 331.534 305.867 340.815C301.272 351.694 293.073 358.835 282.454 363.488C272.299 367.935 261.719 370.746 250.791 372.421C241.048 373.904 231.266 375.386 221.406 374.909C202.795 374.007 184.453 371.403 167.18 363.785C160.024 360.627 153.228 356.721 148.736 350.134C145.724 345.713 143.176 340.866 141.129 335.916C135.595 322.485 130.047 309.028 125.259 295.313C121.501 284.549 119.918 273.18 118.579 261.85C117.511 252.865 116.558 243.855 115.644 234.858C115.155 229.986 114.833 225.1 114.473 220.215C113.752 210.625 113.031 201.047 112.336 191.457C111.899 185.476 111.59 179.469 111.062 173.475C110.56 167.778 113.134 163.679 117.433 160.43C119.055 159.206 120.819 158.149 122.569 157.092C124.718 155.803 126.958 154.785 128.721 152.8C129.738 151.665 131.772 151.446 133.342 150.776C134.204 150.402 135.299 150.144 135.839 149.474C138.619 146.032 142.3 144.511 146.535 144.447C149.946 144.408 152.906 143.287 155.892 141.714ZM218.407 181.171C216.76 180.939 215.125 180.719 213.285 180.462C213.774 179.482 214.006 179.018 214.327 178.386C212.577 178.399 211.11 178.206 211.084 176.092C209.874 176.517 208.651 176.981 208.136 175.138C208.046 174.803 207.48 174.39 207.158 174.39C206.618 174.403 206.077 174.738 205.124 175.087C205.961 175.344 206.27 175.447 206.45 175.499C205.022 175.95 203.503 176.401 202.01 176.93C200.941 177.304 199.95 176.492 199.976 175.357C199.989 174.713 199.783 173.63 199.41 173.514C198.483 173.205 197.376 172.186 196.05 173.862C197.131 174.249 198.007 174.571 198.908 174.893C198.933 175.319 198.972 175.899 199.036 176.685C197.376 177.11 195.729 177.536 193.875 178C194.158 176.105 193.528 175.422 191.983 175.937C192.575 176.182 192.961 176.35 193.335 176.517C192.137 177.922 191.146 179.07 189.383 178.399C189.241 177.729 189.1 177.11 188.971 176.492C188.817 178.606 186.744 177.716 185.946 178.567C184.582 180.036 183.321 178.412 182.085 178.49C181.944 178.954 181.815 179.34 181.699 179.727C181.21 179.456 180.721 179.186 180.219 178.915C181.197 177.897 181.879 176.827 183.501 177.42C183.462 177.188 183.424 176.968 183.385 176.736C182.059 176.543 180.721 176.337 178.983 176.079C180.18 175.331 180.991 174.829 181.75 174.352C180.373 173.759 178.996 173.101 177.58 172.56C177.271 172.444 176.808 172.637 176.448 172.766C174.234 173.565 172.033 174.403 170.179 175.087C169.42 174.171 168.905 173.565 168.39 172.96C168.262 173.063 168.146 173.166 168.017 173.269C168.326 173.656 168.622 174.03 169.163 174.7C167.167 175.112 165.456 175.473 163.808 175.821C163.628 174.584 163.486 173.565 163.332 172.56C163.821 172.328 164.297 172.109 165.057 171.761C162.804 171.194 160.874 170.665 158.93 170.214C157.797 169.956 157.089 170.304 157.077 171.658C157.077 171.993 156.613 172.328 156.356 172.663C156.098 172.289 155.738 171.954 155.622 171.542C155.455 170.975 155.596 169.866 155.416 169.827C153.177 169.299 151.452 167.198 148.916 167.623C148.067 167.765 147.217 167.894 146.368 167.997C144.797 168.177 143.266 168.306 142.648 166.283C142.519 165.844 141.786 165.625 141.412 165.226C141.116 164.916 140.949 164.491 140.807 164.233C142.3 163.911 143.549 163.653 144.81 163.382C144.785 163.176 144.746 162.97 144.72 162.764C143.716 162.828 142.712 162.905 141.94 162.957C141.94 162.029 141.94 161.333 141.94 160.534C142.236 160.405 142.79 160.16 143.832 159.709C135.903 159.863 128.091 163.189 127.125 166.592C127.872 166.205 128.631 165.819 129.378 165.419C129.519 165.599 129.661 165.767 129.79 165.947C126.585 166.695 125.903 169.711 124.178 172.109C123.792 171.464 123.624 171.168 123.444 170.859C122.53 169.299 124.307 168.203 124.165 166.863C123.959 164.955 125.053 163.872 126.224 162.802C127.782 161.384 129.339 159.954 131.051 158.742C132.428 157.762 134.037 157.131 135.736 158.2C134.269 158.381 134.475 160.108 133.522 160.895C134.99 160.314 136.47 159.734 138.117 159.077C136.998 158.677 136.341 158.445 135.685 158.213C136.611 157.504 137.487 156.718 138.478 156.099C139.417 155.519 140.537 155.197 141.451 154.578C141.721 154.398 141.618 153.637 141.67 153.16C144.836 151.034 148.144 148.816 151.439 146.599C150.873 146.264 150.461 146.226 150.049 146.277C148.44 146.496 146.831 146.806 145.222 146.96C142.339 147.231 140.254 148.855 138.143 150.802C138.658 151.046 138.928 151.175 139.16 151.291C137.294 151.936 135.492 152.774 133.612 153.148C131.038 153.65 129.301 155.068 127.859 157.143C127.113 158.226 126.16 159.193 125.182 160.07C123.444 161.642 121.514 162.996 119.866 164.646C117.124 167.391 116.97 170.678 119.66 173.553C121.591 175.602 123.817 177.433 126.147 179.044C131.605 182.808 137.821 184.986 144.102 186.868C153.82 189.794 163.808 191.509 173.848 192.926C187.851 194.912 201.932 195.865 216.052 196.162C236.826 196.587 257.536 195.388 278.091 192.398C290.087 190.658 301.993 188.363 313.345 183.903C318.841 181.751 324.131 179.186 328.417 174.971C330.657 172.753 332.266 169.995 330.734 166.966C329.485 164.504 327.297 162.506 325.495 160.34C325.302 160.108 324.878 160.057 324.556 159.979C323.964 159.825 323.166 159.889 322.792 159.515C321.994 158.69 321.274 157.724 320.759 156.692C319.678 154.527 318.069 153.186 315.623 152.928C314.143 152.774 312.663 152.696 311.183 152.477C309.947 152.297 308.737 151.962 307.888 151.781C307.888 150.724 308.081 150.041 307.849 149.551C306.549 146.78 303.73 145.955 301.002 147.27C300.487 147.515 299.264 147.334 299.045 146.947C297.732 144.692 295.57 144.395 293.266 144.163C298.762 147.205 303.138 150.918 301.941 157.943C303.589 158.02 305.056 158.084 306.523 158.149C306.575 158.355 306.626 158.574 306.665 158.781C306.279 158.884 305.905 158.987 305.674 159.051C306.961 160.108 307.926 160.895 308.789 161.591C308.39 162.055 308.042 162.454 307.617 162.957C306.794 163.266 305.764 163.64 304.747 164.027C304.734 164.22 304.721 164.414 304.696 164.607C306.202 165.122 307.72 165.638 309.226 166.154C304.078 168.332 303.022 168.152 300.294 164.865C301.568 164.865 302.585 164.865 303.692 164.865C303.486 164.194 303.318 163.653 303.151 163.099C302.327 163.331 301.504 163.885 300.963 163.679C298.659 162.776 296.973 163.666 295.158 165.445C296.072 165.909 296.896 166.334 298.028 166.901C295.75 167.971 293.768 168.899 291.696 169.879C292.185 169.969 292.648 170.059 293.395 170.214C291.979 171.323 290.795 172.251 289.559 173.217C290.023 173.333 290.512 173.449 290.988 173.565C290.01 173.978 289.147 174.352 288.015 174.829C288.864 174.958 289.353 175.022 290.241 175.164C287.796 175.86 286.161 175.331 285.801 173.926C286.702 173.475 287.603 173.024 288.478 172.586C287.049 172.006 285.633 171.439 284.269 170.884C284.835 170.691 285.376 170.498 286.406 170.137C285.453 169.802 285.054 169.66 284.655 169.518C286.573 169.389 288.787 170.781 290.228 168.19C289.636 167.971 289.276 167.829 288.71 167.623C289.418 167.249 289.932 166.992 290.396 166.747C288.851 166.747 287.345 166.747 285.839 166.747C285.839 166.876 285.839 166.992 285.852 167.12C286.316 167.198 286.792 167.275 287.255 167.352C286.238 168.074 284.964 168.1 284.153 168.732C281.592 170.665 278.799 170.691 275.839 170.369C275.311 170.304 274.732 170.717 273.625 171.091C274.641 171.761 275.208 172.122 275.903 172.573C275.362 172.921 275.118 173.217 274.847 173.23C272.543 173.411 270.24 173.527 267.936 173.669C268.013 173.875 268.09 174.081 268.167 174.3C267.691 174.519 266.854 175.022 266.777 174.932C265.657 173.475 264.705 174.597 263.559 174.971C264.345 175.576 265.001 176.079 265.709 176.633C262.002 178.631 257.484 179.534 255.811 178.644C256.21 176.762 257.845 177.213 259.158 176.788C257.69 176.26 256.223 175.718 254.472 175.087C255.463 174.416 255.991 174.055 256.545 173.682C254.472 172.019 254.472 172.019 254.768 171.194C255.18 171.31 255.566 171.413 256.223 171.593C254.46 168.023 252.117 171.774 250.251 170.923C251.203 171.207 252.156 171.477 253.365 171.838C252.413 172.032 251.769 172.16 251.113 172.289C251.126 172.444 251.152 172.586 251.165 172.741C252.027 172.818 252.902 172.895 253.842 172.973C253.623 173.643 253.456 174.21 253.263 174.829C252.387 174.751 251.602 174.584 250.817 174.635C250.045 174.687 249.028 174.687 248.577 175.151C247.599 176.156 246.647 176.311 245.398 175.963C244.587 175.731 243.39 175.228 242.94 175.576C241.408 176.775 240.16 175.731 239.13 175.602C238.808 174.803 238.577 174.236 238.422 173.823C236.337 178.141 232.965 178.193 229.103 177.291C229.528 177.574 229.953 177.845 230.391 178.129C230.416 178.335 230.429 178.528 230.455 178.734C229.232 178.954 227.198 179.74 226.915 179.314C225.898 177.845 223.903 178.27 223.504 177.355C221.831 177.278 220.608 177.213 219.798 177.175C219.257 178.76 218.806 180.036 218.369 181.312L218.407 181.171ZM115.271 179.985C115.413 181.093 115.477 181.519 115.503 181.944C116.738 198.405 117.948 214.853 119.222 231.313C120.239 244.538 121.411 257.738 123.637 270.834C126.096 285.245 129.597 299.283 135.607 312.676C139.379 321.08 142.712 329.691 146.342 338.172C148.131 342.349 150.396 346.241 153.756 349.412C161.131 356.36 169.87 360.82 179.434 363.836C189.679 367.059 200.195 368.876 210.865 369.908C219.476 370.733 228.074 370.849 236.646 369.882C244.253 369.031 251.821 367.832 259.338 366.414C268.631 364.674 277.46 361.542 285.659 356.721C293.974 351.823 300.294 345.365 303.859 336.148C307.888 325.695 312.483 315.46 316.64 305.058C318.403 300.636 319.896 296.086 321.132 291.497C324.35 279.509 326.667 267.341 327.915 254.992C329.228 242.038 330.438 229.07 331.545 216.09C332.278 207.441 332.755 198.766 333.321 190.104C333.527 186.933 333.681 183.749 333.862 180.655C327.555 183.916 321.583 187.5 315.224 190.155C308.75 192.862 301.903 194.667 294.772 197C295.171 196.02 295.325 195.633 295.609 194.95C287.526 196.329 279.738 197.644 271.964 198.972C272.402 198.482 272.904 198.289 273.419 198.186C279.571 197.013 285.749 195.878 291.902 194.667C296.638 193.739 301.362 192.798 306.06 191.689C314.233 189.768 321.737 186.301 328.507 181.338C331.223 179.34 333.54 176.917 334.672 173.604C335.496 171.155 335.277 169.428 333.836 167.739C334.557 172.341 332.729 175.911 329.125 178.206C325.071 180.784 320.81 183.156 316.383 184.986C304.438 189.936 291.85 192.669 279.082 194.306C267.601 195.775 256.068 197.129 244.523 197.657C231.291 198.276 218.008 198.302 204.777 197.928C189.846 197.502 175.019 195.659 160.359 192.798C148.26 190.439 136.302 187.513 125.362 181.57C119.943 178.631 114.615 175.383 115.117 167.443C113.92 169.492 113.739 171.181 114.344 172.973C115.503 176.388 117.807 179.005 120.574 181.132C126.443 185.618 133.188 188.466 140.138 190.735C145.39 192.45 150.795 193.7 156.124 195.169C141.657 192.952 127.64 189.498 115.271 179.985ZM203.052 93.7113C202.254 92.5383 201.302 90.8625 200.092 89.3931C194.3 82.368 184.428 80.0993 175.804 83.9406C167.991 87.4338 163.654 93.4019 163.486 102.193C163.473 102.902 162.727 103.766 162.096 104.281C160.23 105.789 158.261 107.169 156.536 108.445C157.424 110.12 158.158 111.512 158.969 113.072C161.929 113.111 164.066 114.851 165.314 117.648C166.704 120.742 165.456 123.268 163.126 125.318C166.035 129.997 164.735 134.07 159.277 137.138C160.166 138.053 160.899 139.059 161.865 139.755C163.641 141.07 165.61 142.127 167.386 143.441C169.085 144.705 170.849 145.246 172.998 145.285C175.392 145.323 177.825 145.697 180.129 146.329C187.478 148.352 194.532 150.995 199.139 157.685C199.294 157.904 199.603 158.097 199.86 158.136C203.786 158.652 207.699 159.283 211.624 159.593C221.767 160.405 231.793 159.335 241.64 156.924C245.849 155.893 250.186 155.313 253.443 151.317C257.356 146.535 263.096 144.137 269.184 142.848C269.776 142.719 270.433 142.565 270.87 142.191C273.071 140.296 275.349 138.453 277.344 136.339C282.351 131.041 285.621 124.918 285.299 117.352C284.861 107.169 279.301 100.427 270.433 96.4826C267.253 95.0647 265.657 93.4019 264.525 90.1794C261.963 82.8191 254.743 78.4107 246.428 78.4751C238.577 78.5396 232.566 82.7933 229.695 90.3212C229.464 90.927 229.155 91.5199 229.039 91.7648C227.108 91.5328 225.487 91.0946 223.878 91.1719C218.137 91.4555 212.397 91.8551 206.669 92.332C205.588 92.448 204.558 93.1312 203.052 93.7113ZM162.367 163.537C162.547 163.46 162.727 163.369 162.907 163.292C164.04 164.646 165.069 166.115 166.357 167.301C167.412 168.268 168.712 169.35 170.025 169.544C171.376 169.737 173.294 169.338 174.182 168.422C174.89 167.7 174.62 165.78 174.414 164.465C174.272 163.563 173.487 162.751 172.985 161.9C172.766 161.513 172.548 161.139 172.329 160.753C172.458 160.611 172.573 160.469 172.702 160.327C173.5 160.817 174.478 161.139 175.045 161.81C176.255 163.266 177.439 164.813 178.275 166.502C179.717 169.415 182.716 170.859 185.779 169.866C187.349 169.35 188.096 168.332 188.135 166.708C188.186 164.207 187.156 162.145 185.56 160.327C184.943 159.618 184.338 158.884 183.733 158.162C187.298 159.103 189.525 161.384 190.838 164.62C191.648 166.618 193.412 167.43 195.433 166.747C197.337 166.102 198.135 164.388 197.35 162.248C196.951 161.165 196.424 160.057 195.703 159.167C192.807 155.597 189.306 152.8 184.955 151.175C178.172 148.623 171.183 147.695 163.988 148.61C160.217 149.087 156.562 149.977 153.408 152.245C149.753 154.862 148.89 159.361 151.786 162.377C154.695 165.406 158.492 166.592 162.778 166.399C162.624 165.329 162.495 164.426 162.367 163.537ZM286.547 162.815C290.473 163.099 293.614 161.707 296.175 159.103C298.273 156.989 298.389 154.153 296.754 151.588C295.184 149.1 292.777 147.747 290.151 146.703C285.415 144.821 280.446 144.872 275.504 145.181C269.467 145.568 263.817 147.321 258.887 150.918C255.888 153.096 253.404 155.777 252.619 159.593C252.104 162.093 252.864 163.524 254.807 164.014C256.892 164.542 259.119 163.318 259.84 161.281C260.084 160.585 260.29 159.85 260.638 159.206C261.732 157.118 263.212 155.416 265.683 154.759C265.567 155.429 265.297 155.983 264.937 156.473C263.508 158.368 262.684 160.443 262.774 162.854C262.852 164.852 264.139 166.192 266.121 166.399C268.759 166.656 270.6 165.47 271.462 162.828C272.235 160.469 273.354 158.381 275.594 157.105C275.89 156.937 276.276 156.924 276.585 156.834C275.864 158.703 275.015 160.353 274.59 162.093C273.831 165.226 276.019 167.417 279.159 166.643C280.408 166.334 281.734 165.587 282.57 164.633C283.651 163.408 284.23 161.771 285.093 160.34C285.621 159.464 286.264 158.652 286.843 157.814C287.075 158.793 286.985 159.515 286.895 160.25C286.805 161.049 286.676 161.835 286.547 162.815ZM137.783 124.403C136.251 125.64 135.144 126.362 134.256 127.29C132.351 129.262 132.351 132.665 134.153 134.38C138.092 138.156 143.999 137.099 146.342 132.227C146.496 131.905 146.908 131.711 147.204 131.466C147.397 131.75 147.578 132.046 147.784 132.317C148.491 133.271 149.045 134.457 149.972 135.114C152.404 136.854 158.428 135.475 160.487 132.897C162.572 130.293 162.096 127.251 159.316 125.356C158.827 125.021 158.376 124.635 157.553 124.003C158.402 123.707 158.866 123.41 159.342 123.397C162.032 123.307 163.667 120.948 162.714 118.447C162.006 116.565 159.96 115.315 157.656 115.431C156.742 115.483 155.995 115.586 155.751 114.323C155.159 111.268 152.559 109.231 149.392 109.205C145.879 109.179 144.295 110.494 143.42 114.155C143.382 114.323 143.214 114.451 143.073 114.658C142.661 114.451 142.352 114.284 142.03 114.129C138.053 112.247 132.827 114.297 131.733 118.151C131.038 120.6 132.763 123.307 135.157 123.603C135.903 123.668 136.611 124.029 137.783 124.403ZM223.968 164.916C223.582 165.058 223.389 165.226 223.273 165.174C219.952 163.743 216.606 163.253 213.156 164.723C212.937 164.813 212.577 164.594 212.281 164.491C211.573 164.246 210.878 163.859 210.157 163.756C207.673 163.382 205.176 163.099 202.679 162.789C202.203 162.725 201.714 162.738 201.353 162.725C201.353 164.285 201.353 165.754 201.353 167.597C202.743 167.017 204.185 166.411 205.614 165.806C206.013 166.115 206.566 166.283 206.849 166.076C207.802 165.38 208.51 165.458 209.243 166.656C207.055 167.262 204.931 167.855 202.821 168.448C202.821 168.667 202.833 168.899 202.833 169.118C205.446 167.584 206.141 170.201 207.3 170.91C208.149 169.647 208.69 167.945 209.771 167.468C211.007 166.927 212.847 166.992 214.237 168.397C213.645 168.861 213.22 169.183 212.886 169.454C215.1 168.989 217.326 168.525 219.566 168.049C219.592 168.216 219.617 168.371 219.643 168.538C219.206 169.067 218.781 169.595 217.996 170.523C221.098 169.634 223.595 168.912 226.362 168.126C225.744 168.886 225.397 169.312 225.023 169.763C227.507 169.222 229.631 168.745 231.755 168.281C231.755 167.984 231.768 167.675 231.768 167.378C230.88 167.056 229.992 166.734 229.129 166.424C228.807 165.844 228.447 165.187 227.803 164.001C229.502 164.697 230.777 165.058 231.884 165.715C234.355 167.185 236.8 168.525 239.761 167.133C239.851 167.095 239.889 166.966 240.057 166.772C239.568 166.566 239.117 166.386 238.589 166.179C240.572 164.542 242.567 165.006 243.326 167.146C242.901 167.468 242.464 167.791 241.936 168.19C243.159 168.629 244.188 169.002 245.604 169.505C244.729 170.008 244.06 170.395 243.365 170.794C243.957 173.308 244.394 173.682 246.325 173.166C246.016 172.818 245.733 172.509 245.179 171.89C247.059 172.148 248.513 172.341 249.968 172.534C250.006 172.367 250.058 172.186 250.096 172.019C249.375 171.812 248.629 171.658 247.947 171.374C247.213 171.065 246.531 170.601 245.836 170.214C246.209 169.763 246.608 169.325 246.956 168.848C247.149 168.577 247.277 168.242 247.432 167.945C246.788 167.61 246.235 167.314 245.733 167.056C246.299 166.411 246.724 165.935 246.943 165.664C247.741 166.051 248.5 166.411 249.298 166.785C248.976 167.056 248.642 167.34 248.487 167.468C248.861 168.319 249.157 169.015 249.504 169.814C251.139 170.046 252.915 170.085 253.752 167.842C251.937 167.069 250.083 166.283 248.23 165.483C248.269 165.342 248.307 165.2 248.346 165.045C248.745 164.929 249.157 164.813 249.646 164.671C249.337 164.336 248.976 164.117 248.964 163.885C248.886 162.003 247.831 161.848 246.299 162.145C245.784 162.235 245.167 161.758 244.587 161.578C244.111 161.423 243.596 161.152 243.146 161.217C240.43 161.616 237.74 162.171 235.024 162.544C231.549 163.034 228.048 163.395 224.56 163.808C223.994 163.872 223.427 163.924 222.861 163.975C222.848 164.104 222.848 164.22 222.835 164.349C223.183 164.504 223.504 164.658 223.968 164.916ZM258.952 172.019C259.505 172.483 260.058 172.96 260.573 173.385C260.213 173.707 259.788 174.094 259.106 174.713C260.818 174.287 262.156 173.965 263.547 173.63C263.328 173.217 263.148 172.895 263.006 172.65C264.782 171.336 266.661 174.03 268.322 172.057C267.665 172.096 267.009 172.135 266.185 172.173C267.253 170.124 269.248 172.16 270.729 170.704C268.566 170.098 266.854 170.523 265.4 171.129C264.628 170.717 264.01 170.395 263.392 170.072C263.354 170.124 263.328 170.188 263.289 170.24C263.585 170.498 263.868 170.755 264.19 171.039C263.431 171.387 262.8 171.684 262.247 171.941C262.028 171.735 261.796 171.516 261.423 171.168C261.307 171.709 261.243 172.044 261.165 172.457C260.663 172.289 260.187 172.135 259.26 171.838C260.161 171.245 260.702 170.897 261.384 170.446C260.959 169.338 260.522 168.203 260.071 166.992C257.87 167.636 255.888 168.203 254.035 168.745C255.052 169.389 256.184 169.814 256.866 170.627C257.51 171.387 257.69 172.56 258.128 173.682C258.385 173.179 258.681 172.586 258.952 172.019ZM152.649 147.811C155.416 146.947 157.887 146.187 160.771 145.297C159.303 145.014 158.917 143.003 157.347 144.163C155.828 145.285 154.361 146.47 152.649 147.811ZM231.407 172.96C231.24 172.882 231.06 172.805 230.892 172.728C230.094 173.308 229.296 173.901 228.447 174.532C230.674 176.234 230.674 176.234 232.386 175.112C230.995 174.958 230.352 174.39 231.407 172.96ZM201.971 173.798C202.1 173.578 202.228 173.372 202.357 173.153C201.92 172.921 201.469 172.689 201.186 172.534C201.212 172.006 201.237 171.593 201.263 171.181C200.941 171.168 200.375 171.065 200.336 171.155C200.195 171.555 200.002 172.186 200.195 172.418C200.684 172.985 201.379 173.359 201.971 173.798Z" fill="#2E1A14"/>
<path d="M115.271 179.985C127.64 189.498 141.656 192.953 156.136 195.144C150.808 193.688 145.402 192.424 140.15 190.71C133.187 188.441 126.443 185.593 120.561 181.107C117.793 178.98 115.489 176.376 114.331 172.947C113.726 171.169 113.919 169.467 115.103 167.417C114.601 175.358 119.943 178.606 125.349 181.545C136.289 187.487 148.246 190.413 160.345 192.772C175.018 195.634 189.846 197.477 204.764 197.903C218.008 198.276 231.291 198.251 244.51 197.632C256.055 197.091 267.588 195.75 279.069 194.28C291.837 192.643 304.425 189.911 316.369 184.961C320.797 183.131 325.057 180.759 329.112 178.181C332.728 175.886 334.543 172.316 333.822 167.714C335.264 169.403 335.483 171.13 334.659 173.579C333.539 176.905 331.21 179.328 328.494 181.313C321.724 186.289 314.22 189.743 306.047 191.664C301.349 192.772 296.625 193.713 291.888 194.641C285.736 195.853 279.571 196.987 273.405 198.16C272.89 198.264 272.389 198.457 271.951 198.947C279.738 197.619 287.512 196.304 295.595 194.925C295.312 195.608 295.158 195.995 294.759 196.975C301.889 194.629 308.737 192.837 315.211 190.13C321.569 187.474 327.528 183.891 333.848 180.63C333.681 183.723 333.526 186.907 333.308 190.078C332.741 198.74 332.265 207.415 331.531 216.065C330.424 229.045 329.227 242.013 327.902 254.967C326.653 267.316 324.336 279.484 321.119 291.472C319.883 296.061 318.39 300.624 316.627 305.032C312.469 315.435 307.874 325.669 303.846 336.123C300.293 345.34 293.973 351.798 285.646 356.696C277.434 361.53 268.604 364.649 259.324 366.389C251.808 367.807 244.226 369.006 236.632 369.857C228.06 370.811 219.462 370.707 210.852 369.882C200.169 368.851 189.666 367.034 179.42 363.811C169.857 360.795 161.118 356.322 153.742 349.387C150.37 346.216 148.105 342.323 146.329 338.147C142.699 329.665 139.365 321.068 135.594 312.65C129.583 299.258 126.082 285.22 123.624 270.809C121.384 257.713 120.226 244.513 119.209 231.288C117.948 214.853 116.738 198.392 115.502 181.932C115.464 181.519 115.399 181.094 115.271 179.985ZM121.912 215.266C121.719 215.781 121.333 216.297 121.371 216.787C122.736 234.536 124.139 252.26 127.756 269.765C130.806 284.537 134.719 298.909 142.3 312.109C145.531 317.742 149.263 322.846 154.965 326.146C157.501 327.616 160.255 328.75 162.907 330.026C163.074 329.781 163.241 329.536 163.409 329.304C162.495 328.492 161.581 327.693 160.654 326.881C160.963 326.829 161.143 326.868 161.285 326.971C165.082 329.485 168.763 332.23 172.727 334.448C175.559 336.033 178.712 337.129 181.853 338.044C192.034 341.009 202.563 341.95 213.065 342.916C227.056 344.205 240.88 342.62 254.704 340.583C266.468 338.856 277.202 334.834 286.547 327.358C287.087 326.92 287.757 326.623 288.362 326.262C288.452 326.378 288.542 326.494 288.632 326.61C287.821 327.487 287.01 328.363 285.968 329.485C293.214 326.958 299.302 323.259 303.266 316.93C308.338 308.835 312.752 300.392 315.507 291.15C318.969 279.549 321.904 267.793 323.294 255.766C324.671 243.882 325.34 231.907 326.306 219.97C326.396 218.836 326.319 217.689 326.319 216.361C323.551 217.972 325.147 220.86 323.796 222.819C323.796 221.427 323.796 220.048 323.796 218.385C323.191 218.707 322.882 218.849 322.586 219.029C319.793 220.731 317.129 222.742 314.168 224.082C308.544 226.648 302.777 228.903 297.011 231.108C295.518 231.675 295.196 232.397 295.08 233.866C294.578 240.169 293.909 246.46 293.24 252.75C293.098 254.129 292.365 255.496 290.871 255.392C289.391 255.289 289.404 253.755 289.456 252.57C289.546 250.275 289.803 247.994 289.829 245.699C289.893 241.69 289.842 237.669 289.842 233.531C288.992 233.686 288.568 233.737 288.156 233.853C274.911 237.437 261.409 239.628 247.753 240.775C227.378 242.477 207.029 242.051 186.744 239.331C171.685 237.308 156.896 234.046 142.802 228.22C137.409 225.99 132.183 223.335 126.546 220.718C127.923 231.236 129.326 241.897 130.716 252.57C129.249 249.257 127.794 245.931 127.138 242.451C126.185 237.411 125.773 232.255 125.181 227.137C124.692 222.974 125.22 218.54 121.861 215.188C122.041 214.531 122.401 213.861 122.375 213.229C122.002 206.603 121.552 199.991 121.127 193.378C120.998 191.316 120.882 189.253 120.741 186.998C121.758 187.526 122.543 187.939 123.328 188.338C123.379 188.235 123.444 188.145 123.495 188.042C122.221 187.088 120.96 186.134 119.466 185.012C119.428 185.747 119.376 186.173 119.402 186.572C119.866 192.308 120.329 198.057 120.818 203.793C121.165 207.635 121.552 211.45 121.912 215.266ZM144.153 322.924C144.102 323.156 144.025 323.298 144.063 323.375C144.231 323.71 144.424 324.019 144.617 324.342C147.204 328.686 150.924 331.934 155.338 334.099C160.976 336.871 166.781 339.41 172.727 341.434C182.522 344.785 192.703 346.693 203.026 347.479C210.852 348.072 218.716 348.768 226.554 348.678C237.379 348.549 248.191 347.583 258.861 345.61C269.84 343.587 280.6 340.815 290.691 335.891C295.17 333.713 299.341 331.032 302.623 327.19C303.627 326.017 304.425 324.651 305.313 323.375C304.759 323.169 304.541 323.233 304.386 323.375C297.05 329.833 288.439 333.983 279.236 336.935C262.413 342.336 245.024 344.321 227.468 344.785C211.559 345.211 195.844 343.367 180.308 339.926C169.6 337.554 159.419 333.816 150.267 327.629C148.169 326.198 146.226 324.522 144.153 322.924ZM223.234 368.387C226.632 368.116 230.145 367.897 233.646 367.549C235.307 367.382 236.568 366.544 236.813 364.701C237.237 361.581 237.727 358.462 238.035 355.329C238.357 352.12 237.289 351.089 234.007 351.192C230.416 351.308 226.838 351.553 223.246 351.54C219.038 351.514 214.842 351.23 210.633 351.127C208.342 351.076 207.235 352.184 207.492 354.427C207.853 357.559 208.329 360.692 208.934 363.785C209.423 366.286 210.594 367.24 213.117 367.498C216.425 367.833 219.758 368.078 223.234 368.387ZM146.097 211.424C146.29 211.399 146.483 211.386 146.689 211.36C146.689 207.183 146.689 203.007 146.689 198.831C146.921 198.766 147.152 198.702 147.384 198.624C147.847 199.501 148.324 200.365 148.761 201.202C148.851 200.829 148.967 200.313 149.096 199.759C149.431 199.759 149.727 199.759 150.023 199.759C153.536 199.836 153.884 200.339 153.807 203.922C153.755 206.152 154.09 208.382 154.244 210.612C154.437 210.612 154.618 210.599 154.811 210.599C154.811 207.274 154.811 203.948 154.811 200.635C155.068 200.622 155.338 200.61 155.596 200.597C156.793 203.626 155.75 207.029 156.986 210.084C157.256 207.557 157.218 205.044 157.295 202.53C157.308 202.105 157.784 201.692 158.041 201.28C158.26 201.731 158.659 202.169 158.672 202.62C158.775 204.979 158.749 207.338 158.814 209.697C158.878 212.069 158.981 214.441 159.071 216.812C159.251 216.812 159.431 216.812 159.599 216.812C159.637 216.168 159.715 215.523 159.715 214.866C159.74 211.27 159.715 207.66 159.818 204.064C159.843 203.278 160.332 202.504 160.603 201.731C160.847 202.543 161.259 203.342 161.285 204.154C161.388 206.294 161.323 208.46 161.323 210.78C164.644 208.627 161.864 204.953 164.232 202.633C164.322 204.528 164.413 206.423 164.515 208.318C164.696 208.318 164.876 208.318 165.043 208.331C165.185 206.513 165.326 204.696 165.468 202.878C165.751 202.865 166.021 202.84 166.292 202.827C166.459 204.76 166.639 206.694 166.807 208.627C166.884 208.614 166.961 208.601 167.038 208.588C167.206 206.732 167.36 204.876 167.527 203.033C167.875 203.046 168.222 203.059 168.557 203.059C168.711 205.624 168.853 208.176 169.008 210.741C169.162 210.741 169.329 210.728 169.484 210.728C169.484 208.305 169.484 205.869 169.484 203.832C182.87 204.773 195.985 205.701 209.101 206.616C209.114 206.436 209.127 206.242 209.14 206.062C207.788 205.894 206.45 205.688 205.098 205.572C190.103 204.296 175.134 202.93 160.281 200.365C151.953 198.921 143.793 197 135.954 193.855C132.453 192.45 129.12 190.671 125.683 189.099C125.284 188.918 124.782 188.918 124.332 188.957C124.216 188.97 124.036 189.472 124.074 189.717C124.563 192.553 125.104 195.376 125.606 198.212C125.786 199.204 125.902 200.21 126.057 201.202C126.301 201.202 126.558 201.202 126.803 201.202C126.945 198.135 127.073 195.054 127.215 191.986C127.936 192.669 128.412 193.455 128.502 194.28C128.772 196.562 129.004 198.856 129.017 201.138C129.03 203.471 129.66 205.418 131.733 206.629C132.595 207.132 133.612 207.39 134.564 207.764C134.86 206.823 135.375 205.894 135.427 204.928C135.568 202.324 135.517 199.72 135.568 197.116C135.581 196.588 135.723 196.046 135.813 195.518C135.967 195.531 136.135 195.544 136.289 195.557C136.392 196.111 136.495 196.665 136.534 196.897C137.216 196.742 137.885 196.601 138.58 196.459C138.67 197.387 138.722 198.044 138.786 198.702C138.889 198.689 138.979 198.689 139.082 198.676C139.159 198.083 139.249 197.49 139.327 196.871C140.112 197.013 140.794 197.129 141.541 197.258C141.605 198.044 141.656 198.779 141.708 199.501C141.746 199.501 141.798 199.514 141.837 199.514C141.901 198.972 141.952 198.418 142.055 197.439C142.236 198.276 142.326 198.663 142.454 199.256C142.66 198.547 142.789 198.096 142.931 197.632C143.098 197.632 143.252 197.645 143.42 197.645C143.613 199.991 143.793 202.35 143.986 204.696C144.076 204.696 144.166 204.709 144.243 204.709C144.346 202.569 144.449 200.416 144.539 198.276C144.758 198.276 144.977 198.264 145.196 198.264C145.518 202.672 145.801 207.042 146.097 211.424ZM173.808 359.055C172.045 354.788 170.488 351.05 168.969 347.286C168.673 346.551 168.3 345.701 168.415 344.979C168.634 343.561 167.798 343.11 166.819 342.646C162.855 340.777 158.904 338.907 154.914 337.077C154.463 336.871 153.665 336.703 153.433 336.922C153.073 337.283 152.803 338.083 152.957 338.534C155.081 344.308 156.677 350.418 162.958 353.435C166.562 355.162 170.037 357.095 173.808 359.055ZM287.28 352.094C291.18 350.083 296.316 340.39 295.312 337.129C295.093 337.142 294.823 337.09 294.617 337.18C290.369 339.152 286.122 341.125 281.887 343.123C281.527 343.29 281.051 343.638 280.986 343.973C280.678 345.494 280.51 347.054 280.279 348.678C282.917 349.232 285.968 348.794 287.28 352.094ZM318.12 213.435C318.274 213.435 318.441 213.448 318.596 213.448C318.982 206.719 319.368 199.991 319.754 193.262C319.973 193.262 320.192 193.262 320.424 193.262C320.424 195.299 320.424 197.348 320.424 199.385C321.736 199.578 322.753 199.72 323.937 199.888C324.105 197.735 324.414 195.647 324.375 193.572C324.324 191.11 325.186 189.279 327.207 187.887C327.786 187.487 328.133 186.778 328.828 185.902C323.23 188.931 318.094 191.728 312.778 194.603C313.821 194.319 314.683 194.074 315.88 193.739C315.88 196.15 315.88 198.302 315.88 200.455C316.086 200.455 316.292 200.468 316.498 200.468C316.82 198.547 317.129 196.614 317.45 194.693C317.669 194.732 317.888 194.757 318.107 194.796C318.12 201.022 318.12 207.235 318.12 213.435ZM258.925 204.232C244.574 204.605 230.236 204.992 215.884 205.366C230.287 206.616 244.651 206.397 258.925 204.232ZM188.391 229.896C188.353 228.207 186.988 226.712 185.573 226.802C184.118 226.892 183.153 228.13 183.204 229.818C183.256 231.507 184.401 232.732 185.933 232.732C187.465 232.732 188.417 231.636 188.391 229.896ZM328.095 189.756C327.876 189.743 327.657 189.73 327.438 189.717C326.267 197.168 326.19 204.683 326.357 212.223C326.936 204.734 327.516 197.245 328.095 189.756ZM201.044 231.301C200.284 232.384 199.525 232.989 199.576 233.531C199.628 234.124 200.426 234.652 200.902 235.219C201.443 234.743 202.382 234.291 202.421 233.789C202.46 233.157 201.739 232.474 201.044 231.301ZM173.306 198.792C173.294 198.934 173.294 199.076 173.281 199.217C176.769 199.759 180.257 200.287 183.745 200.829C183.771 200.674 183.784 200.519 183.809 200.365C180.308 199.849 176.807 199.32 173.306 198.792ZM161.169 196.394C161.118 196.549 161.066 196.691 161.015 196.846C163.28 198.16 165.841 197.232 168.261 197.335C165.906 197.026 163.537 196.717 161.169 196.394ZM284.256 226.802C283.226 226.235 282.582 225.616 282.235 225.758C281.681 225.977 281.308 226.699 280.871 227.202C281.321 227.55 281.797 228.22 282.196 228.169C282.763 228.091 283.265 227.498 284.256 226.802ZM149.701 207.841C149.984 209.826 148.388 211.953 149.585 213.861C149.855 213.835 150.138 213.822 150.409 213.796C150.177 211.811 149.945 209.826 149.701 207.841ZM268.926 227.434C268.373 228.194 267.794 228.658 267.742 229.187C267.703 229.535 268.63 230.36 268.772 230.283C269.338 229.986 269.904 229.496 270.162 228.929C270.252 228.723 269.518 228.13 268.926 227.434ZM160.538 225.513C160.023 226.596 159.547 227.15 159.56 227.705C159.573 228.156 160.165 228.581 160.513 229.019C160.86 228.504 161.401 228.027 161.491 227.472C161.568 227.047 161.066 226.532 160.538 225.513ZM218.227 221.208C217.416 220.744 216.875 220.19 216.451 220.267C216 220.344 215.64 221.015 215.254 221.414C215.704 221.775 216.142 222.407 216.605 222.42C217.03 222.432 217.48 221.801 218.227 221.208ZM288.362 222.793C288.915 222.084 289.456 221.698 289.52 221.247C289.559 220.911 288.992 220.486 288.683 220.099C288.233 220.486 287.654 220.795 287.409 221.285C287.293 221.504 287.872 222.072 288.362 222.793ZM167.411 217.753C167.952 217.122 168.57 216.696 168.531 216.348C168.493 215.975 167.875 215.523 167.424 215.382C167.206 215.317 166.511 215.923 166.536 216.194C166.575 216.632 167 217.057 167.411 217.753Z" fill="#FFFCF7"/>
<path d="M203.052 93.7125C204.558 93.1324 205.587 92.4493 206.668 92.359C212.396 91.8821 218.137 91.4696 223.877 91.1989C225.473 91.1216 227.108 91.5598 229.039 91.7919C229.154 91.547 229.463 90.9669 229.695 90.3482C232.565 82.8203 238.576 78.5537 246.427 78.5022C254.742 78.4377 261.963 82.8461 264.524 90.2064C265.644 93.4289 267.253 95.0917 270.432 96.5096C279.287 100.454 284.861 107.196 285.298 117.379C285.62 124.958 282.351 131.068 277.344 136.366C275.349 138.48 273.071 140.323 270.87 142.218C270.432 142.592 269.776 142.746 269.184 142.875C263.108 144.177 257.355 146.562 253.442 151.344C250.186 155.34 245.848 155.92 241.639 156.951C231.806 159.362 221.766 160.432 211.624 159.62C207.685 159.31 203.772 158.679 199.86 158.163C199.602 158.124 199.293 157.931 199.139 157.712C194.531 151.009 187.49 148.379 180.128 146.356C177.824 145.724 175.379 145.35 172.998 145.312C170.848 145.273 169.085 144.732 167.386 143.468C165.61 142.141 163.653 141.097 161.864 139.782C160.912 139.073 160.165 138.067 159.277 137.165C164.734 134.097 166.034 130.024 163.125 125.345C165.455 123.282 166.691 120.769 165.314 117.675C164.065 114.878 161.928 113.138 158.968 113.099C158.144 111.54 157.411 110.147 156.535 108.472C158.26 107.196 160.242 105.829 162.096 104.308C162.726 103.793 163.473 102.942 163.486 102.22C163.653 93.4418 167.991 87.4608 175.803 83.9676C184.414 80.1263 194.286 82.395 200.091 89.4201C201.301 90.8638 202.254 92.5395 203.052 93.7125ZM180.553 117.198C183.23 115.497 183.397 115.535 184.697 118.333C187.799 125.061 192.793 130.024 199.319 133.337C209.59 138.557 220.415 139.756 231.613 137.152C238.885 135.464 245.552 132.434 250.997 127.162C255.231 123.076 257.793 118.113 258.578 112.236C258.912 109.722 259.054 109.683 261.332 110.263C261.577 110.328 262.066 110.263 262.104 110.147C262.195 109.851 262.207 109.438 262.053 109.181C261.075 107.415 258.398 106.499 256.377 107.183C256.312 107.208 256.3 107.376 256.248 107.518C256.66 107.814 257.072 108.098 257.69 108.549C256.428 109.438 255.36 110.276 254.202 110.972C244.806 116.721 234.432 119.364 223.581 120.15C211.418 121.027 199.512 119.364 187.877 115.755C186.989 115.484 186.178 114.981 185.225 114.543C185.843 113.86 186.216 113.46 186.68 112.957C183.603 112.48 180.334 114.762 180.553 117.198ZM186.062 95.6718C182.574 95.878 178.635 97.6569 176.293 102.13C176.048 102.594 176.061 103.625 176.37 103.87C176.82 104.231 177.657 104.218 178.3 104.141C178.738 104.089 179.15 103.651 179.562 103.38C183.874 100.48 188.494 99.6677 193.527 101.189C194.274 101.408 195.175 101.06 196.011 100.97C195.651 100.08 195.535 98.9201 194.891 98.3272C192.806 96.4323 190.245 95.5944 186.062 95.6718ZM260.38 95.7749C260.277 95.5687 260.148 95.2077 259.942 94.9113C257.509 91.4181 254.009 90.1935 249.954 90.3997C246.08 90.606 242.888 92.1657 240.996 95.7491C240.738 96.239 240.957 96.9995 240.957 97.6311C241.639 97.6311 242.36 97.7987 242.978 97.5924C244.728 97.0253 246.389 96.1358 248.152 95.6718C251.524 94.7824 254.755 95.414 257.831 97.0252C259.093 97.6826 260.354 97.051 260.38 95.7749ZM217.506 143.017C222.011 145.363 229.36 144.487 231.317 141.741C231.227 141.677 231.124 141.548 231.034 141.561C227.288 141.844 223.53 142.115 219.784 142.437C219.179 142.476 218.587 142.734 217.506 143.017ZM209.925 103.638C209.217 104.514 208.393 105.094 208.419 105.623C208.445 106.151 209.371 107.092 209.835 107.041C210.517 106.964 211.122 106.203 211.765 105.726C211.238 105.146 210.723 104.553 209.925 103.638ZM234.007 105.571C234.779 104.798 235.255 104.321 235.719 103.857C235.088 103.316 234.522 102.581 233.788 102.336C233.466 102.22 232.321 103.264 232.385 103.483C232.63 104.153 233.273 104.682 234.007 105.571Z" fill="#FFFCF7"/>
<path d="M135.685 158.175C133.986 157.106 132.377 157.737 131 158.717C129.288 159.928 127.73 161.372 126.173 162.79C125.002 163.86 123.908 164.943 124.114 166.85C124.255 168.178 122.479 169.287 123.393 170.846C123.573 171.143 123.753 171.452 124.126 172.097C125.851 169.699 126.533 166.683 129.738 165.935C129.597 165.755 129.455 165.587 129.326 165.407C128.58 165.793 127.82 166.18 127.074 166.58C128.039 163.19 135.852 159.864 143.781 159.696C142.738 160.148 142.185 160.393 141.889 160.521C141.889 161.321 141.889 162.017 141.889 162.945C142.661 162.893 143.665 162.816 144.669 162.751C144.695 162.958 144.733 163.164 144.759 163.37C143.51 163.641 142.262 163.899 140.756 164.221C140.91 164.479 141.078 164.904 141.361 165.213C141.734 165.613 142.455 165.832 142.597 166.27C143.227 168.307 144.746 168.165 146.316 167.985C147.166 167.882 148.015 167.753 148.865 167.611C151.413 167.198 153.125 169.287 155.365 169.815C155.545 169.854 155.416 170.962 155.571 171.53C155.686 171.942 156.06 172.277 156.304 172.651C156.562 172.316 157.025 171.981 157.025 171.646C157.025 170.292 157.746 169.944 158.879 170.202C160.835 170.653 162.766 171.182 165.005 171.749C164.246 172.11 163.77 172.329 163.28 172.548C163.422 173.566 163.576 174.572 163.757 175.809C165.404 175.461 167.116 175.113 169.111 174.688C168.57 174.017 168.274 173.631 167.966 173.257C168.094 173.154 168.21 173.051 168.339 172.947C168.854 173.553 169.368 174.172 170.128 175.074C171.981 174.391 174.182 173.553 176.396 172.754C176.757 172.625 177.22 172.432 177.529 172.548C178.945 173.089 180.335 173.734 181.699 174.34C180.94 174.817 180.129 175.319 178.932 176.067C180.669 176.325 182.008 176.518 183.334 176.724C183.372 176.956 183.411 177.175 183.45 177.407C181.828 176.815 181.146 177.897 180.167 178.903C180.682 179.186 181.171 179.457 181.648 179.715C181.763 179.328 181.892 178.941 182.034 178.477C183.269 178.4 184.531 180.024 185.895 178.555C186.693 177.704 188.765 178.593 188.92 176.479C189.048 177.098 189.19 177.717 189.332 178.387C191.095 179.057 192.086 177.91 193.283 176.505C192.91 176.35 192.524 176.183 191.932 175.925C193.476 175.409 194.107 176.093 193.824 177.988C195.677 177.511 197.325 177.098 198.985 176.673C198.934 175.886 198.895 175.306 198.856 174.881C197.955 174.559 197.08 174.236 195.999 173.85C197.325 172.174 198.432 173.192 199.358 173.502C199.719 173.618 199.937 174.713 199.925 175.345C199.899 176.479 200.89 177.291 201.958 176.918C203.451 176.389 204.97 175.938 206.399 175.487C206.219 175.435 205.91 175.332 205.073 175.074C206.025 174.726 206.553 174.391 207.107 174.378C207.441 174.365 207.995 174.791 208.085 175.126C208.6 176.969 209.81 176.505 211.032 176.08C211.058 178.194 212.525 178.387 214.276 178.374C213.954 179.006 213.722 179.483 213.233 180.45C215.074 180.707 216.721 180.926 218.356 181.158C217.764 181.545 217.185 181.932 216.657 182.293C217.185 183.092 217.597 183.711 217.97 184.278C219.012 183.466 220.055 182.654 221.432 181.584C220.094 181.416 219.193 181.313 218.305 181.197C218.742 179.921 219.193 178.645 219.733 177.059C220.544 177.098 221.754 177.163 223.44 177.24C223.852 178.155 225.834 177.73 226.851 179.199C227.147 179.625 229.168 178.851 230.391 178.619C230.365 178.413 230.352 178.22 230.326 178.013C229.901 177.73 229.477 177.459 229.039 177.175C232.9 178.078 236.273 178.039 238.358 173.708C238.525 174.12 238.744 174.675 239.066 175.487C240.095 175.616 241.344 176.66 242.876 175.461C243.326 175.113 244.523 175.616 245.334 175.848C246.582 176.209 247.535 176.041 248.513 175.036C248.964 174.572 249.98 174.559 250.753 174.52C251.538 174.469 252.323 174.636 253.198 174.713C253.391 174.095 253.571 173.54 253.777 172.857C252.838 172.78 251.975 172.703 251.1 172.625C251.087 172.471 251.062 172.329 251.049 172.174C251.692 172.045 252.336 171.916 253.301 171.723C252.078 171.362 251.139 171.091 250.186 170.808C252.053 171.658 254.395 167.907 256.159 171.478C255.502 171.298 255.103 171.194 254.704 171.078C254.408 171.903 254.408 171.903 256.48 173.566C255.927 173.94 255.399 174.301 254.408 174.971C256.159 175.603 257.626 176.144 259.093 176.673C257.793 177.098 256.159 176.647 255.747 178.529C257.42 179.418 261.938 178.529 265.645 176.518C264.924 175.964 264.28 175.461 263.495 174.855C264.628 174.481 265.58 173.373 266.713 174.817C266.79 174.907 267.627 174.417 268.103 174.185C268.026 173.979 267.949 173.772 267.871 173.553C270.175 173.412 272.479 173.283 274.783 173.115C275.053 173.089 275.298 172.806 275.839 172.458C275.144 172.006 274.59 171.646 273.56 170.975C274.68 170.589 275.259 170.189 275.774 170.253C278.735 170.589 281.528 170.563 284.089 168.616C284.913 167.998 286.174 167.959 287.191 167.237C286.728 167.16 286.264 167.082 285.788 167.005C285.788 166.876 285.788 166.76 285.775 166.631C287.281 166.631 288.774 166.631 290.331 166.631C289.868 166.876 289.353 167.134 288.645 167.508C289.199 167.714 289.572 167.856 290.164 168.075C288.723 170.666 286.509 169.274 284.591 169.403C284.99 169.544 285.376 169.686 286.341 170.021C285.312 170.382 284.771 170.576 284.205 170.769C285.569 171.323 286.985 171.89 288.414 172.471C287.538 172.909 286.625 173.36 285.736 173.811C286.11 175.216 287.731 175.745 290.177 175.049C289.289 174.92 288.8 174.842 287.95 174.713C289.083 174.236 289.945 173.876 290.924 173.45C290.447 173.334 289.958 173.218 289.495 173.102C290.73 172.135 291.902 171.207 293.33 170.099C292.584 169.957 292.121 169.867 291.631 169.764C293.704 168.784 295.686 167.856 297.964 166.786C296.844 166.219 296.02 165.793 295.094 165.329C296.896 163.551 298.595 162.674 300.899 163.563C301.426 163.77 302.263 163.228 303.087 162.983C303.254 163.525 303.421 164.066 303.627 164.749C302.533 164.749 301.504 164.749 300.229 164.749C302.945 168.036 304.013 168.204 309.162 166.038C307.656 165.523 306.137 165.007 304.631 164.492C304.644 164.298 304.657 164.105 304.683 163.912C305.7 163.525 306.729 163.151 307.553 162.842C307.978 162.339 308.325 161.939 308.724 161.475C307.875 160.779 306.909 159.993 305.609 158.936C305.841 158.871 306.214 158.768 306.601 158.665C306.549 158.459 306.498 158.24 306.459 158.034C304.992 157.969 303.524 157.905 301.877 157.827C303.074 150.802 298.698 147.09 293.202 144.048C295.506 144.267 297.668 144.576 298.981 146.832C299.2 147.219 300.435 147.399 300.937 147.154C303.679 145.84 306.485 146.665 307.785 149.436C308.016 149.926 307.823 150.622 307.823 151.666C308.673 151.846 309.883 152.182 311.118 152.362C312.586 152.581 314.079 152.658 315.559 152.813C318.004 153.058 319.6 154.411 320.694 156.577C321.209 157.608 321.93 158.575 322.728 159.4C323.088 159.774 323.887 159.696 324.491 159.864C324.813 159.954 325.238 160.006 325.431 160.225C327.233 162.39 329.421 164.388 330.67 166.85C332.201 169.88 330.592 172.638 328.353 174.855C324.08 179.083 318.777 181.635 313.281 183.788C301.928 188.248 290.023 190.542 278.027 192.283C257.459 195.273 236.762 196.459 215.988 196.047C201.868 195.763 187.787 194.809 173.783 192.811C163.744 191.38 153.756 189.679 144.038 186.753C137.757 184.858 131.54 182.692 126.083 178.928C123.753 177.33 121.526 175.5 119.596 173.437C116.906 170.576 117.06 167.276 119.802 164.53C121.449 162.88 123.38 161.527 125.118 159.954C126.096 159.065 127.048 158.098 127.795 157.028C129.236 154.953 130.974 153.535 133.548 153.032C135.44 152.658 137.229 151.821 139.096 151.176C138.877 151.073 138.594 150.931 138.079 150.686C140.19 148.74 142.275 147.129 145.158 146.845C146.78 146.69 148.376 146.381 149.985 146.162C150.396 146.11 150.808 146.149 151.375 146.484C148.067 148.701 144.759 150.918 141.605 153.045C141.541 153.509 141.657 154.283 141.387 154.463C140.46 155.069 139.353 155.391 138.413 155.984C137.422 156.59 136.547 157.389 135.62 158.098L135.685 158.175ZM319.575 164.079C319.176 164.298 318.867 164.453 318.571 164.62C318.699 164.814 318.854 165.175 318.931 165.162C319.961 164.943 320.978 164.659 322.175 164.363C320.347 163.087 318.905 161.901 317.309 161.011C315.739 160.122 314.014 159.516 312.354 158.794C312.277 158.975 312.2 159.155 312.122 159.336C313.216 160.199 314.375 160.998 315.404 161.926C316.383 162.816 316.846 164.608 318.79 163.615C318.918 163.525 319.292 163.899 319.575 164.079ZM142.03 167.998C140.833 167.263 139.984 166.386 139.018 166.232C137.191 165.935 136.792 167.637 136.045 168.797C137.989 170.408 137.886 169.699 142.03 167.998ZM238.525 187.836C239.452 190.027 240.34 190.581 241.704 189.834C242.747 189.266 243.326 188.441 242.657 187.281C242 186.121 240.713 186.302 238.525 187.836ZM278.091 178.568C278.014 178.258 277.937 177.936 277.859 177.627C275.787 177.511 273.715 177.395 271.565 177.279C271.913 178.323 275.388 180.166 276.624 179.908C277.19 179.779 277.615 179.032 278.091 178.568ZM317.85 170.679C316.511 170.576 315.598 170.511 314.529 170.434C314.439 170.576 314.169 170.962 313.911 171.336C315.276 172.29 316.576 173.192 317.966 174.146C317.966 173.386 317.979 172.793 317.966 172.187C317.94 171.62 317.876 171.04 317.85 170.679ZM322.677 170.743C322.767 170.692 322.87 170.64 322.96 170.589C322.908 169.403 323.114 168.114 322.728 167.044C322.29 165.845 321.196 165.188 319.523 165.961C320.63 167.637 321.647 169.184 322.677 170.743ZM141.232 162.855C140.704 162.236 140.434 161.604 139.997 161.462C139.173 161.192 138.246 161.076 137.384 161.14C137.139 161.153 136.972 162.017 136.766 162.481C137.5 162.687 138.22 162.983 138.98 163.061C139.61 163.151 140.28 162.958 141.232 162.855ZM249.903 188.854C249.942 189.086 249.98 189.305 250.019 189.537C252.323 189.086 254.64 188.635 256.944 188.184C256.905 187.939 256.854 187.694 256.815 187.449C254.511 187.913 252.207 188.39 249.903 188.854ZM275.028 175.564C275.066 175.332 275.118 175.087 275.156 174.855C273.47 174.533 271.784 174.211 269.815 173.837C270.793 175.358 271.63 176.557 273.663 176.686C273.033 176.08 272.672 175.745 272.312 175.397C272.389 175.306 272.479 175.216 272.556 175.113C273.38 175.268 274.204 175.422 275.028 175.564ZM306.15 179.173C306.678 178.284 307.36 177.614 307.218 177.266C306.974 176.66 306.292 176.131 305.661 175.809C305.481 175.719 304.49 176.634 304.554 176.789C304.863 177.523 305.416 178.142 306.15 179.173ZM232.437 178.645C232.785 179.38 233.132 180.101 233.595 181.068C234.419 180.54 235.243 180.024 236.376 179.302C235.449 179.161 234.986 179.096 234.406 179.006C234.767 178.671 235.011 178.439 235.385 178.091C234.291 178.284 233.402 178.452 232.437 178.645ZM168.892 176.918C164.992 175.886 164.992 175.886 164.4 177.575C165.868 178.091 167.219 178.232 168.892 176.918ZM174.697 176.441C174.671 176.234 174.71 176.015 174.607 175.899C174.298 175.538 174.002 175.1 173.59 174.92C173.397 174.842 172.985 175.319 172.664 175.551C172.985 175.886 173.281 176.273 173.655 176.544C174.362 177.059 175.122 177.511 175.817 177.962C176.383 177.291 176.95 176.647 177.606 175.874C176.563 176.067 175.727 176.234 174.697 176.441ZM319.24 168.062C319.279 167.83 319.33 167.611 319.369 167.379C318.185 167.134 317 166.876 315.34 166.528C316.666 168.668 317.644 168.913 319.24 168.062ZM279.7 172.69C281.051 173.257 282.248 174.778 284.037 173.412C282.737 171.942 281.257 172.084 279.7 172.69ZM281.849 177.227C281.811 177.021 281.772 176.802 281.734 176.595C281.167 176.441 280.537 176.067 280.035 176.196C279.442 176.35 278.966 176.931 278.439 177.33C278.953 177.562 279.494 178 279.996 177.975C280.627 177.923 281.232 177.498 281.849 177.227ZM155.635 175.036C155.609 174.817 155.584 174.597 155.545 174.391C153.009 173.644 152.25 173.85 151.606 175.886C153.112 175.564 154.374 175.293 155.635 175.036ZM153.679 181.726C152.829 180.398 151.864 180.63 151.027 181.403C150.77 181.635 150.808 182.692 151.053 182.86C152.482 183.814 152.842 182.293 153.679 181.726ZM180.837 184.278C180.811 184.626 180.772 184.987 180.747 185.335C181.648 185.502 182.536 185.657 183.437 185.825C183.411 185.283 183.437 184.291 183.347 184.278C182.523 184.188 181.686 184.252 180.837 184.278ZM243.815 181.958C244.896 181.287 246.994 182.37 247.213 180.037C245.398 179.483 244.459 180.462 243.815 181.958ZM186.088 188.751C186.333 187.939 186.5 187.333 186.783 186.405C185.766 186.727 185.033 186.972 184.299 187.204C184.222 187.41 184.132 187.616 184.054 187.823C184.35 187.939 184.647 188.055 184.943 188.184C185.251 188.325 185.573 188.493 186.088 188.751ZM167.978 180.23C165.829 178.967 164.954 179.238 164.683 181.12C165.868 180.798 166.923 180.514 167.978 180.23ZM186.294 180.578C186.243 180.372 186.191 180.166 186.127 179.947C185.033 180.218 183.939 180.488 182.857 180.746C182.909 180.952 182.96 181.146 183.012 181.352C184.248 181.648 185.483 181.88 186.294 180.578ZM285.736 175.912C285.698 176.08 285.672 176.26 285.633 176.428C286.522 177.214 287.397 178 288.774 176.57C287.757 176.35 286.74 176.131 285.736 175.912ZM318.905 160.56C317.039 158.047 316.653 157.827 314.928 158.343C316.267 159.091 317.361 159.696 318.905 160.56ZM134.153 171.465C134.14 171.658 134.127 171.865 134.114 172.058C135.183 172.058 136.264 172.058 137.332 172.058C137.332 171.813 137.319 171.568 137.319 171.323C136.277 171.375 135.221 171.426 134.153 171.465ZM232.167 182.009C232.115 181.842 232.064 181.687 232.012 181.519C231.189 181.829 230.365 182.125 229.412 182.473C231.111 184.69 231.446 182.667 232.167 182.009Z" fill="#FFFCF7"/>
<path d="M162.367 163.538C162.496 164.427 162.625 165.33 162.779 166.387C158.48 166.58 154.683 165.394 151.787 162.365C148.904 159.349 149.766 154.85 153.409 152.233C156.562 149.965 160.231 149.075 163.989 148.598C171.184 147.683 178.173 148.624 184.956 151.163C189.306 152.8 192.807 155.598 195.703 159.155C196.424 160.045 196.952 161.153 197.351 162.236C198.136 164.376 197.338 166.09 195.433 166.735C193.412 167.418 191.649 166.619 190.838 164.608C189.525 161.372 187.311 159.091 183.733 158.15C184.338 158.872 184.93 159.606 185.561 160.315C187.17 162.146 188.187 164.208 188.135 166.696C188.097 168.32 187.363 169.338 185.78 169.854C182.716 170.847 179.717 169.403 178.276 166.49C177.439 164.801 176.255 163.267 175.045 161.798C174.479 161.115 173.501 160.792 172.703 160.315C172.574 160.457 172.458 160.599 172.329 160.741C172.548 161.127 172.754 161.514 172.986 161.888C173.488 162.739 174.273 163.551 174.415 164.453C174.62 165.781 174.891 167.689 174.183 168.41C173.295 169.326 171.377 169.725 170.025 169.532C168.713 169.338 167.413 168.256 166.357 167.289C165.07 166.103 164.04 164.634 162.908 163.28C162.728 163.37 162.547 163.461 162.367 163.538Z" fill="#FFFCF7"/>
<path d="M286.547 162.814C286.689 161.834 286.805 161.061 286.908 160.275C287.011 159.553 287.088 158.818 286.856 157.838C286.264 158.676 285.621 159.488 285.106 160.365C284.244 161.796 283.664 163.433 282.583 164.657C281.746 165.611 280.408 166.359 279.172 166.668C276.032 167.429 273.844 165.25 274.603 162.118C275.028 160.365 275.864 158.728 276.598 156.859C276.276 156.936 275.903 156.962 275.607 157.129C273.367 158.406 272.248 160.494 271.475 162.853C270.6 165.495 268.772 166.681 266.134 166.423C264.152 166.23 262.865 164.876 262.787 162.878C262.697 160.481 263.521 158.393 264.95 156.498C265.323 156.008 265.593 155.454 265.696 154.783C263.225 155.441 261.758 157.142 260.651 159.231C260.303 159.888 260.097 160.61 259.853 161.306C259.132 163.342 256.905 164.554 254.82 164.039C252.889 163.549 252.13 162.118 252.632 159.617C253.417 155.802 255.901 153.121 258.9 150.942C263.83 147.346 269.48 145.593 275.517 145.206C280.459 144.897 285.428 144.845 290.164 146.727C292.79 147.771 295.197 149.125 296.767 151.612C298.389 154.178 298.286 157.013 296.188 159.127C293.601 161.693 290.473 163.098 286.547 162.814Z" fill="#FFFCF7"/>
<path d="M137.783 124.402C136.624 124.028 135.903 123.668 135.157 123.577C132.776 123.281 131.038 120.574 131.733 118.125C132.827 114.271 138.053 112.221 142.03 114.103C142.352 114.258 142.661 114.425 143.073 114.632C143.214 114.425 143.382 114.296 143.42 114.129C144.308 110.468 145.879 109.153 149.392 109.179C152.559 109.192 155.159 111.229 155.751 114.296C155.995 115.56 156.742 115.457 157.656 115.405C159.96 115.289 161.993 116.539 162.714 118.421C163.654 120.922 162.019 123.281 159.342 123.371C158.866 123.384 158.402 123.68 157.553 123.977C158.364 124.609 158.814 124.995 159.316 125.33C162.096 127.238 162.572 130.267 160.487 132.871C158.428 135.462 152.404 136.828 149.972 135.088C149.045 134.431 148.504 133.245 147.784 132.291C147.578 132.02 147.397 131.724 147.204 131.44C146.908 131.698 146.496 131.891 146.342 132.201C143.999 137.073 138.092 138.13 134.153 134.353C132.364 132.639 132.364 129.249 134.256 127.264C135.144 126.362 136.251 125.64 137.783 124.402Z" fill="#FFFCF7"/>
<path d="M223.968 164.916C223.492 164.671 223.183 164.503 222.861 164.336C222.874 164.207 222.874 164.091 222.887 163.962C223.453 163.911 224.019 163.859 224.586 163.794C228.074 163.382 231.562 163.008 235.05 162.531C237.766 162.157 240.456 161.603 243.171 161.204C243.622 161.139 244.137 161.41 244.613 161.565C245.192 161.745 245.81 162.235 246.325 162.132C247.857 161.848 248.912 161.99 248.989 163.872C249.002 164.104 249.363 164.323 249.671 164.658C249.182 164.8 248.77 164.916 248.371 165.032C248.333 165.174 248.294 165.316 248.256 165.47C250.109 166.257 251.95 167.056 253.777 167.829C252.928 170.072 251.164 170.033 249.53 169.801C249.182 169.002 248.886 168.319 248.513 167.455C248.667 167.326 249.002 167.043 249.324 166.772C248.526 166.385 247.766 166.024 246.968 165.651C246.737 165.908 246.312 166.398 245.759 167.043C246.261 167.301 246.814 167.597 247.458 167.932C247.303 168.229 247.187 168.564 246.981 168.835C246.634 169.311 246.235 169.75 245.862 170.201C246.569 170.6 247.239 171.052 247.972 171.361C248.655 171.657 249.401 171.799 250.122 172.005C250.083 172.173 250.032 172.354 249.993 172.521C248.539 172.328 247.071 172.134 245.205 171.877C245.759 172.495 246.042 172.805 246.351 173.153C244.42 173.668 243.982 173.295 243.39 170.781C244.085 170.381 244.742 170.008 245.63 169.492C244.214 168.976 243.184 168.615 241.962 168.177C242.489 167.778 242.927 167.455 243.352 167.133C242.592 165.006 240.597 164.542 238.615 166.166C239.143 166.373 239.58 166.553 240.082 166.759C239.928 166.965 239.876 167.081 239.786 167.12C236.826 168.525 234.393 167.172 231.909 165.702C230.802 165.045 229.528 164.684 227.829 163.988C228.486 165.174 228.846 165.831 229.155 166.411C230.017 166.721 230.905 167.043 231.793 167.365C231.793 167.662 231.781 167.971 231.781 168.267C229.657 168.731 227.533 169.208 225.049 169.75C225.422 169.299 225.77 168.873 226.388 168.113C223.62 168.912 221.123 169.621 218.021 170.51C218.794 169.569 219.231 169.041 219.669 168.525C219.643 168.358 219.617 168.203 219.592 168.035C217.352 168.499 215.112 168.976 212.911 169.44C213.259 169.17 213.671 168.847 214.263 168.383C212.86 166.978 211.019 166.914 209.797 167.455C208.715 167.932 208.175 169.634 207.325 170.897C206.167 170.188 205.472 167.571 202.859 169.105C202.859 168.886 202.846 168.654 202.846 168.435C204.957 167.842 207.081 167.249 209.269 166.643C208.535 165.444 207.827 165.367 206.875 166.063C206.592 166.269 206.025 166.089 205.639 165.792C204.198 166.398 202.769 167.004 201.379 167.584C201.379 165.741 201.379 164.271 201.379 162.712C201.739 162.725 202.216 162.725 202.705 162.776C205.202 163.086 207.699 163.369 210.183 163.743C210.916 163.859 211.599 164.233 212.307 164.478C212.59 164.581 212.963 164.8 213.182 164.71C216.631 163.24 219.978 163.73 223.298 165.161C223.389 165.212 223.594 165.058 223.968 164.916ZM242.232 163.33C242.914 164.284 243.519 165.122 244.42 166.373C244.111 164.387 244.484 163.666 246.106 164.465C246.364 164.594 246.866 164.246 247.252 164.104C245.475 164.104 244.111 161.513 242.232 163.33ZM217.3 164.723C220.789 167.906 220.789 167.906 222.153 166.669C220.441 165.973 218.871 165.341 217.3 164.723ZM202.627 165.664C203.773 165.38 204.918 165.109 206.064 164.826C204.584 163.588 203.284 163.176 202.627 165.664Z" fill="#FFFCF7"/>
<path d="M258.951 172.02C258.668 172.587 258.385 173.18 258.127 173.696C257.69 172.574 257.509 171.401 256.866 170.641C256.184 169.829 255.038 169.403 254.034 168.759C255.888 168.218 257.87 167.637 260.071 167.006C260.534 168.205 260.959 169.352 261.384 170.46C260.701 170.912 260.161 171.272 259.26 171.853C260.187 172.149 260.663 172.304 261.165 172.471C261.242 172.059 261.319 171.724 261.422 171.182C261.795 171.53 262.027 171.749 262.246 171.956C262.799 171.698 263.43 171.401 264.19 171.053C263.868 170.77 263.585 170.512 263.289 170.254C263.327 170.203 263.353 170.138 263.392 170.087C264.009 170.409 264.614 170.731 265.399 171.144C266.854 170.538 268.579 170.112 270.728 170.718C269.248 172.162 267.253 170.125 266.185 172.188C267.008 172.136 267.665 172.11 268.321 172.072C266.661 174.044 264.782 171.35 263.005 172.665C263.147 172.91 263.314 173.232 263.546 173.644C262.156 173.979 260.817 174.315 259.105 174.727C259.788 174.108 260.212 173.722 260.573 173.399C260.071 172.948 259.517 172.484 258.951 172.02Z" fill="#FFFCF7"/>
<path d="M152.649 147.812C154.361 146.484 155.828 145.286 157.347 144.151C158.917 142.991 159.303 145.015 160.77 145.286C157.887 146.188 155.416 146.949 152.649 147.812Z" fill="#FFFCF7"/>
<path d="M231.408 172.96C230.352 174.377 230.996 174.945 232.386 175.112C230.674 176.247 230.674 176.247 228.448 174.532C229.297 173.901 230.095 173.32 230.893 172.728C231.06 172.818 231.241 172.895 231.408 172.96Z" fill="#FFFCF7"/>
<path d="M135.646 158.215C136.302 158.447 136.972 158.679 138.079 159.078C136.418 159.736 134.951 160.316 133.484 160.896C134.423 160.097 134.217 158.369 135.697 158.202C135.685 158.176 135.646 158.215 135.646 158.215Z" fill="#FFFCF7"/>
<path d="M201.971 173.797C201.366 173.346 200.684 172.972 200.208 172.418C200.015 172.186 200.195 171.554 200.349 171.155C200.388 171.065 200.954 171.168 201.276 171.181C201.25 171.593 201.224 172.006 201.199 172.534C201.482 172.689 201.919 172.921 202.37 173.153C202.228 173.372 202.1 173.591 201.971 173.797Z" fill="#FFFCF7"/>
<path d="M121.86 196.161C125.22 200.015 124.692 205.107 125.181 209.889C125.773 215.767 126.185 221.684 127.138 227.471C127.794 231.467 129.248 235.296 130.716 239.085C129.313 226.827 127.923 214.568 126.546 202.49C132.183 205.494 137.396 208.549 142.802 211.114C156.896 217.817 171.685 221.555 186.744 223.888C207.029 227.02 227.378 227.51 247.753 225.551C261.409 224.236 274.898 221.722 288.156 217.597C288.567 217.468 288.992 217.417 289.842 217.224C289.842 221.993 289.893 226.595 289.829 231.209C289.79 233.839 289.546 236.469 289.456 239.111C289.404 240.477 289.391 242.23 290.871 242.359C292.364 242.488 293.098 240.916 293.24 239.33C293.909 232.099 294.578 224.88 295.08 217.636C295.196 215.935 295.518 215.122 297.011 214.465C302.79 211.939 308.556 209.335 314.168 206.396C317.128 204.849 319.793 202.542 322.586 200.582C322.882 200.376 323.191 200.209 323.796 199.835C323.796 201.743 323.796 203.328 323.796 204.926C325.147 202.684 323.551 199.358 326.318 197.515C326.318 199.036 326.396 200.35 326.306 201.652C325.34 215.367 324.671 229.108 323.294 242.772C321.904 256.59 318.969 270.086 315.507 283.414C312.752 294.023 308.338 303.729 303.266 313.023C299.302 320.293 293.214 324.534 285.967 327.447C286.997 326.158 287.821 325.152 288.632 324.147C288.542 324.018 288.452 323.876 288.361 323.747C287.757 324.16 287.1 324.495 286.547 324.998C277.202 333.583 266.455 338.197 254.703 340.182C240.88 342.515 227.056 344.346 213.065 342.863C202.562 341.742 192.034 340.672 181.853 337.256C178.725 336.212 175.559 334.936 172.727 333.119C168.763 330.579 165.095 327.421 161.285 324.534C161.143 324.418 160.963 324.366 160.654 324.431C161.568 325.359 162.482 326.287 163.408 327.215C163.241 327.498 163.074 327.769 162.907 328.053C160.255 326.583 157.514 325.281 154.965 323.593C149.263 319.79 145.53 313.938 142.3 307.467C134.732 292.308 130.806 275.796 127.755 258.833C124.139 238.724 122.736 218.358 121.371 197.979C121.333 197.411 121.719 196.806 121.912 196.226C121.912 196.213 121.86 196.161 121.86 196.161ZM152.481 308.486C152.314 307.441 152.326 306.926 152.146 306.539C151.142 304.425 150.087 302.337 149.031 300.236C147.152 296.485 144.926 292.914 143.445 288.957C138.632 276.015 136.611 262.262 134.886 248.431C134.487 245.234 133.316 242.166 132.505 239.034C132.222 239.111 131.951 239.175 131.668 239.253C132.016 243.184 132.453 247.116 132.698 251.047C133.47 263.112 135.491 274.894 139.455 286.108C142.107 293.623 145.247 300.919 150.447 306.694C150.936 307.248 151.541 307.673 152.481 308.486ZM306.729 246.536C306.523 246.523 306.317 246.51 306.111 246.497C305.313 252.414 304.515 258.317 303.717 264.234C303.897 264.26 304.064 264.298 304.244 264.324C305.068 258.395 305.905 252.465 306.729 246.536ZM155.982 314.699C154.746 312.662 153.523 310.625 152.288 308.576C151.812 311.205 153.42 313.783 155.982 314.699Z" fill="#2E1A14"/>
<path d="M144.154 322.923C146.226 324.522 148.17 326.197 150.281 327.628C159.432 333.815 169.613 337.554 180.322 339.925C195.845 343.367 211.573 345.21 227.482 344.785C245.038 344.308 262.427 342.336 279.25 336.935C288.452 333.983 297.05 329.832 304.4 323.374C304.554 323.233 304.773 323.168 305.326 323.374C304.438 324.651 303.64 326.004 302.636 327.19C299.354 331.031 295.184 333.712 290.705 335.891C280.614 340.815 269.854 343.586 258.874 345.61C248.191 347.582 237.393 348.562 226.568 348.678C218.729 348.768 210.878 348.072 203.039 347.479C192.704 346.693 182.536 344.798 172.741 341.434C166.794 339.397 160.989 336.858 155.352 334.099C150.937 331.934 147.217 328.685 144.63 324.341C144.437 324.019 144.244 323.71 144.077 323.374C144.025 323.284 144.103 323.155 144.154 322.923Z" fill="#2E1A14"/>
<path d="M223.234 368.387C219.772 368.091 216.438 367.846 213.117 367.498C210.595 367.24 209.423 366.286 208.934 363.785C208.329 360.692 207.853 357.559 207.493 354.427C207.235 352.184 208.355 351.063 210.633 351.127C214.842 351.23 219.038 351.514 223.247 351.54C226.838 351.565 230.416 351.308 234.007 351.192C237.289 351.088 238.358 352.12 238.036 355.329C237.714 358.462 237.225 361.581 236.813 364.7C236.568 366.544 235.307 367.382 233.647 367.549C230.146 367.897 226.632 368.116 223.234 368.387Z" fill="#2E1A14"/>
<path d="M146.097 211.425C145.801 207.042 145.505 202.659 145.222 198.29C145.003 198.29 144.784 198.303 144.565 198.303C144.462 200.442 144.359 202.595 144.269 204.735C144.179 204.735 144.089 204.722 144.012 204.722C143.819 202.376 143.639 200.017 143.446 197.671C143.278 197.671 143.124 197.658 142.957 197.658C142.828 198.122 142.686 198.586 142.48 199.282C142.352 198.676 142.261 198.29 142.081 197.465C141.978 198.444 141.914 198.986 141.862 199.54C141.824 199.54 141.772 199.527 141.734 199.527C141.682 198.792 141.631 198.071 141.566 197.284C140.82 197.155 140.138 197.026 139.353 196.898C139.262 197.503 139.185 198.109 139.108 198.702C139.005 198.715 138.915 198.715 138.812 198.728C138.748 198.071 138.696 197.413 138.606 196.485C137.911 196.64 137.242 196.782 136.56 196.923C136.521 196.704 136.418 196.137 136.315 195.583C136.161 195.57 135.993 195.557 135.839 195.544C135.762 196.073 135.607 196.601 135.594 197.142C135.543 199.746 135.594 202.363 135.453 204.954C135.401 205.908 134.899 206.836 134.59 207.79C133.638 207.416 132.634 207.158 131.759 206.655C129.686 205.444 129.056 203.497 129.043 201.164C129.03 198.87 128.798 196.575 128.528 194.307C128.425 193.469 127.962 192.682 127.241 192.012C127.099 195.08 126.971 198.161 126.829 201.229C126.584 201.229 126.327 201.229 126.082 201.229C125.928 200.236 125.812 199.231 125.632 198.238C125.13 195.402 124.589 192.579 124.1 189.744C124.062 189.499 124.242 188.996 124.358 188.983C124.808 188.944 125.31 188.944 125.709 189.125C129.133 190.697 132.479 192.476 135.98 193.881C143.819 197.026 151.979 198.947 160.307 200.391C175.16 202.956 190.129 204.322 205.124 205.598C206.476 205.714 207.814 205.921 209.166 206.088C209.153 206.269 209.14 206.462 209.127 206.642C196.011 205.714 182.896 204.799 169.51 203.858C169.51 205.908 169.51 208.331 169.51 210.754C169.355 210.754 169.188 210.767 169.033 210.767C168.879 208.202 168.737 205.65 168.583 203.085C168.235 203.072 167.888 203.059 167.553 203.059C167.386 204.915 167.231 206.771 167.064 208.615C166.987 208.628 166.91 208.64 166.832 208.653C166.665 206.72 166.485 204.786 166.318 202.853C166.034 202.866 165.764 202.891 165.494 202.904C165.352 204.722 165.211 206.539 165.069 208.357C164.889 208.357 164.709 208.357 164.541 208.344C164.451 206.449 164.361 204.554 164.258 202.659C161.89 204.98 164.67 208.666 161.349 210.806C161.349 208.473 161.414 206.32 161.311 204.18C161.272 203.368 160.86 202.569 160.629 201.757C160.358 202.531 159.869 203.304 159.843 204.09C159.74 207.687 159.766 211.283 159.74 214.892C159.74 215.537 159.663 216.181 159.625 216.839C159.444 216.839 159.264 216.839 159.097 216.839C159.007 214.467 158.904 212.095 158.839 209.723C158.775 207.364 158.801 205.005 158.698 202.647C158.685 202.195 158.286 201.757 158.067 201.306C157.81 201.718 157.334 202.131 157.321 202.556C157.243 205.07 157.282 207.583 157.012 210.11C155.776 207.055 156.819 203.639 155.622 200.623C155.364 200.636 155.094 200.649 154.837 200.661C154.837 203.987 154.837 207.313 154.837 210.626C154.644 210.626 154.463 210.638 154.27 210.638C154.116 208.408 153.781 206.178 153.833 203.948C153.91 200.365 153.562 199.862 150.049 199.785C149.752 199.785 149.444 199.785 149.122 199.785C148.993 200.339 148.877 200.855 148.787 201.229C148.337 200.391 147.873 199.527 147.41 198.651C147.178 198.715 146.947 198.779 146.715 198.857C146.715 203.033 146.715 207.21 146.715 211.386C146.496 211.386 146.29 211.412 146.097 211.425Z" fill="#2E1A14"/>
<path d="M173.808 359.055C170.05 357.096 166.562 355.162 162.984 353.435C156.716 350.419 155.107 344.309 152.983 338.534C152.816 338.096 153.099 337.284 153.459 336.923C153.678 336.691 154.489 336.871 154.939 337.077C158.917 338.908 162.881 340.777 166.845 342.646C167.823 343.11 168.66 343.561 168.441 344.979C168.325 345.701 168.699 346.552 168.995 347.286C170.488 351.05 172.045 354.789 173.808 359.055Z" fill="#2E1A14"/>
<path d="M287.281 352.093C285.968 348.806 282.918 349.245 280.279 348.69C280.511 347.066 280.691 345.507 280.987 343.986C281.051 343.65 281.528 343.302 281.888 343.135C286.123 341.137 290.37 339.152 294.617 337.192C294.823 337.102 295.081 337.154 295.313 337.141C296.316 340.389 291.181 350.083 287.281 352.093Z" fill="#2E1A14"/>
<path d="M318.12 213.437C318.12 207.224 318.12 201.024 318.12 194.811C317.902 194.772 317.683 194.746 317.464 194.708C317.142 196.628 316.833 198.562 316.512 200.482C316.306 200.482 316.1 200.469 315.894 200.469C315.894 198.317 315.894 196.164 315.894 193.754C314.684 194.089 313.821 194.321 312.792 194.617C318.095 191.743 323.243 188.946 328.842 185.917C328.147 186.78 327.8 187.502 327.22 187.902C325.2 189.294 324.337 191.111 324.389 193.586C324.427 195.661 324.118 197.75 323.951 199.902C322.767 199.735 321.75 199.58 320.437 199.4C320.437 197.363 320.437 195.313 320.437 193.277C320.218 193.277 320 193.277 319.768 193.277C319.382 200.005 318.996 206.734 318.61 213.463C318.429 213.45 318.275 213.45 318.12 213.437Z" fill="#2E1A14"/>
<path d="M258.925 204.23C244.651 206.396 230.287 206.615 215.884 205.365C230.236 204.991 244.574 204.617 258.925 204.23Z" fill="#2E1A14"/>
<path d="M121.913 215.267C121.553 211.452 121.166 207.636 120.832 203.808C120.33 198.072 119.879 192.336 119.416 186.587C119.377 186.174 119.442 185.762 119.48 185.027C120.96 186.148 122.235 187.102 123.509 188.056C123.457 188.159 123.393 188.249 123.342 188.353C122.557 187.953 121.784 187.54 120.755 187.012C120.883 189.268 120.999 191.33 121.141 193.393C121.565 200.005 122.003 206.631 122.389 213.243C122.428 213.888 122.055 214.558 121.874 215.215C121.861 215.228 121.913 215.267 121.913 215.267Z" fill="#2E1A14"/>
<path d="M188.392 229.894C188.431 231.635 187.478 232.73 185.921 232.73C184.389 232.73 183.244 231.506 183.192 229.817C183.141 228.128 184.119 226.891 185.561 226.801C186.989 226.711 188.354 228.206 188.392 229.894Z" fill="#2E1A14"/>
<path d="M328.096 189.757C327.516 197.247 326.937 204.736 326.358 212.225C326.191 204.684 326.268 197.169 327.439 189.719C327.658 189.745 327.877 189.745 328.096 189.757Z" fill="#2E1A14"/>
<path d="M201.044 231.301C201.739 232.474 202.46 233.157 202.421 233.789C202.396 234.291 201.443 234.742 200.903 235.219C200.426 234.665 199.628 234.137 199.577 233.531C199.525 232.989 200.285 232.371 201.044 231.301Z" fill="#2E1A14"/>
<path d="M173.306 198.791C176.807 199.319 180.308 199.848 183.822 200.363C183.796 200.518 183.783 200.672 183.758 200.827C180.27 200.286 176.782 199.757 173.293 199.216C173.293 199.074 173.293 198.932 173.306 198.791Z" fill="#2E1A14"/>
<path d="M161.169 196.395C163.538 196.704 165.906 197.026 168.274 197.336C165.855 197.232 163.293 198.16 161.028 196.846C161.079 196.704 161.131 196.549 161.169 196.395Z" fill="#2E1A14"/>
<path d="M284.256 226.803C283.265 227.499 282.763 228.105 282.197 228.169C281.798 228.221 281.309 227.551 280.871 227.203C281.322 226.7 281.682 225.978 282.235 225.759C282.583 225.617 283.227 226.236 284.256 226.803Z" fill="#2E1A14"/>
<path d="M149.701 207.843C149.933 209.828 150.177 211.813 150.409 213.798C150.139 213.824 149.855 213.837 149.585 213.862C148.388 211.955 149.997 209.828 149.701 207.843Z" fill="#2E1A14"/>
<path d="M268.926 227.434C269.518 228.13 270.252 228.723 270.149 228.929C269.891 229.497 269.325 229.986 268.759 230.283C268.617 230.36 267.69 229.535 267.729 229.187C267.793 228.659 268.373 228.195 268.926 227.434Z" fill="#2E1A14"/>
<path d="M160.539 225.513C161.066 226.519 161.556 227.047 161.491 227.472C161.401 228.027 160.861 228.504 160.513 229.019C160.178 228.581 159.573 228.156 159.561 227.704C159.548 227.163 160.024 226.609 160.539 225.513Z" fill="#2E1A14"/>
<path d="M218.228 221.206C217.481 221.799 217.031 222.431 216.593 222.418C216.13 222.405 215.692 221.773 215.241 221.412C215.64 221 215.988 220.342 216.438 220.265C216.889 220.188 217.417 220.742 218.228 221.206Z" fill="#2E1A14"/>
<path d="M288.363 222.793C287.886 222.071 287.307 221.504 287.41 221.285C287.655 220.795 288.247 220.485 288.684 220.099C288.98 220.485 289.56 220.898 289.521 221.246C289.457 221.697 288.916 222.084 288.363 222.793Z" fill="#2E1A14"/>
<path d="M167.412 217.754C167 217.058 166.575 216.633 166.537 216.195C166.524 215.924 167.206 215.318 167.425 215.383C167.875 215.512 168.493 215.976 168.532 216.349C168.57 216.697 167.952 217.11 167.412 217.754Z" fill="#2E1A14"/>
<path d="M180.553 117.196C180.335 114.76 183.591 112.478 186.693 112.943C186.23 113.445 185.856 113.858 185.239 114.528C186.191 114.966 187.002 115.469 187.89 115.74C199.525 119.362 211.431 121.012 223.595 120.135C234.445 119.362 244.806 116.706 254.215 110.957C255.36 110.261 256.429 109.424 257.703 108.534C257.085 108.096 256.673 107.799 256.261 107.503C256.313 107.361 256.326 107.194 256.39 107.168C258.411 106.485 261.075 107.413 262.066 109.166C262.208 109.424 262.208 109.836 262.118 110.132C262.079 110.249 261.59 110.313 261.346 110.249C259.067 109.668 258.926 109.72 258.591 112.221C257.806 118.099 255.232 123.061 251.01 127.147C245.553 132.407 238.898 135.449 231.626 137.137C220.428 139.741 209.604 138.542 199.332 133.322C192.807 129.996 187.813 125.046 184.711 118.318C183.398 115.533 183.231 115.482 180.553 117.196ZM200.452 130.937C210.505 135.861 220.904 137.176 231.845 134.456C229.399 130.615 223.466 128.733 219.45 130.331C218.987 130.512 218.317 130.576 217.905 130.37C211.985 127.457 206.218 129.236 200.452 130.937Z" fill="#2E1A14"/>
<path d="M217.506 143.015C218.574 142.731 219.179 142.486 219.784 142.435C223.53 142.112 227.288 141.842 231.034 141.558C231.124 141.545 231.227 141.674 231.317 141.751C229.36 144.484 222.011 145.348 217.506 143.015Z" fill="#2E1A14"/>
<path d="M319.575 164.078C319.279 163.898 318.919 163.524 318.79 163.588C316.859 164.594 316.396 162.789 315.405 161.9C314.375 160.972 313.217 160.173 312.123 159.309C312.2 159.128 312.277 158.948 312.354 158.768C314.015 159.489 315.739 160.095 317.31 160.985C318.906 161.887 320.334 163.06 322.175 164.336C320.991 164.645 319.974 164.916 318.931 165.135C318.854 165.148 318.687 164.787 318.571 164.594C318.867 164.452 319.176 164.297 319.575 164.078Z" fill="#2E1A14"/>
<path d="M142.03 167.998C137.885 169.699 137.988 170.395 136.044 168.797C136.791 167.637 137.19 165.935 139.018 166.232C139.983 166.399 140.832 167.276 142.03 167.998Z" fill="#2E1A14"/>
<path d="M238.525 187.835C240.713 186.301 242 186.133 242.657 187.281C243.326 188.454 242.76 189.266 241.704 189.833C240.353 190.581 239.452 190.026 238.525 187.835Z" fill="#2E1A14"/>
<path d="M278.091 178.567C277.602 179.031 277.177 179.778 276.624 179.894C275.388 180.152 271.913 178.309 271.565 177.265C273.715 177.381 275.787 177.497 277.859 177.613C277.937 177.935 278.014 178.257 278.091 178.567Z" fill="#2E1A14"/>
<path d="M317.849 170.678C317.875 171.039 317.94 171.619 317.965 172.186C317.991 172.779 317.965 173.385 317.965 174.145C316.588 173.192 315.288 172.276 313.911 171.335C314.168 170.962 314.426 170.575 314.529 170.433C315.584 170.51 316.511 170.588 317.849 170.678Z" fill="#2E1A14"/>
<path d="M322.676 170.743C321.659 169.183 320.629 167.636 319.535 165.961C321.208 165.187 322.302 165.845 322.74 167.044C323.126 168.113 322.92 169.39 322.972 170.588C322.869 170.64 322.766 170.691 322.676 170.743Z" fill="#2E1A14"/>
<path d="M141.232 162.854C140.279 162.957 139.61 163.138 138.966 163.073C138.22 162.996 137.486 162.687 136.752 162.493C136.958 162.016 137.139 161.166 137.37 161.153C138.233 161.088 139.159 161.191 139.983 161.475C140.434 161.617 140.704 162.248 141.232 162.854Z" fill="#2E1A14"/>
<path d="M218.343 181.21C219.231 181.313 220.132 181.429 221.471 181.597C220.093 182.667 219.051 183.479 218.008 184.291C217.635 183.724 217.223 183.105 216.695 182.306C217.223 181.958 217.815 181.558 218.394 181.171C218.407 181.171 218.343 181.21 218.343 181.21Z" fill="#2E1A14"/>
<path d="M249.903 188.853C252.207 188.389 254.511 187.912 256.815 187.448C256.853 187.693 256.905 187.938 256.944 188.183C254.64 188.634 252.323 189.085 250.019 189.536C249.98 189.304 249.942 189.085 249.903 188.853Z" fill="#2E1A14"/>
<path d="M275.027 175.563C274.203 175.409 273.379 175.267 272.556 175.112C272.478 175.202 272.388 175.293 272.311 175.396C272.671 175.744 273.032 176.079 273.662 176.685C271.629 176.556 270.792 175.37 269.814 173.836C271.796 174.21 273.469 174.532 275.155 174.854C275.104 175.099 275.065 175.331 275.027 175.563Z" fill="#2E1A14"/>
<path d="M306.15 179.173C305.429 178.154 304.863 177.523 304.554 176.801C304.49 176.646 305.494 175.731 305.661 175.821C306.279 176.143 306.961 176.659 307.219 177.278C307.36 177.613 306.678 178.283 306.15 179.173Z" fill="#2E1A14"/>
<path d="M232.437 178.644C233.402 178.464 234.278 178.296 235.372 178.077C234.998 178.425 234.754 178.657 234.393 178.992C234.973 179.083 235.436 179.147 236.363 179.289C235.23 180.011 234.419 180.539 233.583 181.055C233.132 180.101 232.785 179.379 232.437 178.644Z" fill="#2E1A14"/>
<path d="M168.892 176.917C167.219 178.232 165.868 178.103 164.4 177.575C164.98 175.886 164.98 175.886 168.892 176.917Z" fill="#2E1A14"/>
<path d="M174.698 176.442C175.715 176.249 176.564 176.081 177.62 175.875C176.963 176.635 176.397 177.293 175.831 177.963C175.136 177.512 174.376 177.061 173.668 176.545C173.295 176.274 173.012 175.888 172.677 175.553C172.999 175.321 173.411 174.844 173.604 174.921C174.003 175.089 174.312 175.527 174.621 175.901C174.711 176.004 174.672 176.236 174.698 176.442Z" fill="#2E1A14"/>
<path d="M319.24 168.062C317.644 168.925 316.665 168.668 315.34 166.528C317 166.876 318.184 167.121 319.368 167.379C319.317 167.598 319.278 167.83 319.24 168.062Z" fill="#2E1A14"/>
<path d="M279.7 172.689C281.257 172.083 282.724 171.941 284.037 173.411C282.248 174.777 281.051 173.256 279.7 172.689Z" fill="#2E1A14"/>
<path d="M281.849 177.225C281.231 177.496 280.626 177.922 279.996 177.96C279.494 177.999 278.966 177.548 278.438 177.316C278.966 176.916 279.442 176.336 280.034 176.181C280.536 176.052 281.167 176.426 281.733 176.581C281.772 176.8 281.81 177.019 281.849 177.225Z" fill="#2E1A14"/>
<path d="M155.635 175.035C154.374 175.306 153.112 175.564 151.619 175.886C152.263 173.85 153.022 173.643 155.558 174.391C155.583 174.597 155.609 174.816 155.635 175.035Z" fill="#2E1A14"/>
<path d="M153.678 181.725C152.829 182.292 152.481 183.813 151.065 182.859C150.821 182.692 150.782 181.635 151.04 181.403C151.863 180.629 152.829 180.385 153.678 181.725Z" fill="#2E1A14"/>
<path d="M180.837 184.277C181.674 184.251 182.524 184.187 183.347 184.277C183.437 184.29 183.412 185.282 183.437 185.824C182.536 185.656 181.648 185.501 180.747 185.334C180.773 184.986 180.812 184.638 180.837 184.277Z" fill="#2E1A14"/>
<path d="M243.815 181.957C244.459 180.462 245.386 179.482 247.213 180.036C246.995 182.369 244.897 181.287 243.815 181.957Z" fill="#2E1A14"/>
<path d="M186.087 188.75C185.572 188.492 185.251 188.324 184.929 188.183C184.646 188.054 184.337 187.938 184.041 187.822C184.118 187.615 184.208 187.409 184.285 187.203C185.019 186.971 185.753 186.726 186.769 186.404C186.512 187.319 186.332 187.925 186.087 188.75Z" fill="#2E1A14"/>
<path d="M167.979 180.229C166.923 180.512 165.868 180.796 164.684 181.118C164.954 179.236 165.829 178.979 167.979 180.229Z" fill="#2E1A14"/>
<path d="M186.294 180.577C185.483 181.879 184.26 181.647 183.012 181.35C182.96 181.144 182.909 180.951 182.857 180.744C183.951 180.474 185.046 180.203 186.127 179.945C186.178 180.164 186.23 180.371 186.294 180.577Z" fill="#2E1A14"/>
<path d="M285.736 175.912C286.753 176.131 287.757 176.35 288.774 176.569C287.409 178 286.521 177.214 285.633 176.427C285.672 176.26 285.697 176.079 285.736 175.912Z" fill="#2E1A14"/>
<path d="M318.905 160.561C317.348 159.697 316.266 159.091 314.928 158.343C316.665 157.828 317.039 158.047 318.905 160.561Z" fill="#2E1A14"/>
<path d="M134.152 171.465C135.208 171.413 136.263 171.361 137.331 171.323C137.331 171.568 137.344 171.813 137.344 172.057C136.276 172.057 135.195 172.057 134.126 172.057C134.139 171.864 134.139 171.671 134.152 171.465Z" fill="#2E1A14"/>
<path d="M232.167 182.009C231.446 182.666 231.111 184.69 229.412 182.473C230.365 182.125 231.188 181.828 232.012 181.519C232.064 181.674 232.115 181.841 232.167 182.009Z" fill="#2E1A14"/>
<path d="M242.233 163.331C244.112 161.527 245.476 164.117 247.253 164.105C246.867 164.233 246.365 164.594 246.107 164.465C244.485 163.666 244.112 164.388 244.421 166.373C243.52 165.11 242.915 164.285 242.233 163.331Z" fill="#2E1A14"/>
<path d="M217.3 164.724C218.871 165.356 220.441 165.987 222.153 166.671C220.776 167.908 220.776 167.908 217.3 164.724Z" fill="#2E1A14"/>
<path d="M202.627 165.664C203.297 163.176 204.584 163.589 206.064 164.826C204.919 165.11 203.773 165.381 202.627 165.664Z" fill="#2E1A14"/>
<path d="M152.481 313.012C151.542 312.303 150.937 311.942 150.435 311.465C145.235 306.438 142.107 300.083 139.443 293.548C135.491 283.79 133.458 273.53 132.685 263.024C132.441 259.596 132.003 256.18 131.656 252.751C131.939 252.687 132.209 252.622 132.492 252.558C133.303 255.277 134.475 257.946 134.874 260.73C136.611 272.769 138.619 284.757 143.433 296.01C144.9 299.452 147.14 302.558 149.019 305.832C150.061 307.65 151.117 309.467 152.134 311.311C152.327 311.646 152.314 312.097 152.481 313.012Z" fill="#FFFCF7"/>
<path d="M306.729 259.08C305.905 264.237 305.081 269.405 304.245 274.561C304.064 274.536 303.897 274.51 303.717 274.484C304.515 269.341 305.313 264.198 306.111 259.055C306.317 259.055 306.523 259.068 306.729 259.08Z" fill="#FFFCF7"/>
<path d="M155.982 318.411C153.408 317.612 151.812 315.369 152.288 313.087C153.524 314.866 154.76 316.645 155.982 318.411Z" fill="#FFFCF7"/>
<path d="M200.452 130.936C206.218 129.235 211.985 127.456 217.893 130.369C218.304 130.576 218.987 130.511 219.437 130.331C223.453 128.732 229.386 130.614 231.832 134.455C220.904 137.175 210.505 135.861 200.452 130.936Z" fill="#FFFCF7"/>
<path d="M188.121 95.3606C188.146 98.2609 185.572 100.865 182.625 100.916C181.209 100.942 178.236 98.1449 178.261 96.8043C178.313 93.5431 180.63 90.7073 183.23 90.7331C184.993 90.7331 188.108 93.6849 188.121 95.3606Z" fill="#2E1A14"/>
<path d="M253.507 90.2683C253.532 93.1686 250.958 95.7724 248.011 95.824C246.595 95.8498 243.622 93.0526 243.647 91.712C243.699 88.4508 246.016 85.615 248.616 85.6408C250.379 85.6408 253.494 88.5926 253.507 90.2683Z" fill="#2E1A14"/>
<path d="M221.845 107.837C221.857 109.513 220.364 111.021 218.665 111.047C217.855 111.06 216.13 109.436 216.143 108.675C216.168 106.793 217.507 105.156 219.013 105.156C220.043 105.156 221.845 106.871 221.845 107.837Z" fill="#2E1A14"/>
<path d="M236.517 105.738C236.53 107.413 235.037 108.922 233.338 108.947C232.527 108.96 230.802 107.336 230.815 106.576C230.841 104.694 232.18 103.057 233.686 103.057C234.702 103.057 236.504 104.771 236.517 105.738Z" fill="#2E1A14"/>
</svg>
