<svg width="170" height="94" viewBox="0 0 170 94" fill="none" xmlns="http://www.w3.org/2000/svg">
<path d="M129.651 81.359C128.926 81.4096 128.497 81.4603 128.067 81.4704C126.929 81.4907 125.707 81.8048 124.67 81.4096C123.608 81.0043 122.251 81.8758 121.45 80.4064C121.416 80.3456 121.34 80.3152 121.273 80.295C120.388 80.072 119.503 79.8491 118.618 79.6262C117.867 79.4336 117.058 79.3728 116.375 79.0081C114.976 78.2582 113.231 78.2481 112.321 76.3734C112.245 76.2113 111.967 76.191 111.773 76.1201C110.517 75.6843 109.236 75.3398 108.014 74.7723C107.558 74.5595 107.162 73.9211 106.901 73.3638C106.286 72.0363 105.24 71.7931 104.128 72.5531C103.436 73.0193 102.88 74.2251 101.776 73.5158C101.666 73.4449 100.823 73.5665 100.849 74.4379C100.857 74.6609 100.587 75.0257 100.385 75.1169C98.7245 75.8465 97.0556 76.5457 95.3781 77.2145C94.2823 77.6502 93.1107 78.4811 92.0655 78.319C90.4808 78.0758 89.1489 79.9606 87.5221 78.8256C87.1596 78.5723 86.3842 78.7648 85.9964 79.0891C84.8922 80.0112 83.7711 79.1094 82.6669 79.3323C81.5711 79.5451 80.4415 79.6059 79.3289 79.5552C78.7894 79.535 78.2668 79.0891 77.7273 78.8662C77.2047 78.6534 76.6821 78.4 76.1426 78.3392C74.8192 78.1872 73.4874 78.1771 72.164 78.015C71.7341 77.9643 71.3464 77.4881 70.9165 77.407C69.9387 77.2145 68.9272 77.2043 67.9494 77.0118C67.5195 76.9307 67.1487 76.5254 66.7272 76.343C66.1793 76.1099 65.6061 75.9073 65.0329 75.7553C64.2996 75.5627 63.5494 75.4006 62.8076 75.2689C62.0574 75.127 61.2819 75.127 60.557 74.8939C60.0344 74.7318 59.5961 74.1947 59.0735 73.9921C58.2052 73.6577 57.2527 73.5969 56.4267 73.1611C55.4236 72.6342 54.1508 73.1003 53.3416 71.8438C53.1477 71.5499 52.6672 71.2865 52.3722 71.3473C50.8634 71.7121 49.8434 70.3137 48.5622 69.8678C47.1377 69.3814 45.8058 68.4998 44.4319 67.7905C44.3982 67.7702 44.3729 67.7398 44.3392 67.7398C43.1001 67.679 42.2571 66.7974 41.4732 65.774C41.3974 65.6828 41.2288 65.6828 41.1023 65.6625C40.4954 65.5308 39.8632 65.551 39.5429 64.6492C39.4418 64.3553 38.8686 64.3249 38.5314 64.1324C37.6211 63.5953 36.7107 63.0481 35.8172 62.4806C35.5053 62.278 35.2356 61.9841 34.9406 61.7511C34.0049 61.0316 32.8754 60.5351 32.1842 59.5724C31.2654 58.2956 29.7482 57.8801 29.0738 56.5628C28.4079 55.2556 27.4638 54.6476 26.5113 53.9079C26.4355 53.8471 26.3512 53.7153 26.3427 53.614C26.309 52.4284 25.1037 52.2764 24.9014 51.2327C24.8676 51.0503 24.7243 50.7767 24.6063 50.7666C23.5274 50.6044 23.2829 49.6519 22.8699 48.6284C22.4063 47.4732 21.4707 46.6119 20.8216 45.5479C20.476 44.9805 20.2653 44.2711 20.0714 43.5821C19.8185 42.6599 19.1105 41.9709 19.3549 40.7346C19.4814 40.0962 18.984 39.2146 18.6553 38.5154C17.7955 36.7016 17.9304 34.8269 18.2254 32.8914C18.3603 31.9794 18.1833 31.0067 18.2928 30.0947C18.5204 28.2403 18.7986 26.396 19.1526 24.572C19.5488 22.5454 19.9955 20.5288 20.5434 18.5528C20.8975 17.2659 21.4791 16.0803 21.9596 14.8441C22.9205 12.3715 24.7749 13.1113 26.4102 13.0809C27.1267 13.0606 27.8516 13.0505 28.5681 13.091C29.7903 13.1619 31.0125 13.2937 32.2348 13.3849C32.69 13.4153 33.1536 13.3646 33.6003 13.4355C34.4432 13.5673 35.2777 13.7902 36.1207 13.9219C36.4578 13.9726 36.8119 13.8611 37.1575 13.8307C37.4609 13.8003 37.8318 13.6281 38.051 13.7801C39.054 14.4286 40.1245 14.2563 41.1866 14.3171C42.097 14.3678 43.0073 14.4995 43.9177 14.5603C44.7775 14.6211 45.6794 14.8441 46.4802 14.611C47.4411 14.3273 48.2335 14.6009 49.127 14.8238C50.2649 15.0974 51.4703 14.915 52.6335 15.0569C53.6956 15.1785 54.7408 15.5534 55.8029 15.6649C56.629 15.7459 57.4719 15.4521 58.298 15.5331C59.6972 15.675 61.1218 16.3134 62.4789 16.1208C63.541 15.9688 64.4513 16.5465 65.5387 16.3235C66.6682 16.0905 67.941 16.8201 69.1548 17.124C69.3993 17.1848 69.6353 17.3368 69.8797 17.3571C70.6468 17.4078 71.4223 17.3875 72.1893 17.4584C72.8468 17.5091 73.5043 17.6003 74.1533 17.7422C74.4989 17.8232 74.8193 18.0664 75.1733 18.188C75.797 18.4008 76.5641 18.948 77.0361 18.6947C78.0645 18.1576 78.6883 18.6035 79.3879 19.404C79.9611 19.0595 80.568 18.4819 81.0906 19.4952C81.1243 19.5662 81.2929 19.6168 81.3688 19.5763C82.4477 19.0798 83.4171 19.7587 84.437 19.9411C85.575 20.1438 86.7298 20.2248 87.8677 20.4275C88.4072 20.5187 88.9466 20.9848 89.4524 20.924C90.6578 20.7822 91.7114 21.7651 92.7314 21.684C93.726 21.603 94.7122 21.5726 95.6732 21.7246C96.7521 21.8968 97.7973 22.4339 98.8763 22.667C99.5422 22.819 100.25 22.7075 100.941 22.7176C101.102 22.7176 101.304 22.6467 101.405 22.7379C102.341 23.579 103.386 23.0216 104.381 23.1027C104.608 23.123 104.954 23.1027 105.038 23.2648C105.468 24.0451 106.151 23.7918 106.732 23.9539C107.364 24.1363 108.014 24.2579 108.873 24.4606C109.194 24.0755 109.624 23.5789 110.416 24.5923C110.804 25.0787 111.874 24.9571 112.599 24.8355C113.611 24.6734 114.504 24.6936 115.187 25.6968C115.878 25.0584 118.542 25.5853 118.938 26.0211C120.228 26.3656 121.517 26.7101 122.807 27.0445C123.245 27.156 123.683 27.2675 124.122 27.3283C124.889 27.4397 125.656 27.5107 126.423 27.612C126.482 27.6221 126.583 27.6627 126.6 27.7133C127.064 29.4563 129.213 29.0205 129.533 31.0573C129.626 31.6653 130.368 32.0808 130.604 32.7091C131.236 34.3709 130.68 35.7085 129.441 36.8536C130.469 37.8365 131.396 38.6877 132.627 38.9106C132.787 38.941 132.981 38.9512 133.099 39.0626C134.498 40.3394 136.049 41.1906 137.743 41.7581C138.342 41.9607 138.822 42.6903 139.328 43.2173C139.842 43.7645 140.179 44.6663 141.081 44.3421C141.132 44.3218 141.25 44.3927 141.25 44.413C141.233 45.7303 142.43 45.9837 142.809 46.9869C143.029 47.5645 143.534 47.9698 143.855 48.4967C144.959 50.2802 146.063 52.0636 147.134 53.8775C147.555 54.597 147.875 55.3975 148.246 56.1575C148.668 56.9985 149.376 57.7889 149.469 58.6807C149.629 60.0993 150.413 61.1836 150.573 62.5313C150.767 64.1628 150.859 65.8044 150.96 67.446C151.028 68.5505 151.087 69.6044 150.438 70.6278C149.941 71.4182 149.747 72.4923 149.401 73.4246C148.592 75.5931 147.075 76.9003 145.549 78.2683C144.259 79.4235 142.793 79.9403 141.326 80.4774C140.854 80.6496 140.281 80.3963 139.758 80.4571C137.305 80.7408 134.852 81.0651 132.399 81.3894C132.281 81.4096 132.146 81.4299 132.045 81.5008C131.118 82.1392 130.216 82.2406 129.651 81.359ZM127.266 54.3031C126.937 53.5431 126.431 52.1852 125.757 50.9591C125.445 50.3916 124.83 50.0066 124.29 49.7228C123.835 49.4898 123.203 49.2871 122.773 49.4898C121.644 50.0066 121.07 51.2428 120.506 52.4892C119.916 53.7863 119.224 55.0327 118.508 56.2385C118.027 57.0492 117.37 57.718 116.881 58.5388C116.611 58.9948 116.342 59.6636 116.443 60.1297C116.51 60.454 117.193 60.6263 117.614 60.7884C117.825 60.8695 118.078 60.758 118.306 60.7783C118.651 60.8087 119.09 60.7276 119.317 60.9505C120.067 61.7004 120.826 61.67 121.66 61.2647C122.057 61.0721 122.487 60.8593 122.908 60.8492C125.057 60.758 127.384 57.8092 127.266 54.3031Z" fill="#F37721"/>
</svg>
