<?xml version="1.0" encoding="utf-8"?>
<!-- Generator: Adobe Illustrator 25.1.0, SVG Export Plug-In . SVG Version: 6.00 Build 0)  -->
<svg version="1.1" id="Layer_1" xmlns="http://www.w3.org/2000/svg" xmlns:xlink="http://www.w3.org/1999/xlink" x="0px" y="0px"
	 viewBox="0 0 340.2 340.2" style="enable-background:new 0 0 340.2 340.2;" xml:space="preserve">
<style type="text/css">
	.st0{fill:#030303;}
	.st1{fill:#2F1B15;}
	.st2{fill:#FDFDFD;}
	.st3{fill:#FAFAFA;}
</style>
<g>
	<path class="st0" d="M247.4,276.4c-0.1,0-0.2,0-0.2,0c-0.3-0.1-0.6-0.2-1-0.3c-3.1-0.2-6.3-0.4-9.4-0.7c-2.3-0.3-4.6-0.8-6.9-1.3
		c-1.8-0.4-3.2-1.4-4.1-3.1c-1-1.9-1.8-3.8-2.1-6c-0.6-4.4-1.3-8.8-2.6-13.1c-1.3-4.1-2.9-8.1-5.7-11.5c-0.8-1-1.8-1.9-3.1-2.4
		c-1-0.4-1.9-0.5-3,0.1c-2.8,1.6-5.9,2.4-9.2,2.5c-5.4,0.2-10.8,0.2-16.2,0.3c-0.4,0-0.8,0-1.4,0c0.3,1.8,0.6,3.4,1,5
		c0.3,1.3,1.2,2,2.6,2.2c5.2,0.7,10.4,0.3,15.4-1.1c2.1-0.6,4-0.3,5.8,0.8c1.8,1.2,2.4,2.9,1.7,4.9c-0.2,0.6-0.5,1.2-0.7,1.8
		c0.9,0.8,1.9,1.5,2.8,2.4c1.8,1.7,1.6,3.5-0.4,4.9c-0.5,0.3-1,0.6-1.6,1c0.5,0.6,1,1.2,1.4,1.8c1.3,1.5,1.4,3.2,0.5,4.9
		c-0.5,1.1-1.2,2.1-1.8,3.1c-0.8,1.4-2,2.2-3.5,2.5c-2.6,0.5-5.3,0.7-8,0.4c-2.4-0.2-4.8-0.6-7.2-0.5c-7.5,0.2-14.9,0.3-22.4-0.1
		c-3.1-0.1-6.1-0.8-8.4-3.2c-0.9-0.9-1.8-1.8-2.7-2.7c-1.6-1.7-2.8-3.6-3.6-5.9c-1-3.2-2.3-6.3-3-9.6c-0.5-2.7-1.7-5.1-3.2-7.5
		c-0.4-0.7-0.9-0.9-1.6-0.6c-0.7,0.3-1.3,0.5-2,0.8c-4.3,1.9-8.7,3.1-13.4,3.1c-3.8,0-7.6-0.5-11.5-0.8c-2.7-0.2-5.2-1.2-7.5-2.6
		c-3.4-2-6.5-4.4-9.3-7.2c-2.8-2.8-4.8-6-5.3-10.1c-0.2-1.4-0.1-2.8-0.3-4.2c-0.1-1.3-0.5-1.6-1.7-1.2c-4.4,1.2-8.8,1.5-13.3,1.2
		c-6.1-0.4-11.2-2.9-15.4-7.3c-2.1-2.2-3.5-4.8-3.9-7.9c0-1.2,0-2.5,0-3.7c0.7-4.3,1.9-8.5,3.6-12.5c2.4-5.9,5.3-11.6,9.7-16.4
		c0.5-0.5,0.8-1.2,1.2-1.8c1.2-1.6,2.4-3.3,3.6-4.9c1.2-1.4,2.6-2.6,3.7-4.1c2.8-3.9,5.8-7.7,9-11.2c1-1.1,2-2.2,3.1-3.3
		c-2.2-1.1-4.3-2.1-6.3-3.2c-3.7-1.8-7.5-3.5-10.6-6.2c-1.2-1-2.1-2.2-3.3-3.1c-2.1-1.7-3.6-3.9-4.3-6.5c-1.4-5.1-1.3-10.2-0.2-15.3
		c0.6-2.8,2.2-5.2,3.7-7.6c3.5-5.7,7-11.5,12.5-15.7c1-0.7,1.4-1.9,1.7-3.1c0.2-1,0.5-2.1,1-3.1c1.2-2.4,2.4-4.8,3.8-7
		c1.9-3.2,4.6-5.7,7.9-7.5c3.8-2.1,8-2.7,12.3-2.4c3.1,0.2,5.8,1.2,7.9,3.5c2.2,2.5,4.1,5.2,6.1,7.8c0.4,0.6,0.8,0.8,1.5,0.6
		c6.6-1.5,13.3-1.1,19.9-1c1.6,0,1.9-0.1,2.6-1.5c1.9-3.8,4.1-7.5,6.8-10.8c2.9-3.7,6.9-5.1,11.4-5.6c1.2,0,2.4,0,3.5,0
		c0.4,0.1,0.9,0.1,1.3,0.2c3.6,0.4,6.8,1.8,9.6,4.1c1.3,1.1,2.7,2.2,4,3.3c2.1,1.8,3.5,4,4.1,6.7c0.3,1.3,0.5,2.7,0.8,4.1
		c0.7,0,1.4-0.1,2.1,0c2.7,0.3,5.5,0.5,8.2,0.9c2.6,0.4,3.5,1.7,3.1,4.3c-0.3,2.2-0.9,4.3-1.4,6.4c-0.2,0.9-0.1,1.6,0.4,2.4
		c1.5,2.1,3,4.2,4.5,6.3c2.9,4,3.8,8.5,3.2,13.3c-0.5,4.2-2.1,8.1-4.1,11.8c-0.6,1.2-1.2,2.3-1.9,3.6c0.6,0,1.1,0,1.6,0
		c2-0.1,4-0.4,6-0.2c8.5,0.6,17.1,0.6,25.6,1.8c4.8,0.7,9.6,1.3,14.2,2.9c2.7,0.9,5.3,2.1,7.3,4.2c1.3,1.4,1.5,2.8,0.7,4.5
		c-0.4,0.9-0.8,1.9-1.1,2.9c-0.7,2.5-1.3,5.1-1.9,7.7c-0.5,2.4-1.6,4.3-4.2,4.8c-0.1,0-0.1,0.1-0.2,0.2c0,2.4,0,4.8,0,7.3
		c0,1.7,0.1,1.9,1.6,2.6c4.3,2,7.7,5.2,9.7,9.4c2.3,4.7,2.4,9.8,1.1,14.8c-0.4,1.5-0.8,2.9-1,4.4c-0.4,3.2-1.5,6-3.4,8.6
		c-2.6,3.6-6,6.2-10,8c-1,0.4-1.5,1-1.7,2.1c-0.2,1.8-0.5,3.6-0.8,5.5c-0.3,2.5-0.5,5.1-0.8,7.6c-0.1,1.1-0.5,2-1.5,2.6
		c-0.6,0.4-1.2,0.8-1.8,1.2c2,2.4,3.2,5.1,4,8c0.5,1.7,1.1,3.4,1.6,5.1c0.4,1.1,0.7,1.4,1.9,1.4c1.5,0.1,3,0.2,4.5,0.2
		c3.6,0,7.1,0,10.7,0c1.9,0,3.5,0.7,4.8,2.1c1.6,1.8,1.5,4.3-0.3,5.9c-0.3,0.2-0.5,0.5-0.8,0.7c1.7,1.4,3.1,3,3.9,5
		c0,0.2,0,0.5,0,0.7c-0.4,0.7-0.8,1.4-1.3,1.9c-0.8,0.8-0.9,1.6-0.5,2.7c0.8,1.9,0.4,3.6-1.4,4.7c-1,0.7-2.3,1.2-3.5,1.4
		c-3.2,0.5-6.4,0.8-9.6,1.2c-1.9,0.2-3.7,0.5-5.6,0.7c-2.7,0-5.4,0-8.2,0C247.8,276.2,247.6,276.3,247.4,276.4z M245.2,217.6
		c-1.5-0.4-3.1-0.8-4.6-1.2c-1.8-0.5-3.7-3.4-2.9-5.2c0.5-1.1,0.8-2.2,1.3-3.3c0.3-0.7,0.3-1.2-0.3-1.7c-0.9-0.8-1.8-1.6-2.7-2.4
		c-2-1.8-2.3-4.8-0.8-6.7c1.1-1.4,2.6-2.4,4.4-2.9c0.5-0.1,1-0.4,1.6-0.6c-0.6-1.3-1.2-2.4-1.8-3.5c-0.6-1.3-0.5-2.6,0.7-3.6
		c0.7-0.6,1.7-1.1,2.6-1.3c1.8-0.5,3.7-0.8,5.6-1.2c0.7,0.1,1.4,0.1,2.2,0.2c1.1-7.9,2.3-15.6,3.1-23.4c-0.6,0-0.9,0-1.2,0.1
		c-3.7,0.7-7.3,1.4-11,2c-6.6,1.1-13.1,1.7-19.8,2c-3.2,0.1-6.4,0-9.6,0.1c-6.3,0.3-12.4-0.3-18.5-1.9c-1-0.2-1.9-0.4-3-0.7
		c0,0.6,0,1,0.1,1.4c0.4,3.2,0.7,6.3,1.1,9.5c0.8,7.1,1.6,14.3,2.5,21.4c0.9,7.7,1.8,15.5,2.9,23.2c0.6,4.3,1.6,8.6,2.5,12.9
		c0.2,0.9,0.7,1.5,1.7,1.7c4.9,1,9.8,2.2,14.8,3c3.8,0.6,7.6,0.9,11.5,0.5c6.2-0.6,12.1-2.2,17.9-4.4c1.1-0.4,1.5-1,1.5-2.1
		c0.2-2.3,0.5-4.5,0.6-6.8c0.1-1.5,0.2-3.1,0.2-4.8C246.9,217.6,246,217.6,245.2,217.6z M99.3,152.5c-0.3,0.4-0.6,0.8-0.8,1.2
		c-4.4,5.8-8.8,11.6-13.2,17.3c-3.1,3.9-6.2,7.8-9.3,11.7c-0.8,1.1-1.6,2.2-2.3,3.4c-1.3,2.5-2.6,5.1-3.9,7.7
		c-1.9,3.8-2.9,7.9-3.5,12.1c-0.5,3.4,0.4,6.1,2.9,8.5c4.4,4.2,9.7,5.8,15.6,5.5c6.3-0.2,12.5-1.5,18.5-3.7c3.2-1.2,6.3-2.6,9.4-3.7
		c4.1-1.4,8.2-2.6,12.3-3.9c3.8-1.2,7.5-2.5,11.3-3.6c3.1-0.9,6-0.5,8.8,1.3c1.2,0.8,2.7,1.2,4.1,1.5c1.5,0.4,2.2-0.3,1.9-1.9
		c-0.1-0.7-0.4-1.4-0.5-2.1c-0.2-1.1,0.1-1.6,1.2-1.8c0.3-0.1,0.6-0.1,0.9-0.1c1.2-0.3,2-0.9,2.4-2.1c-1-0.9-2-1.8-3-2.8
		c-0.5-0.5-0.7-1.1-0.4-1.8c0.3-0.7,0.8-1.1,1.6-1.1c0.8,0,1.5,0,2.3,0c1.2-0.1,1.7-0.6,1.7-1.8c0-0.9-0.4-1.7-1.2-2.1
		c-1.1-0.6-2.2-1.2-3.3-1.6c-4.7-1.6-9.5-2-14.4-1.8c-7.5,0.3-14.9,1.7-22.1,3.9c-4.6,1.4-9.3,2.7-13.5,5.1
		c-0.2,0.1-0.5,0.2-0.8,0.3c-1.1,0.3-2.1,0.1-2.3-0.4c-0.2-0.6,0.3-1.5,1.2-2c2.4-1.4,4.7-2.8,7.2-4.1c1.3-0.7,2.1-1.8,2.3-3.3
		c0.6-4.9,2.6-9.3,4.8-13.6c0.2-0.4,0.6-0.8,1-1.1c0.7-0.4,1.4-0.1,1.4,0.8c0,0.7-0.1,1.4-0.3,2c-0.9,2.9-1.9,5.8-2.8,8.7
		c-0.4,1.3-0.7,2.7-1,4.2c0.4,0,0.5,0,0.7,0c0.9-0.2,1.9-0.4,2.8-0.6c8.4-2.3,17-3.7,25.8-3.2c4.3,0.2,8.5,0.7,12.5,2.5
		c1.3,0.6,2.6,1.4,3.7,2.4c2.2,1.8,3.2,6,0.2,8.7c-0.5,0.5-0.6,1-0.6,1.7c0.1,0.6,0.2,1.3,0.1,1.9c-0.1,2.1-1.3,3.5-3,4.5
		c-0.7,0.4-1.3,0.9-1.2,1.8c0.1,1,1,1.1,1.7,1.2c0.2,0,0.3,0.1,0.5,0.1c5.2,0.8,9.4,3.3,12.7,7.5c1,1.3,2.1,2.6,3.3,3.8
		c2.2,2.3,3.7,4.9,4.7,8c1,3.1,2.1,6.1,3.3,9.1c0.7,1.9,1.2,2.1,3.2,1.8c1.4-0.2,2.9-0.3,4.3-0.4c4.5-0.3,9-0.5,13.5-0.8
		c1.2-0.1,2.4-0.4,3.5-0.5c0-0.1,0-0.2,0-0.3c-0.2-0.1-0.5-0.3-0.7-0.4c-1.9-0.8-3.8-1.5-5.7-2.3c-1.2-0.5-1.8-1.2-1.8-2.5
		c-0.1-1.2-0.4-2.4-0.6-3.7c-0.3-1.5-0.8-3-1-4.6c-0.6-3.7-1.1-7.5-1.8-11.2c-0.2-1.3-0.2-2.5,0.6-3.6c0.4-0.6,0.2-1-0.3-1.5
		c-0.8-0.7-1.4-1.7-1.5-2.8c-0.8-5.7-1.9-11.4-2.5-17.2c-0.8-7.9-1.2-15.9-1.7-23.9c-0.1-1.5-0.1-1.5-1.5-1.9
		c-1.8-0.5-2.7-1.7-2.8-3.6c-0.1-1.4-0.2-2.9-0.3-4.3c-0.1-2.2-0.9-2.7-3-2.2c-5.2,1.3-10.3,2.6-15.5,3.7c-4.9,1-9.8,1.6-14.8,2.5
		c-6.9,1.2-13.8,2-20.9,1.8c-3.2-0.1-6.5,0-9.7-0.5c-3.5-0.5-6.9-1.6-10.3-2.5C106,154.6,102.7,153.5,99.3,152.5z M98.1,93.2
		c-2.2,0.7-4.3,1.3-6.4,2c-0.8,0.3-1.7,0.7-2.4,1.3c-2.6,2.1-4.8,4.6-6.6,7.5c-1.8,2.9-3.6,5.8-5.4,8.6c-3.1,5-3.7,10.4-2.9,16
		c0.3,2.2,0.8,4.2,2.3,5.9c2.6,3.1,5.6,5.8,9.2,7.7c7,3.8,14.3,6.8,21.9,9.1c4.3,1.3,8.7,2.5,13.1,3.1c4.6,0.6,9.2,0.4,13.8,0.4
		c2.2,0,4.5-0.2,6.7-0.5c6.4-0.9,12.7-2,19-3c6.2-1,12.3-2.2,18.3-4.3c1.7-0.6,1.8-0.6,1.8-2.4c0-2.5,1.1-4.3,3.3-5.5
		c5.2-2.8,10.7-4.9,16.5-5.8c1.9-0.3,3.3-1.2,4.2-2.9c0.9-1.6,1.9-3.2,2.8-4.9c1.5-2.7,2.6-5.5,3.4-8.5c1.1-4.4,0.6-8.5-2.3-12.2
		c-1.2-1.5-2.2-3.2-3.3-4.9c-0.3-0.4-0.6-0.8-1.1-1.5c-0.4,0.6-0.8,1-1.1,1.4c-2.6,3.1-5.7,5.5-9.3,7.3c-5.1,2.5-10.6,3.3-16.2,2.5
		c-4-0.6-7.5-2.6-10.7-5c-3-2.2-5.7-4.6-7.5-8c-0.4-0.7-1-1-1.8-1c-1.4,0.1-2.9,0.1-4.3,0.2c-1.1,0-1.8,0.5-2.3,1.5
		c-0.9,1.8-1.8,3.6-2.8,5.3c-1,1.6-2.1,3.3-3.5,4.5c-3.2,2.9-6.9,5-10.9,6.6c-0.6,0.2-1.2,0.4-1.8,0.5c-2.3,0.3-4.7,0.5-7,0.6
		c-2.4,0.2-4.8,0.2-7.1-0.4c-5.4-1.5-10.1-4.2-13.9-8.3c-3.1-3.4-5.3-7.2-5.5-11.9C98.3,93.8,98.2,93.5,98.1,93.2z M126.9,226.7
		c1.8-0.6,3.5-0.2,5.2,0.8c3.9,2.3,7.6,5,11.3,7.7c1.7,1.2,3.1,2.6,4.1,4.4c0.4,0.7,0.8,1.5,1.3,2.2c2.2,3.6,4.2,7.2,5.4,11.3
		c0.6,2,1.4,3.9,2,5.9c1,3.3,2.4,6.3,5.1,8.6c0.6,0.5,1.1,1.1,1.7,1.7c0.8,0.8,1.7,1.2,2.8,1.3c2.5,0.2,5,0.4,7.5,0.5
		c4,0.2,8,0.4,12,0.5c5.7,0.2,11.3,0.3,17,0.4c2.7,0.1,4.4-1.3,5.6-3.6c0.5-1.1,0.5-2.1-0.3-3c-0.6-0.8-1.2-1.6-1.7-2.4
		c-0.7-1.1-0.6-1.7,0.5-2.5c0.7-0.5,1.5-1,2.3-1.5c-0.7-0.5-1.3-0.9-1.9-1.3c-0.4-0.2-0.8-0.4-1.2-0.6c-1.4-0.9-1.7-1.8-1-3.2
		c0.3-0.5,0.6-1,0.9-1.5c0.9-1.6,0.6-2.3-1.3-2.6c-1.5-0.2-3,0.2-4.5,0.6c-4.4,1.4-9,1.9-13.6,1.4c-2.9-0.3-5.2-2.2-5.9-5
		c-1.7-7.1-4.3-13.9-6.8-20.7c-0.5-1.4-1.3-2.7-2.2-3.8c-1.7-2.2-3.6-4.4-5.5-6.5c-2.5-2.8-5.6-4.7-9.3-5.7c-1.1-0.3-2-0.2-3,0.3
		c-3.9,2.2-7.6,1.8-11-1.1c-0.9-0.8-2-1.3-3.2-1.1c-1.5,0.2-3.1,0.5-4.5,0.9c-2.8,0.9-5.4,2.1-8.2,3c-7.7,2.4-15.4,5-22.8,8.2
		c-1.7,0.7-3.4,1.4-5.3,2.2c1.3,1.7,1.9,3.4,2,5.3c0.2,2.4,1,4.5,2.6,6.3c1.4,1.5,2.8,3.1,4.3,4.5c3.3,2.9,6.9,5.3,11.3,6.2
		c4.1,0.8,8.3,0.9,12.4,0.7c4.8-0.2,9.3-1.5,13.7-3.5c-0.2-1.6-1.1-2.9-2.3-3.9c-1.5-1.2-3-2.5-4.6-3.6c-3.2-2.4-6.4-4.9-10.3-6.2
		C127,228,126.7,227.5,126.9,226.7z M273.8,262.7c-0.3-0.2-0.6-0.3-0.7-0.5c-1-1-2.1-2-3-3.1c-1.1-1.2-0.9-2.4,0.3-3.5
		c0.4-0.3,0.8-0.6,1.2-0.9c0.4-0.3,0.9-0.7,1.3-1c-1-1.3-2-1.8-3.8-1.8c-2.9,0-5.8,0-8.7,0c-2,0-3.9,0.1-5.9,0.1
		c-1.8,0-2.8-0.7-3.5-2.4c-0.2-0.5-0.4-1-0.5-1.5c-0.8-2.9-1.6-5.8-2.5-8.7c-0.3-1-0.8-2-1.4-2.9c-0.9-1.2-1.2-1.5-3-0.8
		c-6.6,2.6-13.5,4-20.6,3.6c-1.9-0.1-3.9-0.3-6-0.5c0.2,0.3,0.4,0.6,0.6,0.8c1.6,1.9,3.1,3.8,4.2,6.1c2.7,5.6,4.4,11.4,5.2,17.6
		c0.3,2,0.8,4,1.9,5.8c0.5,0.8,1.2,1.3,2.1,1.5c4.9,1.1,9.8,1.5,14.8,1.7c3,0.1,6,0.4,8.9,0.6c0.9,0.1,1.8,0.1,2.7,0
		c1.7-0.3,3.4-0.7,5.2-1c2.7-0.5,5.5-0.9,8.3-1.4c0.4-0.1,0.9-0.3,1.3-0.6c0.5-0.4,0.7-1,0-1.5c-0.4-0.3-0.7-0.6-1-0.9
		c-1.3-1.3-1.2-2.4,0.4-3.4C272.2,263.6,272.9,263.3,273.8,262.7z M91.5,92.6c2.1-0.6,3.8-1.1,5.6-1.7c3.9-1.2,7.9-2.4,12-2.5
		c3.5-0.1,6.9-0.1,10.4-0.1c8.2,0,16.4,0.1,24.6,0.1c1.5,0,2.9,0.3,4.1,1.1c0.9,0.6,1.8,0.8,2.9,0.6c3.8-0.7,7.7-1,11.4-2.1
		c8-2.5,16.1-4.3,24.5-4.9c1.1-0.1,2.1-0.3,3-0.4c-0.3-4-1.4-7.5-4.8-9.9c-0.2-0.1-0.3-0.3-0.4-0.4c-4.3-4.5-9.6-5.9-15.6-4.8
		c-3.4,0.7-6.2,2.2-8.3,5.2c-2.3,3.4-4.6,6.9-6.2,10.7c-0.6,1.4-1.2,1.8-2.8,1.6c-1-0.1-2-0.2-3-0.3c-6.4-0.6-12.7-0.5-19,0.8
		c-2.1,0.5-3.7-0.3-5-2c-1.3-1.8-2.5-3.6-3.8-5.4c-1.6-2.2-3.7-3.5-6.4-3.7c-1.5-0.1-2.9-0.1-4.4,0c-4.7,0.3-8.7,2.3-11.7,6
		c-2.8,3.3-5,6.9-6.7,10.9C91.8,91.7,91.7,92,91.5,92.6z M254.1,187.8c-1.3-0.1-2.4-0.2-3.5-0.3c-2.2-0.1-4.4-0.2-6.6-0.1
		c-1.5,0.1-1.9,0.8-1.1,2.2c0.5,1,1.2,2,1.8,2.9c1,1.6,0.4,3.1-1.4,3.7c-1,0.3-2.1,0.4-3.1,0.8c-0.7,0.3-1.5,0.6-2.1,1.1
		c-1.1,0.9-1.2,2.1-0.4,3.3c1,1.5,2.3,2.5,4,3.1c1.5,0.6,1.6,0.9,0.8,2.3c-0.7,1.2-1.3,2.4-1.9,3.6c-0.5,1-0.3,1.7,0.6,2.3
		c1.7,1.1,3.6,1.7,5.7,1.5c4.8-0.6,8.8-2.8,12.2-6.1c2.8-2.7,5-5.7,5.5-9.7c0-0.3,0.2-0.6,0.3-0.9c1.3-3.6,1.6-7.2,0.8-11
		c-0.5-2.3-0.9-4.8-2.4-6.7c-1.5-2-3.1-3.8-4.8-5.7c-0.8-0.9-1.9-1.6-3.1-2C255,177.4,254.6,182.5,254.1,187.8z M261.5,142.9
		c-1.4-1.4-3.7-2.9-6.1-3.5c-4.1-0.9-8.3-1.8-12.4-2.4c-6.1-0.8-12.2-1.2-18.2-1.8c-8.2-0.9-16.4-0.5-24.6,1c-5.5,1-10.6,3-15.2,6
		c-1,0.7-1.6,1.6-1.4,2.8c0.4,2.1,1.6,3.6,3.8,4.1c2.4,0.6,4.7,1.2,7.1,1.8c6.9,1.8,13.7,3.1,20.9,3c7.6-0.1,15.2-0.5,22.7-1.3
		c5.8-0.6,11.3-1.9,16.6-4.3C257.5,147.2,259.8,145.4,261.5,142.9z M186.4,152.6c0,0.7,0.1,1.2,0,1.7c-0.3,1.9,0.7,3.1,2.3,3.9
		c0.6,0.3,1.3,0.6,2,0.8c4.2,1.3,8.4,2.1,12.8,2.6c6.1,0.7,12.1,0.5,18.2,0.4c2.2,0,4.4-0.1,6.6-0.4c4.6-0.5,9.1-1.2,13.7-1.7
		c4.9-0.6,9.7-1.7,14.4-3.1c0.7-0.2,1.1-0.6,1.2-1.3c0.2-1,0.5-1.9,0.7-2.9c0.2-1,0.4-2,0.7-3.2c-0.6,0.2-0.8,0.4-1.1,0.5
		c-1.1,0.5-2.1,1.1-3.2,1.6c-7,3.2-14.5,4.4-22.2,4.8c-6.1,0.3-12.1,0.5-18.2,0.7c-3.9,0.1-7.8-0.1-11.7-0.9
		C197.2,155,191.8,153.8,186.4,152.6z M117.3,94.1c-0.8-0.4-1.5-0.7-2.2-1c-1.2-0.4-2.5-0.6-3.7,0c-1.8,1-3.6,2-5.3,3.2
		c-1.2,0.8-1.1,2.4,0.1,3.2c1.8,1.2,3.9,1.5,5.7,0.3C114.1,98.4,116,96.6,117.3,94.1z M166.8,97c0.5-0.1,0.8-0.1,1-0.3
		c1.9-1,3.8-1.9,5.7-3.1c0.6-0.3,1-1.2,1.2-1.9c0.3-1.1-0.5-1.8-1.6-1.5c-0.7,0.2-1.4,0.4-2.1,0.6c-2,0.7-4,1.3-6,2.1
		c-1.3,0.5-1.7,2.1-0.7,2.8C165.2,96.4,166.1,96.6,166.8,97z"/>
	<path class="st1" d="M256.3,276.2c0,0.1,0,0.2,0,0.2c-3,0-5.9,0-8.9,0c0.2-0.1,0.5-0.2,0.7-0.2
		C250.8,276.1,253.5,276.2,256.3,276.2z"/>
	<path class="st1" d="M62.1,205.6c0.1,0,0.2,0,0.3,0c0,1.2,0,2.5,0,3.7c-0.1,0-0.2,0-0.3,0.1C62.1,208.2,62.1,206.9,62.1,205.6z"/>
	<path class="st1" d="M170.6,64c0-0.1,0-0.2,0-0.2c1.2,0,2.4,0,3.6,0c0,0.1-0.1,0.1-0.1,0.2c0,0,0,0.1,0,0.1
		C172.9,64,171.8,64,170.6,64z"/>
	<path class="st2" d="M99.3,152.5c3.4,1,6.8,2.1,10.1,3.1c3.4,0.9,6.8,2,10.3,2.5c3.2,0.5,6.4,0.4,9.7,0.5c7,0.2,14-0.6,20.9-1.8
		c4.9-0.9,9.9-1.5,14.8-2.5c5.2-1.1,10.3-2.4,15.5-3.7c2.1-0.5,2.9,0.1,3,2.2c0.1,1.4,0.2,2.9,0.3,4.3c0.1,1.8,1,3,2.8,3.6
		c1.4,0.4,1.4,0.5,1.5,1.9c0.6,8,1,15.9,1.7,23.9c0.6,5.8,1.6,11.5,2.5,17.2c0.2,1.1,0.7,2,1.5,2.8c0.5,0.4,0.7,0.9,0.3,1.5
		c-0.8,1.1-0.8,2.3-0.6,3.6c0.7,3.7,1.1,7.5,1.8,11.2c0.3,1.5,0.7,3,1,4.6c0.2,1.2,0.5,2.4,0.6,3.7c0.1,1.3,0.7,2.1,1.8,2.5
		c1.9,0.7,3.8,1.5,5.7,2.3c0.2,0.1,0.5,0.2,0.7,0.4c0,0.1,0,0.2,0,0.3c-1.2,0.2-2.4,0.5-3.5,0.5c-4.5,0.3-9,0.5-13.5,0.8
		c-1.4,0.1-2.9,0.3-4.3,0.4c-2,0.2-2.5,0-3.2-1.8c-1.1-3-2.3-6-3.3-9.1c-1-3-2.5-5.7-4.7-8c-1.2-1.2-2.2-2.5-3.3-3.8
		c-3.2-4.2-7.5-6.7-12.7-7.5c-0.2,0-0.3,0-0.5-0.1c-0.7-0.2-1.6-0.3-1.7-1.2c-0.1-0.9,0.5-1.4,1.2-1.8c1.7-1,2.9-2.4,3-4.5
		c0-0.6-0.1-1.3-0.1-1.9c-0.1-0.7,0-1.2,0.6-1.7c3-2.7,2-6.9-0.2-8.7c-1.1-0.9-2.4-1.8-3.7-2.4c-3.9-1.8-8.2-2.3-12.5-2.5
		c-8.8-0.4-17.3,1-25.8,3.2c-0.9,0.2-1.9,0.4-2.8,0.6c-0.1,0-0.3,0-0.7,0c0.3-1.5,0.6-2.9,1-4.2c0.9-2.9,1.9-5.8,2.8-8.7
		c0.2-0.6,0.3-1.3,0.3-2c0-0.9-0.7-1.2-1.4-0.8c-0.4,0.2-0.8,0.7-1,1.1c-2.2,4.3-4.2,8.7-4.8,13.6c-0.2,1.5-0.9,2.5-2.3,3.3
		c-2.4,1.3-4.8,2.7-7.2,4.1c-0.9,0.5-1.5,1.4-1.2,2c0.2,0.6,1.2,0.8,2.3,0.4c0.3-0.1,0.5-0.2,0.8-0.3c4.2-2.4,8.9-3.7,13.5-5.1
		c7.2-2.2,14.6-3.6,22.1-3.9c4.9-0.2,9.7,0.2,14.4,1.8c1.2,0.4,2.3,1,3.3,1.6c0.8,0.4,1.2,1.2,1.2,2.1c0,1.2-0.5,1.8-1.7,1.8
		c-0.8,0-1.5,0-2.3,0c-0.8,0-1.3,0.4-1.6,1.1c-0.3,0.7-0.1,1.3,0.4,1.8c1,0.9,2,1.8,3,2.8c-0.4,1.2-1.2,1.8-2.4,2.1
		c-0.3,0.1-0.6,0.1-0.9,0.1c-1.1,0.3-1.4,0.7-1.2,1.8c0.1,0.7,0.4,1.4,0.5,2.1c0.3,1.6-0.4,2.3-1.9,1.9c-1.4-0.4-2.9-0.8-4.1-1.5
		c-2.8-1.8-5.7-2.3-8.8-1.3c-3.8,1.1-7.5,2.4-11.3,3.6c-4.1,1.3-8.2,2.5-12.3,3.9c-3.2,1.1-6.3,2.6-9.4,3.7
		c-6,2.2-12.1,3.4-18.5,3.7c-5.9,0.2-11.2-1.4-15.6-5.5c-2.5-2.4-3.5-5.1-2.9-8.5c0.6-4.2,1.7-8.3,3.5-12.1c1.3-2.6,2.5-5.2,3.9-7.7
		c0.6-1.2,1.4-2.3,2.3-3.4c3.1-3.9,6.3-7.8,9.3-11.7c4.5-5.7,8.8-11.5,13.2-17.3C98.7,153.3,99,152.9,99.3,152.5z"/>
	<path class="st2" d="M98.1,93.2c0.1,0.3,0.3,0.6,0.3,0.9c0.1,4.8,2.4,8.6,5.5,11.9c3.8,4.1,8.5,6.9,13.9,8.3
		c2.3,0.6,4.8,0.6,7.1,0.4c2.3-0.2,4.7-0.4,7-0.6c0.6-0.1,1.3-0.3,1.8-0.5c4-1.6,7.7-3.7,10.9-6.6c1.4-1.3,2.4-2.9,3.5-4.5
		c1.1-1.7,1.9-3.5,2.8-5.3c0.5-1,1.2-1.4,2.3-1.5c1.4,0,2.9-0.1,4.3-0.2c0.8,0,1.4,0.3,1.8,1c1.8,3.3,4.5,5.8,7.5,8
		c3.2,2.4,6.7,4.4,10.7,5c5.6,0.9,11.1,0,16.2-2.5c3.6-1.7,6.7-4.2,9.3-7.3c0.4-0.4,0.7-0.9,1.1-1.4c0.5,0.7,0.8,1.1,1.1,1.5
		c1.1,1.6,2.1,3.3,3.3,4.9c2.9,3.7,3.4,7.8,2.3,12.2c-0.7,3-1.8,5.8-3.4,8.5c-0.9,1.6-1.9,3.2-2.8,4.9c-0.9,1.7-2.3,2.6-4.2,2.9
		c-5.9,0.9-11.3,2.9-16.5,5.8c-2.2,1.2-3.3,3.1-3.3,5.5c0,1.8,0,1.8-1.8,2.4c-5.9,2.1-12.1,3.3-18.3,4.3c-6.3,1-12.7,2.1-19,3
		c-2.2,0.3-4.5,0.5-6.7,0.5c-4.6,0-9.2,0.3-13.8-0.4c-4.5-0.6-8.8-1.9-13.1-3.1c-7.6-2.3-14.9-5.3-21.9-9.1c-3.6-2-6.6-4.6-9.2-7.7
		c-1.5-1.7-2-3.8-2.3-5.9c-0.8-5.7-0.2-11.1,2.9-16c1.8-2.9,3.6-5.7,5.4-8.6c1.8-2.9,4-5.4,6.6-7.5c0.7-0.6,1.5-1,2.4-1.3
		C93.7,94.5,95.9,93.9,98.1,93.2z M142.8,132.8c2-0.1,4.1-0.1,6.1-0.3c4.8-0.6,9.5-1.3,14.2-2c5.7-0.8,11.2-2.3,16.5-4.8
		c3.1-1.5,6-3.2,8.3-5.8c0.7-0.8,0.7-1.5-0.1-2.4c-0.7-0.8-1.4-0.9-2.3-0.3c-0.5,0.3-0.9,0.7-1.3,1c-3.4,2.7-7.1,4.8-11.2,6
		c-3.7,1.1-7.6,2.1-11.4,2.7c-4.9,0.9-9.9,1.5-14.9,2c-4,0.4-8.1,0-12-0.8c-4-0.7-8.1-1.3-12.1-2.2c-5.8-1.2-11.3-3.5-16.7-6
		c-0.7-0.3-1.3-0.5-1.9,0.1c-0.6,0.7-0.3,1.3,0.1,2c1,1.3,2.2,2.3,3.7,2.9c6.5,2.8,13.2,4.8,20.1,6
		C132.8,131.9,137.7,133.1,142.8,132.8z M160.8,108.4c-1.8,0-2.9,0.9-2.9,2.3c0,1.4,1.2,2.6,2.7,2.6c1.6,0,2.7-1.1,2.7-2.7
		C163.3,109.1,162.5,108.4,160.8,108.4z M149.7,108.8c-1.8,0-2.7,0.8-2.7,2.3c0,1.6,0.9,2.6,2.4,2.6c1.6,0,2.8-1.2,2.8-2.8
		C152.2,109.5,151.4,108.8,149.7,108.8z"/>
	<path class="st2" d="M126.9,226.7c-0.2,0.8,0.1,1.2,0.7,1.4c3.9,1.3,7,3.8,10.3,6.2c1.6,1.2,3.1,2.4,4.6,3.6c1.3,1,2.1,2.2,2.3,3.9
		c-4.4,2-8.9,3.3-13.7,3.5c-4.2,0.2-8.3,0.1-12.4-0.7c-4.4-0.8-8-3.3-11.3-6.2c-1.6-1.4-3-2.9-4.3-4.5c-1.6-1.8-2.5-3.9-2.6-6.3
		c-0.1-1.9-0.7-3.7-2-5.3c1.8-0.8,3.6-1.5,5.3-2.2c7.5-3.1,15.1-5.8,22.8-8.2c2.8-0.9,5.4-2.1,8.2-3c1.5-0.5,3-0.7,4.5-0.9
		c1.2-0.2,2.3,0.3,3.2,1.1c3.4,3,7.1,3.4,11,1.1c1-0.6,1.9-0.6,3-0.3c3.6,1,6.7,2.9,9.3,5.7c1.9,2.1,3.8,4.2,5.5,6.5
		c0.9,1.1,1.7,2.5,2.2,3.8c2.5,6.8,5.1,13.6,6.8,20.7c0.7,2.8,3,4.7,5.9,5c4.6,0.5,9.2,0,13.6-1.4c1.5-0.4,2.9-0.9,4.5-0.6
		c1.8,0.2,2.2,1,1.3,2.6c-0.3,0.5-0.7,1-0.9,1.5c-0.7,1.4-0.4,2.4,1,3.2c0.4,0.2,0.8,0.4,1.2,0.6c0.6,0.4,1.2,0.8,1.9,1.3
		c-0.9,0.6-1.6,1-2.3,1.5c-1.1,0.8-1.2,1.4-0.5,2.5c0.5,0.8,1.1,1.7,1.7,2.4c0.8,1,0.8,1.9,0.3,3c-1.2,2.3-2.9,3.6-5.6,3.6
		c-5.7-0.1-11.3-0.2-17-0.4c-4-0.1-8-0.3-12-0.5c-2.5-0.1-5-0.3-7.5-0.5c-1.1-0.1-2-0.5-2.8-1.3c-0.6-0.6-1.1-1.2-1.7-1.7
		c-2.6-2.3-4.1-5.3-5.1-8.6c-0.6-2-1.4-3.9-2-5.9c-1.2-4-3.2-7.7-5.4-11.3c-0.4-0.7-0.9-1.4-1.3-2.2c-1-1.8-2.4-3.2-4.1-4.4
		c-3.7-2.7-7.3-5.4-11.3-7.7C130.5,226.5,128.8,226.1,126.9,226.7z"/>
	<path class="st1" d="M248.3,183.8c-1.9,0.4-3.7,0.7-5.6,1.2c-0.9,0.3-1.9,0.7-2.6,1.3c-1.2,0.9-1.3,2.2-0.7,3.6
		c0.5,1.1,1.1,2.3,1.8,3.5c-0.6,0.3-1.1,0.5-1.6,0.6c-1.8,0.5-3.3,1.5-4.4,2.9c-1.6,2-1.3,5,0.8,6.7c0.9,0.8,1.7,1.6,2.7,2.4
		c0.6,0.5,0.6,1,0.3,1.7c-0.5,1.1-0.8,2.3-1.3,3.3c-0.8,1.8,1.1,4.8,2.9,5.2c1.5,0.4,3.1,0.8,4.6,1.2c0,1,0.2,2.1,0,3.1
		c-0.3,2-0.7,3.9-1.1,5.9c-0.4,1.7-0.7,1.9-2.4,2.1c-2.5,0.3-5.1,0.6-7.6,0.9c-3.4,0.3-6.8,0.9-10.1,0.8c-5.5-0.1-11.1-0.6-16.6-1.1
		c-3.3-0.3-4.6-2-5.1-4.9c-1.1-7.1-2.3-14.1-3.5-21.2c-0.8-4.6-1.6-9.3-2.2-14c-0.8-6.1-1.3-12.3-1.9-18.5c-0.1-1.1,0-2.2,0-3.3
		c1.4-0.2,2.5,0,3.9,0.5c1.8,0.7,2.7,0.5,3.9-0.9c0.7-0.8,1.5-1.2,2.6-1.2c3,0,5.8,0.7,8.5,1.8c1.2,0.5,2.4,0.9,3.7,0.9
		c3,0.2,6,0.1,9,0.1c1.3,0,2.3-0.6,2.9-1.8c0.8-1.7,2.1-2.3,3.9-2.3c2.8,0,5.6,0.1,8.4,0c1.6,0,2.9,0.3,3.7,1.8
		c0.8-0.1,1.5-0.2,2.2-0.3c1.7-0.1,2.5,0.7,2.4,2.4C249.2,173.7,248.8,178.7,248.3,183.8z M198.2,174.6c1.3,1.1,2.6,2.2,3.9,3.3
		c1.5,1.3,3.3,2.1,5.3,2.4c1.3,0.2,2-0.1,2.7-1.2c1.4-2.2,2.8-4.4,4.2-6.7c0.4-0.6,0.7-1.2,1.1-1.8c-0.2-0.1-0.2-0.2-0.3-0.3
		c-3-1.7-6.1-2.7-9.5-3c-0.7-0.1-1.6,0.2-2.1,0.6C201.4,169.8,199.3,171.8,198.2,174.6z M213.9,185.7c2.7,1,5.2,2,7.7,2.9
		c0.4,0.1,1,0,1.3-0.3c0.6-0.6,1.3-1.3,1.6-2.1c0.7-1.8,1.2-3.6,1.7-5.5c0.1-0.3,0.1-0.7,0.1-1.1c-2.2-0.7-4.3-1.3-6.5-2
		c-0.7-0.2-1.3-0.1-1.8,0.6C216.4,180.6,215,183,213.9,185.7z M228.9,170.3c3,2.2,6.6,3.2,10.1,4.4c1.2-2.7,2.4-5.2,3.6-7.8
		c-0.4-0.1-0.6-0.1-0.9-0.1c-2.3,0-4.6-0.1-6.9-0.1c-3.8,0-3.9,0.1-5.8,3.4C228.9,170,228.9,170.1,228.9,170.3z M230.1,186.7
		c1.1,1,2.1,1.9,3.2,2.8c1,0.8,1.5,0.7,2.1-0.3c0.7-1.1,1.3-2.3,1.9-3.4c-1.3-1-2.4-1.9-3.5-2.7
		C232.6,184.3,231.4,185.4,230.1,186.7z M218.6,204.5c-0.1,0.6-0.2,1-0.3,1.5c-0.1,0.5-0.1,1-0.2,1.5c-0.1,1.5,0.2,1.9,1.6,2
		c0.8,0.1,1.7,0.1,2.5,0c0.3,0,0.7-0.3,0.8-0.5c0.5-1.5,0.6-3,0.1-4.6C221.6,204.5,220.2,204.5,218.6,204.5z M229.3,195.5
		c-0.8-0.4-1.4-0.7-2.1-0.9c-1.6-0.4-3.3,1.4-2.9,3c0,0.1,0.1,0.2,0.2,0.3c1.1,0.7,2.2,1.5,3.7,1.3
		C228.5,198,228.9,196.9,229.3,195.5z"/>
	<path class="st2" d="M273.8,262.7c-0.9,0.5-1.7,0.9-2.3,1.3c-1.6,1-1.7,2.1-0.4,3.4c0.3,0.3,0.6,0.6,1,0.9c0.7,0.5,0.6,1,0,1.5
		c-0.4,0.3-0.8,0.5-1.3,0.6c-2.7,0.5-5.5,0.9-8.3,1.4c-1.7,0.3-3.4,0.8-5.2,1c-0.9,0.1-1.8,0.1-2.7,0c-3-0.2-6-0.5-8.9-0.6
		c-5-0.2-10-0.6-14.8-1.7c-0.9-0.2-1.6-0.7-2.1-1.5c-1.1-1.8-1.6-3.7-1.9-5.8c-0.8-6.1-2.5-12-5.2-17.6c-1.1-2.2-2.5-4.2-4.2-6.1
		c-0.2-0.2-0.3-0.4-0.6-0.8c2.1,0.2,4,0.4,6,0.5c7.1,0.4,14-1.1,20.6-3.6c1.8-0.7,2.1-0.4,3,0.8c0.6,0.9,1.1,1.8,1.4,2.9
		c0.9,2.9,1.7,5.8,2.5,8.7c0.1,0.5,0.3,1,0.5,1.5c0.7,1.7,1.6,2.4,3.5,2.4c2,0,3.9-0.1,5.9-0.1c2.9,0,5.8,0,8.7,0
		c1.8,0,2.8,0.5,3.8,1.8c-0.4,0.3-0.9,0.7-1.3,1c-0.4,0.3-0.9,0.6-1.2,0.9c-1.2,1.1-1.3,2.2-0.3,3.5c0.9,1.1,2,2.1,3,3.1
		C273.3,262.4,273.5,262.5,273.8,262.7z"/>
	<path class="st3" d="M91.5,92.6c0.2-0.6,0.3-0.9,0.4-1.2c1.7-3.9,3.9-7.6,6.7-10.9c3.1-3.6,7-5.6,11.7-6c1.5-0.1,3-0.1,4.4,0
		c2.7,0.2,4.8,1.5,6.4,3.7c1.3,1.8,2.6,3.6,3.8,5.4c1.2,1.7,2.8,2.4,5,2c6.3-1.3,12.6-1.4,19-0.8c1,0.1,2,0.2,3,0.3
		c1.6,0.2,2.2-0.1,2.8-1.6c1.7-3.8,3.9-7.3,6.2-10.7c2-3,4.8-4.5,8.3-5.2c6-1.2,11.3,0.2,15.6,4.8c0.1,0.1,0.3,0.3,0.4,0.4
		c3.4,2.4,4.5,5.9,4.8,9.9c-1,0.1-2,0.4-3,0.4c-8.4,0.6-16.4,2.5-24.5,4.9c-3.7,1.1-7.6,1.4-11.4,2.1c-1,0.2-2-0.1-2.9-0.6
		c-1.2-0.8-2.6-1.1-4.1-1.1c-8.2,0-16.4-0.1-24.6-0.1c-3.5,0-6.9,0-10.4,0.1c-4.2,0.1-8.1,1.3-12,2.5C95.3,91.5,93.5,92,91.5,92.6z
		 M177.8,81.2c-0.9-1.4-2.2-2-3.7-1.8c-1.1,0.2-2.3,0.4-3.4,0.7c-0.7,0.2-1.4,0.6-2,1c-0.6,0.4-0.6,1.1-0.3,1.7
		c0.3,0.6,0.8,0.6,1.3,0.5C172.5,83.1,175.2,82.5,177.8,81.2z M113.1,83.3c0-0.1-0.1-0.3-0.1-0.4c-0.1-0.1-0.2-0.2-0.4-0.2
		c-2.7-1-5.3-0.5-7.8,0.7c-0.6,0.3-0.8,0.8-0.6,1.4c0.2,0.7,0.7,0.9,1.4,0.8c1.6-0.3,3.3-0.6,4.9-1
		C111.4,84.3,112.3,83.7,113.1,83.3z"/>
	<path class="st3" d="M248.3,183.8c0.4-5.1,0.9-10.1,1.3-15.2c0.1-1.7-0.7-2.4-2.4-2.4c-0.7,0-1.4,0.2-2.2,0.3
		c-0.8-1.5-2.1-1.9-3.7-1.8c-2.8,0.1-5.6,0-8.4,0c-1.8,0-3.1,0.6-3.9,2.3c-0.6,1.2-1.6,1.8-2.9,1.8c-3,0-6,0-9-0.1
		c-1.2-0.1-2.5-0.5-3.7-0.9c-2.7-1.1-5.5-1.8-8.5-1.8c-1.1,0-1.9,0.4-2.6,1.2c-1.2,1.4-2.2,1.6-3.9,0.9c-1.4-0.5-2.5-0.7-3.9-0.5
		c0,1.1-0.1,2.2,0,3.3c0.6,6.2,1.2,12.3,1.9,18.5c0.6,4.7,1.4,9.3,2.2,14c1.1,7.1,2.4,14.1,3.5,21.2c0.4,2.9,1.7,4.6,5.1,4.9
		c5.5,0.4,11.1,1,16.6,1.1c3.4,0.1,6.8-0.5,10.1-0.8c2.5-0.3,5.1-0.6,7.6-0.9c1.7-0.2,2.1-0.4,2.4-2.1c0.4-1.9,0.8-3.9,1.1-5.9
		c0.1-1,0-2.1,0-3.1c0.9,0,1.7,0,2.8,0c-0.1,1.7-0.1,3.2-0.2,4.8c-0.2,2.3-0.5,4.5-0.6,6.8c-0.1,1.1-0.5,1.7-1.5,2.1
		c-5.8,2.2-11.7,3.8-17.9,4.4c-3.8,0.4-7.7,0.1-11.5-0.5c-5-0.8-9.9-2-14.8-3c-0.9-0.2-1.5-0.7-1.7-1.7c-0.8-4.3-1.9-8.6-2.5-12.9
		c-1.1-7.7-1.9-15.5-2.9-23.2c-0.9-7.1-1.7-14.3-2.5-21.4c-0.4-3.2-0.7-6.3-1.1-9.5c0-0.4,0-0.9-0.1-1.4c1.1,0.2,2,0.5,3,0.7
		c6.1,1.5,12.3,2.1,18.5,1.9c3.2-0.1,6.4,0,9.6-0.1c6.6-0.2,13.2-0.9,19.8-2c3.7-0.6,7.3-1.3,11-2c0.3-0.1,0.6,0,1.2-0.1
		c-0.8,7.9-2.1,15.6-3.1,23.4C249.7,183.9,249,183.8,248.3,183.8z"/>
	<path class="st2" d="M254.1,187.8c0.5-5.3,1-10.4,1.5-15.6c1.3,0.5,2.3,1.1,3.1,2c1.7,1.8,3.3,3.7,4.8,5.7c1.5,2,1.9,4.4,2.4,6.7
		c0.8,3.7,0.5,7.4-0.8,11c-0.1,0.3-0.3,0.6-0.3,0.9c-0.5,4-2.7,7-5.5,9.7c-3.5,3.3-7.5,5.5-12.2,6.1c-2,0.3-4-0.3-5.7-1.5
		c-0.9-0.6-1.1-1.2-0.6-2.3c0.6-1.2,1.3-2.4,1.9-3.6c0.8-1.4,0.7-1.7-0.8-2.3c-1.6-0.7-3-1.6-4-3.1c-0.8-1.2-0.7-2.4,0.4-3.3
		c0.6-0.5,1.3-0.9,2.1-1.1c1-0.3,2.1-0.5,3.1-0.8c1.8-0.5,2.3-2.1,1.4-3.7c-0.6-1-1.3-1.9-1.8-2.9c-0.7-1.4-0.4-2.1,1.1-2.2
		c2.2-0.1,4.4,0,6.6,0.1C251.7,187.5,252.8,187.6,254.1,187.8z"/>
	<path class="st3" d="M261.5,142.9c-1.8,2.5-4.1,4.3-6.9,5.6c-5.3,2.4-10.9,3.7-16.6,4.3c-7.6,0.8-15.1,1.1-22.7,1.3
		c-7.2,0.1-14.1-1.2-20.9-3c-2.4-0.6-4.7-1.2-7.1-1.8c-2.2-0.5-3.4-2-3.8-4.1c-0.3-1.2,0.3-2.1,1.4-2.8c4.7-3.1,9.8-5,15.2-6
		c8.2-1.5,16.3-1.9,24.6-1c6.1,0.6,12.2,1,18.2,1.8c4.2,0.5,8.3,1.4,12.4,2.4C257.8,139.9,260.1,141.5,261.5,142.9z M218,150.8
		c1.3,0,2.6,0.1,3.8,0c3.9-0.2,7.7-0.4,11.6-0.7c5.1-0.4,10.2-1.3,15.1-2.9c1.2-0.4,2.3-0.9,3.4-1.5c1.7-1,1.7-2.6,0-3.6
		c-1.3-0.8-2.8-1.4-4.3-1.7c-4.9-1.1-10-1.3-15-1.7c-4.8-0.4-9.7-0.3-14.5,0c-5.9,0.3-11.8,0.8-17.6,2c-2.5,0.5-5,1.3-7.1,2.6
		c-1.7,1.1-1.8,2.7-0.1,3.9c0.8,0.5,1.8,1,2.7,1.2C203.3,149.7,210.6,150.4,218,150.8z"/>
	<path class="st3" d="M186.4,152.6c5.4,1.2,10.7,2.4,16.1,3.6c3.8,0.9,7.8,1,11.7,0.9c6.1-0.2,12.1-0.4,18.2-0.7
		c7.7-0.4,15.2-1.6,22.2-4.8c1.1-0.5,2.1-1.1,3.2-1.6c0.3-0.1,0.6-0.2,1.1-0.5c-0.3,1.2-0.4,2.2-0.7,3.2c-0.2,1-0.5,1.9-0.7,2.9
		c-0.1,0.7-0.5,1.1-1.2,1.3c-4.7,1.4-9.5,2.5-14.4,3.1c-4.6,0.6-9.1,1.2-13.7,1.7c-2.2,0.2-4.4,0.3-6.6,0.4
		c-6.1,0.1-12.1,0.2-18.2-0.4c-4.3-0.5-8.6-1.3-12.8-2.6c-0.7-0.2-1.3-0.5-2-0.8c-1.6-0.8-2.6-2-2.3-3.9
		C186.5,153.8,186.4,153.3,186.4,152.6z"/>
	<path class="st3" d="M117.3,94.1c-1.3,2.5-3.2,4.3-5.4,5.7c-1.9,1.2-3.9,1-5.7-0.3c-1.2-0.8-1.4-2.4-0.1-3.2
		c1.7-1.2,3.5-2.2,5.3-3.2c1.2-0.6,2.5-0.4,3.7,0C115.8,93.4,116.5,93.7,117.3,94.1z"/>
	<path class="st3" d="M166.8,97c-0.7-0.3-1.7-0.6-2.4-1.1c-1.1-0.8-0.7-2.3,0.7-2.8c2-0.7,4-1.4,6-2.1c0.7-0.2,1.4-0.5,2.1-0.6
		c1.1-0.3,1.9,0.4,1.6,1.5c-0.2,0.7-0.6,1.5-1.2,1.9c-1.8,1.1-3.8,2.1-5.7,3.1C167.6,96.8,167.3,96.8,166.8,97z"/>
	<path class="st0" d="M142.8,132.8c-5.1,0.3-10-0.9-15-1.8c-6.9-1.2-13.6-3.3-20.1-6c-1.5-0.6-2.7-1.6-3.7-2.9
		c-0.5-0.6-0.7-1.3-0.1-2c0.5-0.6,1.2-0.4,1.9-0.1c5.4,2.5,10.9,4.8,16.7,6c4,0.8,8.1,1.4,12.1,2.2c4,0.7,8,1.2,12,0.8
		c5-0.5,10-1.1,14.9-2c3.8-0.7,7.6-1.6,11.4-2.7c4.1-1.2,7.8-3.3,11.2-6c0.4-0.3,0.9-0.7,1.3-1c0.9-0.6,1.6-0.5,2.3,0.3
		c0.8,0.9,0.8,1.6,0.1,2.4c-2.3,2.6-5.2,4.3-8.3,5.8c-5.2,2.5-10.8,3.9-16.5,4.8c-4.7,0.7-9.5,1.4-14.2,2
		C146.9,132.7,144.9,132.7,142.8,132.8z"/>
	<path class="st0" d="M160.8,108.4c1.7,0,2.5,0.7,2.5,2.2c0,1.6-1.1,2.7-2.7,2.7c-1.5,0-2.8-1.2-2.7-2.6
		C157.9,109.2,159,108.3,160.8,108.4z"/>
	<path class="st0" d="M149.7,108.8c1.7,0,2.6,0.7,2.5,2.2c0,1.6-1.2,2.8-2.8,2.8c-1.5,0-2.5-1-2.4-2.6
		C146.9,109.6,147.9,108.8,149.7,108.8z"/>
	<path class="st2" d="M198.2,174.6c1.1-2.8,3.2-4.8,5.3-6.7c0.5-0.4,1.4-0.7,2.1-0.6c3.4,0.3,6.6,1.3,9.5,3c0.1,0.1,0.2,0.1,0.3,0.3
		c-0.4,0.6-0.7,1.2-1.1,1.8c-1.4,2.2-2.8,4.4-4.2,6.7c-0.7,1.1-1.5,1.4-2.7,1.2c-2-0.3-3.7-1.1-5.3-2.4
		C200.8,176.8,199.5,175.7,198.2,174.6z"/>
	<path class="st3" d="M213.9,185.7c1.1-2.7,2.4-5.1,4.1-7.3c0.5-0.7,1-0.8,1.8-0.6c2.1,0.6,4.3,1.3,6.5,2c0,0.4,0,0.7-0.1,1.1
		c-0.5,1.8-1,3.7-1.7,5.5c-0.3,0.8-1,1.5-1.6,2.1c-0.3,0.3-0.9,0.4-1.3,0.3C219.1,187.7,216.6,186.7,213.9,185.7z"/>
	<path class="st3" d="M228.9,170.3c0-0.1,0-0.2,0.1-0.3c1.9-3.3,2-3.4,5.8-3.4c2.3,0,4.6,0.1,6.9,0.1c0.2,0,0.5,0.1,0.9,0.1
		c-1.2,2.6-2.4,5.2-3.6,7.8C235.4,173.4,231.9,172.4,228.9,170.3z"/>
	<path class="st3" d="M230.1,186.7c1.3-1.3,2.4-2.4,3.7-3.7c1.1,0.9,2.3,1.8,3.5,2.7c-0.6,1.2-1.2,2.3-1.9,3.4
		c-0.6,1-1.2,1.1-2.1,0.3C232.2,188.7,231.2,187.7,230.1,186.7z"/>
	<path class="st3" d="M218.6,204.5c1.5,0,3,0,4.6,0c0.5,1.5,0.4,3.1-0.1,4.6c-0.1,0.2-0.5,0.5-0.8,0.5c-0.8,0.1-1.7,0.1-2.5,0
		c-1.4-0.1-1.8-0.6-1.6-2c0-0.5,0.1-1,0.2-1.5C218.4,205.5,218.5,205,218.6,204.5z"/>
	<path class="st3" d="M229.3,195.5c-0.4,1.3-0.8,2.5-1.1,3.7c-1.5,0.2-2.6-0.7-3.7-1.3c-0.1-0.1-0.1-0.2-0.2-0.3
		c-0.4-1.6,1.3-3.4,2.9-3C227.9,194.8,228.5,195.2,229.3,195.5z"/>
	<path class="st0" d="M177.8,81.2c-2.6,1.3-5.3,1.9-8.1,2.2c-0.5,0.1-1,0.1-1.3-0.5c-0.3-0.7-0.3-1.3,0.3-1.7c0.6-0.4,1.3-0.8,2-1
		c1.1-0.3,2.2-0.5,3.4-0.7C175.6,79.2,176.8,79.8,177.8,81.2z"/>
	<path class="st0" d="M113.1,83.3c-0.9,0.4-1.7,1-2.6,1.3c-1.6,0.4-3.3,0.7-4.9,1c-0.7,0.1-1.2-0.1-1.4-0.8c-0.2-0.6,0-1.1,0.6-1.4
		c2.5-1.3,5.1-1.8,7.8-0.7c0.1,0.1,0.3,0.2,0.4,0.2C113,83,113.1,83.2,113.1,83.3z"/>
	<path class="st1" d="M218,150.8c-7.4-0.4-14.7-1.1-22-2.6c-0.9-0.2-1.9-0.6-2.7-1.2c-1.7-1.1-1.6-2.8,0.1-3.9
		c2.2-1.4,4.6-2.1,7.1-2.6c5.8-1.2,11.7-1.7,17.6-2c4.8-0.2,9.7-0.3,14.5,0c5,0.4,10.1,0.6,15,1.7c1.5,0.3,2.9,1,4.3,1.7
		c1.7,1,1.7,2.6,0,3.6c-1,0.6-2.2,1.1-3.4,1.5c-4.9,1.6-10,2.5-15.1,2.9c-3.9,0.3-7.7,0.5-11.6,0.7
		C220.6,150.9,219.3,150.8,218,150.8z M223,146c0.4,0.5,0.8,0.8,1.1,1.2c1.3,1.4,2.8,2.1,4.8,2c1.2-0.1,2.5,0,3.7-0.1
		c1.5,0,2.7-0.6,3.4-2c-2-3-4.9-4.6-8-6c-0.4-0.2-1,0.1-1.4,0.3C225.2,142.7,223.9,144.2,223,146z M214.2,148.9c0,0,0-0.1,0-0.1
		c0.4,0,0.8,0,1.2,0c0.4,0,0.7,0,1.1-0.1c0.3-0.1,0.7-0.4,0.8-0.7c0.2-0.6,0.3-1.2,0.3-1.8c0-1.1-0.3-1.4-1.3-1.6
		c-2.9-0.4-5.9-0.3-8.8,0.1c-1.6,0.2-2.1,1-1.8,2.6c0.1,0.6,0.4,0.8,1,0.9c1.4,0.1,2.8,0.2,4.2,0.3
		C211.9,148.7,213,148.8,214.2,148.9z"/>
	<path class="st3" d="M223,146c0.9-1.8,2.1-3.3,3.7-4.4c0.4-0.3,1-0.5,1.4-0.3c3.1,1.4,6,3,8,6c-0.7,1.3-1.9,2-3.4,2
		c-1.2,0-2.5,0-3.7,0.1c-1.9,0.1-3.5-0.6-4.8-2C223.8,146.8,223.4,146.4,223,146z"/>
	<path class="st3" d="M214.2,148.9c-1.1-0.1-2.3-0.3-3.4-0.4c-1.4-0.1-2.8-0.3-4.2-0.3c-0.6,0-0.9-0.2-1-0.9
		c-0.3-1.6,0.2-2.4,1.8-2.6c2.9-0.4,5.9-0.4,8.8-0.1c1.1,0.1,1.4,0.5,1.3,1.6c0,0.6-0.1,1.2-0.3,1.8c-0.1,0.3-0.5,0.5-0.8,0.7
		c-0.3,0.1-0.7,0.1-1.1,0.1c-0.4,0-0.8,0-1.2,0C214.2,148.9,214.2,148.9,214.2,148.9z"/>
</g>
</svg>
