<svg id="Layer_1" data-name="Layer 1" xmlns="http://www.w3.org/2000/svg" viewBox="0 0 340.157 340.157"><defs><style>.cls-1{fill:#f57f20;}.cls-2{fill:#fff;}</style></defs><path d="M66.759,116.439v-3.6c.467-1.474,1.061-2.921,1.377-4.426a17.658,17.658,0,0,1,5.041-9.082,77.407,77.407,0,0,1,9.5-7.878,14.307,14.307,0,0,1,6-2.588c1.188-.2,1.4-.512,1.627-1.71a31.128,31.128,0,0,1,4.266-10.982,9.388,9.388,0,0,1,4.217-3.8A50.7,50.7,0,0,1,104.4,70.34c3.357-.958,6.649-.375,9.884.719a5.751,5.751,0,0,1,2.242,1.323c1,.975,2.08,1.87,3.1,2.825a7.91,7.91,0,0,1,2.783,6.248c-.034,1.059.116,2.124.187,3.279a87.365,87.365,0,0,1,28.761-.772,21.513,21.513,0,0,1,2.95-7.287,35.852,35.852,0,0,1,5.405-6.239,8.211,8.211,0,0,1,5.631-2.294c1.141-.046,2.274-.276,3.411-.423h.96c.922.175,1.842.374,2.769.522a21.6,21.6,0,0,1,5.891,2.272,5.989,5.989,0,0,1,3.088,3.03c.765,1.754,1.475,3.533,2.2,5.3a16.74,16.74,0,0,1,1.214,5.833c.054,1.626.143,3.251.208,4.7a25.411,25.411,0,0,1,3.96,2.018,37.763,37.763,0,0,1,10.077,10.958,16.045,16.045,0,0,1,2.309,10.439,34.639,34.639,0,0,0-.37,4.173,17.1,17.1,0,0,1-1.368,6.518c-.355.846-.761,1.67-1.156,2.5-.23.482-.29.922.226,1.258a3.813,3.813,0,0,1,1.462,2.392c.189.673.417,1.334.654,2.087.753-.3,1.338-.537,1.929-.765,1.489-.573,2.948-1.256,4.478-1.687,2.87-.807,5.391.362,7.808,1.722a11.533,11.533,0,0,1,1.69,1.516,8.011,8.011,0,0,1,2.37,3.542c.279.83.5,1.68.709,2.533a2.526,2.526,0,0,0,1.53,1.868,17.514,17.514,0,0,0,2.48.865,3.183,3.183,0,0,1,2.441,1.734,4.826,4.826,0,0,1,1.265.614,29.784,29.784,0,0,1,3.813,3.951c1.766,2.51,3.248,5.217,4.867,7.831a7.222,7.222,0,0,1,.942,5.406,4.115,4.115,0,0,0,.941,3.573,5.68,5.68,0,0,1,1.164,2.057,19.466,19.466,0,0,0,1.822,4.408,5.39,5.39,0,0,1,.445,3.841q-.363,1.636-.692,3.281a6.665,6.665,0,0,0-.056.826c1.216-.519,2.333-.954,3.413-1.467a13.022,13.022,0,0,1,6.4-1.192c1.355.072,2.718.012,4.074.075a5.561,5.561,0,0,1,1.718.348c1.189.459,2.321,1.07,3.521,1.5a12.747,12.747,0,0,1,3.789,2.009c1.434,1.149,2.849,2.324,4.232,3.534a11.313,11.313,0,0,1,2.954,4.172,35.3,35.3,0,0,1,1.262,3.36c.455,1.473.807,2.978,1.2,4.47v7.44c-.2.921-.382,1.848-.606,2.763a46.446,46.446,0,0,1-8.354,17.1c-2.717,3.581-6.105,6.543-9.309,9.669a11.4,11.4,0,0,1-2.368,2.007,97.447,97.447,0,0,1-9.164,4.663,34.512,34.512,0,0,1-7.718,2.359c-3.827.6-7.68,1.041-11.527,1.507-2.934.356-5.877.63-8.812.971a5.4,5.4,0,0,0-4.275,2.317,6.788,6.788,0,0,1-2.049,1.977c-1.293.87-2.554,1.786-3.839,2.667a2.082,2.082,0,0,0-.954,1.561c-.5,3.722-1.048,7.438-1.6,11.152a22.605,22.605,0,0,1-.543,2.7,2.445,2.445,0,0,1-2.11,1.87c-1.142.188-2.274.442-3.411.661-4.909.945-9.82,1.849-14.859,1.631a18.9,18.9,0,0,0-2.269.169c-1.591.125-3.181.309-4.774.359-2.478.077-4.96.012-7.437.1-6.149.208-12.281.854-18.446.742a11.513,11.513,0,0,0-2.3.417h-4.8a4.835,4.835,0,0,0-.887-.192c-.959-.031-1.924.042-2.877-.041-2.347-.205-4.686-.493-7.032-.713-2.9-.273-5.809-.5-8.713-.765-3.149-.285-4.826-2.115-4.857-5.258-.012-1.158-.047-2.316-.075-3.474-.066-2.749-.134-5.5-.2-8.351-1.58-.758-3.233-1.546-4.88-2.345a7.585,7.585,0,0,1-1.364-.739c-.977-.754-1.864-1.631-2.872-2.34a26.185,26.185,0,0,0-3.857-2.384,19.006,19.006,0,0,1-4.92-3.15c-1.056-.974-2.014-2.056-3.075-3.027-1-.911-2.17-1.642-3.087-2.62a43.061,43.061,0,0,1-6.349-8.237,116.931,116.931,0,0,1-8.06-17.878c-1.364-3.79-2.6-7.626-3.887-11.443a4.972,4.972,0,0,1-.232-.927c-.323-2.414-.681-4.824-.936-7.245-.359-3.413-.584-6.841-.971-10.252a13.356,13.356,0,0,0-1.991-6.213,1.668,1.668,0,0,1-.243-.9c.006-.757.059-1.516.136-2.27a4.483,4.483,0,0,1,.919-2.426c.721-.9,1.361-1.872,2.061-2.794a14.143,14.143,0,0,1,1.593-1.936,19.535,19.535,0,0,1,5.674-3.744,6.584,6.584,0,0,0,3.909-4.534,24.71,24.71,0,0,1,2.088-5.2c1.5-2.63,3.269-5.107,4.927-7.648.583-.892,1.173-1.78,1.781-2.7-.253-.168-.374-.266-.509-.336-3.685-1.91-7.353-3.853-11.064-5.71a19.272,19.272,0,0,1-5.065-3.57,22.733,22.733,0,0,0-3.193-2.89,14.771,14.771,0,0,1-5.513-7.351C67.705,119.386,67.254,117.9,66.759,116.439Zm9.22,64.4c0,.717-.042,1.216.007,1.7.356,3.5.6,7.014,1.139,10.484a54.332,54.332,0,0,0,2,8.97c1.3,3.849,2.958,7.581,4.592,11.306s3.362,7.418,5.179,11.059a23.384,23.384,0,0,0,2.727,4.06c1.745,2.183,3.654,4.234,5.406,6.412a24.373,24.373,0,0,0,6.158,5.636c1.769,1.091,3.518,2.211,5.278,3.315,2.131,1.338,4.345,2.563,6.37,4.045a24.362,24.362,0,0,0,4.54,2.623,53.009,53.009,0,0,0,11.838,4.108c.661.123,1.29.41,1.941.6a21.112,21.112,0,0,0,2.757.731,38.818,38.818,0,0,1,6.9,1.487,6.239,6.239,0,0,0,2.218.43,27.165,27.165,0,0,1,6.87.882,27.835,27.835,0,0,0,7.95.745c1.51-.122,3.036-.037,4.554-.074a51.94,51.94,0,0,0,6.1-.225,91.975,91.975,0,0,0,16.325-3.723,51.121,51.121,0,0,0,15.789-8.061c4.944-3.9,9.846-7.77,13.848-12.671,2.251-2.757,4.583-5.461,6.136-8.7,1.536-3.2,3.143-6.387,4.433-9.691,2-5.127,3.774-10.345,5.622-15.533a48.461,48.461,0,0,0,2.531-11.434c.3-2.939.661-5.871.995-8.806a1.641,1.641,0,0,0-.609-1.66c-3.486,1.511-7,3.04-10.512,4.55a20.672,20.672,0,0,1-2.9,1.122c-7.264,1.884-14.532,3.759-21.82,5.548-1.576.386-3.255.33-4.86.626-2.236.411-4.447.961-6.668,1.451a12.987,12.987,0,0,1-5.684.441,4.9,4.9,0,0,0-1.523.163l.135.578c-2.018.25-3.991.541-5.974.73-4.054.385-8.085,1.1-12.185.861a4.055,4.055,0,0,0-1.3.16,11.9,11.9,0,0,1-3.8.256c-2.4-.1-4.792-.142-7.188-.2-2.915-.069-5.834-.078-8.746-.211-1.511-.069-3.009-.4-4.52-.522-2.309-.185-4.626-.273-6.937-.433-2.232-.154-4.459-.385-6.692-.511-2.313-.131-4.654,0-6.941-.3-3.03-.4-6.059-.348-9.091-.472a29.912,29.912,0,0,1-4.018-.54c-1.137-.2-2.242-.632-3.384-.756a18.878,18.878,0,0,1-4.629-1.169,147.72,147.72,0,0,1-18.195-8.266C77.478,181.613,76.816,181.277,75.979,180.84Zm64.436-38.931,0-.271q3.956,0,7.911,0a5.834,5.834,0,0,0,1.074-.08c.949-.183,1.231-.54,1.125-1.493a10.407,10.407,0,0,0-.337-1.518c-.982-3.69-.071-6.229,3.045-8.442a11.917,11.917,0,0,1,4.194-1.991,15.215,15.215,0,0,0,2.533-.714,18.951,18.951,0,0,1,6.14-1.489c4.86-.347,9.717-.776,14.583-1a58.223,58.223,0,0,1,11.823.784c.462.073.918.105,1.186-.328a18.46,18.46,0,0,0,2.156-3.712A21.717,21.717,0,0,0,197.114,112a22.618,22.618,0,0,0-7.377-14.39c-2.041-1.847-4.249-3.509-6.395-5.239a6.25,6.25,0,0,1-2.557-6.426c.488-2.408-.019-4.777-.1-7.159a4.4,4.4,0,0,0-.752-1.864c-.376-.655-.883-1.233-1.322-1.853a6.028,6.028,0,0,0-3.281-2.29,18.946,18.946,0,0,0-12.01.089,8.209,8.209,0,0,0-4.7,3.679c-.6,1.039-1.3,2.02-1.84,3.086a28.65,28.65,0,0,0-1.193,2.993c-.51,1.38-.994,2.77-1.488,4.157a1.836,1.836,0,0,1-2.027,1.307c-2.237-.072-4.476-.048-6.713-.095-2.157-.046-4.321-.033-6.467-.222a45.813,45.813,0,0,0-11.466.483,45.8,45.8,0,0,1-4.875.594,2.655,2.655,0,0,1-3.007-2.814,13.527,13.527,0,0,0-.342-2.353c-.325-1.358-.717-2.7-1.1-4.042a4.572,4.572,0,0,0-1.584-2.49,15.419,15.419,0,0,0-6.095-2.955,4.831,4.831,0,0,0-2.117,0,28.53,28.53,0,0,0-7.52,3.046A6.838,6.838,0,0,0,97.539,81.4c-.68,2.563-2.144,4.794-2.947,7.308a3.931,3.931,0,0,1-3.208,2.578,9.663,9.663,0,0,0-2.706.917,39.79,39.79,0,0,0-5.563,3.5c-2.351,1.909-4.417,4.164-6.7,6.159-3.759,3.278-4.773,7.8-5.787,12.336a2.536,2.536,0,0,0-.024.6c.089,4.118,1.414,7.708,4.715,10.321,4.607,3.645,9.289,7.187,14.817,9.4a48.445,48.445,0,0,0,5.937,2.214c2.315.592,4.573,1.406,6.876,2.047a21.326,21.326,0,0,0,3.163.56c1.188.144,2.4.131,3.58.3,2.926.413,5.837.942,8.767,1.325,2.294.3,4.61.421,6.91.679a11.527,11.527,0,0,0,3.213-.006,9.744,9.744,0,0,1,2.256.085c.516.038,1.029.175,1.544.179C135.058,141.919,137.736,141.909,140.415,141.909Zm21.069,6.81a3.106,3.106,0,0,0-2.26-2.7c-2.4-.846-4.817-1.74-7.447-1.54-1.194.09-2.393.141-3.584.263a2.9,2.9,0,0,0-.975.4,22.083,22.083,0,0,1-2.316,1.229,15.708,15.708,0,0,0-5.3,3.412c-2.233,2.118-4.481,4.221-6.668,6.385a53.586,53.586,0,0,1-10.224,7.5,22.959,22.959,0,0,1-13.149,2.912,6.958,6.958,0,0,1-3.542-1.11c.334-1.09.782-1.4,1.882-1.31a15.214,15.214,0,0,0,5.566-.576,33.658,33.658,0,0,0,14.377-8.531,84.818,84.818,0,0,1,7.7-7.2,7.124,7.124,0,0,1,.8-.442c-1.83-.742-3.306-1.186-4.962-.789a4.814,4.814,0,0,1-3.071-.06,5.869,5.869,0,0,0-2.708-.312,13.32,13.32,0,0,1-1.787-.006c-1.712-.144-3.421-.326-5.13-.491a106,106,0,0,1-14.419-2.323c-2.477-.59-4.958-1.162-7.42-1.738a2.356,2.356,0,0,0-.263.329q-3.131,6.068-6.247,12.14a6.6,6.6,0,0,0-.491,1.347c-.555,2.165-1.127,4.326-1.62,6.5a39.631,39.631,0,0,0-1.034,10.7c.136,2.823,1.308,4.841,4.058,5.9,2.307.888,4.545,1.955,6.819,2.931a9.715,9.715,0,0,0,1.57.579c2.8.657,5.592,1.329,8.406,1.9a18.706,18.706,0,0,0,9.247-.295c2.025-.607,4.078-1.123,6.092-1.765a119.382,119.382,0,0,0,14.686-5.8,10.357,10.357,0,0,0,3.41-2.587,24.088,24.088,0,0,1,6.108-4.981,12.8,12.8,0,0,1,4.013-1.471,45.914,45.914,0,0,1,5.717-.5,5.007,5.007,0,0,0,3.423-1.5,1.774,1.774,0,0,0-.805-3.145,9.357,9.357,0,0,0-4.975.062c-.373.1-.748.2-1.154.309l-1.179-2.013a8.241,8.241,0,0,1,4.56-1.886,7.217,7.217,0,0,0,3.4-1.665,1.234,1.234,0,0,0,.523-1.472,2.047,2.047,0,0,0-1.194-.831,5.294,5.294,0,0,0-1.543-.027c-1.8.033-3.593.113-5.389.1-1.171-.011-1.574-.629-1.206-1.738a2.685,2.685,0,0,1,2.214-1.789q2.873-.6,5.737-1.227A2.25,2.25,0,0,0,161.484,148.719Zm78.364,41.339c.742-.094,1.371-.177,2-.254a12.941,12.941,0,0,1,13.238,7.282c.254.541.508,1.084.741,1.634a6.494,6.494,0,0,1,.191,4.672,42.84,42.84,0,0,1-7.562,13.783,8.81,8.81,0,0,1-1.807,1.739c-3.871,2.692-7.779,5.325-12.4,6.615-.8.225-1.563.61-2.368.832a8.508,8.508,0,0,1-2.32.413A2.571,2.571,0,0,0,227.248,228q-3.372,4.807-6.759,9.6c-.175.25-.31.528-.521.892,1.871,0,3.616.091,5.347-.027a12.321,12.321,0,0,1,4.6.112c1.641-1.174,3.564-.852,5.35-1.1a9.942,9.942,0,0,0,2.2-.37c1.519-.575,2.949-1.442,4.66-1.411a1.816,1.816,0,0,0,.764-.321,61.3,61.3,0,0,0,11.4-7.7,64.093,64.093,0,0,0,6.331-7.029,27.066,27.066,0,0,0,5.2-8.144c1.213-3.335,2.368-6.7,3.419-10.086a11.322,11.322,0,0,0,.056-7.748,9.4,9.4,0,0,1-.451-2.346,10.91,10.91,0,0,0-2.3-5.579,19.173,19.173,0,0,0-9.922-6.593c-5.1-1.474-10.042-.356-14.854,1.5a2.456,2.456,0,0,0-1.614,2.552c.01.677-.041,1.354-.079,2.03C240.007,187.5,239.927,188.76,239.848,190.058Zm-80.239-19c1.024.512,1.956.965,2.876,1.44a12.361,12.361,0,0,0,6.606,1.324c2.388-.151,4.785-.175,7.179-.221a8.675,8.675,0,0,0,3.852-.7,4.794,4.794,0,0,1,1.386-.337c1.3-.2,2.626-.3,3.909-.589a19.933,19.933,0,0,0,6.779-3.474,4.873,4.873,0,0,0,2.116-3.089c.712-3.44,1.554-6.867,2.011-10.343.672-5.106,1.059-10.25,1.553-15.379a10.147,10.147,0,0,0-.067-1.376c-.517.35-.86.548-1.165.794a18.913,18.913,0,0,1-6.133,3.178,32.917,32.917,0,0,1-11.047,1.869c-2.357-.054-4.715-.081-7.071-.168-2.593-.1-5.184-.245-7.775-.373-.857-.042-1.714-.09-2.64-.14a3.663,3.663,0,0,0,1.147,2.329,3.257,3.257,0,0,1,.814,1.418c.291.867.467,1.772.7,2.66a1.493,1.493,0,0,1-.409,1.541c-.286.277-.614.512-.9.788a1.364,1.364,0,0,0-.2,2.1,4.052,4.052,0,0,1-.613,5.034c-.254.23-.526.44-.724.6a29.123,29.123,0,0,1,2.152,2.629,4.31,4.31,0,0,1-.216,5.255,8.292,8.292,0,0,1-1.6,1.606C161.37,170.024,160.523,170.483,159.609,171.061Zm40.431,83.76a2.9,2.9,0,0,0-2.476.46,65.655,65.655,0,0,1-16.44,5.782c-3.243.658-6.482,1.343-9.73,1.979a13.214,13.214,0,0,1-2.146.161c-1.395.042-2.8-.05-4.18.11a7,7,0,0,1-3.038-.056,5.853,5.853,0,0,0-1.658-.051c-1.394-.013-2.794.05-4.182-.055-1.51-.115-3.01-.374-4.512-.591a54.877,54.877,0,0,1-6.618-1.034,54.348,54.348,0,0,0-9.671-1.6,4.17,4.17,0,0,1-1.7-.478,7.6,7.6,0,0,0-3.486-1.133,4.125,4.125,0,0,1-1.374-.388c-1.572-.681-3.109-1.484-4.838-1.085-1.2-1.55-1.747-1.717-4.04-1.316Q120.472,260.765,121,266a1.394,1.394,0,0,0,1.373,1.392c1.1.189,2.191.445,3.3.587a25.412,25.412,0,0,0,2.733.151c.993.021,2-.084,2.98,0,1.829.164,3.644.473,5.473.637a41.512,41.512,0,0,0,4.417.18c1.314-.022,2.624-.278,3.939-.32,7.984-.257,15.969-.48,23.953-.721a10.426,10.426,0,0,0,1.178-.141,13.222,13.222,0,0,1,1.639-.249c1.835-.032,3.673.032,5.507-.027,1.314-.042,2.625-.219,3.937-.342,2.464-.231,4.938-.392,7.39-.72a54.955,54.955,0,0,1,7.6-.959,2.12,2.12,0,0,0,2.095-1.959c.28-1.367.493-2.749.735-4.124Zm19.2-94a3.016,3.016,0,0,1-3.4,2.035c-1.489-.288-2.979-.582-4.45-.948s-2.923-.8-4.37-1.248c-1.475-.458-2.283-.183-2.919,1.217a6.489,6.489,0,0,0-.549,2.062,2.994,2.994,0,0,0,2.246,3.374,16.846,16.846,0,0,0,2.463.473,16.108,16.108,0,0,1,1.892.272c3.23.946,6.52.172,9.774.376a3.384,3.384,0,0,0,1.055-.211c2.346-.651,4.7-1.287,7.029-1.988a3.5,3.5,0,0,0,1.413-.85,19.33,19.33,0,0,0,3.45-4.863,4.423,4.423,0,0,0-.614-5.323c-.154-.183-.3-.371-.451-.56-1.456-1.854-2.954-3.676-4.349-5.575a11.767,11.767,0,0,0-2.761-2.8c-.788-.545-1.614-1.036-2.4-1.587a3.5,3.5,0,0,0-1.8-.537,21.334,21.334,0,0,1-3.279-.576,18.036,18.036,0,0,1-2.217-.9,8.8,8.8,0,0,0-6.1-.219,2.526,2.526,0,0,0-1.28,4.043,5.873,5.873,0,0,0,2.992,1.649c1.858.44,3.7.962,5.511,1.58,1.375.472,1.911,1.611,1.7,3.179-.268-.036-.54-.057-.806-.111a10.556,10.556,0,0,0-2.567-.5,8.091,8.091,0,0,1-4.019-.969,8.046,8.046,0,0,0-1.768-.721,3.414,3.414,0,0,0-1.862.029,5.571,5.571,0,0,0-2.7,2.466,1.432,1.432,0,0,0,.409,2.106,6.807,6.807,0,0,0,3.252,1.7c2.273.438,4.546.878,6.821,1.306,1.126.212,2.325.23,3.028,1.39.109.179.419.223.606.369C218.572,160.231,218.887,160.523,219.238,160.825Zm-22.261-29.146a3.272,3.272,0,0,0-2.64-1.3c-2.137-.284-4.286-.5-6.408-.869a31.524,31.524,0,0,0-6.68-.452c-3.829.157-7.654.411-11.484.523a33.285,33.285,0,0,0-9.059,1.523,29.883,29.883,0,0,1-3.349.9,4.959,4.959,0,0,0-3.509,2.979,1.128,1.128,0,0,0,.237,1.523,8.206,8.206,0,0,0,4.272,2q3.27.357,6.524.865a59.925,59.925,0,0,0,13.254.566,77.468,77.468,0,0,0,8.736-1.417,17.663,17.663,0,0,0,7.836-3.669A5.845,5.845,0,0,0,196.977,131.679Zm33.142,90.394a11.274,11.274,0,0,0,1.135-.291c1.67-.659,3.327-1.353,5-2,3.431-1.323,6.111-3.732,8.839-6.072a3.8,3.8,0,0,0,.638-.713c.956-1.377,1.925-2.747,2.837-4.154a20.557,20.557,0,0,0,2.944-9.636,2.005,2.005,0,0,0-.626-1.74c-1.118-1.026-2.223-2.068-3.376-3.054a4.733,4.733,0,0,0-3.774-1.18c-.832.1-1.663.214-2.5.282a2.484,2.484,0,0,0-2.419,2.2c-.561,2.366-1.211,4.716-1.927,7.04-1.4,4.536-2.81,9.067-4.326,13.563C231.934,218.2,231.019,219.985,230.119,222.073ZM201.5,140.961c1.054-.088,2.045-.15,3.029-.263a5.435,5.435,0,0,0,1.272-.316,14.513,14.513,0,0,1,7.856-.946c1.3.233,1.866-.313,1.892-1.639a5.351,5.351,0,0,0-.154-1.176,4.877,4.877,0,0,0-2.033-2.568,5.821,5.821,0,0,0-6-1.331c-1.691.58-3.324,1.324-5,1.959a1.706,1.706,0,0,0-1.209,1.945C201.276,138.009,201.376,139.394,201.5,140.961ZM82.922,164.047a3.648,3.648,0,0,0-.532.122,13.381,13.381,0,0,0-7.2,8.514,6.748,6.748,0,0,0-.26,1.89c-.018,1.187.728,1.738,1.788,1.275,1.607-.7,3.176-1.491,4.754-2.26a1.7,1.7,0,0,0,1-1.522C82.619,169.441,82.767,166.815,82.922,164.047Zm148.88,5.445,2.024,4.053c2.3-1.754,2.658-5.372.893-6.8ZM204.055,144.14l-1.08-.819a2.349,2.349,0,0,0-1.455,2.326c.009.557-.079,1.116-.067,1.673.026,1.122.09,2.244.148,3.566l3.185-2.16c-.207-.445-.387-.838-.574-1.228-.207-.432-.436-.853-.627-1.292C203.125,145.149,203.149,145.059,204.055,144.14Zm-4.881,24.878,1.863-.817-1.371-2.624C199.2,166.79,198.169,167.664,199.174,169.018Zm1.6-9.424c1.521.144,1.948-.209,2.092-1.646L201.2,156.9Z"/><path class="cls-1" d="M75.979,180.84c.837.437,1.5.773,2.153,1.125a147.72,147.72,0,0,0,18.195,8.266,18.878,18.878,0,0,0,4.629,1.169c1.142.124,2.247.553,3.384.756a29.912,29.912,0,0,0,4.018.54c3.032.124,6.061.075,9.091.472,2.287.3,4.628.17,6.941.3,2.233.126,4.46.357,6.692.511,2.311.16,4.628.248,6.937.433,1.511.12,3.009.453,4.52.522,2.912.133,5.831.142,8.746.211,2.4.056,4.793.1,7.188.2a11.9,11.9,0,0,0,3.8-.256,4.055,4.055,0,0,1,1.3-.16c4.1.235,8.131-.476,12.185-.861,1.983-.189,3.956-.48,5.974-.73l-.135-.578a4.9,4.9,0,0,1,1.523-.163,12.987,12.987,0,0,0,5.684-.441c2.221-.49,4.432-1.04,6.668-1.451,1.605-.3,3.284-.24,4.86-.626,7.288-1.789,14.556-3.664,21.82-5.548a20.672,20.672,0,0,0,2.9-1.122c3.517-1.51,7.026-3.039,10.512-4.55a1.641,1.641,0,0,1,.609,1.66c-.334,2.935-.7,5.867-.995,8.806a48.461,48.461,0,0,1-2.531,11.434c-1.848,5.188-3.619,10.406-5.622,15.533-1.29,3.3-2.9,6.487-4.433,9.691-1.553,3.237-3.885,5.941-6.136,8.7-4,4.9-8.9,8.772-13.848,12.671a51.121,51.121,0,0,1-15.789,8.061,91.975,91.975,0,0,1-16.325,3.723,51.94,51.94,0,0,1-6.1.225c-1.518.037-3.044-.048-4.554.074a27.835,27.835,0,0,1-7.95-.745,27.165,27.165,0,0,0-6.87-.882,6.239,6.239,0,0,1-2.218-.43,38.818,38.818,0,0,0-6.9-1.487,21.112,21.112,0,0,1-2.757-.731c-.651-.186-1.28-.473-1.941-.6a53.009,53.009,0,0,1-11.838-4.108,24.362,24.362,0,0,1-4.54-2.623c-2.025-1.482-4.239-2.707-6.37-4.045-1.76-1.1-3.509-2.224-5.278-3.315a24.373,24.373,0,0,1-6.158-5.636c-1.752-2.178-3.661-4.229-5.406-6.412a23.384,23.384,0,0,1-2.727-4.06q-2.726-5.461-5.179-11.059c-1.634-3.725-3.3-7.457-4.592-11.306a54.332,54.332,0,0,1-2-8.97c-.539-3.47-.783-6.986-1.139-10.484C75.937,182.056,75.979,181.557,75.979,180.84Z"/><path class="cls-2" d="M140.415,141.909c-2.679,0-5.357.01-8.036-.008-.515,0-1.028-.141-1.544-.179a9.744,9.744,0,0,0-2.256-.085,11.527,11.527,0,0,1-3.213.006c-2.3-.258-4.616-.379-6.91-.679-2.93-.383-5.841-.912-8.767-1.325-1.184-.167-2.392-.154-3.58-.3a21.326,21.326,0,0,1-3.163-.56c-2.3-.641-4.561-1.455-6.876-2.047a48.445,48.445,0,0,1-5.937-2.214c-5.528-2.213-10.21-5.755-14.817-9.4-3.3-2.613-4.626-6.2-4.715-10.321a2.536,2.536,0,0,1,.024-.6c1.014-4.539,2.028-9.058,5.787-12.336,2.286-1.995,4.352-4.25,6.7-6.159a39.79,39.79,0,0,1,5.563-3.5,9.663,9.663,0,0,1,2.706-.917,3.931,3.931,0,0,0,3.208-2.578c.8-2.514,2.267-4.745,2.947-7.308a6.838,6.838,0,0,1,3.247-4.151,28.53,28.53,0,0,1,7.52-3.046,4.831,4.831,0,0,1,2.117,0,15.419,15.419,0,0,1,6.095,2.955,4.572,4.572,0,0,1,1.584,2.49c.387,1.342.779,2.684,1.1,4.042a13.527,13.527,0,0,1,.342,2.353,2.655,2.655,0,0,0,3.007,2.814,45.8,45.8,0,0,0,4.875-.594,45.813,45.813,0,0,1,11.466-.483c2.146.189,4.31.176,6.467.222,2.237.047,4.476.023,6.713.095a1.836,1.836,0,0,0,2.027-1.307c.494-1.387.978-2.777,1.488-4.157a28.65,28.65,0,0,1,1.193-2.993c.539-1.066,1.243-2.047,1.84-3.086a8.209,8.209,0,0,1,4.7-3.679,18.946,18.946,0,0,1,12.01-.089,6.028,6.028,0,0,1,3.281,2.29c.439.62.946,1.2,1.322,1.853a4.4,4.4,0,0,1,.752,1.864c.08,2.382.587,4.751.1,7.159a6.25,6.25,0,0,0,2.557,6.426c2.146,1.73,4.354,3.392,6.395,5.239A22.618,22.618,0,0,1,197.114,112a21.717,21.717,0,0,1-1.268,9.648,18.46,18.46,0,0,1-2.156,3.712c-.268.433-.724.4-1.186.328a58.223,58.223,0,0,0-11.823-.784c-4.866.225-9.723.654-14.583,1a18.951,18.951,0,0,0-6.14,1.489,15.215,15.215,0,0,1-2.533.714,11.917,11.917,0,0,0-4.194,1.991c-3.116,2.213-4.027,4.752-3.045,8.442a10.407,10.407,0,0,1,.337,1.518c.106.953-.176,1.31-1.125,1.493a5.834,5.834,0,0,1-1.074.08q-3.956.009-7.911,0ZM93.621,108.565a3.159,3.159,0,0,0,.45,4.564,40.818,40.818,0,0,0,15.892,8.589c3.7.962,7.517,1.45,11.278,2.173a35.97,35.97,0,0,0,9.9.465c3.263-.278,6.53-.519,9.789-.845a76.992,76.992,0,0,0,8.2-1.023c3.626-.764,7.194-1.816,10.765-2.824a18.181,18.181,0,0,0,3.9-1.5c3.871-2.152,7.692-4.4,11.5-6.662,1.349-.8,1.554-1.7.969-3.17-.5-1.256-.992-1.5-2.2-.918-1.582.76-3.135,1.582-4.687,2.4a57.954,57.954,0,0,1-8.278,3.749,116.7,116.7,0,0,1-28.815,5.727c-4.088.322-8.224.046-12.339.018a6.2,6.2,0,0,1-1.409-.252q-3.892-.959-7.78-1.938a64.776,64.776,0,0,1-6.478-1.7c-2.577-.943-5.043-2.194-7.55-3.328a4.74,4.74,0,0,1-2.348-2.3C94.169,109.383,93.892,109,93.621,108.565Zm18.8-20.771c.293-1.434-2.558-4.033-4.036-4.006-1.919.037-3.754,2.259-3.976,4.6-.119,1.256,2.4,3.671,3.637,3.688A4.619,4.619,0,0,0,112.421,87.794Zm55.08,2.014a4.636,4.636,0,0,0,4.393-3.687c.28-1.773-2.211-4.523-4.023-4.426a2.5,2.5,0,0,0-.811.193,4.876,4.876,0,0,0-2.873,3.719c-.367,1.529.584,2.382,1.548,3.241a4.961,4.961,0,0,0,.975.687A4.174,4.174,0,0,0,167.5,89.808Zm6.855-11.663a6.015,6.015,0,0,0-.822-.874,5.445,5.445,0,0,0-3.152-.921c-1.189-.03-2.377-.123-3.562-.22a2.646,2.646,0,0,0-2.975,2.1.574.574,0,0,0,.061.1,2.331,2.331,0,0,0,1.911.715c2.1,0,4.21.123,6.312.241A2.3,2.3,0,0,0,174.356,78.145ZM145,105.671a3.781,3.781,0,0,0,3.16-2.712,1.579,1.579,0,0,0,.008-.589,3.4,3.4,0,0,0-3.328-1.99,3.8,3.8,0,0,0-2.508,2.071,2.123,2.123,0,0,0-.174,1.258C142.335,104.486,144.155,105.672,145,105.671Zm-13.491-2.463c.041-1.135-1.53-3.031-2.509-3.027a3.735,3.735,0,0,0-2.993,3.156,2.69,2.69,0,0,0,2.56,2.537A3.226,3.226,0,0,0,131.513,103.208ZM103.262,83.05c.593-.266,1.136-.495,1.665-.751a8.275,8.275,0,0,1,5.171-1.06,1.054,1.054,0,0,0,1.238-.693,3.3,3.3,0,0,0-2.98-1.9,12.4,12.4,0,0,0-4.675,1.723C102.632,81.012,102.524,81.74,103.262,83.05Z"/><path class="cls-2" d="M161.484,148.719a2.25,2.25,0,0,1-1.762,1.072q-2.865.627-5.737,1.227a2.685,2.685,0,0,0-2.214,1.789c-.368,1.109.035,1.727,1.206,1.738,1.8.017,3.592-.063,5.389-.1a5.294,5.294,0,0,1,1.543.027,2.047,2.047,0,0,1,1.194.831,1.234,1.234,0,0,1-.523,1.472,7.217,7.217,0,0,1-3.4,1.665,8.241,8.241,0,0,0-4.56,1.886l1.179,2.013c.406-.109.781-.2,1.154-.309a9.357,9.357,0,0,1,4.975-.062,1.774,1.774,0,0,1,.805,3.145,5.007,5.007,0,0,1-3.423,1.5,45.914,45.914,0,0,0-5.717.5,12.8,12.8,0,0,0-4.013,1.471,24.088,24.088,0,0,0-6.108,4.981,10.357,10.357,0,0,1-3.41,2.587,119.382,119.382,0,0,1-14.686,5.8c-2.014.642-4.067,1.158-6.092,1.765a18.706,18.706,0,0,1-9.247.295c-2.814-.575-5.609-1.247-8.406-1.9a9.715,9.715,0,0,1-1.57-.579c-2.274-.976-4.512-2.043-6.819-2.931-2.75-1.058-3.922-3.076-4.058-5.9A39.631,39.631,0,0,1,88.219,162c.493-2.179,1.065-4.34,1.62-6.5a6.6,6.6,0,0,1,.491-1.347q3.108-6.078,6.247-12.14a2.356,2.356,0,0,1,.263-.329c2.462.576,4.943,1.148,7.42,1.738a106,106,0,0,0,14.419,2.323c1.709.165,3.418.347,5.13.491a13.32,13.32,0,0,0,1.787.006,5.869,5.869,0,0,1,2.708.312,4.814,4.814,0,0,0,3.071.06c1.656-.4,3.132.047,4.962.789a7.124,7.124,0,0,0-.8.442,84.818,84.818,0,0,0-7.7,7.2,33.658,33.658,0,0,1-14.377,8.531,15.214,15.214,0,0,1-5.566.576c-1.1-.093-1.548.22-1.882,1.31a6.958,6.958,0,0,0,3.542,1.11,22.959,22.959,0,0,0,13.149-2.912,53.586,53.586,0,0,0,10.224-7.5c2.187-2.164,4.435-4.267,6.668-6.385a15.708,15.708,0,0,1,5.3-3.412,22.083,22.083,0,0,0,2.316-1.229,2.9,2.9,0,0,1,.975-.4c1.191-.122,2.39-.173,3.584-.263,2.63-.2,5.045.694,7.447,1.54A3.106,3.106,0,0,1,161.484,148.719Z"/><path class="cls-1" d="M239.848,190.058c.079-1.3.159-2.562.23-3.826.038-.676.089-1.353.079-2.03a2.456,2.456,0,0,1,1.614-2.552c4.812-1.857,9.754-2.975,14.854-1.5a19.173,19.173,0,0,1,9.922,6.593,10.91,10.91,0,0,1,2.3,5.579,9.4,9.4,0,0,0,.451,2.346,11.322,11.322,0,0,1-.056,7.748c-1.051,3.39-2.206,6.751-3.419,10.086a27.066,27.066,0,0,1-5.2,8.144,64.093,64.093,0,0,1-6.331,7.029,61.3,61.3,0,0,1-11.4,7.7,1.816,1.816,0,0,1-.764.321c-1.711-.031-3.141.836-4.66,1.411a9.942,9.942,0,0,1-2.2.37c-1.786.251-3.709-.071-5.35,1.1a12.321,12.321,0,0,0-4.6-.112c-1.731.118-3.476.027-5.347.027.211-.364.346-.642.521-.892q3.376-4.8,6.759-9.6a2.571,2.571,0,0,1,2.309-1.222,8.508,8.508,0,0,0,2.32-.413c.8-.222,1.564-.607,2.368-.832,4.625-1.29,8.533-3.923,12.4-6.615a8.81,8.81,0,0,0,1.807-1.739,42.84,42.84,0,0,0,7.562-13.783,6.494,6.494,0,0,0-.191-4.672c-.233-.55-.487-1.093-.741-1.634a12.941,12.941,0,0,0-13.238-7.282C241.219,189.881,240.59,189.964,239.848,190.058Z"/><path class="cls-2" d="M159.609,171.061c.914-.578,1.761-1.037,2.516-1.615a8.292,8.292,0,0,0,1.6-1.606,4.31,4.31,0,0,0,.216-5.255,29.123,29.123,0,0,0-2.152-2.629c.2-.165.47-.375.724-.6a4.052,4.052,0,0,0,.613-5.034,1.364,1.364,0,0,1,.2-2.1c.287-.276.615-.511.9-.788a1.493,1.493,0,0,0,.409-1.541c-.23-.888-.406-1.793-.7-2.66a3.257,3.257,0,0,0-.814-1.418,3.663,3.663,0,0,1-1.147-2.329c.926.05,1.783.1,2.64.14,2.591.128,5.182.277,7.775.373,2.356.087,4.714.114,7.071.168a32.917,32.917,0,0,0,11.047-1.869,18.913,18.913,0,0,0,6.133-3.178c.305-.246.648-.444,1.165-.794a10.147,10.147,0,0,1,.067,1.376c-.494,5.129-.881,10.273-1.553,15.379-.457,3.476-1.3,6.9-2.011,10.343a4.873,4.873,0,0,1-2.116,3.089,19.933,19.933,0,0,1-6.779,3.474c-1.283.287-2.607.384-3.909.589a4.794,4.794,0,0,0-1.386.337,8.675,8.675,0,0,1-3.852.7c-2.394.046-4.791.07-7.179.221a12.361,12.361,0,0,1-6.606-1.324C161.565,172.026,160.633,171.573,159.609,171.061Z"/><path class="cls-2" d="M200.04,254.821l-.8,4.569c-.242,1.375-.455,2.757-.735,4.124a2.12,2.12,0,0,1-2.095,1.959,54.955,54.955,0,0,0-7.6.959c-2.452.328-4.926.489-7.39.72-1.312.123-2.623.3-3.937.342-1.834.059-3.672-.005-5.507.027a13.222,13.222,0,0,0-1.639.249,10.426,10.426,0,0,1-1.178.141c-7.984.241-15.969.464-23.953.721-1.315.042-2.625.3-3.939.32a41.512,41.512,0,0,1-4.417-.18c-1.829-.164-3.644-.473-5.473-.637-.985-.089-1.987.016-2.98,0a25.412,25.412,0,0,1-2.733-.151c-1.105-.142-2.2-.4-3.3-.587A1.394,1.394,0,0,1,121,266q-.532-5.235-1.044-10.474c2.293-.4,2.84-.234,4.04,1.316,1.729-.4,3.266.4,4.838,1.085a4.125,4.125,0,0,0,1.374.388,7.6,7.6,0,0,1,3.486,1.133,4.17,4.17,0,0,0,1.7.478,54.348,54.348,0,0,1,9.671,1.6,54.877,54.877,0,0,0,6.618,1.034c1.5.217,3,.476,4.512.591,1.388.1,2.788.042,4.182.055a5.853,5.853,0,0,1,1.658.051,7,7,0,0,0,3.038.056c1.379-.16,2.785-.068,4.18-.11a13.214,13.214,0,0,0,2.146-.161c3.248-.636,6.487-1.321,9.73-1.979a65.655,65.655,0,0,0,16.44-5.782A2.9,2.9,0,0,1,200.04,254.821Z"/><path class="cls-2" d="M219.238,160.825c-.351-.3-.666-.594-1-.857-.187-.146-.5-.19-.606-.369-.7-1.16-1.9-1.178-3.028-1.39-2.275-.428-4.548-.868-6.821-1.306a6.807,6.807,0,0,1-3.252-1.7,1.432,1.432,0,0,1-.409-2.106,5.571,5.571,0,0,1,2.7-2.466,3.414,3.414,0,0,1,1.862-.029,8.046,8.046,0,0,1,1.768.721,8.091,8.091,0,0,0,4.019.969,10.556,10.556,0,0,1,2.567.5c.266.054.538.075.806.111.209-1.568-.327-2.707-1.7-3.179-1.806-.618-3.653-1.14-5.511-1.58a5.873,5.873,0,0,1-2.992-1.649,2.526,2.526,0,0,1,1.28-4.043,8.8,8.8,0,0,1,6.1.219,18.036,18.036,0,0,0,2.217.9,21.334,21.334,0,0,0,3.279.576,3.5,3.5,0,0,1,1.8.537c.784.551,1.61,1.042,2.4,1.587a11.767,11.767,0,0,1,2.761,2.8c1.4,1.9,2.893,3.721,4.349,5.575.148.189.3.377.451.56a4.423,4.423,0,0,1,.614,5.323,19.33,19.33,0,0,1-3.45,4.863,3.5,3.5,0,0,1-1.413.85c-2.331.7-4.683,1.337-7.029,1.988a3.384,3.384,0,0,1-1.055.211c-3.254-.2-6.544.57-9.774-.376a16.108,16.108,0,0,0-1.892-.272,16.846,16.846,0,0,1-2.463-.473,2.994,2.994,0,0,1-2.246-3.374,6.489,6.489,0,0,1,.549-2.062c.636-1.4,1.444-1.675,2.919-1.217,1.447.449,2.9.882,4.37,1.248s2.961.66,4.45.948A3.016,3.016,0,0,0,219.238,160.825Z"/><path class="cls-2" d="M196.977,131.679a5.845,5.845,0,0,1-2.27,3.17,17.663,17.663,0,0,1-7.836,3.669,77.468,77.468,0,0,1-8.736,1.417,59.925,59.925,0,0,1-13.254-.566q-3.252-.505-6.524-.865a8.206,8.206,0,0,1-4.272-2,1.128,1.128,0,0,1-.237-1.523A4.959,4.959,0,0,1,157.357,132a29.883,29.883,0,0,0,3.349-.9,33.285,33.285,0,0,1,9.059-1.523c3.83-.112,7.655-.366,11.484-.523a31.524,31.524,0,0,1,6.68.452c2.122.367,4.271.585,6.408.869A3.272,3.272,0,0,1,196.977,131.679Z"/><path class="cls-2" d="M201.5,140.961c-.122-1.567-.222-2.952-.341-4.335a1.706,1.706,0,0,1,1.209-1.945c1.672-.635,3.3-1.379,5-1.959a5.821,5.821,0,0,1,6,1.331,4.877,4.877,0,0,1,2.033,2.568,5.351,5.351,0,0,1,.154,1.176c-.026,1.326-.593,1.872-1.892,1.639a14.513,14.513,0,0,0-7.856.946,5.435,5.435,0,0,1-1.272.316C203.543,140.811,202.552,140.873,201.5,140.961Z"/><path class="cls-2" d="M82.922,164.047c-.155,2.768-.3,5.394-.45,8.019a1.7,1.7,0,0,1-1,1.522c-1.578.769-3.147,1.558-4.754,2.26-1.06.463-1.806-.088-1.788-1.275a6.748,6.748,0,0,1,.26-1.89,13.381,13.381,0,0,1,7.2-8.514A3.648,3.648,0,0,1,82.922,164.047Z"/><path class="cls-2" d="M231.8,169.492l2.917-2.743c1.765,1.424,1.41,5.042-.893,6.8Z"/><path class="cls-2" d="M204.055,144.14c-.906.919-.93,1.009-.47,2.066.191.439.42.86.627,1.292.187.39.367.783.574,1.228l-3.185,2.16c-.058-1.322-.122-2.444-.148-3.566-.012-.557.076-1.116.067-1.673a2.349,2.349,0,0,1,1.455-2.326Z"/><path class="cls-2" d="M199.174,169.018c-1-1.354.027-2.228.492-3.441l1.371,2.624Z"/><path class="cls-2" d="M200.772,159.594l.423-2.7,1.669,1.051C202.72,159.385,202.293,159.738,200.772,159.594Z"/><path d="M93.621,108.565c.271.439.548.818.752,1.233a4.74,4.74,0,0,0,2.348,2.3c2.507,1.134,4.973,2.385,7.55,3.328a64.776,64.776,0,0,0,6.478,1.7q3.887.978,7.78,1.938a6.2,6.2,0,0,0,1.409.252c4.115.028,8.251.3,12.339-.018a116.7,116.7,0,0,0,28.815-5.727,57.954,57.954,0,0,0,8.278-3.749c1.552-.821,3.1-1.643,4.687-2.4,1.207-.58,1.7-.338,2.2.918.585,1.472.38,2.368-.969,3.17-3.808,2.265-7.629,4.51-11.5,6.662a18.181,18.181,0,0,1-3.9,1.5c-3.571,1.008-7.139,2.06-10.765,2.824a76.992,76.992,0,0,1-8.2,1.023c-3.259.326-6.526.567-9.789.845a35.97,35.97,0,0,1-9.9-.465c-3.761-.723-7.581-1.211-11.278-2.173a40.818,40.818,0,0,1-15.892-8.589A3.159,3.159,0,0,1,93.621,108.565Z"/><path d="M112.421,87.794a4.619,4.619,0,0,1-4.375,4.278c-1.235-.017-3.756-2.432-3.637-3.688.222-2.337,2.057-4.559,3.976-4.6C109.863,83.761,112.714,86.36,112.421,87.794Z"/><path d="M167.5,89.808a4.174,4.174,0,0,1-.791-.273,4.961,4.961,0,0,1-.975-.687c-.964-.859-1.915-1.712-1.548-3.241a4.876,4.876,0,0,1,2.873-3.719,2.5,2.5,0,0,1,.811-.193c1.812-.1,4.3,2.653,4.023,4.426A4.636,4.636,0,0,1,167.5,89.808Z"/><path d="M174.356,78.145a2.3,2.3,0,0,1-2.227,1.143c-2.1-.118-4.208-.238-6.312-.241a2.331,2.331,0,0,1-1.911-.715.574.574,0,0,1-.061-.1,2.646,2.646,0,0,1,2.975-2.1c1.185.1,2.373.19,3.562.22a5.445,5.445,0,0,1,3.152.921A6.015,6.015,0,0,1,174.356,78.145Z"/><path d="M145,105.671c-.849,0-2.669-1.185-2.842-1.962a2.123,2.123,0,0,1,.174-1.258,3.8,3.8,0,0,1,2.508-2.071,3.4,3.4,0,0,1,3.328,1.99,1.579,1.579,0,0,1-.008.589A3.781,3.781,0,0,1,145,105.671Z"/><path d="M131.513,103.208a3.226,3.226,0,0,1-2.942,2.666,2.69,2.69,0,0,1-2.56-2.537A3.735,3.735,0,0,1,129,100.181C129.983,100.177,131.554,102.073,131.513,103.208Z"/><path d="M103.262,83.05c-.738-1.31-.63-2.038.419-2.678a12.4,12.4,0,0,1,4.675-1.723,3.3,3.3,0,0,1,2.98,1.9,1.054,1.054,0,0,1-1.238.693,8.275,8.275,0,0,0-5.171,1.06C104.4,82.555,103.855,82.784,103.262,83.05Z"/></svg>