<svg width="449" height="449" viewBox="0 0 449 449" fill="none" xmlns="http://www.w3.org/2000/svg">
<g clip-path="url(#clip0_702_1460)">
<path d="M226.05 364C216.688 363.93 207.506 362.596 198.533 359.845C192.579 358.011 188.823 354.454 187.223 348.146C184.845 338.766 181.923 329.512 177.833 320.703C174.814 314.186 170.794 308.489 164.729 304.431C164.158 304.042 163.296 304.098 162.558 303.959C162.642 304.709 162.475 305.654 162.851 306.196C168.234 313.838 171.74 322.314 174.077 331.305C174.981 334.778 174.453 335.473 170.919 335.584C160.277 335.918 149.83 334.834 139.813 330.943C131.995 327.914 125.373 323.301 121.311 315.798C119.976 313.338 119.391 310.434 118.598 307.711C118.195 306.321 118.835 305.237 120.268 304.862C131.981 301.833 142.623 296.122 153.669 291.426C157.23 289.911 160.806 288.397 164.395 286.924C167.859 285.506 171.406 284.659 175.232 284.589C177.527 284.548 180.156 283.936 182.034 282.672C188.879 278.1 195.876 278.809 202.86 281.657C209.649 284.436 214.114 289.925 217.147 296.358C219.734 301.875 221.585 307.739 223.811 313.422C225.229 317.02 226.454 320.73 228.29 324.093C231.197 329.443 236.345 331.374 242.104 331.805C245.429 332.055 248.768 331.944 252.106 331.93C255.696 331.902 259.257 332.138 262.61 333.542C270.706 336.932 272.64 345.38 266.741 351.925C262.818 356.274 257.671 358.609 252.204 360.332C243.704 363.027 234.954 364.097 226.05 364Z" fill="#2E1A14"/>
<path d="M176.205 173.443C160.972 172.873 148.007 170.802 135.681 165.647C132.899 164.48 130.242 163.021 127.501 161.757C126.486 161.284 125.345 161.048 124.357 160.52C123.787 160.214 122.98 159.158 123.064 159.061C123.829 158.088 124.622 157.032 125.665 156.463C126.583 155.962 127.613 156.226 128.406 157.408C129.018 158.339 130.158 159.061 131.216 159.506C137.963 162.34 145.002 164.175 152.194 165.425C174.132 169.232 195.806 167.732 217.174 161.729C224.339 159.714 231.322 157.102 237.638 153.017C237.902 152.85 238.195 152.544 238.431 152.572C239.28 152.669 240.42 152.628 240.838 153.128C241.213 153.586 241.06 154.99 240.601 155.476C239.558 156.588 238.236 157.463 236.929 158.297C226.899 164.647 215.797 168.246 204.279 170.677C194.401 172.762 184.357 173.554 176.205 173.443Z" fill="#2E1A14"/>
<path d="M185.846 147.917C184.733 147.709 183.801 147 183.773 145.541C183.745 143.999 186.013 142.192 187.71 142.289C189.199 142.387 190.367 143.623 190.27 145.013C190.172 146.583 188.155 147.986 185.846 147.917Z" fill="#2E1A14"/>
<path d="M206.198 143.526C206.171 144.749 204.738 145.944 203.291 145.944C201.802 145.958 200.425 144.804 200.411 143.554C200.397 142.109 201.719 140.872 203.277 140.872C204.849 140.872 206.226 142.123 206.198 143.526Z" fill="#2E1A14"/>
<path d="M323.639 280.768C325.295 281.074 326.727 281.352 328.16 281.602C330.609 282.033 331.638 283.297 331.416 285.659C330.845 291.607 330.191 297.54 329.691 303.487C329.468 306.238 328.119 308.086 325.837 309.462C320.968 312.408 315.557 313.797 310.061 314.811C296.804 317.271 283.505 317.493 270.275 314.603C266.115 313.7 262.025 312.463 258.464 309.92C256.502 308.517 255.473 306.669 255.056 304.348C250.437 278.337 245.777 252.339 241.158 226.327C240.407 222.062 239.85 217.754 239.197 213.46C239.127 213.016 239.113 212.418 238.821 212.168C235.538 209.32 236.846 205.262 235.886 201.747C240.838 204.484 246.013 206.388 251.397 207.416C257.935 208.667 264.557 209.611 271.179 210.223C285.508 211.543 299.739 210.237 313.776 207.43C324.849 205.221 330.108 203.442 337.119 199.329C336.577 202.761 338.33 206.235 335.325 209.07C334.907 209.473 334.81 210.334 334.768 211.001C334.434 216.42 334.128 221.839 333.892 227.272C333.836 228.703 333.461 229.579 331.916 229.871C330.79 230.079 329.732 230.663 328.605 230.927C327.952 231.079 327.228 230.885 326.533 230.913C325.948 230.927 325.308 230.899 324.78 231.107C315.362 234.567 305.512 235.734 295.621 236.749C293.646 236.957 291.684 237.555 289.709 237.582C286.468 237.61 283.212 237.36 279.971 237.124C271.541 236.54 263.11 235.915 254.944 233.483C254.124 233.247 253.345 232.9 252.538 232.636C250.854 232.08 250.215 232.636 250.548 234.428C252.552 245.391 254.569 256.355 256.572 267.332C258.52 278.003 260.537 288.661 262.387 299.346C262.846 301.986 264.182 303.626 266.491 304.835C271.416 307.391 276.771 308.392 282.169 308.878C292.116 309.767 302.049 309.323 311.731 306.572C314.249 305.863 316.656 304.71 319.034 303.598C320.745 302.792 321.664 301.403 321.803 299.374C322.151 294.191 322.679 289.022 323.152 283.853C323.291 282.797 323.5 281.741 323.639 280.768ZM282.726 223.006C295.482 223.201 307.585 221.617 319.424 218.199C321.858 217.49 324.223 216.434 326.477 215.267C327.103 214.933 327.604 213.558 327.479 212.766C327.298 211.612 326.213 211.765 325.225 212.099C315.445 215.322 305.332 216.767 295.107 217.434C279.888 218.421 264.724 218.115 249.811 214.433C248.656 214.155 247.766 214.1 247.279 215.197C246.681 216.545 247.655 217.254 248.698 217.671C250.562 218.407 252.454 219.144 254.388 219.658C263.82 222.103 273.405 223.256 282.726 223.006Z" fill="white"/>
<path d="M336.368 187.879C335.088 186.587 333.488 185.517 331.861 184.697C324.891 181.168 317.254 180.14 309.644 179.111C307.39 178.806 305.109 178.695 302.688 178.486V178.528C304.441 178.931 305.999 179.751 306.097 181.529C306.138 182.252 305.832 182.877 305.373 183.391C305.373 183.405 305.387 183.419 305.401 183.433C305.484 183.669 305.429 183.989 305.304 184.211C305.234 184.322 305.151 184.419 305.039 184.489C304.942 184.572 304.831 184.642 304.705 184.669C307.808 184.989 310.966 185.045 313.998 185.712C317.448 186.462 320.884 187.56 324.126 188.963C326.407 189.95 326.213 191.714 323.945 192.812C322.554 193.493 321.107 194.063 319.618 194.507C310.27 197.328 300.629 198.412 290.947 198.954C279.999 199.565 269.05 199.148 258.227 197.189C254.972 196.605 251.786 195.577 248.628 194.563C247.891 194.327 246.834 193.298 246.89 192.729C246.973 191.937 247.849 191.075 248.587 190.533C249.38 189.95 250.367 189.547 251.341 189.338C257.156 188.046 262.957 186.573 268.828 185.684C274.239 184.878 279.762 184.656 285.452 184.197C285.424 184.183 285.382 184.169 285.355 184.141C284.743 183.961 284.158 183.711 283.644 183.336C283.24 183.044 282.934 182.432 283.282 181.96C283.838 181.196 284.659 180.751 285.549 180.445C285.466 180.376 285.396 180.292 285.341 180.195C285.063 180.015 284.868 179.709 284.854 179.362C284.84 178.917 285.188 178.528 285.605 178.417C285.48 178.389 285.355 178.347 285.243 178.347C283.546 178.361 281.835 178.417 280.138 178.5C270.344 178.972 260.676 180.306 251.202 182.849C246.264 184.169 241.353 185.739 237.318 189.116C234.091 191.825 233.98 195.16 237.458 197.411C240.532 199.398 243.954 201.107 247.46 202.122C258.325 205.248 269.537 206.471 280.806 206.346C289.403 206.249 298.014 205.498 306.57 204.595C314.207 203.789 321.747 202.094 328.87 199.148C331.541 198.05 334.114 196.425 336.312 194.549C338.733 192.451 338.649 190.186 336.368 187.879Z" fill="white"/>
<path d="M339.122 224.09C341.153 225.007 343.017 225.604 344.631 226.633C347.845 228.661 348.262 232.01 345.299 234.317C342.906 236.179 339.971 237.346 337.202 238.68C335.269 239.611 333.14 240.194 331.234 241.181C329.802 241.917 328.508 243.321 329.217 244.933C329.718 246.072 331.165 247.114 332.417 247.517C336.284 248.754 340.082 247.823 343.741 246.392C344.84 245.961 345.647 245.794 346.356 247.156C344.005 249.712 340.917 251.088 337.703 252.2C336.02 252.769 334.253 253.047 332.528 253.492C331.86 253.659 331.012 253.728 330.608 254.173C329.829 255.02 328.842 256.104 328.842 257.091C328.842 257.938 329.927 259.147 330.817 259.578C333.627 260.912 336.688 260.842 339.72 260.453C341.404 260.245 343.073 259.8 344.756 259.592C345.382 259.508 346.05 259.814 346.704 259.925C346.732 260.12 346.773 260.314 346.801 260.523C346.106 261.065 345.48 261.732 344.715 262.149C340.972 264.149 337.022 265.456 332.709 265.233C331.026 265.15 329.69 265.581 329.273 267.262C328.842 268.999 330.08 269.985 331.457 270.694C334.893 272.459 338.552 271.972 342.183 271.639C343.101 271.556 343.977 271.125 344.895 271.041C345.563 270.986 346.259 271.25 346.94 271.361C347.01 271.569 347.08 271.792 347.149 272C346.12 272.862 345.201 273.932 344.033 274.543C340.319 276.502 336.396 277.517 332.139 276.558C331.415 276.391 330.344 276.197 329.899 276.572C328.424 277.822 327.52 276.989 326.56 275.988C326.505 275.933 326.449 275.877 326.393 275.821C321.775 271.625 321.816 271.639 324.14 265.859C324.404 265.219 324.293 264.122 323.889 263.552C320.662 259.078 320.731 255.979 324.293 251.922C324.654 251.519 324.96 251.088 325.392 250.546C325.03 250.032 324.766 249.435 324.307 249.073C321.969 247.239 321.942 242.973 323.416 240.5C325.725 236.609 329.523 234.942 333.53 233.58C333.822 233.483 334.142 233.455 334.434 233.372C338.496 232.385 338.496 232.385 338.482 228.161C338.482 227.466 338.496 226.758 338.58 226.077C338.663 225.549 338.858 225.035 339.122 224.09Z" fill="white"/>
<path d="M140.3 120.53C141.051 120.891 142.234 121.141 142.749 121.864C143.083 122.322 142.61 123.615 142.164 124.309C139.076 129.173 134.555 131.618 128.837 131.813C128.183 131.84 127.251 131.173 126.904 130.562C125.359 127.853 126.973 123.573 129.992 122.739C133.233 121.836 136.6 121.308 140.3 120.53Z" fill="white"/>
<path d="M206.505 124.143C206.477 121.878 207.395 120.502 209.579 119.863C212.834 118.904 216.117 117.987 219.428 117.209C220.179 117.028 221.418 117.237 221.821 117.751C222.197 118.237 221.988 119.46 221.654 120.169C220.096 123.351 217.592 125.574 214.281 126.894C213.488 127.213 212.695 127.491 211.902 127.825C208.744 129.173 206.56 127.686 206.505 124.143Z" fill="white"/>
<path d="M310.77 258.606C310.729 260.731 307.946 263.774 306.041 263.774C304.163 263.774 301.227 260.537 301.255 258.494C301.283 257.091 305.582 253.45 307.098 253.562C308.614 253.659 310.812 256.688 310.77 258.606Z" fill="white"/>
<path d="M286.593 280.532C284.742 280.476 281.71 277.739 281.737 276.155C281.765 274.251 285.16 270.639 286.843 270.722C288.679 270.805 291.712 273.571 291.684 275.141C291.629 277.03 288.29 280.588 286.593 280.532Z" fill="white"/>
<path d="M271.791 251.408C273.892 253.061 275.7 254.479 277.495 255.882C277.397 256.132 277.286 256.368 277.189 256.618C276.549 256.716 275.909 256.938 275.283 256.896C274.1 256.813 273.14 256.868 272.111 257.758C270.497 259.147 269.579 257.202 268.16 256.646C269.37 254.881 270.497 253.27 271.791 251.408Z" fill="white"/>
<path d="M228.93 216.837C230.057 216.837 231.517 216.753 232.964 216.878C233.437 216.92 234.16 217.476 234.244 217.893C234.856 221.394 235.329 224.924 235.899 228.828C233.367 224.451 231.072 220.505 228.93 216.837Z" fill="white"/>
<path d="M282.725 223.006C273.405 223.256 263.806 222.103 254.388 219.63C252.454 219.115 250.562 218.379 248.698 217.643C247.641 217.226 246.681 216.517 247.279 215.169C247.766 214.058 248.656 214.113 249.811 214.405C264.724 218.101 279.887 218.393 295.107 217.406C305.331 216.739 315.445 215.308 325.225 212.071C326.226 211.737 327.298 211.584 327.478 212.738C327.604 213.53 327.117 214.919 326.477 215.239C324.223 216.406 321.858 217.462 319.424 218.171C307.585 221.617 295.482 223.201 282.725 223.006Z" fill="#2E1A14"/>
<path d="M324.14 188.963C320.898 187.56 317.462 186.476 314.012 185.712C310.979 185.045 307.821 184.989 304.719 184.67C300.17 184.114 292.7 184.183 287.33 184.183C286.704 184.183 286.092 184.197 285.507 184.211C285.494 184.197 285.48 184.197 285.466 184.183C285.271 184.197 285.09 184.211 284.895 184.225C283.115 184.281 281.529 184.406 280.138 184.573C276.312 184.837 272.556 185.114 268.856 185.67C262.971 186.546 257.184 188.032 251.369 189.325C250.409 189.533 249.407 189.95 248.614 190.52C247.877 191.062 247.001 191.923 246.917 192.715C246.862 193.271 247.905 194.313 248.656 194.549C251.814 195.55 255 196.578 258.255 197.175C269.078 199.135 280.026 199.551 290.975 198.94C300.657 198.398 310.298 197.314 319.646 194.494C321.121 194.049 322.581 193.479 323.973 192.798C326.212 191.715 326.407 189.95 324.14 188.963Z" fill="#2E1A14"/>
<path d="M367.808 316.59C364.775 315.367 361.617 315.047 358.431 315.45C355.051 315.867 351.698 316.59 348.332 317.048C340.806 318.077 336.368 314.242 336.702 306.738C337.008 299.763 337.662 292.815 338.148 285.854C338.232 284.645 338.663 284.006 340.096 283.839C357.736 281.796 371.174 263.969 366.597 244.988C363.3 231.302 355.037 221.547 341.765 216.309C341.237 216.1 340.388 215.725 340.346 215.364C340.152 213.46 339.637 211.32 340.263 209.653C341.139 207.319 341.292 205.026 341.473 202.636C341.724 199.426 341.334 196.203 342.35 192.979C343.17 190.353 342.28 187.601 340.193 185.74C338.19 183.961 335.978 182.266 333.572 181.126C326.644 177.847 319.132 176.527 311.605 175.415C308.865 175.012 306.097 174.818 303.092 174.498C303.092 174.484 303.092 174.471 303.092 174.457H300.866V174.443H289.778V174.457H286.259C286.092 174.457 285.953 174.429 285.828 174.359C280.138 174.623 274.601 174.887 268.675 175.165C274.504 167.718 277.787 159.631 276.966 150.265C276.145 140.817 271.596 133.411 264.543 127.241C261.385 131.771 261.357 131.813 264.307 135.648C269.788 142.79 271.012 150.807 269.231 159.422C267.965 165.578 264.209 170.288 260.356 175.012C258.951 176.722 257.379 177.375 255.334 177.792C248.698 179.125 242.229 181.029 236.442 184.697C233.618 186.49 230.947 188.657 230.544 192.103C230.237 194.785 228.749 195.494 226.676 196.175C210.358 201.566 193.581 204.484 176.428 205.012C159.609 205.526 143.11 203.4 127.07 198.245C116.331 194.799 106.398 189.866 98.3293 181.654C88.0905 171.233 85.1969 155.476 92.8204 142.984C96.966 136.19 102.044 130.493 110.571 129.27C111.643 129.117 112.658 128.7 113.715 128.436C117.36 127.519 118.32 128.089 119.642 131.562C122.327 138.621 126.848 144.221 133.483 147.917C150.817 157.546 178.125 151.391 186.764 128.895C187.307 127.477 188.114 126.63 189.477 126.366C191.355 125.991 193.275 125.615 195.181 125.574C197.393 125.532 198.951 126.644 200.286 128.603C202.192 131.41 204.348 134.133 206.838 136.412C215.13 143.985 225.188 146.069 236.066 144.999C241.074 144.513 245.777 142.956 249.992 140.136C256.502 135.773 259.855 129.395 261.58 121.975C261.775 121.113 262.109 120.155 262.693 119.529C264.557 117.473 265.127 114.207 263.569 111.956C263.027 111.164 261.928 110.428 260.996 110.303C253.066 109.164 245.123 108.58 237.096 109.205C227.775 109.928 218.566 111.178 209.607 113.874C205.906 114.986 202.359 116.903 198.603 117.528C192.426 118.543 186.18 118.932 179.892 117.514C160.43 113.11 140.968 112.874 121.575 118.043C119.419 118.612 117.054 118.696 115.816 121.03C115.732 121.197 115.44 121.308 115.218 121.363C112.922 121.961 110.627 122.545 108.29 123.128C108.206 122.725 108.123 122.503 108.123 122.281C108.123 121.891 108.137 121.502 108.22 121.127C109.778 114.68 112.435 108.816 117.499 104.3C122.855 99.5203 129.087 97.6584 136.196 98.4643C142.846 99.2285 148.508 102.091 153.474 106.412C155.644 108.302 157.995 109.066 160.903 109.052C171.796 109.025 182.619 108.33 193.442 107.163C195.932 106.899 197.434 106.023 198.506 103.856C200.425 99.9789 203.277 96.7969 206.63 94.0734C213.558 88.4459 223.463 87.8762 230.39 93.2397C233.201 95.4213 235.719 98.3392 237.471 101.424C239.113 104.328 240.894 105.787 244.163 105.37C244.385 105.342 244.622 105.412 244.858 105.412C246.667 105.426 247.112 104.856 246.11 103.383C243.718 99.8677 241.422 96.2272 238.612 93.073C234.258 88.1958 228.568 85.4307 222.03 85.0972C209.343 84.4441 199.911 90.0439 193.581 100.91C192.774 102.285 191.995 102.855 190.367 102.939C181.77 103.397 173.173 103.939 164.589 104.592C162.044 104.787 160.096 104.245 158.162 102.383C154.671 99.034 150.4 96.7135 145.823 95.0878C135.528 91.4473 125.415 91.753 116.108 97.7973C106.634 103.953 102.03 113.221 100.806 124.254C100.639 125.699 100.207 126.602 99.0109 127.463C96.6321 129.186 94.3228 131.034 92.1804 133.035C77.2952 146.986 77.3926 171.205 91.9857 186.087C98.3432 192.576 105.869 197.217 114.105 200.844C115.051 201.26 115.955 201.747 117.054 202.289C115.872 203.386 114.94 204.192 114.063 205.054C101.125 217.615 91.1093 232.302 82.9293 248.281C79.1315 255.701 76.2658 263.399 75.2224 271.778C73.7339 283.742 80.1888 294.316 91.6796 298.012C101.751 301.264 111.796 300.096 121.367 296.539C133.692 291.94 145.698 286.465 157.815 281.296C163.24 278.976 168.512 276.405 174.731 277.058C177.889 277.392 180.56 276.002 181.867 272.904C183.231 269.694 182.674 266.706 180.518 263.969C178.696 261.662 176.233 260.481 173.479 259.703C172.797 259.509 172.171 259.134 171.531 258.842C171.531 258.647 171.531 258.453 171.531 258.258C172.171 257.966 172.797 257.494 173.465 257.438C174.926 257.313 176.428 257.272 177.889 257.411C184.538 258.022 188.976 262.913 188.962 269.513C188.962 271.709 189.755 272.278 191.828 271.597C195.598 270.347 198.436 266.276 198.603 261.885C198.825 255.66 195.626 251.019 189.115 248.087C182.605 245.155 175.816 244.933 169.041 246.545C161.807 248.254 154.671 250.38 147.548 252.533C137.462 255.576 127.502 259.106 116.887 259.926C116.094 259.981 115.287 259.884 114.494 259.87C114.397 259.62 114.314 259.37 114.216 259.12C125.846 250.296 133.623 238.416 140.815 226.035C141.065 226.063 141.302 226.105 141.552 226.133C141.733 226.841 142.22 227.619 142.053 228.231C140.857 232.691 139.646 237.165 138.172 241.542C137.434 243.724 136.071 245.683 135.083 247.781C134.443 249.157 135.028 249.949 136.488 249.643C138.227 249.282 139.924 248.726 141.649 248.24C150.608 245.753 159.498 242.973 168.54 240.875C175.593 239.236 182.8 239.097 189.992 241C204.501 244.835 209.955 260.829 203.291 270.792C201.928 272.834 202.512 274.14 204.891 275.071C209.857 277.003 213.878 280.171 217.355 284.173C221.432 288.855 224.269 294.233 226.634 299.93C229.264 306.294 231.935 312.63 234.787 318.896C235.287 320.008 236.651 321.189 237.819 321.453C244.469 322.954 251.146 324.566 258.033 324.413C268.118 324.177 278.204 323.746 288.29 323.496C293.27 323.371 293.59 323.69 295.037 328.47C295.301 329.359 295.51 330.276 295.635 331.194C295.969 333.486 296.247 335.807 296.553 338.099C297.36 344.102 300.601 348.021 306.486 349.66C307.529 349.952 308.559 350.299 309.63 350.508C320.356 352.648 331.095 352.425 341.835 350.675C350.265 349.299 358.278 346.728 365.373 341.823C369.644 338.864 373.344 335.376 374.652 330.026C376.057 324.177 373.358 318.827 367.808 316.59ZM209.579 119.849C212.834 118.89 216.117 117.973 219.428 117.195C220.18 117.014 221.418 117.223 221.821 117.737C222.197 118.223 221.988 119.446 221.654 120.155C220.096 123.337 217.592 125.56 214.281 126.88C213.488 127.199 212.695 127.477 211.902 127.811C208.758 129.159 206.56 127.672 206.505 124.129C206.463 121.878 207.395 120.502 209.579 119.849ZM129.978 122.739C133.233 121.836 136.6 121.308 140.3 120.53C141.051 120.891 142.234 121.141 142.748 121.864C143.082 122.322 142.609 123.614 142.164 124.323C139.076 129.186 134.555 131.632 128.837 131.826C128.197 131.854 127.251 131.187 126.903 130.576C125.345 127.852 126.959 123.587 129.978 122.739ZM237.318 189.102C241.339 185.726 246.25 184.155 251.202 182.835C260.676 180.293 270.344 178.959 280.138 178.486C281.835 178.403 283.546 178.347 285.243 178.333C285.355 178.333 285.48 178.361 285.605 178.403C285.688 178.375 285.772 178.347 285.869 178.347H290.989V178.333H300.908V178.236C301.506 178.292 302.118 178.389 302.716 178.528V178.486C305.137 178.695 307.418 178.806 309.672 179.112C317.281 180.14 324.919 181.168 331.888 184.697C333.516 185.517 335.116 186.587 336.396 187.879C338.677 190.186 338.761 192.451 336.326 194.549C334.128 196.425 331.554 198.037 328.883 199.148C321.761 202.094 314.221 203.789 306.583 204.595C298.028 205.498 289.417 206.249 280.819 206.346C269.551 206.471 258.339 205.262 247.474 202.122C243.968 201.108 240.546 199.398 237.471 197.411C233.98 195.16 234.091 191.812 237.318 189.102ZM228.93 216.837C230.057 216.837 231.517 216.753 232.964 216.878C233.437 216.92 234.161 217.476 234.244 217.893C234.856 221.394 235.329 224.924 235.899 228.828C233.368 224.451 231.072 220.505 228.93 216.837ZM331.401 285.673C330.831 291.62 330.177 297.554 329.676 303.501C329.454 306.252 328.104 308.1 325.823 309.476C320.954 312.421 315.542 313.811 310.047 314.825C296.79 317.285 283.49 317.507 270.261 314.617C266.101 313.714 262.011 312.477 258.45 309.934C256.488 308.531 255.459 306.683 255.042 304.362C250.423 278.35 245.763 252.353 241.144 226.341C240.393 222.075 239.836 217.768 239.183 213.474C239.113 213.03 239.099 212.432 238.807 212.182C235.524 209.333 236.831 205.276 235.872 201.761C240.824 204.498 245.999 206.402 251.383 207.43C257.921 208.68 264.543 209.625 271.165 210.237C285.494 211.557 299.725 210.25 313.762 207.444C324.835 205.234 330.094 203.456 337.105 199.343C336.563 202.775 338.315 206.249 335.31 209.083C334.893 209.486 334.796 210.348 334.754 211.015C334.42 216.434 334.114 221.853 333.878 227.286C333.822 228.717 333.446 229.592 331.902 229.884C330.775 230.093 329.718 230.676 328.591 230.94C327.937 231.093 327.214 230.899 326.518 230.926C325.934 230.94 325.294 230.913 324.766 231.121C315.348 234.581 305.498 235.748 295.607 236.762C293.632 236.971 291.67 237.568 289.695 237.596C286.454 237.624 283.198 237.374 279.957 237.138C271.527 236.554 263.096 235.929 254.93 233.497C254.109 233.261 253.33 232.913 252.524 232.649C250.84 232.094 250.2 232.649 250.534 234.442C252.538 245.405 254.555 256.368 256.558 267.346C258.505 278.017 260.523 288.675 262.373 299.36C262.832 302 264.167 303.64 266.477 304.848C271.401 307.405 276.757 308.406 282.155 308.892C292.102 309.781 302.034 309.337 311.717 306.585C314.235 305.877 316.641 304.723 319.02 303.612C320.731 302.806 321.649 301.416 321.789 299.388C322.136 294.205 322.665 289.036 323.138 283.867C323.235 282.811 323.43 281.755 323.569 280.782C325.225 281.088 326.658 281.366 328.09 281.616C330.608 282.047 331.638 283.297 331.401 285.673ZM310.771 258.605C310.729 260.731 307.947 263.774 306.041 263.774C304.163 263.774 301.227 260.537 301.255 258.494C301.283 257.091 305.582 253.45 307.098 253.562C308.614 253.659 310.812 256.688 310.771 258.605ZM291.684 275.127C291.643 277.03 288.29 280.588 286.593 280.532C284.742 280.476 281.71 277.739 281.738 276.155C281.765 274.251 285.16 270.639 286.843 270.722C288.679 270.805 291.712 273.571 291.684 275.127ZM277.495 255.896C277.397 256.146 277.286 256.382 277.189 256.632C276.549 256.73 275.909 256.952 275.283 256.91C274.1 256.827 273.14 256.882 272.111 257.772C270.497 259.161 269.579 257.216 268.16 256.66C269.384 254.896 270.511 253.284 271.791 251.422C273.892 253.061 275.686 254.479 277.495 255.896ZM332.125 276.53C331.401 276.363 330.33 276.169 329.885 276.544C328.41 277.795 327.506 276.961 326.546 275.96C326.491 275.905 326.435 275.849 326.379 275.794C321.761 271.597 321.803 271.611 324.126 265.831C324.39 265.192 324.279 264.094 323.875 263.524C320.648 259.05 320.717 255.952 324.279 251.894C324.64 251.491 324.946 251.06 325.378 250.519C325.016 250.004 324.752 249.407 324.293 249.046C321.956 247.211 321.928 242.946 323.402 240.472C325.712 236.582 329.509 234.914 333.516 233.553C333.808 233.455 334.128 233.428 334.42 233.344C338.482 232.358 338.482 232.358 338.468 228.134C338.468 227.439 338.482 226.73 338.566 226.049C338.635 225.521 338.844 225.021 339.108 224.076C341.139 224.993 343.004 225.591 344.617 226.619C347.831 228.648 348.248 231.996 345.285 234.303C342.892 236.165 339.957 237.332 337.189 238.666C335.255 239.597 333.14 240.181 331.221 241.167C329.788 241.904 328.494 243.307 329.203 244.919C329.704 246.058 331.151 247.1 332.403 247.503C336.27 248.74 340.068 247.809 343.727 246.378C344.826 245.947 345.633 245.78 346.342 247.142C343.991 249.699 340.903 251.074 337.689 252.186C336.006 252.756 334.239 253.034 332.514 253.478C331.847 253.645 330.998 253.714 330.595 254.159C329.815 255.007 328.828 256.09 328.828 257.077C328.828 257.925 329.913 259.134 330.803 259.564C333.613 260.898 336.674 260.829 339.707 260.44C341.39 260.231 343.059 259.787 344.742 259.578C345.368 259.495 346.036 259.8 346.69 259.912C346.718 260.106 346.76 260.301 346.787 260.509C346.092 261.051 345.466 261.718 344.701 262.135C340.959 264.136 337.008 265.442 332.695 265.22C331.012 265.136 329.676 265.567 329.259 267.248C328.828 268.985 330.066 269.972 331.443 270.68C334.879 272.445 338.538 271.959 342.169 271.625C343.087 271.542 343.963 271.111 344.882 271.028C345.549 270.972 346.245 271.236 346.927 271.347C346.996 271.556 347.066 271.778 347.135 271.987C346.106 272.848 345.188 273.918 344.019 274.529C340.291 276.475 336.368 277.489 332.125 276.53Z" fill="#2E1A14"/>
</g>
<defs>
<clipPath id="clip0_702_1460">
<rect width="300" height="279" fill="white" transform="translate(75 85)"/>
</clipPath>
</defs>
</svg>
