<svg width="449" height="449" viewBox="0 0 449 449" fill="none" xmlns="http://www.w3.org/2000/svg">
<g clip-path="url(#clip0_702_1344)">
<path d="M255.476 178.561C262.513 179.438 269.174 180.264 275.747 181.079C276.461 175.855 276.874 170.72 277.913 165.722C278.952 160.712 280.593 155.827 281.982 150.892C282.721 148.261 284.411 146.758 287.103 146.119C297.195 143.702 306.761 145.293 315.977 149.727C319.169 151.255 321.999 153.297 324.09 156.24C325.204 157.806 325.63 159.384 325.179 161.338C323.877 166.962 321.21 171.96 318.218 176.795C315.689 180.903 312.984 184.911 310.292 189.082C312.358 189.784 314.512 190.485 316.64 191.237C323.001 193.466 329.111 196.159 334.245 200.694C334.633 201.044 335.459 201.145 336.01 201.032C345.125 199.191 353.564 200.944 361.277 205.98C369.503 211.353 373.898 219.132 374.787 228.864C375.701 238.884 372.909 248.103 367.75 256.508C355.017 277.263 336.11 289.438 312.721 295.062C310.505 295.601 308.201 295.789 305.947 296.227C305.359 296.34 304.745 296.69 304.295 297.104C300.113 301.037 295.956 304.995 291.811 308.991C291.411 309.379 291.085 309.943 290.96 310.481C290.134 314.001 289.432 317.558 288.581 321.078C287.867 324.034 285.601 325.863 283.347 327.591C279.178 330.785 274.395 332.814 269.499 334.618C258.556 338.664 247.149 340.781 235.643 342.246C224.599 343.649 213.468 344.213 202.337 343.937C183.982 343.474 165.776 341.708 148.172 336.121C143.251 334.555 138.443 332.489 133.798 330.222C131.244 328.982 128.965 327.015 126.886 325.023C125.647 323.846 124.745 322.08 124.257 320.414C123.318 317.245 122.792 313.951 122.028 310.719C121.878 310.08 121.54 309.341 121.052 308.94C99.1903 290.59 86.5192 266.754 79.5325 239.498C77.2037 230.392 76.1018 221.111 75.1002 211.791C74.424 205.504 77.4541 201.295 82.237 197.926C86.6694 194.794 91.5526 192.489 96.6986 190.924C104.199 188.657 111.811 186.753 119.374 184.686C119.925 184.536 120.476 184.348 121.052 184.16C119.374 182.319 117.646 180.715 116.244 178.862C111.16 172.098 111.06 164.783 114.328 157.267C117.283 150.466 122.529 145.706 128.639 141.786C129.904 140.971 131.306 140.333 132.521 139.468C133.047 139.093 133.623 138.291 133.61 137.715C133.109 124.575 142.613 114.668 155.221 112.375C164.737 110.647 173.239 112.375 180.213 119.49C180.676 119.966 181.189 120.454 181.452 121.031C182.492 123.273 183.969 123.786 186.473 123.348C191.043 122.546 195.714 122.308 200.334 121.745C200.897 121.669 201.661 121.118 201.874 120.605C205.805 110.659 213.556 106.175 223.773 106C234.203 105.824 244.169 111.899 246.924 123.398C247.325 125.076 248.076 125.878 249.729 126.354C255.664 128.07 261.035 130.851 265.593 135.134C274.608 143.614 274.72 155.451 268.873 164.908C265.73 169.993 261.411 173.926 256.74 177.521C256.44 177.772 256.127 178.035 255.476 178.561ZM306.073 195.358C310.029 197.011 314.036 198.389 317.742 200.343C319.958 201.52 321.899 203.424 323.602 205.316C325.029 206.906 325.004 209.073 323.827 210.915C323.026 212.167 322.012 213.37 320.835 214.272C314.875 218.856 307.826 221.111 300.751 223.165C281.569 228.714 261.874 231.344 242.041 232.91C228.418 233.987 214.783 234.488 201.098 234.187C186.148 233.862 171.248 233.16 156.398 231.519C144.078 230.154 131.845 228.263 119.8 225.269C112.3 223.403 104.8 221.399 97.9382 217.741C95.3088 216.338 92.7546 214.572 90.626 212.505C87.7212 209.687 87.934 206.38 90.8764 203.587C92.3038 202.234 93.894 200.857 95.6719 200.08C100.593 197.951 105.526 195.709 110.672 194.306C114.816 193.178 117.696 190.247 121.39 188.544C120.764 188.456 120.188 188.531 119.624 188.644C119.036 188.757 118.447 188.895 117.859 189.02C108.055 191.212 98.3639 193.717 89.4115 198.439C86.0684 200.205 82.9382 202.222 80.8723 205.541C79.2946 208.084 79.3072 210.689 81.0601 213.006C82.3873 214.76 84.0275 216.376 85.793 217.679C91.6152 221.975 98.389 224.242 105.188 226.434C105.801 226.634 106.402 226.897 107.003 227.135C98.0133 225.795 89.5743 223.002 81.6986 218.155C81.899 219.858 82.0492 221.361 82.2746 222.852C83.8272 233.398 86.394 243.694 90.1377 253.69C97.0993 272.265 107.454 288.624 122.003 302.202C130.079 309.73 138.919 316.017 149.562 319.525C165.088 324.648 181.127 326.552 197.329 327.303C215.209 328.117 232.951 326.714 250.518 323.082C262.275 320.652 273.23 316.669 282.859 309.229C297.083 298.219 308.051 284.591 316.327 268.721C323.239 255.481 327.508 241.377 330.163 226.735C330.664 223.979 331.002 221.198 331.452 218.23C320.121 223.941 311.156 227.186 308.539 226.421C309.616 225.996 310.492 225.645 311.381 225.294C314.574 224.004 317.88 222.939 320.91 221.336C324.203 219.595 327.446 217.628 330.3 215.261C334.72 211.604 334.533 206.568 330.263 202.748C329.987 202.51 329.699 202.285 329.424 202.059C323.439 197.374 316.327 195.195 309.253 192.915C307.863 192.464 307.225 192.915 306.686 194.03C306.398 194.594 306.173 195.132 306.073 195.358ZM201.674 211.24C203.051 211.14 204.441 211.002 205.818 210.927C215.622 210.364 225.25 208.685 234.716 206.092C239.261 204.852 243.806 203.487 247.513 200.356C250.743 197.625 251.406 193.767 249.015 190.31C247.738 188.469 245.935 186.928 244.157 185.513C243.531 185.012 242.254 185.024 241.352 185.2C239.699 185.513 238.122 186.189 236.482 186.565C235.292 186.828 233.602 188.03 232.988 186.339C232.412 184.736 234.453 184.435 235.518 183.809C239.787 181.317 244.232 179.074 248.376 176.394C254.098 172.686 259.119 168.152 262.738 162.253C267.709 154.148 267.346 144.842 261.523 138.128C257.341 133.306 251.807 130.625 245.672 129.21C243.932 128.809 243.093 127.794 242.692 126.216C242.479 125.402 242.354 124.563 242.129 123.749C239.75 114.943 233.026 109.607 223.785 109.682C215.021 109.757 208.034 114.755 205.906 123.335C205.73 124.062 204.741 125.014 204.028 125.114C196.79 126.091 189.528 126.918 182.279 127.782C180.676 127.97 179.512 127.506 178.785 125.891C177.145 122.246 174.553 119.427 170.935 117.649C166.127 115.294 161.068 115.018 155.897 116.02C144.704 118.2 137.617 127.707 138.919 138.767C139.082 140.182 138.506 141.059 137.241 141.623C131.469 144.203 126.836 148.199 123.13 153.259C116.432 162.403 118.285 173.563 127.437 180.214C130.793 182.644 134.549 183.985 138.418 185.225C139.094 185.437 139.583 186.227 140.159 186.753C139.432 187.266 138.744 187.842 137.955 188.243C137.567 188.444 136.991 188.343 136.515 188.281C133.56 187.88 130.906 188.807 128.326 190.047C126.799 190.786 125.246 191.45 123.794 192.327C118.685 195.408 113.877 198.852 110.785 204.151C107.73 209.387 109.007 214.434 114.278 217.428C115.831 218.317 117.533 219.069 119.261 219.52C125.296 221.111 131.469 221.098 137.617 220.447C140.91 220.096 144.215 219.607 147.421 218.793C149.048 218.38 150.138 218.63 151.114 219.758C151.74 220.484 152.191 221.361 152.667 222.2C154.382 225.169 156.573 227.561 160.067 228.438C163.385 229.277 166.202 227.323 166.377 223.904C166.515 221.311 165.864 218.906 164.462 216.664C164.086 216.075 164.136 215.211 163.998 214.472C164.762 214.635 165.664 214.585 166.252 214.998C168.669 216.689 169.77 219.194 170.309 222.012C171.035 225.833 174.491 228 178.485 227.186C181.803 226.509 183.393 223.653 182.492 219.72C181.816 216.777 180.326 214.247 178.285 212.017C177.846 211.541 177.809 210.689 177.583 210.013C178.335 210.113 179.261 209.963 179.812 210.339C183.043 212.568 185.346 215.474 186.311 219.395C186.536 220.346 187.275 221.474 188.101 221.9C189.779 222.776 191.632 222.639 193.222 221.399C194.762 220.209 195.338 218.543 194.9 216.714C194.499 215.023 193.973 213.307 193.134 211.804C190.255 206.618 185.71 203.299 180.363 200.982C172.099 197.399 163.36 196.422 154.482 196.61C150.15 196.698 145.831 197.374 141.498 197.7C140.259 197.788 138.393 198.402 138.105 196.673C137.842 195.095 139.67 194.719 140.947 194.481C143.552 193.98 146.181 193.529 148.811 193.254C159.516 192.151 170.071 192.828 180.213 196.711C186.811 199.228 192.771 202.836 196.803 208.81C198.18 210.777 199.432 211.716 201.674 211.24ZM337.976 216.702C338.414 216.601 338.815 216.501 339.228 216.401C351.185 213.432 360.288 221.9 358.247 234.075C356.945 241.853 353.051 248.341 348.03 254.178C341.068 262.257 332.417 267.982 322.462 271.802C321.761 272.065 321.098 272.729 320.684 273.368C317.817 277.902 315.012 282.499 312.183 287.071C311.995 287.384 311.832 287.709 311.569 288.211C312.058 288.148 312.295 288.123 312.521 288.073C331.415 283.626 346.878 273.806 358.523 258.224C364.72 249.932 368.765 240.738 368.74 230.117C368.715 218.455 361.565 208.936 350.384 205.829C346.252 204.677 342.07 204.577 337.976 205.742C337.976 209.449 337.976 212.981 337.976 216.702ZM212.354 215.073C212.329 215.336 212.304 215.599 212.279 215.862C219.453 218.38 227.041 216.363 234.416 217.453C233.727 217.917 233.001 218.305 232.237 218.418C228.706 218.894 225.188 219.357 221.644 219.683C215.822 220.209 210.05 220.046 204.416 218.242C202.888 217.754 201.674 218.33 201.273 219.745C200.835 221.273 202.199 221.486 203.051 221.712C205.204 222.275 207.396 222.764 209.612 222.977C213.932 223.39 218.276 223.616 222.621 223.829C223.172 223.854 224.199 223.328 224.224 222.989C224.437 220.597 226.177 221.023 227.579 221.173C229.457 221.361 229.608 221.837 228.431 223.941C234.466 223.678 240.25 223.503 246.023 223.165C251.72 222.827 257.417 222.301 263.101 221.862C263.113 222.025 263.139 222.175 263.151 222.338C250.893 224.943 238.435 226.046 226.064 226.922C225.851 227.599 225.526 228.213 225.113 228.275C224.136 228.438 222.871 228.638 223.435 226.885C218.088 226.284 217.412 226.684 213.456 228.225C211.678 228.927 208.923 229.014 207.433 228.075C205.856 227.085 204.328 226.897 202.738 226.371C199.282 225.219 196.139 225.469 192.922 227.273C191.018 228.338 188.79 228.814 186.373 229.666C187.625 229.828 188.564 230.054 189.503 230.054C202.988 229.991 216.486 230.142 229.958 229.766C243.318 229.39 256.615 227.925 269.8 225.733C275.684 224.756 281.532 223.453 287.366 222.225C287.942 222.1 288.406 221.436 288.919 221.023C288.381 220.597 287.88 220.121 287.304 219.758C287.016 219.582 286.603 219.62 286.24 219.557C278.502 218.342 271.027 216.15 263.965 212.768C261.598 211.629 259.37 211.528 256.966 212.267C256.565 212.393 256.164 212.606 255.751 212.618C255.388 212.631 255.013 212.418 254.637 212.318C254.737 212.004 254.775 211.629 254.962 211.378C255.613 210.526 256.327 209.712 257.016 208.873C258.356 207.232 258.13 205.641 256.215 204.689C254.324 203.737 252.408 203.036 250.43 204.852C249.303 205.892 247.826 206.606 246.398 207.257C238.961 210.639 230.972 212.017 222.997 213.382C219.478 213.933 215.922 214.484 212.354 215.073ZM299.349 203.662C299.261 203.65 299.174 203.625 299.086 203.612C299.086 203.011 298.998 202.385 299.098 201.796C299.537 199.354 298.335 197.813 296.457 196.498C293.802 194.631 290.81 193.83 287.667 193.429C282.17 192.727 277.312 193.767 273.919 198.627C272.066 201.282 270.05 203.85 268.422 206.631C267.383 208.41 267.809 209.236 269.687 210.025C277.45 213.295 285.338 216.025 293.952 215.787C296.394 215.725 297.195 215.399 297.746 213.082C298.46 209.988 298.836 206.806 299.349 203.662ZM325.455 263.948C326.006 263.76 326.394 263.66 326.745 263.497C333.919 260.09 339.929 255.23 344.687 248.88C348.318 244.02 350.872 238.697 351.423 232.521C351.849 227.674 349.52 223.666 345.012 222.776C342.871 222.351 340.518 222.989 338.264 223.215C336.999 223.34 336.536 224.179 336.348 225.419C334.908 234.613 332.654 243.619 329.674 252.437C328.397 256.233 326.92 259.978 325.455 263.948ZM304.295 149.414C302.629 149.151 301.152 148.975 299.699 148.675C297.659 148.236 296.669 149.013 296.131 151.042C294.128 158.62 291.949 166.135 289.933 173.713C289.144 176.657 288.631 179.676 287.98 182.732C288.944 182.907 289.658 182.995 290.346 183.17C291.336 183.408 291.824 183.108 292.212 182.081C294.992 174.565 297.871 167.075 300.676 159.572C301.878 156.303 303.018 152.996 304.295 149.414ZM297.02 184.673C302.417 173.851 308.364 163.48 311.394 151.618C309.391 151.004 307.6 150.466 305.922 149.952C301.653 161.351 297.508 172.373 293.351 183.483C294.679 183.922 295.743 184.26 297.02 184.673ZM312.959 152.47C309.629 163.943 303.932 174.427 298.472 185.099C299.111 185.45 299.524 185.688 299.95 185.888C300.426 186.114 300.901 186.302 301.49 186.54C307.137 177.834 312.508 169.117 316.252 159.509C318.017 154.975 317.917 154.775 313.535 152.545C313.422 152.52 313.297 152.52 312.959 152.47ZM294.967 148.838C291.498 148.499 291.123 148.587 290.321 151.731C288.518 158.795 286.803 165.872 285.263 173C284.562 176.206 284.361 179.513 283.936 182.845C284.987 182.845 285.739 182.845 286.24 182.845C289.169 171.409 292.062 160.173 294.967 148.838ZM285.463 186.014C284.386 186.139 282.583 186.277 280.805 186.615C279.641 186.828 278.514 188.945 278.877 190.097C279.353 191.6 280.455 190.598 281.294 190.611C283.635 190.648 286.014 190.46 288.331 190.773C292.5 191.337 296.394 192.803 299.75 195.433C300.826 196.285 301.415 195.934 302.028 194.919C303.331 192.765 303.055 191.512 300.651 190.047C296.231 187.341 291.361 186.139 285.463 186.014ZM318.794 156.616C315.113 167.914 308.89 177.684 302.679 187.517C303.443 188.005 303.932 188.306 304.595 188.719C306.21 186.54 307.826 184.511 309.278 182.369C313.585 176.006 317.642 169.517 320.359 162.253C321.223 159.985 320.935 158.357 318.794 156.616ZM289.245 149.589C287.016 150.203 286.853 150.316 286.252 152.019C283.335 160.236 281.732 168.741 280.793 177.384C280.58 179.325 280.53 181.279 280.417 183.233C280.643 183.371 280.856 183.496 281.081 183.634C281.607 183.145 282.546 182.694 282.596 182.156C283.523 172.148 285.726 162.415 288.406 152.758C288.694 151.756 288.944 150.729 289.245 149.589ZM275.935 185.375C267.095 183.822 258.18 182.957 249.065 182.857C250.43 184.085 251.857 185.425 253.447 185.65C259.708 186.54 266.043 187.016 272.329 187.792C274.169 188.03 275.697 188.281 275.935 185.375ZM300.664 218.919C304.169 218.392 307.112 217.653 309.716 215.912C312.083 214.322 312.17 212.393 309.879 210.714C307.888 209.261 305.609 208.572 302.704 208.61C302.942 210.188 302.83 211.842 303.481 213.082C304.107 214.259 304.182 215.061 303.406 215.988C302.642 216.877 301.79 217.716 300.664 218.919ZM263.89 199.905C262.074 197.913 259.407 198.589 256.966 198.402C256.578 198.376 256.139 199.065 255.726 199.416C256.127 199.704 256.502 200.118 256.953 200.255C257.704 200.481 258.506 200.468 259.27 200.656C259.595 200.744 260.058 201.044 260.121 201.32C260.472 202.936 261.749 202.735 262.763 203.099C262.563 202.147 262.174 201.37 262.362 200.781C262.5 200.368 263.401 200.168 263.89 199.905Z" fill="#2E1A14"/>
<path d="M306.073 195.358C306.173 195.133 306.411 194.594 306.661 194.055C307.2 192.953 307.838 192.502 309.228 192.941C316.302 195.22 323.414 197.4 329.399 202.084C329.687 202.31 329.975 202.535 330.238 202.773C334.508 206.594 334.695 211.616 330.276 215.286C327.421 217.654 324.165 219.62 320.885 221.361C317.855 222.965 314.549 224.017 311.357 225.319C310.48 225.683 309.591 226.021 308.514 226.447C311.131 227.211 320.096 223.954 331.427 218.255C330.977 221.223 330.639 224.004 330.138 226.76C327.496 241.402 323.214 255.506 316.302 268.746C308.013 284.616 297.058 298.256 282.834 309.254C273.205 316.694 262.25 320.677 250.493 323.107C232.926 326.74 215.184 328.142 197.304 327.328C181.102 326.589 165.05 324.673 149.537 319.55C138.907 316.043 130.054 309.755 121.978 302.227C107.429 288.649 97.0744 272.291 90.1128 253.715C86.369 243.72 83.8148 233.423 82.2497 222.877C82.0243 221.386 81.8866 219.883 81.6737 218.18C89.5368 223.04 97.9884 225.82 106.978 227.161C106.377 226.923 105.776 226.66 105.163 226.459C98.364 224.267 91.5902 222 85.768 217.704C84.0026 216.389 82.3624 214.785 81.0352 213.032C79.2822 210.714 79.2697 208.109 80.8473 205.566C82.9008 202.247 86.0435 200.23 89.3866 198.464C98.339 193.742 108.043 191.237 117.834 189.045C118.422 188.907 119.011 188.77 119.599 188.669C120.163 188.569 120.739 188.494 121.365 188.569C117.671 190.285 114.791 193.204 110.647 194.331C105.501 195.734 100.555 197.963 95.647 200.105C93.869 200.882 92.2789 202.247 90.8515 203.612C87.9091 206.406 87.6963 209.712 90.6011 212.531C92.7422 214.597 95.2839 216.364 97.9133 217.766C104.787 221.424 112.275 223.415 119.775 225.294C131.807 228.288 144.053 230.192 156.373 231.545C171.223 233.186 186.135 233.887 201.073 234.213C214.758 234.513 228.406 234.012 242.016 232.935C261.849 231.357 281.544 228.739 300.726 223.19C307.813 221.136 314.85 218.881 320.81 214.297C321.987 213.395 323.001 212.192 323.802 210.94C324.979 209.099 325.004 206.932 323.577 205.341C321.874 203.437 319.933 201.533 317.717 200.368C314.036 198.389 310.029 197.011 306.073 195.358ZM313.786 262.232C305.672 266.391 297.634 269.36 289.407 271.727C277.613 275.134 265.543 277.351 253.397 279.079C241.002 280.846 228.518 281.848 215.998 282.086C202.262 282.349 188.514 282.086 174.867 280.432C163.911 279.117 152.955 277.501 142.124 275.384C127.65 272.554 113.477 268.545 100.017 262.333C99.8791 262.27 99.6912 262.295 99.3407 262.258C104.587 272.879 110.735 282.574 118.51 291.242C127.575 301.325 138.268 308.978 151.002 313.7C160.342 317.158 170.046 319.137 179.925 320.126C187.437 320.878 194.963 321.667 202.5 321.779C214.658 321.967 226.803 321.341 238.848 319.425C248.051 317.959 257.129 315.943 265.743 312.285C279.979 306.235 291.198 296.428 300.401 284.165C305.459 277.451 309.816 270.286 313.786 262.232Z" fill="white"/>
<path d="M201.674 211.24C199.42 211.729 198.18 210.777 196.866 208.848C192.821 202.873 186.874 199.278 180.276 196.748C170.121 192.865 159.579 192.189 148.873 193.291C146.231 193.567 143.614 194.018 141.01 194.519C139.733 194.757 137.917 195.145 138.168 196.711C138.443 198.427 140.321 197.825 141.561 197.738C145.893 197.412 150.213 196.736 154.545 196.648C163.422 196.46 172.162 197.437 180.426 201.02C185.772 203.337 190.305 206.656 193.197 211.842C194.036 213.345 194.562 215.061 194.962 216.752C195.388 218.58 194.812 220.234 193.285 221.436C191.695 222.664 189.841 222.814 188.164 221.937C187.337 221.511 186.611 220.372 186.373 219.432C185.409 215.499 183.105 212.606 179.875 210.376C179.324 209.988 178.397 210.138 177.646 210.051C177.872 210.727 177.909 211.579 178.347 212.055C180.401 214.284 181.891 216.814 182.554 219.758C183.456 223.691 181.866 226.547 178.548 227.223C174.553 228.037 171.098 225.87 170.371 222.05C169.833 219.219 168.719 216.714 166.315 215.036C165.726 214.622 164.825 214.672 164.061 214.51C164.199 215.249 164.149 216.1 164.524 216.702C165.927 218.931 166.578 221.336 166.44 223.941C166.265 227.361 163.447 229.315 160.129 228.476C156.636 227.586 154.445 225.207 152.73 222.238C152.254 221.399 151.791 220.522 151.177 219.795C150.2 218.668 149.111 218.418 147.483 218.831C144.278 219.645 140.972 220.146 137.68 220.484C131.519 221.136 125.359 221.148 119.324 219.558C117.596 219.107 115.893 218.355 114.341 217.466C109.069 214.472 107.792 209.412 110.847 204.189C113.952 198.89 118.748 195.433 123.856 192.364C125.296 191.5 126.861 190.824 128.389 190.085C130.968 188.832 133.635 187.918 136.578 188.319C137.053 188.381 137.629 188.481 138.018 188.281C138.806 187.88 139.495 187.291 140.221 186.79C139.645 186.264 139.157 185.475 138.481 185.262C134.612 184.022 130.843 182.682 127.5 180.252C118.347 173.601 116.494 162.441 123.193 153.297C126.899 148.236 131.532 144.241 137.304 141.66C138.568 141.097 139.144 140.233 138.982 138.805C137.68 127.732 144.766 118.237 155.96 116.058C161.131 115.043 166.19 115.319 170.998 117.686C174.616 119.465 177.208 122.283 178.848 125.928C179.574 127.544 180.739 128.007 182.341 127.82C189.591 126.955 196.853 126.129 204.09 125.152C204.804 125.051 205.781 124.099 205.968 123.373C208.097 114.793 215.084 109.795 223.848 109.72C233.089 109.645 239.8 114.981 242.191 123.786C242.417 124.601 242.542 125.44 242.755 126.254C243.155 127.832 243.994 128.847 245.735 129.248C251.87 130.663 257.404 133.343 261.586 138.166C267.408 144.867 267.771 154.186 262.801 162.29C259.17 168.19 254.161 172.724 248.439 176.432C244.295 179.125 239.85 181.354 235.58 183.847C234.516 184.473 232.475 184.774 233.051 186.377C233.664 188.068 235.355 186.866 236.544 186.602C238.185 186.227 239.762 185.55 241.415 185.237C242.316 185.062 243.594 185.049 244.22 185.55C245.985 186.966 247.801 188.506 249.078 190.348C251.482 193.805 250.806 197.663 247.575 200.393C243.882 203.525 239.324 204.89 234.779 206.13C225.313 208.723 215.685 210.414 205.881 210.965C204.441 211.002 203.063 211.128 201.674 211.24ZM183.356 165.359C184.57 165.359 185.772 165.397 186.987 165.346C188.251 165.296 189.503 165.159 190.768 165.096C204.791 164.344 218.489 161.965 231.548 156.591C236.369 154.612 241.089 152.295 244.42 148.074C245.334 146.921 245.973 145.343 246.173 143.877C246.373 142.399 245.171 141.66 243.681 141.685C242.279 141.711 241.315 142.274 241.39 143.852C241.465 145.568 240.563 146.821 239.274 147.635C236.119 149.627 233.026 151.844 229.62 153.272C215.722 159.096 201.01 161.188 186.085 161.664C179.712 161.864 173.264 161.388 166.928 160.574C162.371 159.985 157.938 158.407 153.493 157.13C152.241 156.766 151.102 156.015 151.052 154.324C151.039 153.898 150.388 153.322 149.9 153.109C148.598 152.52 146.795 153.159 146.068 154.349C145.242 155.714 145.693 156.979 146.87 157.656C149.462 159.159 152.053 160.8 154.871 161.701C164.124 164.632 173.727 165.209 183.356 165.359ZM159.528 141.598C162.22 140.884 165.013 140.571 167.366 139.393C170.021 138.078 172.3 136.011 174.666 134.183C174.804 134.082 174.378 132.73 174.078 132.667C173.101 132.467 172.012 132.429 171.035 132.629C166.19 133.632 161.356 134.746 156.523 135.786C154.407 136.237 152.254 136.575 150.138 137.076C149.662 137.189 149.236 137.752 148.961 138.216C148.898 138.329 149.449 139.055 149.8 139.143C152.993 139.995 156.198 140.759 159.528 141.598ZM236.181 125.853C232.613 126.091 229.295 126.191 226.002 126.567C223.435 126.855 220.893 127.431 218.377 128.02C217.801 128.158 217.35 128.834 216.836 129.26C217.35 129.648 217.826 130.112 218.389 130.4C218.978 130.688 219.666 130.726 220.28 130.976C225.914 133.218 231.386 132.68 236.695 129.949C237.696 129.435 238.623 128.696 239.424 127.895C240.313 127.005 239.887 126.003 238.635 125.878C237.734 125.778 236.82 125.853 236.181 125.853ZM195.276 146.145C197.291 146.145 199.019 144.942 199.044 143.677C199.082 142.462 197.78 141.46 196.24 141.498C194.599 141.548 193.147 142.8 193.172 144.228C193.197 145.756 194.311 146.019 195.276 146.145ZM211.265 143.589C212.955 143.614 214.357 142.55 214.245 141.36C214.107 139.894 213.08 139.331 211.74 139.268C210.338 139.205 208.848 140.358 208.923 141.523C209.011 143.026 210.2 143.376 211.265 143.589Z" fill="white"/>
<path d="M337.976 216.702C337.976 212.982 337.976 209.449 337.976 205.754C342.07 204.589 346.252 204.69 350.384 205.842C361.565 208.948 368.715 218.468 368.74 230.129C368.765 240.751 364.72 249.932 358.523 258.237C346.878 273.806 331.427 283.626 312.521 288.085C312.296 288.136 312.058 288.148 311.569 288.223C311.832 287.722 311.995 287.397 312.183 287.083C315 282.512 317.805 277.927 320.685 273.38C321.098 272.729 321.761 272.078 322.462 271.815C332.417 267.994 341.068 262.27 348.03 254.191C353.051 248.367 356.945 241.866 358.247 234.087C360.276 221.912 351.185 213.445 339.228 216.414C338.815 216.501 338.414 216.602 337.976 216.702Z" fill="white"/>
<path d="M212.354 215.073C215.922 214.497 219.478 213.934 223.047 213.332C231.022 211.98 239.011 210.602 246.448 207.207C247.863 206.556 249.353 205.842 250.48 204.802C252.471 202.986 254.374 203.688 256.265 204.64C258.18 205.592 258.406 207.182 257.066 208.823C256.377 209.662 255.664 210.477 255.012 211.328C254.825 211.579 254.787 211.955 254.687 212.268C255.062 212.38 255.426 212.581 255.801 212.568C256.202 212.556 256.603 212.343 257.016 212.218C259.407 211.491 261.636 211.591 264.015 212.719C271.077 216.101 278.539 218.293 286.29 219.508C286.653 219.558 287.066 219.533 287.354 219.708C287.93 220.071 288.431 220.547 288.969 220.973C288.456 221.386 287.992 222.063 287.416 222.175C281.569 223.403 275.734 224.706 269.85 225.683C256.665 227.875 243.368 229.34 230.008 229.716C216.536 230.104 203.038 229.954 189.553 230.004C188.614 230.004 187.675 229.779 186.423 229.616C188.827 228.764 191.068 228.288 192.972 227.223C196.189 225.432 199.32 225.182 202.788 226.321C204.378 226.848 205.906 227.035 207.483 228.025C208.973 228.964 211.728 228.877 213.506 228.175C217.462 226.622 218.138 226.234 223.485 226.835C222.921 228.589 224.174 228.388 225.163 228.225C225.576 228.15 225.901 227.549 226.114 226.873C238.485 225.996 250.931 224.881 263.201 222.288C263.189 222.125 263.164 221.975 263.151 221.812C257.454 222.251 251.77 222.777 246.073 223.115C240.3 223.466 234.516 223.641 228.481 223.892C229.658 221.787 229.507 221.311 227.629 221.123C226.227 220.986 224.499 220.547 224.274 222.94C224.249 223.278 223.209 223.804 222.671 223.779C218.326 223.578 213.982 223.34 209.662 222.927C207.458 222.714 205.254 222.226 203.101 221.662C202.249 221.436 200.885 221.236 201.323 219.695C201.724 218.28 202.951 217.704 204.466 218.192C210.1 219.996 215.872 220.159 221.694 219.633C225.238 219.32 228.769 218.844 232.287 218.368C233.051 218.267 233.777 217.879 234.466 217.403C227.091 216.313 219.503 218.33 212.329 215.812C212.304 215.587 212.329 215.324 212.354 215.073ZM239.399 216.238C241.327 217.854 248.639 216.163 250.104 213.984C246.348 214.773 242.867 215.512 239.399 216.238ZM207.809 221.236C208.961 223.215 210.588 221.925 211.903 222.05C213.355 222.188 214.833 221.988 216.298 221.925C216.285 221.7 216.273 221.462 216.26 221.236C213.506 221.236 210.751 221.236 207.809 221.236ZM255.776 217.228C255.714 217.591 255.638 217.954 255.576 218.318C256.502 218.505 257.441 218.706 258.381 218.819C258.418 218.819 258.543 218.042 258.631 217.629C257.679 217.491 256.728 217.353 255.776 217.228ZM244.169 219.996C243.005 219.996 241.84 219.996 240.238 219.996C241.828 221.524 243.005 221.436 244.169 219.996ZM242.654 211.554C241.077 209.875 240.3 211.216 239.249 211.955C240.626 213.307 241.452 212.08 242.654 211.554ZM271.665 220.748C272.642 220.597 273.618 220.434 274.871 220.247C273.355 218.531 272.479 219.482 271.665 220.748Z" fill="white"/>
<path d="M299.349 203.662C298.823 206.806 298.447 209.988 297.734 213.082C297.195 215.411 296.394 215.725 293.94 215.787C285.338 216.025 277.437 213.295 269.675 210.025C267.796 209.236 267.371 208.41 268.41 206.631C270.038 203.838 272.054 201.282 273.907 198.627C277.312 193.767 282.17 192.727 287.654 193.429C290.797 193.83 293.79 194.631 296.444 196.498C298.322 197.813 299.524 199.354 299.086 201.796C298.986 202.385 299.074 202.998 299.074 203.612C299.174 203.637 299.261 203.65 299.349 203.662Z" fill="white"/>
<path d="M325.455 263.949C326.92 259.965 328.397 256.233 329.674 252.425C332.654 243.607 334.908 234.601 336.348 225.407C336.536 224.167 336.999 223.328 338.264 223.203C340.517 222.977 342.871 222.338 345.012 222.764C349.52 223.653 351.849 227.662 351.423 232.509C350.872 238.684 348.33 244.008 344.687 248.868C339.929 255.231 333.919 260.078 326.744 263.485C326.394 263.66 326.006 263.761 325.455 263.949Z" fill="white"/>
<path d="M304.295 149.414C303.018 152.996 301.891 156.303 300.664 159.56C297.859 167.063 294.979 174.553 292.2 182.068C291.824 183.095 291.336 183.396 290.334 183.158C289.645 182.995 288.932 182.895 287.968 182.72C288.619 179.651 289.144 176.645 289.921 173.701C291.937 166.136 294.128 158.608 296.119 151.03C296.657 149.001 297.646 148.224 299.687 148.662C301.139 148.976 302.617 149.151 304.295 149.414Z" fill="white"/>
<path d="M297.02 184.673C295.755 184.26 294.679 183.922 293.351 183.496C297.521 172.386 301.653 161.363 305.922 149.965C307.6 150.478 309.391 151.017 311.394 151.631C308.364 163.48 302.416 173.851 297.02 184.673Z" fill="white"/>
<path d="M312.959 152.47C313.297 152.52 313.422 152.507 313.523 152.557C317.905 154.787 318.005 154.987 316.24 159.522C312.496 169.129 307.124 177.847 301.477 186.552C300.902 186.302 300.413 186.114 299.937 185.901C299.512 185.7 299.099 185.45 298.46 185.112C303.932 174.44 309.629 163.956 312.959 152.47Z" fill="white"/>
<path d="M294.967 148.838C292.062 160.173 289.17 171.421 286.24 182.832C285.739 182.832 284.988 182.832 283.936 182.832C284.374 179.5 284.574 176.194 285.263 172.987C286.803 165.872 288.531 158.783 290.321 151.718C291.135 148.587 291.498 148.499 294.967 148.838Z" fill="white"/>
<path d="M285.463 186.014C291.361 186.139 296.219 187.341 300.651 190.047C303.055 191.512 303.331 192.765 302.028 194.919C301.415 195.934 300.826 196.285 299.75 195.433C296.394 192.803 292.5 191.337 288.331 190.773C286.027 190.46 283.648 190.648 281.294 190.611C280.442 190.598 279.353 191.6 278.877 190.097C278.514 188.945 279.641 186.828 280.806 186.615C282.584 186.277 284.387 186.139 285.463 186.014Z" fill="white"/>
<path d="M318.794 156.616C320.935 158.357 321.223 159.986 320.359 162.278C317.642 169.543 313.585 176.031 309.278 182.394C307.826 184.536 306.21 186.565 304.595 188.745C303.932 188.331 303.443 188.018 302.679 187.542C308.89 177.684 315.113 167.914 318.794 156.616Z" fill="white"/>
<path d="M289.244 149.589C288.944 150.729 288.694 151.756 288.406 152.77C285.726 162.415 283.522 172.16 282.596 182.168C282.546 182.707 281.607 183.158 281.081 183.646C280.855 183.508 280.643 183.383 280.417 183.245C280.542 181.291 280.593 179.337 280.793 177.396C281.732 168.753 283.335 160.248 286.252 152.031C286.853 150.315 287.016 150.203 289.244 149.589Z" fill="white"/>
<path d="M275.935 185.375C275.71 188.281 274.17 188.031 272.329 187.793C266.043 187.016 259.72 186.54 253.447 185.651C251.857 185.425 250.43 184.085 249.065 182.857C258.168 182.97 267.095 183.834 275.935 185.375Z" fill="white"/>
<path d="M300.664 218.919C301.79 217.716 302.642 216.877 303.406 215.975C304.182 215.048 304.107 214.259 303.481 213.069C302.83 211.829 302.942 210.176 302.704 208.598C305.609 208.56 307.901 209.249 309.879 210.702C312.17 212.38 312.083 214.322 309.716 215.9C307.124 217.654 304.169 218.393 300.664 218.919Z" fill="white"/>
<path d="M263.89 199.905C263.401 200.168 262.5 200.356 262.35 200.794C262.162 201.383 262.55 202.159 262.75 203.111C261.736 202.748 260.472 202.949 260.108 201.333C260.046 201.057 259.583 200.744 259.257 200.669C258.506 200.481 257.692 200.481 256.941 200.268C256.49 200.13 256.114 199.717 255.714 199.429C256.127 199.078 256.565 198.389 256.953 198.414C259.407 198.59 262.087 197.913 263.89 199.905Z" fill="white"/>
<path d="M313.785 262.232C309.816 270.286 305.459 277.451 300.401 284.177C291.198 296.44 279.967 306.248 265.743 312.297C257.129 315.955 248.063 317.972 238.848 319.437C226.803 321.354 214.658 321.98 202.5 321.792C194.962 321.679 187.437 320.89 179.925 320.139C170.046 319.149 160.342 317.17 151.002 313.713C138.255 308.991 127.563 301.338 118.51 291.254C110.735 282.587 104.574 272.892 99.3406 262.27C99.6912 262.308 99.879 262.283 100.017 262.345C113.477 268.545 127.65 272.566 142.124 275.397C152.955 277.514 163.911 279.13 174.866 280.445C188.514 282.086 202.25 282.349 215.997 282.098C228.531 281.86 241.002 280.858 253.397 279.092C265.543 277.363 277.613 275.146 289.407 271.739C297.634 269.36 305.672 266.391 313.785 262.232ZM125.296 289.163C125.835 288.449 126.786 287.76 126.836 287.021C126.924 285.718 125.835 284.879 124.57 285.092C123.819 285.217 122.842 285.956 122.604 286.632C122.254 287.634 123.694 288.849 125.296 289.163ZM117.859 277.088C117.546 277.464 116.807 277.99 116.682 278.629C116.494 279.668 118.059 281.046 119.086 280.745C119.662 280.582 120.463 279.818 120.476 279.305C120.513 278.04 119.662 277.251 117.859 277.088ZM133.873 291.718C133.272 292.407 132.997 292.72 132.709 293.033C133.498 293.684 134.274 294.361 135.113 294.937C135.2 295 135.726 294.436 136.052 294.16C135.401 293.421 134.737 292.682 133.873 291.718ZM256.24 303.53C255.401 303.003 254.9 302.465 254.624 302.553C254.099 302.74 253.698 303.292 253.247 303.692C253.61 303.98 253.986 304.519 254.324 304.481C254.825 304.444 255.313 304.005 256.24 303.53ZM274.345 288.336C274.896 287.672 275.309 287.246 275.584 286.758C275.622 286.695 274.871 285.969 274.695 286.044C274.169 286.269 273.744 286.733 273.28 287.108C273.556 287.422 273.831 287.735 274.345 288.336ZM287.717 286.294C287.83 286.57 287.955 286.833 288.068 287.108C288.593 286.92 289.107 286.733 289.633 286.532C289.482 286.194 289.345 285.856 289.194 285.518C288.706 285.781 288.205 286.044 287.717 286.294Z" fill="#2E1A14"/>
<path d="M183.356 165.359C173.727 165.209 164.123 164.632 154.883 161.714C152.066 160.825 149.462 159.171 146.882 157.668C145.705 156.992 145.255 155.727 146.081 154.361C146.807 153.171 148.61 152.533 149.912 153.121C150.401 153.347 151.052 153.91 151.064 154.336C151.102 156.015 152.254 156.779 153.506 157.142C157.951 158.42 162.396 160.01 166.941 160.587C173.276 161.401 179.724 161.877 186.098 161.676C201.022 161.2 215.734 159.109 229.633 153.284C233.038 151.856 236.144 149.639 239.286 147.648C240.576 146.833 241.477 145.568 241.402 143.865C241.327 142.287 242.291 141.723 243.694 141.698C245.184 141.673 246.398 142.412 246.185 143.89C245.985 145.355 245.346 146.934 244.432 148.086C241.102 152.307 236.381 154.612 231.561 156.603C218.514 161.964 204.816 164.344 190.78 165.108C189.516 165.171 188.264 165.309 186.999 165.359C185.772 165.396 184.57 165.359 183.356 165.359Z" fill="#2E1A14"/>
<path d="M159.528 141.597C156.198 140.771 152.993 139.994 149.8 139.155C149.437 139.055 148.886 138.341 148.961 138.228C149.236 137.765 149.662 137.201 150.138 137.088C152.241 136.587 154.395 136.249 156.523 135.798C161.369 134.758 166.19 133.644 171.035 132.642C172.012 132.441 173.101 132.479 174.078 132.679C174.391 132.742 174.804 134.082 174.666 134.195C172.3 136.024 170.021 138.09 167.366 139.405C165.013 140.558 162.22 140.871 159.528 141.597Z" fill="#2E1A14"/>
<path d="M236.181 125.853C236.832 125.853 237.746 125.778 238.635 125.865C239.887 125.991 240.313 126.993 239.424 127.882C238.623 128.684 237.696 129.423 236.695 129.936C231.386 132.654 225.914 133.193 220.28 130.963C219.666 130.725 218.977 130.675 218.389 130.387C217.826 130.111 217.35 129.635 216.836 129.247C217.35 128.821 217.801 128.132 218.376 128.007C220.893 127.418 223.435 126.855 226.002 126.554C229.282 126.178 232.613 126.078 236.181 125.853Z" fill="#2E1A14"/>
<path d="M195.275 146.144C194.324 146.019 193.21 145.756 193.172 144.228C193.147 142.813 194.587 141.548 196.24 141.497C197.792 141.447 199.082 142.449 199.044 143.677C199.007 144.942 197.291 146.144 195.275 146.144Z" fill="#2E1A14"/>
<path d="M211.265 143.589C210.2 143.389 209.011 143.038 208.911 141.523C208.836 140.358 210.326 139.205 211.728 139.268C213.068 139.331 214.094 139.894 214.232 141.36C214.345 142.55 212.955 143.614 211.265 143.589Z" fill="#2E1A14"/>
<path d="M239.399 216.238C242.88 215.499 246.348 214.773 250.104 213.983C248.639 216.163 241.327 217.854 239.399 216.238Z" fill="#2E1A14"/>
<path d="M207.809 221.236C210.751 221.236 213.506 221.236 216.26 221.236C216.273 221.461 216.285 221.699 216.298 221.925C214.833 221.975 213.356 222.188 211.903 222.05C210.601 221.925 208.961 223.202 207.809 221.236Z" fill="#2E1A14"/>
<path d="M255.776 217.228C256.728 217.365 257.679 217.491 258.631 217.628C258.543 218.042 258.406 218.831 258.381 218.818C257.442 218.693 256.515 218.505 255.576 218.317C255.639 217.954 255.714 217.591 255.776 217.228Z" fill="#2E1A14"/>
<path d="M244.169 219.996C243.005 221.449 241.815 221.524 240.238 219.996C241.84 219.996 243.005 219.996 244.169 219.996Z" fill="#2E1A14"/>
<path d="M242.654 211.554C241.452 212.08 240.626 213.307 239.249 211.954C240.288 211.215 241.077 209.888 242.654 211.554Z" fill="#2E1A14"/>
<path d="M271.665 220.747C272.479 219.482 273.356 218.53 274.871 220.246C273.619 220.434 272.642 220.597 271.665 220.747Z" fill="#2E1A14"/>
<path d="M125.296 289.162C123.694 288.849 122.254 287.634 122.604 286.632C122.842 285.943 123.819 285.204 124.57 285.091C125.835 284.891 126.924 285.718 126.836 287.02C126.786 287.759 125.835 288.448 125.296 289.162Z" fill="white"/>
<path d="M117.859 277.088C119.662 277.251 120.513 278.04 120.476 279.305C120.463 279.818 119.662 280.583 119.086 280.745C118.059 281.033 116.494 279.656 116.682 278.629C116.807 277.99 117.546 277.464 117.859 277.088Z" fill="white"/>
<path d="M133.873 291.718C134.737 292.682 135.401 293.421 136.052 294.16C135.726 294.436 135.213 294.999 135.113 294.937C134.274 294.361 133.498 293.684 132.709 293.033C132.997 292.72 133.272 292.394 133.873 291.718Z" fill="white"/>
<path d="M256.24 303.529C255.326 304.018 254.837 304.444 254.311 304.494C253.973 304.519 253.598 303.98 253.235 303.705C253.685 303.304 254.086 302.753 254.612 302.565C254.887 302.452 255.388 302.991 256.24 303.529Z" fill="white"/>
<path d="M274.345 288.336C273.831 287.747 273.556 287.421 273.293 287.108C273.756 286.732 274.182 286.269 274.708 286.044C274.883 285.968 275.634 286.695 275.597 286.757C275.309 287.246 274.896 287.672 274.345 288.336Z" fill="white"/>
<path d="M287.717 286.294C288.205 286.031 288.706 285.781 289.195 285.518C289.345 285.856 289.482 286.194 289.633 286.532C289.107 286.72 288.594 286.908 288.068 287.108C287.955 286.845 287.83 286.57 287.717 286.294Z" fill="white"/>
</g>
<defs>
<clipPath id="clip0_702_1344">
<rect width="300" height="238" fill="white" transform="translate(75 106)"/>
</clipPath>
</defs>
</svg>
