<svg id="Layer_1" data-name="Layer 1" xmlns="http://www.w3.org/2000/svg" viewBox="0 0 340.157 340.157"><defs><style>.cls-1{fill:#fff;}.cls-2{fill:#2e1a14;}</style></defs><path d="M106.239,61.719c1.469,1.278,2.966,2.524,4.4,3.839q6.321,5.791,12.6,11.63a2.5,2.5,0,0,0,2.652.59c5.983-1.905,10.958.333,15.573,3.876a6.955,6.955,0,0,1,2.429,4.3c.055.267.108.533.185.911.671-.05,1.3-.107,1.923-.141q5.386-.287,10.775-.565c.318-.017.637-.078.955-.073a.75.75,0,0,0,.827-.671c1.436-5.413,5.473-8.3,10.31-10.207,1.613-.635,3.525-.552,5.308-.7a11.684,11.684,0,0,1,2.386.193,6.834,6.834,0,0,1,4.348,2.538,17.419,17.419,0,0,1,3.535,6.476,3.954,3.954,0,0,0,2.765,2.814,30.017,30.017,0,0,1,12.456,8.05,15.982,15.982,0,0,1,4.615,11.483,17.229,17.229,0,0,1-3.934,10.219c-.781,1.012-1.631,1.971-2.447,2.957-.3.364-.594.736-1.021,1.265,1.906.449,3.635.9,5.385,1.243a4.975,4.975,0,0,0,1.776-.125,4.515,4.515,0,0,1,3.929.959,1.407,1.407,0,0,0,.933.368,12.391,12.391,0,0,1,9.75,3.142,3.108,3.108,0,0,0,3.066.679,6.021,6.021,0,0,1,6.124,1.821,34.531,34.531,0,0,1,3.386,3.875,7.693,7.693,0,0,1,1.071,7.3,31.378,31.378,0,0,0-1.544,9.781q-.26,11.448-.528,22.894a11.986,11.986,0,0,0,.116,1.251c.585-.224,1.058-.379,1.508-.581,2.656-1.191,5.225-2.6,8.106-3.219,4.953-1.055,9.527-.353,13.543,2.95a22.832,22.832,0,0,0,2.621,1.9,8.849,8.849,0,0,1,4.182,6.412,73.684,73.684,0,0,1,1.262,11.788,3.446,3.446,0,0,0,.193.778v9.84a1.336,1.336,0,0,0-.2.394,25.542,25.542,0,0,1-4.92,12.072c-2.109,2.862-4.386,5.6-6.558,8.416a24.645,24.645,0,0,1-4.916,4.712c-1.924,1.431-3.849,2.863-5.724,4.357a51.459,51.459,0,0,1-7.673,4.877,37.318,37.318,0,0,0-4.588,3.021,14.271,14.271,0,0,1-4.345,2.48,3.607,3.607,0,0,0-2.515,2.473,20.124,20.124,0,0,1-3.6,6.451,5.16,5.16,0,0,0-.741,1.358c-.921,2.165-1.833,4.334-2.717,6.515a6.6,6.6,0,0,0-.47,1.708c-.278,2.421-.514,4.846-.745,7.271a3.985,3.985,0,0,1-2.714,3.575,42.051,42.051,0,0,1-10.565,2.539c-4.034.563-8.088,1-12.138,1.434-3.533.382-7.073.691-10.609,1.042a1.467,1.467,0,0,0-.418.185H164.8a1.862,1.862,0,0,0-.53-.191c-2.114-.093-4.23-.188-6.346-.247q-9.047-.256-18.1-.483a127.61,127.61,0,0,1-28.855-4.309,2.569,2.569,0,0,1-2.32-2.634c-.311-2.256-.607-4.515-.962-6.764a4.787,4.787,0,0,0-.587-1.527,60.866,60.866,0,0,1-3-5.3,191.851,191.851,0,0,1-8.432-22.139c-1.167-3.98-2.665-7.862-3.384-11.971-.9-5.154-1.89-10.294-2.746-15.455-.974-5.87-1.878-11.753-2.751-17.639-.732-4.94-1.36-9.9-2.063-14.839a100.092,100.092,0,0,1-1.283-13.714c-.017-4.718,0-9.437-.068-14.154a6.916,6.916,0,0,0-.631-2.506,10.377,10.377,0,0,1-.8-3.59c-.151-2.99.91-5.122,3.867-6.136a1.4,1.4,0,0,0,.707-.831,9.111,9.111,0,0,1,3.582-4.961,19.472,19.472,0,0,1,8.289-3.258,1.442,1.442,0,0,0,.845-.324c2.219-2.555,5.188-3.628,8.364-4.313.494-.106.981-.238,1.557-.379-.827-1.456-1.624-2.788-2.346-4.159a6.674,6.674,0,0,1-.8-2.106,4.577,4.577,0,0,0-1.423-2.818q-3-2.852-5.972-5.727-8.5-8.2-17.005-16.4A8.551,8.551,0,0,0,78.4,87.159v-.24a6.277,6.277,0,0,1,.7-1.23c1.714-1.9,3.357-3.878,5.223-5.616,4.709-4.387,9.514-8.669,14.3-12.973,2.223-2,4.369-4.108,7.142-5.381ZM85.581,155.168a109.546,109.546,0,0,0,.622,11.617c.464,3.726,1.009,7.443,1.558,11.158.985,6.678,1.966,13.357,3.015,20.025q1.181,7.517,2.534,15.005c.854,4.754,1.64,9.529,2.746,14.227,2.248,9.551,5.832,18.657,9.653,27.67a22.506,22.506,0,0,0,3.753,5.961,7.27,7.27,0,0,0,2.713,2.115c1.031.422,2.037.9,3.066,1.329a47.262,47.262,0,0,0,5.331,2.131c3.612,1,7.275,1.832,10.934,2.657a28.216,28.216,0,0,0,5.535.933c6.2.128,12.4.079,18.6.079,2.078,0,4.159-.013,6.235-.095,4.991-.2,9.978-.473,14.968-.65a53.945,53.945,0,0,0,13.61-1.845,67.067,67.067,0,0,1,8.162-1.91,29.161,29.161,0,0,0,10.828-4.31,3.836,3.836,0,0,0,1.392-1.409c.99-2,1.852-4.067,2.779-6.1a18.082,18.082,0,0,1,1.269-2.573,45.2,45.2,0,0,0,6.517-16.869c.835-4.384,1.179-8.865,1.688-13.309.787-6.868,1.563-13.737,2.275-20.612.511-4.928.933-9.866,1.355-14.8.4-4.618.813-9.237,1.083-13.863.3-5.064.436-10.138.638-15.208a6.626,6.626,0,0,0-.078-.805c-.4.214-.7.377-1,.542-3.12,1.7-6.166,3.556-9.375,5.068a85.93,85.93,0,0,1-22.436,6.685c-5.824.988-11.685,1.828-17.561,2.434-5.478.565-10.994.823-16.5,1.046-3.508.143-7.033.068-10.543-.074-4.629-.187-9.27-.37-13.873-.857-5.638-.6-11.26-1.4-16.856-2.312a85.5,85.5,0,0,1-21.442-6.271c-4.032-1.818-7.871-4.064-11.8-6.116C86.591,155.662,86.206,155.479,85.581,155.168Zm61.451-23.5v.086c1.757,0,3.525.132,5.267-.026,4.294-.391,8.59-.821,12.86-1.411a61.982,61.982,0,0,0,13.325-3.39,7,7,0,0,0,2.77-1.818,14.37,14.37,0,0,1,8.444-4.4,6.736,6.736,0,0,0,2.567-.891,23.956,23.956,0,0,0,8.25-9.17,11.21,11.21,0,0,0-.495-11.434,19.866,19.866,0,0,0-4.968-5.312,46.663,46.663,0,0,0-10.14-5.615,4.49,4.49,0,0,1-2.6-2.893c-.638-1.844-1.386-3.656-2.2-5.431a5.075,5.075,0,0,0-3.648-3.028,12.818,12.818,0,0,0-2.86-.179c-3.749.088-6.815,1.8-9.593,4.149a11.089,11.089,0,0,0-3.6,5.27c-.451,1.467-1.067,1.847-2.643,1.944q-6.877.426-13.753.891c-1.793.122-2.445-.308-2.589-2.132a5.552,5.552,0,0,0-2.049-3.787,16.041,16.041,0,0,0-7.694-3.659,8.706,8.706,0,0,0-5.353.67,9.625,9.625,0,0,0-5.792,6.268c-.71,2.209-1.578,4.367-1.6,6.719a2.6,2.6,0,0,1-1.24,2.28,25.311,25.311,0,0,0-7.742,8.386,12.777,12.777,0,0,0-.937,11.19,17.58,17.58,0,0,0,6.828,8.125,3.855,3.855,0,0,0,3.265.65,26.811,26.811,0,0,1,9.489-.844c4.64.612,8.373,2.514,10.676,6.753.1.175.21.34.319.507a2.492,2.492,0,0,0,2.173,1.246C143.525,131.425,145.278,131.571,147.032,131.673Zm61.729-5.561c.244.159.387.234.51.334,3.356,2.753,3.624,6.66.526,9.654a47.967,47.967,0,0,1-5,4.095,16.334,16.334,0,0,1-5.9,2.556c-2.559.625-4.74.154-6.278-2.233-1.335.862-2.6,1.808-4.311,1.481a6.238,6.238,0,0,1-3.675-2.669c-.3.2-.53.353-.763.5a3.942,3.942,0,0,1-4.307.124,5.75,5.75,0,0,1-2.864-6.4c.23-.95.5-1.89.8-2.984-.682.169-1.221.278-1.745.436a89.721,89.721,0,0,1-32.488,3.338,11.492,11.492,0,0,0-1.671.131,5.362,5.362,0,0,1-.791,5.131,6.5,6.5,0,0,1-7.061,2.65,5.616,5.616,0,0,0-3.3.193,5.8,5.8,0,0,1-5.295-.348,2.182,2.182,0,0,0-2.176-.066,8.333,8.333,0,0,1-5.5.632c-1.99-.411-3.95-.97-5.921-1.475a7.62,7.62,0,0,1-5.566-5.429,4.4,4.4,0,0,1,.379-3.792,13.2,13.2,0,0,1,4.331-4.721c1.061-.673,2.064-1.439,3.148-2.2-.615-.551-1.129-.941-1.555-1.411a2.166,2.166,0,0,0-2.605-.57c-1.46.541-2.934,1.046-4.4,1.566a9.873,9.873,0,0,0-4.035,2.5,4.106,4.106,0,0,1-3.011,1.273,13.2,13.2,0,0,0-1.909.143c-3.073.532-5.233,2.435-7.047,4.812a2.181,2.181,0,0,0-.39,1.112,2.239,2.239,0,0,1-2.235,2.333,2.182,2.182,0,0,0-1.783,1.262c-1.206,2.349-1.111,5.318,2.079,6.727a28.654,28.654,0,0,0,8.024,2.342,31.623,31.623,0,0,1,12.049,4.1,32.233,32.233,0,0,0,4.536,2.145,23.445,23.445,0,0,0,9.2,1.264,31.192,31.192,0,0,1,12.241,1.867,12.26,12.26,0,0,0,5.668.682c3.5-.344,7-.731,10.5-1.067a21.491,21.491,0,0,1,8.785.587c1.481.477,2.988.876,4.473,1.343a9.718,9.718,0,0,0,5.194.364,18.961,18.961,0,0,1,9.6.276,9.5,9.5,0,0,0,6.564-.475,83.011,83.011,0,0,1,14.351-4.594c3.3-.778,6.651-1.421,9.873-2.456a24.253,24.253,0,0,1,8.2-1.407,8.093,8.093,0,0,0,6.711-3.137c.328-.4.676-.79,1.038-1.162a4.267,4.267,0,0,1,2.552-1.44,2.354,2.354,0,0,0,1.879-1.523,29.72,29.72,0,0,0,1.449-4.041,5.886,5.886,0,0,0-1.735-5.806c-.5-.516-1.006-1.033-1.461-1.589a4.488,4.488,0,0,0-5.449-1.557c-.15.055-.3.095-.458.138a2.048,2.048,0,0,1-2.266-.681c-1.883-2.158-4.418-3.078-7.1-3.691A2.675,2.675,0,0,0,208.761,126.112ZM228.6,146.455a3.632,3.632,0,0,0-3.547,1.581,10.055,10.055,0,0,1-9.215,4.1,13.129,13.129,0,0,0-4.71.647c-3.208.967-6.415,1.945-9.658,2.782a92.847,92.847,0,0,0-14.836,4.657,16.327,16.327,0,0,1-10.408,1.138,17.646,17.646,0,0,0-7.021-.282,13.061,13.061,0,0,1-2.146.193,22.85,22.85,0,0,1-7.525-1.282,17.19,17.19,0,0,0-6.829-1.025q-5.97.5-11.938,1.05a19.027,19.027,0,0,1-8.981-.879,22.081,22.081,0,0,0-9.281-1.447,32.9,32.9,0,0,1-7.4-.453,24.46,24.46,0,0,1-10.689-4.251,14.135,14.135,0,0,0-6.3-2.476,62.193,62.193,0,0,1-11.981-2.853,2.755,2.755,0,0,0-.544-.094,4.793,4.793,0,0,0,1.844,5.758c.424.3.89.537,1.31.841a55.152,55.152,0,0,0,14.851,7.39,145.707,145.707,0,0,0,34.932,6.93,215.489,215.489,0,0,0,26.469.493,181.486,181.486,0,0,0,29.836-3.542,124.45,124.45,0,0,0,23-6.983,49.893,49.893,0,0,0,9.918-5.537c.407-.294.878-.523.865-1.184C228.575,150.011,228.6,148.3,228.6,146.455ZM222.632,240.7a14.641,14.641,0,0,0,1.778-1.444,15.374,15.374,0,0,1,5.42-3.871,26.951,26.951,0,0,0,5.333-3.187c2.041-1.543,4.108-3.05,6.138-4.607a40.042,40.042,0,0,0,4.752-3.831c2.453-2.567,4.753-5.291,6.987-8.055a27.991,27.991,0,0,0,4.826-8.506,26.177,26.177,0,0,0,.965-10.2c-.256-4.3-.733-8.594-1.154-12.886a10.149,10.149,0,0,0-4.875-7.978c-.81-.512-1.592-1.068-2.374-1.621a11.59,11.59,0,0,0-8.646-2.019c-3.829.554-7.352,2.108-10.948,3.417a1.481,1.481,0,0,0-1.045,1.334c-.144,1.667-.283,3.335-.392,5-.035.529.032,1.065.058,1.737,1.117-.536,2.038-1,2.973-1.423a9.828,9.828,0,0,1,6.317-.7,11.442,11.442,0,0,1,9.1,10.793,28.274,28.274,0,0,1-1.82,11.5c-1.235,3.48-3.413,6.375-5.564,9.319a36.315,36.315,0,0,1-13.777,11.252A2.806,2.806,0,0,0,225,227.122c-.391,2.968-.868,5.926-1.366,8.878C223.381,237.481,223.01,238.942,222.632,240.7ZM122.238,79.38c-1.158-1.074-2.212-2.05-3.265-3.028q-4.608-4.285-9.213-8.574c-1.108-1.036-2.165-2.128-3.289-3.146a1.344,1.344,0,0,0-2.121-.071c-1.012.782-2.024,1.571-2.968,2.43-6.745,6.133-13.392,12.369-19.757,18.9-.241.247-.457.52-.73.833.8.731,1.528,1.4,2.261,2.076,2.978,2.725,6.021,5.383,8.917,8.192,3.674,3.561,7.222,7.252,10.843,10.869.693.692,1.471,1.3,2.359,2.075l.9-3.44c-1.353-1.288-2.639-2.483-3.89-3.713-.823-.809-.853-1.115-.032-1.877,2.636-2.448,5.313-4.85,7.968-7.278a1.165,1.165,0,0,1,1.706-.03c.753.59,1.538,1.139,2.339,1.727l2.4-2.073c-.534-.335-.957-.56-1.334-.847a8.45,8.45,0,0,1-1.063-.965c-.845-.907-.9-1.428-.109-2.417.622-.778,1.348-1.473,2.042-2.192A62.979,62.979,0,0,0,122.238,79.38ZM225.73,221.833a3.728,3.728,0,0,0,.512-.146,7.655,7.655,0,0,0,.733-.4,40.993,40.993,0,0,0,14.287-15.02A23.069,23.069,0,0,0,244.23,192.1c-.2-1.535-.3-3.105-1.44-4.349a9.215,9.215,0,0,0-4.239-2.808,7.318,7.318,0,0,0-3.049-.242,17.983,17.983,0,0,0-5.677,2.157,1.165,1.165,0,0,0-.7,1.008c-.383,4.013-.8,8.023-1.2,12.034q-.8,7.923-1.6,15.846C226.124,217.73,225.937,219.712,225.73,221.833Zm-30.651-88.81a1.6,1.6,0,0,1,.536,2.073c-.4.957-.846,1.893-1.277,2.836-.745,1.628-.113,2.668,1.663,2.749a9.515,9.515,0,0,0,4.3-.882,33.017,33.017,0,0,0,8.008-5.215,4.229,4.229,0,0,0-.034-6.45,49.276,49.276,0,0,0-6.426-4.149c-2.134-1.151-4.588-1.332-6.98-1.52a24.973,24.973,0,0,0-8.27,1.1,5.411,5.411,0,0,0-1.891,1,17.842,17.842,0,0,0-6.252,10.228,3.157,3.157,0,0,0,3.18,3.5,2.028,2.028,0,0,0,1.144-.558,14.382,14.382,0,0,0,1.65-2.042c.817-1.231,1.554-2.514,2.332-3.77a5.287,5.287,0,0,1,.616-.884,1.116,1.116,0,0,1,1.514-.229c.5.316.454.812.276,1.284a7.278,7.278,0,0,1-.49.959c-.641,1.151-1.341,2.273-1.922,3.454a2.2,2.2,0,0,0,2.253,3.326,2.6,2.6,0,0,0,2.158-1.321q1.284-2.091,2.494-4.226C193.988,133.72,194.286,133.166,195.079,133.023Zm-66.1,1a2.886,2.886,0,0,1,3.372,1.47,13.033,13.033,0,0,1,1.009,3.149c.113.474.2.816.715.949a4.239,4.239,0,0,0,4.1-1.047,3.208,3.208,0,0,0,1.126-3.652,14.45,14.45,0,0,0-4.992-7.159,13.823,13.823,0,0,0-8.175-2.7,27.434,27.434,0,0,0-12.772,3.158,12.661,12.661,0,0,0-4.447,3.58,4.092,4.092,0,0,0,1.36,6.482,20.041,20.041,0,0,0,3.191,1.348,17.085,17.085,0,0,0,7.4,1.106c2.7-.295,3.412-1.812,1.983-4.139-.536-.873-1.118-1.716-1.707-2.615,2.021-.059,3.612,2.054,4.416,5.822a20.659,20.659,0,0,0,2.412.8,3.091,3.091,0,0,0,3.2-1.427,2.654,2.654,0,0,0-.467-3.2c-.25-.307-.571-.557-.836-.853C129.583,134.789,129.329,134.451,128.983,134.025Zm80.73,130.684c-.6.332-1.095.576-1.561.865a19.638,19.638,0,0,1-6.485,2.706c-3.483.7-6.953,1.477-10.432,2.2a57.332,57.332,0,0,1-10.054,1.535c-3.553.1-7.1.39-10.65.6-4.268.248-8.533.61-12.8.716-5.673.14-11.35.09-17.026.1a15.845,15.845,0,0,1-2.867-.185c-3.18-.582-6.359-1.185-9.516-1.877-5.29-1.16-10.439-2.7-14.978-5.824a3.251,3.251,0,0,0-2.634-.468c.3,1.918.58,3.8.921,5.671.04.218.407.467.667.538.846.229,1.708.405,2.572.56,3.774.676,7.528,1.577,11.333,1.95,6.12.6,12.272.9,18.415,1.231,6.344.338,12.7.476,19.041.845a110.815,110.815,0,0,0,21.883-.884c5.342-.748,10.7-1.35,16.047-2.092,2.211-.308,4.4-.786,6.589-1.237.713-.147,1.48-.48,1.515-1.321C209.766,268.517,209.713,266.691,209.713,264.709Z"/><path class="cls-1" d="M85.581,155.168c.625.311,1.01.494,1.388.691,3.927,2.052,7.766,4.3,11.8,6.116a85.5,85.5,0,0,0,21.442,6.271c5.6.915,11.218,1.714,16.856,2.312,4.6.487,9.244.67,13.873.857,3.51.142,7.035.217,10.543.074,5.507-.223,11.023-.481,16.5-1.046,5.876-.606,11.737-1.446,17.561-2.434a85.93,85.93,0,0,0,22.436-6.685c3.209-1.512,6.255-3.368,9.375-5.068.3-.165.606-.328,1-.542a6.626,6.626,0,0,1,.078.805c-.2,5.07-.342,10.144-.638,15.208-.27,4.626-.688,9.245-1.083,13.863-.422,4.937-.844,9.875-1.355,14.8-.712,6.875-1.488,13.744-2.275,20.612-.509,4.444-.853,8.925-1.688,13.309a45.2,45.2,0,0,1-6.517,16.869,18.082,18.082,0,0,0-1.269,2.573c-.927,2.033-1.789,4.1-2.779,6.1a3.836,3.836,0,0,1-1.392,1.409,29.161,29.161,0,0,1-10.828,4.31,67.067,67.067,0,0,0-8.162,1.91,53.945,53.945,0,0,1-13.61,1.845c-4.99.177-9.977.454-14.968.65-2.076.082-4.157.095-6.235.095-6.2,0-12.4.049-18.595-.079a28.216,28.216,0,0,1-5.535-.933c-3.659-.825-7.322-1.652-10.934-2.657a47.262,47.262,0,0,1-5.331-2.131c-1.029-.426-2.035-.907-3.066-1.329a7.27,7.27,0,0,1-2.713-2.115,22.506,22.506,0,0,1-3.753-5.961c-3.821-9.013-7.405-18.119-9.653-27.67-1.106-4.7-1.892-9.473-2.746-14.227q-1.346-7.49-2.534-15.005c-1.049-6.668-2.03-13.347-3.015-20.025-.549-3.715-1.094-7.432-1.558-11.158A109.546,109.546,0,0,1,85.581,155.168Zm5.953,12.08c.1,1.093.143,2.162.29,3.217.886,6.331,1.642,12.684,2.727,18.98,2.2,12.794,4.833,25.5,8.281,38.032,2.077,7.544,3.9,15.159,6.77,22.461.716,1.82,1.388,3.658,2.111,5.475a4.275,4.275,0,0,0,3.073,2.774,3.664,3.664,0,0,1,1.172.57,14.547,14.547,0,0,0,4.785,2.148q5.988,1.485,11.989,2.907a70.127,70.127,0,0,0,10.576,1.3,121.6,121.6,0,0,0,28.216-.949c4.978-.751,9.978-1.355,14.964-2.054s9.972-1.39,14.945-2.165a8.4,8.4,0,0,0,6.61-4.979c.915-1.95,1.828-3.907,2.615-5.912a137.737,137.737,0,0,0,6.2-21.493c.8-3.705,1.375-7.463,1.911-11.217.474-3.321.768-6.668,1.116-10.006.464-4.451.967-8.9,1.333-13.357.356-4.34.565-8.692.827-13.04q.328-5.443.621-10.89a17.4,17.4,0,0,0-.11-1.865c-1.2.862-2.183,1.616-3.214,2.29a23.7,23.7,0,0,0-5.6,5.195c-1.69,2.127-3.493,4.165-5.262,6.228a5.116,5.116,0,0,1-3.329,1.978,8.076,8.076,0,0,0-4.656,2.24c-2.454,2.163-4.431,4.646-5.08,7.926-.34,1.718-.43,3.486-.614,5.234-.408,3.892-.749,7.793-1.232,11.677a32.611,32.611,0,0,1-1.069,4.667,2.439,2.439,0,0,1-2.069,1.923,2.368,2.368,0,0,1-2.6-1.312,10.525,10.525,0,0,1-1.075-2.391,28.746,28.746,0,0,1-.8-7.965c.066-1.836.158-3.675.145-5.511-.036-4.877-.04-9.756-.232-14.627a29.61,29.61,0,0,0-.992-5.4c-.23-.99-.321-.91-1.355-.827-3.661.293-7.326.768-10.989.763-7.473-.012-14.945-.283-22.417-.462a104.681,104.681,0,0,1-13.145-.942c-2.8-.424-5.586-.977-8.384-1.433-3.508-.572-4.767.388-5.313,3.884a10.54,10.54,0,0,1-.745,2.757,3.61,3.61,0,0,1-5.712,1.355,8.779,8.779,0,0,1-1.486-1.552c-.7-.9-1.326-1.863-2-2.829a4.033,4.033,0,0,0-.5,3.89c.493,1.477,1,2.95,1.442,4.441,1.38,4.608,2.1,9.274,1.1,14.068a4.43,4.43,0,0,1-.47,1.341,1.863,1.863,0,0,1-3.119.434,7.179,7.179,0,0,1-1.47-2.151,54.288,54.288,0,0,1-2.406-6.259c-1.752-6.1-3.392-12.233-5.018-18.368a13.6,13.6,0,0,0-3.708-6.729,38.4,38.4,0,0,0-3.968-3.087A3.865,3.865,0,0,0,91.534,167.248Z"/><path class="cls-1" d="M147.032,131.673c-1.754-.1-3.507-.248-5.263-.289a2.492,2.492,0,0,1-2.173-1.246c-.109-.167-.224-.332-.319-.507-2.3-4.239-6.036-6.141-10.676-6.753a26.811,26.811,0,0,0-9.489.844,3.855,3.855,0,0,1-3.265-.65,17.58,17.58,0,0,1-6.828-8.125,12.777,12.777,0,0,1,.937-11.19,25.311,25.311,0,0,1,7.742-8.386,2.6,2.6,0,0,0,1.24-2.28c.026-2.352.894-4.51,1.6-6.719a9.625,9.625,0,0,1,5.792-6.268,8.706,8.706,0,0,1,5.353-.67,16.041,16.041,0,0,1,7.694,3.659,5.552,5.552,0,0,1,2.049,3.787c.144,1.824.8,2.254,2.589,2.132q6.875-.47,13.753-.891c1.576-.1,2.192-.477,2.643-1.944a11.089,11.089,0,0,1,3.6-5.27c2.778-2.346,5.844-4.061,9.593-4.149a12.818,12.818,0,0,1,2.86.179,5.075,5.075,0,0,1,3.648,3.028c.814,1.775,1.562,3.587,2.2,5.431a4.49,4.49,0,0,0,2.6,2.893,46.663,46.663,0,0,1,10.14,5.615,19.866,19.866,0,0,1,4.968,5.312,11.21,11.21,0,0,1,.495,11.434,23.956,23.956,0,0,1-8.25,9.17,6.736,6.736,0,0,1-2.567.891,14.37,14.37,0,0,0-8.444,4.4,7,7,0,0,1-2.77,1.818,61.982,61.982,0,0,1-13.325,3.39c-4.27.59-8.566,1.02-12.86,1.411-1.742.158-3.51.026-5.267.026ZM132.875,102.5c-.792.494-1.4.871-2.009,1.258a3.92,3.92,0,0,0-.471.371c-.907.8-.8,1.339.259,1.874a6.286,6.286,0,0,1,1.716,1.211c1.571,1.649,3.043,3.392,4.613,5.043a22.706,22.706,0,0,0,11.973,6.878,32.284,32.284,0,0,0,13.922-.088c8.728-2,15.383-6.812,19.564-14.849.53-1.018,1.174-1.979,1.671-3.012a1.432,1.432,0,0,0-.024-1.2,3.488,3.488,0,0,0-3.564-1.255,2.473,2.473,0,0,1-.757,2.822,13.958,13.958,0,0,1-6.648,4.312,75.311,75.311,0,0,1-18.435,3.493A36.545,36.545,0,0,1,135,105.272C133.884,104.681,132.926,104.042,132.875,102.5Zm1.682-13.022a3.013,3.013,0,0,0-1.643-2.885,2.875,2.875,0,0,0-3.222.569,4.663,4.663,0,0,0-.572,5.716,2.219,2.219,0,0,0,2,.841C133.077,93.625,134.555,91.878,134.557,89.482Zm40.989-3.663a16.413,16.413,0,0,0-.648-2.149,2.115,2.115,0,0,0-2.248-1.242,2.833,2.833,0,0,0-2.591,2.142,8.432,8.432,0,0,0-.13,2.825,2.323,2.323,0,0,0,2.135,2.092,2.224,2.224,0,0,0,2.568-1.288A18.568,18.568,0,0,0,175.546,85.819Zm-18.512,36.5-.012.128c-.637,0-1.278-.037-1.911.017-.276.024-.693.18-.762.376a1.029,1.029,0,0,0,.24.86,2.7,2.7,0,0,0,1,.615,9.557,9.557,0,0,0,4.825.449,2.332,2.332,0,0,0,1.109-.383,1.534,1.534,0,0,0,.527-.982c.012-.166-.469-.491-.759-.536C159.878,122.64,158.454,122.49,157.034,122.316Zm6.768-21.44a2.349,2.349,0,0,0,2.384-2.038,1.686,1.686,0,0,0-1.775-1.553,2.378,2.378,0,0,0-2.284,2.021A1.492,1.492,0,0,0,163.8,100.876Zm-6.756-1.032a1.629,1.629,0,0,0-1.606-1.708,1.809,1.809,0,0,0-1.919,1.823,1.783,1.783,0,0,0,1.552,2.034A2.144,2.144,0,0,0,157.046,99.844Z"/><path class="cls-1" d="M208.761,126.112a2.675,2.675,0,0,1,2.6-.836c2.685.613,5.22,1.533,7.1,3.691a2.048,2.048,0,0,0,2.266.681c.153-.043.308-.083.458-.138a4.488,4.488,0,0,1,5.449,1.557c.455.556.959,1.073,1.461,1.589a5.886,5.886,0,0,1,1.735,5.806,29.72,29.72,0,0,1-1.449,4.041,2.354,2.354,0,0,1-1.879,1.523,4.267,4.267,0,0,0-2.552,1.44c-.362.372-.71.761-1.038,1.162a8.093,8.093,0,0,1-6.711,3.137,24.253,24.253,0,0,0-8.2,1.407c-3.222,1.035-6.571,1.678-9.873,2.456a83.011,83.011,0,0,0-14.351,4.594,9.5,9.5,0,0,1-6.564.475,18.961,18.961,0,0,0-9.6-.276,9.718,9.718,0,0,1-5.194-.364c-1.485-.467-2.992-.866-4.473-1.343a21.491,21.491,0,0,0-8.785-.587c-3.5.336-7,.723-10.5,1.067a12.26,12.26,0,0,1-5.668-.682,31.192,31.192,0,0,0-12.241-1.867,23.445,23.445,0,0,1-9.2-1.264,32.233,32.233,0,0,1-4.536-2.145,31.623,31.623,0,0,0-12.049-4.1,28.654,28.654,0,0,1-8.024-2.342c-3.19-1.409-3.285-4.378-2.079-6.727a2.182,2.182,0,0,1,1.783-1.262,2.239,2.239,0,0,0,2.235-2.333,2.181,2.181,0,0,1,.39-1.112c1.814-2.377,3.974-4.28,7.047-4.812a13.2,13.2,0,0,1,1.909-.143,4.106,4.106,0,0,0,3.011-1.273,9.873,9.873,0,0,1,4.035-2.5c1.468-.52,2.942-1.025,4.4-1.566a2.166,2.166,0,0,1,2.605.57c.426.47.94.86,1.555,1.411-1.084.764-2.087,1.53-3.148,2.2a13.2,13.2,0,0,0-4.331,4.721,4.4,4.4,0,0,0-.379,3.792,7.62,7.62,0,0,0,5.566,5.429c1.971.5,3.931,1.064,5.921,1.475a8.333,8.333,0,0,0,5.5-.632,2.182,2.182,0,0,1,2.176.066,5.8,5.8,0,0,0,5.295.348,5.616,5.616,0,0,1,3.3-.193,6.5,6.5,0,0,0,7.061-2.65,5.362,5.362,0,0,0,.791-5.131,11.492,11.492,0,0,1,1.671-.131,89.721,89.721,0,0,0,32.488-3.338c.524-.158,1.063-.267,1.745-.436-.294,1.094-.568,2.034-.8,2.984a5.75,5.75,0,0,0,2.864,6.4,3.942,3.942,0,0,0,4.307-.124c.233-.152.465-.308.763-.5A6.238,6.238,0,0,0,188.31,142c1.709.327,2.976-.619,4.311-1.481,1.538,2.387,3.719,2.858,6.278,2.233a16.334,16.334,0,0,0,5.9-2.556,47.967,47.967,0,0,0,5-4.095c3.1-2.994,2.83-6.9-.526-9.654C209.148,126.346,209.005,126.271,208.761,126.112Z"/><path class="cls-1" d="M228.6,146.455c0,1.842-.023,3.556.012,5.27.013.661-.458.89-.865,1.184a49.893,49.893,0,0,1-9.918,5.537,124.45,124.45,0,0,1-23,6.983A181.486,181.486,0,0,1,165,168.971a215.489,215.489,0,0,1-26.469-.493,145.707,145.707,0,0,1-34.932-6.93,55.152,55.152,0,0,1-14.851-7.39c-.42-.3-.886-.543-1.31-.841a4.793,4.793,0,0,1-1.844-5.758,2.755,2.755,0,0,1,.544.094,62.193,62.193,0,0,0,11.981,2.853,14.135,14.135,0,0,1,6.3,2.476,24.46,24.46,0,0,0,10.689,4.251,32.9,32.9,0,0,0,7.4.453,22.081,22.081,0,0,1,9.281,1.447,19.027,19.027,0,0,0,8.981.879q5.967-.546,11.938-1.05a17.19,17.19,0,0,1,6.829,1.025,22.85,22.85,0,0,0,7.525,1.282,13.061,13.061,0,0,0,2.146-.193,17.646,17.646,0,0,1,7.021.282,16.327,16.327,0,0,0,10.408-1.138,92.847,92.847,0,0,1,14.836-4.657c3.243-.837,6.45-1.815,9.658-2.782a13.129,13.129,0,0,1,4.71-.647,10.055,10.055,0,0,0,9.215-4.1A3.632,3.632,0,0,1,228.6,146.455Z"/><path class="cls-1" d="M222.632,240.7c.378-1.757.749-3.218,1-4.7.5-2.952.975-5.91,1.366-8.878a2.806,2.806,0,0,1,1.691-2.391,36.315,36.315,0,0,0,13.777-11.252c2.151-2.944,4.329-5.839,5.564-9.319a28.274,28.274,0,0,0,1.82-11.5,11.442,11.442,0,0,0-9.1-10.793,9.828,9.828,0,0,0-6.317.7c-.935.426-1.856.887-2.973,1.423-.026-.672-.093-1.208-.058-1.737.109-1.67.248-3.338.392-5a1.481,1.481,0,0,1,1.045-1.334c3.6-1.309,7.119-2.863,10.948-3.417a11.59,11.59,0,0,1,8.646,2.019c.782.553,1.564,1.109,2.374,1.621a10.149,10.149,0,0,1,4.875,7.978c.421,4.292.9,8.583,1.154,12.886a26.177,26.177,0,0,1-.965,10.2,27.991,27.991,0,0,1-4.826,8.506c-2.234,2.764-4.534,5.488-6.987,8.055a40.042,40.042,0,0,1-4.752,3.831c-2.03,1.557-4.1,3.064-6.138,4.607a26.951,26.951,0,0,1-5.333,3.187,15.374,15.374,0,0,0-5.42,3.871A14.641,14.641,0,0,1,222.632,240.7Z"/><path class="cls-1" d="M122.238,79.38a62.979,62.979,0,0,1-6.03,7.451c-.694.719-1.42,1.414-2.042,2.192-.79.989-.736,1.51.109,2.417a8.45,8.45,0,0,0,1.063.965c.377.287.8.512,1.334.847l-2.4,2.073c-.8-.588-1.586-1.137-2.339-1.727a1.165,1.165,0,0,0-1.706.03c-2.655,2.428-5.332,4.83-7.968,7.278-.821.762-.791,1.068.032,1.877,1.251,1.23,2.537,2.425,3.89,3.713l-.9,3.44c-.888-.776-1.666-1.383-2.359-2.075-3.621-3.617-7.169-7.308-10.843-10.869-2.9-2.809-5.939-5.467-8.917-8.192-.733-.672-1.465-1.345-2.261-2.076.273-.313.489-.586.73-.833,6.365-6.531,13.012-12.767,19.757-18.9.944-.859,1.956-1.648,2.968-2.43a1.344,1.344,0,0,1,2.121.071c1.124,1.018,2.181,2.11,3.289,3.146q4.6,4.3,9.213,8.574C120.026,77.33,121.08,78.306,122.238,79.38ZM108.633,90.945c-1.108-1.272-2.138-2.489-3.21-3.667a19.846,19.846,0,0,0-1.5-1.37,1.026,1.026,0,0,0-1.64.046c-2.514,2.505-5.079,4.961-7.6,7.457a1.2,1.2,0,0,0-.033,1.97c1.257,1.39,2.551,2.747,3.81,4.135a7.717,7.717,0,0,1,.646.96A40.569,40.569,0,0,0,108.633,90.945ZM94.911,77.266c-1.2,1.318-2.283,2.554-3.423,3.728-1.615,1.664-3.289,3.271-4.912,4.927-.69.7-.715,1.2-.048,1.866,1.435,1.437,2.92,2.825,4.36,4.209a26.889,26.889,0,0,0,8.926-8.511,1.319,1.319,0,0,0-.189-1.751C98.167,80.316,96.676,78.933,94.911,77.266ZM97.3,75.3c1.573,1.6,3.006,3.092,4.487,4.536a1.052,1.052,0,0,0,1.69-.014c2.028-1.859,4.06-3.717,6.018-5.648,1.071-1.057,1.034-2.023.061-3.171-.773-.912-1.561-1.816-2.395-2.672-1.086-1.117-1.866-1.169-2.971-.072C101.873,70.555,99.619,72.92,97.3,75.3Zm16.081-.392c-2.021,1.787-3.982,3.482-5.892,5.234a10.969,10.969,0,0,0-1.419,1.777,1.281,1.281,0,0,0,.057,1.76c1.15,1.165,2.307,2.329,3.536,3.41a1.526,1.526,0,0,0,2.18-.017,8.059,8.059,0,0,0,.892-.8c1.642-1.694,3.284-3.388,4.9-5.1a16.242,16.242,0,0,0,1.045-1.367Z"/><path class="cls-1" d="M195.079,133.023c-.793.143-1.091.7-1.414,1.263q-1.215,2.131-2.494,4.226a2.6,2.6,0,0,1-2.158,1.321,2.2,2.2,0,0,1-2.253-3.326c.581-1.181,1.281-2.3,1.922-3.454a7.278,7.278,0,0,0,.49-.959c.178-.472.222-.968-.276-1.284a1.116,1.116,0,0,0-1.514.229,5.287,5.287,0,0,0-.616.884c-.778,1.256-1.515,2.539-2.332,3.77a14.382,14.382,0,0,1-1.65,2.042,2.028,2.028,0,0,1-1.144.558,3.157,3.157,0,0,1-3.18-3.5,17.842,17.842,0,0,1,6.252-10.228,5.411,5.411,0,0,1,1.891-1,24.973,24.973,0,0,1,8.27-1.1c2.392.188,4.846.369,6.98,1.52a49.276,49.276,0,0,1,6.426,4.149,4.229,4.229,0,0,1,.034,6.45,33.017,33.017,0,0,1-8.008,5.215,9.515,9.515,0,0,1-4.3.882c-1.776-.081-2.408-1.121-1.663-2.749.431-.943.878-1.879,1.277-2.836A1.6,1.6,0,0,0,195.079,133.023Z"/><path class="cls-1" d="M128.983,134.025c.346.426.6.764.881,1.078.265.3.586.546.836.853a2.654,2.654,0,0,1,.467,3.2,3.091,3.091,0,0,1-3.2,1.427,20.659,20.659,0,0,1-2.412-.8c-.8-3.768-2.395-5.881-4.416-5.822.589.9,1.171,1.742,1.707,2.615,1.429,2.327.72,3.844-1.983,4.139a17.085,17.085,0,0,1-7.4-1.106,20.041,20.041,0,0,1-3.191-1.348,4.092,4.092,0,0,1-1.36-6.482,12.661,12.661,0,0,1,4.447-3.58,27.434,27.434,0,0,1,12.772-3.158,13.823,13.823,0,0,1,8.175,2.7,14.45,14.45,0,0,1,4.992,7.159,3.208,3.208,0,0,1-1.126,3.652,4.239,4.239,0,0,1-4.1,1.047c-.514-.133-.6-.475-.715-.949a13.033,13.033,0,0,0-1.009-3.149A2.886,2.886,0,0,0,128.983,134.025Z"/><path class="cls-1" d="M209.713,264.709c0,1.982.053,3.808-.024,5.627-.035.841-.8,1.174-1.515,1.321-2.188.451-4.378.929-6.589,1.237-5.343.742-10.705,1.344-16.047,2.092a110.815,110.815,0,0,1-21.883.884c-6.342-.369-12.7-.507-19.041-.845-6.143-.327-12.3-.631-18.415-1.231-3.8-.373-7.559-1.274-11.333-1.95-.864-.155-1.726-.331-2.572-.56-.26-.071-.627-.32-.667-.538-.341-1.871-.619-3.753-.921-5.671a3.251,3.251,0,0,1,2.634.468c4.539,3.122,9.688,4.664,14.978,5.824,3.157.692,6.336,1.295,9.516,1.877a15.845,15.845,0,0,0,2.867.185c5.676-.01,11.353.04,17.026-.1,4.271-.106,8.536-.468,12.8-.716,3.55-.207,7.1-.5,10.65-.6a57.332,57.332,0,0,0,10.054-1.535c3.479-.724,6.949-1.5,10.432-2.2a19.638,19.638,0,0,0,6.485-2.706C208.618,265.285,209.112,265.041,209.713,264.709Z"/><path class="cls-2" d="M91.534,167.248a3.865,3.865,0,0,1,3.679.383,38.4,38.4,0,0,1,3.968,3.087,13.6,13.6,0,0,1,3.708,6.729c1.626,6.135,3.266,12.268,5.018,18.368a54.288,54.288,0,0,0,2.406,6.259,7.179,7.179,0,0,0,1.47,2.151,1.863,1.863,0,0,0,3.119-.434,4.43,4.43,0,0,0,.47-1.341c1-4.794.283-9.46-1.1-14.068-.447-1.491-.949-2.964-1.442-4.441a4.033,4.033,0,0,1,.5-3.89c.678.966,1.306,1.925,2,2.829a8.779,8.779,0,0,0,1.486,1.552,3.61,3.61,0,0,0,5.712-1.355,10.54,10.54,0,0,0,.745-2.757c.546-3.5,1.8-4.456,5.313-3.884,2.8.456,5.581,1.009,8.384,1.433a104.681,104.681,0,0,0,13.145.942c7.472.179,14.944.45,22.417.462,3.663,0,7.328-.47,10.989-.763,1.034-.083,1.125-.163,1.355.827a29.61,29.61,0,0,1,.992,5.4c.192,4.871.2,9.75.232,14.627.013,1.836-.079,3.675-.145,5.511a28.746,28.746,0,0,0,.8,7.965,10.525,10.525,0,0,0,1.075,2.391,2.368,2.368,0,0,0,2.6,1.312,2.439,2.439,0,0,0,2.069-1.923,32.611,32.611,0,0,0,1.069-4.667c.483-3.884.824-7.785,1.232-11.677.184-1.748.274-3.516.614-5.234.649-3.28,2.626-5.763,5.08-7.926a8.076,8.076,0,0,1,4.656-2.24,5.116,5.116,0,0,0,3.329-1.978c1.769-2.063,3.572-4.1,5.262-6.228a23.7,23.7,0,0,1,5.6-5.195c1.031-.674,2.011-1.428,3.214-2.29a17.4,17.4,0,0,1,.11,1.865q-.286,5.446-.621,10.89c-.262,4.348-.471,8.7-.827,13.04-.366,4.459-.869,8.906-1.333,13.357-.348,3.338-.642,6.685-1.116,10.006-.536,3.754-1.114,7.512-1.911,11.217a137.737,137.737,0,0,1-6.2,21.493c-.787,2-1.7,3.962-2.615,5.912a8.4,8.4,0,0,1-6.61,4.979c-4.973.775-9.96,1.467-14.945,2.165s-9.986,1.3-14.964,2.054a121.6,121.6,0,0,1-28.216.949,70.127,70.127,0,0,1-10.576-1.3q-6-1.431-11.989-2.907a14.547,14.547,0,0,1-4.785-2.148,3.664,3.664,0,0,0-1.172-.57,4.275,4.275,0,0,1-3.073-2.774c-.723-1.817-1.395-3.655-2.111-5.475-2.874-7.3-4.693-14.917-6.77-22.461-3.448-12.531-6.076-25.238-8.281-38.032-1.085-6.3-1.841-12.649-2.727-18.98C91.677,169.41,91.63,168.341,91.534,167.248Z"/><path d="M132.875,102.5c.051,1.538,1.009,2.177,2.122,2.768a36.545,36.545,0,0,0,19.688,4.091,75.311,75.311,0,0,0,18.435-3.493,13.958,13.958,0,0,0,6.648-4.312,2.473,2.473,0,0,0,.757-2.822,3.488,3.488,0,0,1,3.564,1.255,1.432,1.432,0,0,1,.024,1.2c-.5,1.033-1.141,1.994-1.671,3.012-4.181,8.037-10.836,12.846-19.564,14.849a32.284,32.284,0,0,1-13.922.088,22.706,22.706,0,0,1-11.973-6.878c-1.57-1.651-3.042-3.394-4.613-5.043a6.286,6.286,0,0,0-1.716-1.211c-1.059-.535-1.166-1.07-.259-1.874a3.92,3.92,0,0,1,.471-.371C131.471,103.375,132.083,103,132.875,102.5Zm12.941,12.207c5.424,2.479,11,2.445,16.654.993A29.759,29.759,0,0,0,145.816,114.711Z"/><path d="M134.557,89.482c0,2.4-1.48,4.143-3.432,4.241a2.219,2.219,0,0,1-2-.841,4.663,4.663,0,0,1,.572-5.716,2.875,2.875,0,0,1,3.222-.569A3.013,3.013,0,0,1,134.557,89.482Z"/><path d="M175.546,85.819a18.568,18.568,0,0,1-.914,2.38,2.224,2.224,0,0,1-2.568,1.288,2.323,2.323,0,0,1-2.135-2.092,8.432,8.432,0,0,1,.13-2.825,2.833,2.833,0,0,1,2.591-2.142A2.115,2.115,0,0,1,174.9,83.67,16.413,16.413,0,0,1,175.546,85.819Z"/><path d="M157.034,122.316c1.42.174,2.844.324,4.257.544.29.045.771.37.759.536a1.534,1.534,0,0,1-.527.982,2.332,2.332,0,0,1-1.109.383,9.557,9.557,0,0,1-4.825-.449,2.7,2.7,0,0,1-1-.615,1.029,1.029,0,0,1-.24-.86c.069-.2.486-.352.762-.376.633-.054,1.274-.017,1.911-.017Z"/><path d="M163.8,100.876a1.492,1.492,0,0,1-1.675-1.57,2.378,2.378,0,0,1,2.284-2.021,1.686,1.686,0,0,1,1.775,1.553A2.349,2.349,0,0,1,163.8,100.876Z"/><path d="M157.046,99.844a2.144,2.144,0,0,1-1.973,2.149,1.783,1.783,0,0,1-1.552-2.034,1.809,1.809,0,0,1,1.919-1.823A1.629,1.629,0,0,1,157.046,99.844Z"/><path d="M108.633,90.945a40.569,40.569,0,0,1-9.525,9.531,7.717,7.717,0,0,0-.646-.96c-1.259-1.388-2.553-2.745-3.81-4.135a1.2,1.2,0,0,1,.033-1.97c2.524-2.5,5.089-4.952,7.6-7.457a1.026,1.026,0,0,1,1.64-.046,19.846,19.846,0,0,1,1.5,1.37C106.5,88.456,107.525,89.673,108.633,90.945Z"/><path d="M94.911,77.266c1.765,1.667,3.256,3.05,4.714,4.468a1.319,1.319,0,0,1,.189,1.751A26.889,26.889,0,0,1,90.888,92c-1.44-1.384-2.925-2.772-4.36-4.209-.667-.668-.642-1.161.048-1.866,1.623-1.656,3.3-3.263,4.912-4.927C92.628,79.82,93.706,78.584,94.911,77.266Z"/><path d="M97.3,75.3c2.318-2.377,4.572-4.742,6.89-7.041,1.105-1.1,1.885-1.045,2.971.072.834.856,1.622,1.76,2.395,2.672.973,1.148,1.01,2.114-.061,3.171-1.958,1.931-3.99,3.789-6.018,5.648a1.052,1.052,0,0,1-1.69.014C100.307,78.389,98.874,76.9,97.3,75.3Z"/><path d="M113.382,74.905l5.3,4.9a16.242,16.242,0,0,1-1.045,1.367c-1.62,1.713-3.262,3.407-4.9,5.1a8.059,8.059,0,0,1-.892.8,1.526,1.526,0,0,1-2.18.017c-1.229-1.081-2.386-2.245-3.536-3.41a1.281,1.281,0,0,1-.057-1.76,10.969,10.969,0,0,1,1.419-1.777C109.4,78.387,111.361,76.692,113.382,74.905Z"/><path class="cls-1" d="M145.816,114.711a29.759,29.759,0,0,1,16.654.993C156.813,117.156,151.24,117.19,145.816,114.711Z"/></svg>