<svg width="170" height="170" viewBox="0 0 170 170" fill="none" xmlns="http://www.w3.org/2000/svg">
<path d="M71.7118 61.9777C74.534 54.838 77.0709 47.5763 80.2737 40.5892C83.4448 33.6937 87.2183 27.0117 90.9285 20.3602C94.0044 14.8682 99.649 14.319 104.913 15.5394C107.164 16.0581 109.352 19.5059 110.24 22.0383C111.001 24.2046 110.335 27.1642 109.511 29.4831C105.991 39.3077 102.186 49.0104 98.4757 58.7435C98.2537 59.3537 97.8097 59.9944 97.9049 60.5741C98.0951 61.9777 98.5708 63.3202 98.9196 64.6932C99.7441 63.6863 100.695 62.771 101.393 61.6726C107.45 52.031 111.794 41.2605 121.212 33.8462C124.891 30.9476 128.601 28.4762 133.833 28.9949C139.795 29.5746 143.346 34.9141 140.429 40.0705C137.385 45.4405 133.611 50.4444 130.218 55.6618C126.825 60.8793 123.464 66.0967 120.229 71.4057C119.627 72.382 119.658 73.694 119.341 75.1586C124.732 69.2089 129.806 63.6253 134.911 58.0722C138.241 54.4414 142.237 51.7564 147.279 50.658C154.223 49.1629 159.741 54.3804 157.489 60.7572C156.221 64.327 154.16 67.7138 151.877 70.826C146.327 78.3928 140.239 85.5935 134.88 93.2823C132.787 96.2724 131.962 100.117 130.852 103.656C126.952 116.105 122.068 128.187 115.377 139.507C113.221 143.138 110.082 146.25 107.228 149.484C106.498 150.339 105.325 150.918 104.247 151.376C91.8481 156.471 79.1638 157.753 66.3844 153.207C58.8689 150.522 51.4803 147.44 44.3137 144.023C34.1979 139.171 31.566 130.232 32.0733 120.285C32.4856 112.108 30.4243 105.365 24.2725 99.2625C19.8012 94.8079 16.3448 89.2243 13.3322 83.6712C10.2563 77.9656 9.84405 71.8023 14.4104 66.2187C18.2157 61.581 25.4775 61.7336 29.1559 66.4323C31.0903 68.9037 33.2466 71.1921 35.4981 73.3889C36.3226 74.1822 38.0032 74.9755 38.8911 74.6704C39.8107 74.3653 40.5718 72.8092 40.8255 71.6498C42.8867 63.0456 44.5674 54.3498 46.8822 45.8067C49.2606 37.0804 54.5245 29.7882 62.2619 24.8454C65.0842 23.0452 69.7457 23.0147 73.3607 23.5029C75.8341 23.8385 77.4197 26.8591 76.9123 29.7272C75.7708 36.1651 74.4072 42.5725 73.1705 49.0104C72.346 53.2514 71.5215 57.523 70.6653 61.7641C70.9824 61.7946 71.3313 61.8861 71.7118 61.9777Z" fill="#f38132"/>
</svg>
