<svg width="170" height="170" viewBox="0 0 170 170" fill="none" xmlns="http://www.w3.org/2000/svg">
<path d="M75.7497 121.023C75.4341 119.765 75.262 118.894 74.9894 118.065C74.5591 116.721 73.9567 115.435 73.6124 114.078C73.1964 112.448 73.139 110.734 72.637 109.147C72.1349 107.518 71.3316 105.975 70.557 104.446C70.4423 104.231 69.725 104.174 69.3377 104.274C65.3357 105.274 61.3479 106.361 57.3458 107.318C51.7371 108.661 46.0998 109.89 40.4911 111.234C37.1489 112.034 33.864 113.077 30.5074 113.792C28.1836 114.292 25.7738 114.463 23.4069 114.764C22.575 114.864 21.7286 114.978 20.8967 115.006C18.372 115.092 17.4683 113.02 16.6794 111.305C16.4069 110.705 17.5544 109.233 18.3147 108.404C20.6958 105.832 23.1918 103.359 25.659 100.859C25.8168 100.701 25.9746 100.544 26.1467 100.401C29.3455 97.7433 32.5013 95.028 35.7718 92.4557C38.4112 90.3835 41.2227 88.5257 43.9338 86.5393C45.7125 85.2389 47.4195 83.8241 49.2125 82.5522C50.0732 81.9377 51.063 81.4947 51.8519 80.8945C52.7986 80.0228 53.731 79.151 54.6921 78.2936C55.481 77.5933 56.2987 76.936 57.2167 76.1786C55.5671 75.2925 54.3191 74.578 53.0282 73.9635C52.2249 73.5776 51.3642 73.2204 50.5035 73.0775C47.6203 72.6059 45.5117 70.5909 42.9584 69.4619C41.7104 68.9189 40.2329 68.8617 38.9276 68.4044C37.8087 68.0186 36.7186 67.4469 35.7144 66.8181C33.9501 65.7178 31.7554 65.6034 30.1632 63.9886C29.3886 63.2026 27.6672 63.417 26.534 62.8739C23.9377 61.6306 20.9827 61.3448 18.5155 60.0015C16.7798 59.0726 14.9581 58.8868 13.2224 58.258C11.9027 57.7721 9.75105 54.6567 10.0236 53.3563C10.081 53.0991 10.4396 52.8847 10.6978 52.7132C11.1855 52.3702 11.6589 51.8986 12.1896 51.8129C12.8208 51.6986 13.4949 51.9415 14.3413 52.0558C15.0298 51.4842 15.9048 50.441 17.1958 51.77C17.3536 51.9415 17.7265 51.9558 17.9991 51.9415C20.2799 51.8129 22.5463 51.5985 24.827 51.5556C26.1037 51.5413 27.366 51.8558 28.657 51.9701C32.53 52.2988 36.3886 52.6418 40.2616 52.9133C43.7043 53.1562 47.1756 53.1705 50.6183 53.5135C54.19 53.8708 57.7475 54.4853 61.3049 55.0569C64.6758 55.5999 68.0181 56.2716 71.4033 56.8004C73.2251 57.0862 73.512 56.3573 73.555 54.4995C73.6124 52.2988 74.2435 50.098 74.6165 47.9115C74.7456 47.1827 74.846 46.4396 74.9608 45.7107C75.3337 43.4528 75.7354 41.1949 76.0653 38.937C76.2374 37.7365 76.2374 36.4932 76.3809 35.2785C77.012 29.848 78.1022 24.5176 80.1104 19.4301C80.8707 17.5152 82.1186 15.5002 84.9014 16.0289C84.8154 15.6717 84.758 15.3858 84.6719 15C85.4322 15.7717 86.2642 16.3433 86.7232 17.1293C87.1248 17.8153 87.4691 17.7009 88.1002 17.6866C88.8748 17.6866 90.1228 20.9449 89.8646 21.8024C89.7785 22.1025 89.9363 22.5026 90.0081 22.8456C90.2376 23.8602 90.4671 24.8749 90.7109 25.8895C90.9835 27.0471 91.3564 28.1903 91.4999 29.3765C91.715 31.0199 91.7294 32.6776 91.8872 34.3353C92.1023 36.579 92.5327 38.794 92.59 41.0377C92.6618 44.0816 94.3401 46.8397 93.9815 49.9837C93.8667 51.0269 94.6269 52.1702 95.0573 53.442C94.9569 53.4134 95.172 53.5421 95.2725 53.4849C99.7336 50.7697 104.869 49.9122 109.746 48.3545C113.002 47.3113 116.43 46.7683 119.744 45.8537C122.068 45.2249 124.334 44.3531 126.629 43.61C130.66 42.2953 134.72 41.0377 138.736 39.6658C139.826 39.2942 140.787 38.5225 141.863 38.1081C145.65 36.6361 149.437 35.1356 153.296 33.8637C154.587 33.435 156.107 33.6494 157.083 33.5922C158.058 34.4782 158.861 35.1499 159.564 35.9073C159.837 36.2074 160.095 36.8362 159.966 37.1363C159.478 38.1795 158.818 39.137 158.23 40.1231C158.072 40.0087 157.814 39.823 157.915 39.8944C157.011 40.6947 156.279 41.3092 155.562 41.9666C154.931 42.5382 154.386 43.2099 153.697 43.7243C150.728 45.9537 147.873 48.3831 144.703 50.2838C142.193 51.7843 140.185 53.8136 137.904 55.5428C135.265 57.5292 132.654 59.5442 129.986 61.5163C129.355 61.9879 128.551 62.2308 127.92 62.7024C124.851 65.0747 121.838 67.5184 118.754 69.8621C116.545 71.5341 114.293 73.1632 111.955 74.6638C111.238 75.1211 110.205 75.1068 109.273 75.3211C110.148 76.5644 109.344 77.1789 108.025 77.7362C107.236 78.0792 106.605 78.7938 105.816 79.4225C106.934 79.8084 107.852 80.1228 108.771 80.4229C109.014 80.4944 109.33 80.5944 109.516 80.4943C111.353 79.5654 113.131 79.8656 114.896 80.7087C115.068 80.7945 115.297 80.723 115.498 80.7516C117.851 81.0231 120.26 81.0946 122.541 81.6376C124.406 82.0949 126.127 83.1524 127.935 83.8955C128.451 84.1099 129.082 84.067 129.541 84.3386C130.201 84.753 131.019 85.2246 131.291 85.882C131.808 87.1252 130.445 89.6261 129.111 90.0834C128.035 90.455 126.5 90.2692 125.883 90.9694C124.435 92.6129 122.111 91.8412 120.648 93.3131C120.088 93.8848 118.654 92.9416 118.109 94.1849C117.865 93.8848 117.607 93.5847 117.406 93.3417C114.465 95.6854 110.965 96.6429 107.164 97.1573C107.121 97.4146 107.078 97.7718 107.006 98.2434C105.314 97.8004 104.066 98.4006 102.689 99.3295C101.727 99.9726 100.207 99.8011 98.9446 99.9726C98.6721 100.015 98.3565 99.8869 98.0983 99.9726C96.4917 100.458 94.8852 100.93 93.3216 101.559C92.963 101.702 92.6474 102.402 92.6474 102.845C92.6331 103.731 92.8339 104.631 92.963 105.532C93.1495 106.904 93.3933 108.261 93.5511 109.647C93.6802 110.891 93.7663 112.148 93.7663 113.392C93.7663 113.935 93.5368 114.478 93.6228 114.921C93.7376 115.878 93.9528 116.85 93.9384 117.807C93.9241 119.422 93.795 121.051 93.6372 122.666C93.4507 124.71 93.1064 126.739 92.963 128.783C92.8339 130.698 92.92 132.627 92.8052 134.542C92.7335 135.699 92.3605 136.828 92.2888 137.972C91.9589 142.459 91.6577 146.946 91.4281 151.433C91.3134 153.606 89.8503 154.22 87.7129 153.934C84.9014 153.549 84.5715 151.791 83.7682 149.676C83.0797 147.861 83.1514 145.746 82.2334 144.302C80.8563 142.145 81.1145 139.601 79.7661 137.471C78.8337 136 78.6042 134.085 78.0878 132.37C78.0018 132.084 78.2026 131.741 78.1452 131.441C78.0591 130.969 77.9157 130.512 77.7292 130.083C77.6145 129.826 77.1698 129.526 77.2128 129.411C77.9014 128.025 76.7968 126.996 76.596 125.81C76.3522 124.367 75.7354 123.109 75.3624 121.752C75.305 121.466 75.764 120.98 75.7497 121.023Z" fill="#F37721"/>
</svg>
