<svg viewBox="0 0 180 150" fill="none" xmlns="http://www.w3.org/2000/svg" preserveAspectRatio="xMidYMid meet">
<rect width="180" height="150" fill="var(--quiz-bg)"/>
<path d="M145.675 109.35C144.782 109.401 144.251 109.452 143.721 109.463C142.318 109.483 140.811 109.802 139.533 109.401C138.223 108.99 136.55 109.874 135.562 108.383C135.521 108.322 135.427 108.291 135.344 108.27C134.252 108.044 133.161 107.818 132.07 107.592C131.145 107.396 130.147 107.335 129.305 106.965C127.58 106.204 125.428 106.194 124.305 104.292C124.212 104.127 123.869 104.107 123.63 104.035C122.081 103.593 120.501 103.243 118.994 102.668C118.433 102.452 117.944 101.804 117.622 101.239C116.863 99.8919 115.575 99.6452 114.203 100.416C113.35 100.889 112.664 102.112 111.303 101.393C111.168 101.321 110.128 101.444 110.159 102.328C110.17 102.554 109.837 102.925 109.588 103.017C107.54 103.757 105.482 104.467 103.414 105.145C102.062 105.587 100.618 106.43 99.3288 106.266C97.3748 106.019 95.7325 107.931 93.7265 106.78C93.2796 106.523 92.3233 106.718 91.8452 107.047C90.4836 107.982 89.1012 107.067 87.7396 107.294C86.3884 107.51 84.9956 107.571 83.6236 107.52C82.9584 107.499 82.314 107.047 81.6487 106.821C81.0043 106.605 80.3599 106.348 79.6947 106.286C78.0628 106.132 76.4206 106.122 74.7887 105.957C74.2586 105.906 73.7805 105.423 73.2504 105.34C72.0447 105.145 70.7975 105.135 69.5918 104.939C69.0617 104.857 68.6044 104.446 68.0847 104.261C67.4091 104.025 66.7023 103.819 65.9955 103.665C65.0912 103.469 64.1662 103.305 63.2515 103.171C62.3264 103.027 61.3702 103.027 60.4763 102.791C59.8319 102.626 59.2914 102.082 58.647 101.876C57.5764 101.537 56.4019 101.475 55.3833 101.033C54.1464 100.498 52.5769 100.971 51.5791 99.6966C51.34 99.3985 50.7476 99.1312 50.3838 99.1929C48.5233 99.563 47.2656 98.1443 45.6857 97.692C43.9291 97.1985 42.2869 96.3042 40.5927 95.5846C40.5511 95.564 40.5199 95.5331 40.4784 95.5331C38.9505 95.4715 37.9111 94.5771 36.9444 93.5388C36.8509 93.4463 36.643 93.4463 36.4871 93.4257C35.7387 93.2921 34.9592 93.3127 34.5642 92.3977C34.4395 92.0996 33.7327 92.0687 33.3169 91.8734C32.1944 91.3286 31.0718 90.7734 29.9701 90.1978C29.5855 89.9921 29.2529 89.694 28.8891 89.4576C27.7354 88.7277 26.3426 88.224 25.4903 87.2474C24.3574 85.9521 22.4865 85.5306 21.6549 84.1941C20.8338 82.868 19.6697 82.2512 18.4952 81.5008C18.4016 81.4391 18.2977 81.3054 18.2873 81.2026C18.2457 79.9998 16.7594 79.8457 16.5099 78.7868C16.4684 78.6018 16.2917 78.3242 16.1461 78.3139C14.8157 78.1494 14.5143 77.1831 14.005 76.1448C13.4333 74.9729 12.2796 74.0991 11.4793 73.0196C11.0531 72.4439 10.7933 71.7243 10.5542 71.0253C10.2424 70.0898 9.36931 69.3907 9.67073 68.1366C9.82664 67.4889 9.2134 66.5945 8.80803 65.8852C7.74785 64.0451 7.91416 62.1432 8.27795 60.1797C8.44425 59.2545 8.22598 58.2676 8.3611 57.3424C8.64174 55.4611 8.98473 53.5902 9.42127 51.7397C9.90979 49.6837 10.4607 47.638 11.1363 45.6333C11.5728 44.3277 12.29 43.125 12.8825 41.8708C14.0674 39.3624 16.354 40.1129 18.3705 40.082C19.2539 40.0615 20.1478 40.0512 21.0313 40.0923C22.5384 40.1643 24.0455 40.2979 25.5527 40.3904C26.1139 40.4213 26.6856 40.3699 27.2365 40.4418C28.2759 40.5755 29.3049 40.8016 30.3443 40.9353C30.76 40.9867 31.1966 40.8736 31.6227 40.8428C31.9969 40.8119 32.4542 40.6372 32.7245 40.7914C33.9614 41.4493 35.2814 41.2745 36.591 41.3362C37.7136 41.3876 38.8361 41.5213 39.9587 41.5829C41.0188 41.6446 42.131 41.8708 43.1184 41.6343C44.3033 41.3465 45.2804 41.6241 46.3821 41.8502C47.7853 42.1278 49.2716 41.9428 50.706 42.0867C52.0156 42.21 53.3045 42.5904 54.6141 42.7035C55.6327 42.7857 56.6721 42.4876 57.6907 42.5698C59.4161 42.7138 61.1727 43.3614 62.8461 43.1661C64.1558 43.0119 65.2783 43.5979 66.6191 43.3717C68.0119 43.1353 69.5814 43.8754 71.0781 44.1838C71.3795 44.2455 71.6706 44.3997 71.972 44.4203C72.9178 44.4717 73.8741 44.4511 74.8199 44.5231C75.6307 44.5745 76.4414 44.667 77.2417 44.8109C77.6679 44.8931 78.0628 45.1399 78.4994 45.2632C79.2685 45.4791 80.2144 46.0342 80.7965 45.7772C82.0645 45.2324 82.8337 45.6847 83.6963 46.4969C84.4031 46.1473 85.1515 45.5614 85.7959 46.5894C85.8375 46.6613 86.0454 46.7127 86.1389 46.6716C87.4694 46.1679 88.6647 46.8567 89.9223 47.0417C91.3255 47.2473 92.7495 47.3295 94.1527 47.5351C94.8179 47.6277 95.4831 48.1006 96.1067 48.0389C97.593 47.895 98.8923 48.8921 100.15 48.8099C101.376 48.7276 102.593 48.6968 103.777 48.851C105.108 49.0258 106.397 49.5706 107.727 49.8071C108.548 49.9613 109.421 49.8482 110.274 49.8585C110.471 49.8585 110.721 49.7865 110.845 49.879C111.999 50.7323 113.288 50.1669 114.514 50.2491C114.795 50.2697 115.221 50.2491 115.325 50.4136C115.855 51.2052 116.697 50.9482 117.414 51.1126C118.194 51.2977 118.994 51.421 120.054 51.6267C120.449 51.236 120.979 50.7323 121.956 51.7603C122.435 52.2537 123.755 52.1304 124.648 52.007C125.896 51.8425 126.997 51.8631 127.839 52.8808C128.692 52.2332 131.976 52.7677 132.465 53.2098C134.055 53.5593 135.645 53.9088 137.236 54.2481C137.776 54.3612 138.316 54.4743 138.857 54.5359C139.803 54.649 140.749 54.721 141.695 54.8238C141.767 54.8341 141.892 54.8752 141.913 54.9266C142.484 56.6948 145.135 56.2527 145.53 58.319C145.644 58.9358 146.559 59.3573 146.85 59.9947C147.629 61.6806 146.943 63.0376 145.416 64.1993C146.684 65.1964 147.827 66.06 149.344 66.2861C149.542 66.317 149.781 66.3273 149.927 66.4403C151.652 67.7356 153.564 68.5992 155.654 69.1749C156.392 69.3805 156.984 70.1206 157.608 70.6552C158.242 71.2103 158.657 72.1253 159.77 71.7963C159.832 71.7757 159.977 71.8477 159.977 71.8683C159.957 73.2047 161.433 73.4617 161.9 74.4794C162.171 75.0654 162.794 75.4766 163.189 76.0112C164.551 77.8205 165.912 79.6298 167.232 81.4699C167.752 82.1998 168.147 83.0119 168.604 83.7829C169.124 84.6362 169.997 85.438 170.112 86.3427C170.309 87.7819 171.276 88.8819 171.473 90.2492C171.712 91.9043 171.827 93.5696 171.951 95.235C172.034 96.3556 172.107 97.4247 171.307 98.463C170.694 99.2649 170.455 100.355 170.028 101.3C169.031 103.5 167.16 104.826 165.278 106.214C163.688 107.386 161.88 107.91 160.071 108.455C159.489 108.63 158.782 108.373 158.138 108.435C155.113 108.723 152.088 109.052 149.064 109.381C148.918 109.401 148.752 109.422 148.627 109.494C147.484 110.141 146.372 110.244 145.675 109.35ZM142.734 81.9017C142.329 81.1307 141.705 79.7531 140.873 78.5092C140.489 77.9335 139.73 77.5429 139.065 77.2551C138.504 77.0186 137.724 76.813 137.194 77.0186C135.801 77.5429 135.094 78.7971 134.398 80.0615C133.67 81.3774 132.818 82.6419 131.935 83.8652C131.342 84.6876 130.531 85.3661 129.929 86.1988C129.596 86.6614 129.263 87.3399 129.388 87.8128C129.471 88.1417 130.313 88.3165 130.833 88.481C131.093 88.5632 131.405 88.4501 131.685 88.4707C132.111 88.5015 132.652 88.4193 132.932 88.6455C133.858 89.4062 134.793 89.3753 135.822 88.9641C136.31 88.7688 136.841 88.5529 137.36 88.5427C140.011 88.4501 142.879 85.4586 142.734 81.9017Z" fill="#FFFCF7"/>
<path d="M36.2332 72.2032L37.1187 63.3192L39.3397 63.5406L39.2433 64.5078L39.5657 64.5399C39.7507 64.2569 40.033 64.0257 40.4126 63.8465C40.7935 63.6553 41.2764 63.5889 41.8615 63.6472C42.4944 63.7103 42.9894 63.8863 43.3465 64.1751C43.7048 64.452 43.9658 64.7976 44.1295 65.2119L44.4519 65.244C44.693 64.8821 45.0111 64.5943 45.4063 64.3804C45.8014 64.1666 46.3393 64.0935 47.02 64.1614C47.5692 64.2161 48.0529 64.3849 48.4709 64.6678C48.902 64.9399 49.2252 65.3278 49.4402 65.8317C49.6685 66.3247 49.7469 66.9295 49.6755 67.6459L49.0935 73.485L46.8367 73.2601L47.4026 67.5822C47.4514 67.0926 47.3623 66.7159 47.1353 66.4521C46.9096 66.1764 46.5698 66.0159 46.1161 65.9707C45.6026 65.9195 45.1859 66.0468 44.866 66.3526C44.5593 66.6476 44.3755 67.0996 44.3148 67.7086L43.7917 72.9566L41.5349 72.7316L42.1008 67.0538C42.1496 66.5642 42.0606 66.1875 41.8336 65.9237C41.6078 65.6479 41.2681 65.4874 40.8143 65.4422C40.3009 65.391 39.8842 65.5183 39.5643 65.8241C39.2575 66.1192 39.0738 66.5712 39.0131 67.1801L38.49 72.4281L36.2332 72.2032ZM51.6327 77.3559L51.8291 75.3857L56.6651 75.8677C56.9995 75.901 57.1845 75.7386 57.2202 75.3804L57.4434 73.1415L57.121 73.1093C57.0052 73.3028 56.8357 73.4909 56.6125 73.6737C56.3893 73.8564 56.098 73.9962 55.7386 74.0931C55.3792 74.1899 54.9308 74.2115 54.3935 74.158C53.7009 74.089 53.1074 73.873 52.613 73.5102C52.1317 73.1366 51.7757 72.6549 51.545 72.0651C51.3144 71.4754 51.2354 70.8163 51.308 70.0879L51.8364 64.7862L54.0932 65.0111L53.5826 70.1337C53.516 70.8024 53.6272 71.32 53.9163 71.6865C54.2173 72.0541 54.6723 72.2683 55.2813 72.329C55.9739 72.398 56.5338 72.2247 56.9611 71.8091C57.3897 71.3814 57.645 70.7557 57.7271 69.9318L58.177 65.4181L60.4338 65.6431L59.3912 76.1032C59.3305 76.7122 59.1032 77.178 58.7093 77.5005C58.3142 77.835 57.8181 77.9724 57.221 77.9129L51.6327 77.3559ZM65.891 75.1592L66.7765 66.2753L68.9975 66.4966L68.8975 67.4997L69.2199 67.5318C69.387 67.1867 69.6281 66.9454 69.9433 66.808C70.2704 66.6717 70.6369 66.6239 71.0429 66.6643L72.1176 66.7714L71.9177 68.7775L70.8072 68.6668C70.234 68.6097 69.7469 68.7179 69.3458 68.9915C68.9458 69.2531 68.7143 69.7003 68.6513 70.3332L68.1478 75.3842L65.891 75.1592ZM76.3424 76.4542C75.4588 76.3661 74.6951 76.1031 74.0514 75.6651C73.4208 75.2163 72.9483 74.6326 72.6341 73.9139C72.3329 73.1844 72.2288 72.354 72.3216 71.4226L72.343 71.2077C72.4359 70.2763 72.7013 69.4887 73.1393 68.845C73.5785 68.1893 74.1509 67.7097 74.8565 67.4062C75.5632 67.0908 76.3584 66.9771 77.2421 67.0651C78.1137 67.152 78.8523 67.4246 79.4579 67.8829C80.0646 68.3293 80.5126 68.9166 80.8018 69.6449C81.0921 70.3612 81.1921 71.1732 81.1017 72.0807L81.0249 72.8508L74.5589 72.2064C74.5221 72.8177 74.6996 73.3359 75.0914 73.7608C75.4832 74.1858 75.9895 74.4292 76.6104 74.4911C77.2433 74.5542 77.7227 74.4633 78.0486 74.2184C78.3745 73.9735 78.6317 73.6916 78.8203 73.3728L80.5687 74.5239C80.3706 74.8176 80.0919 75.1336 79.7326 75.4716C79.3864 75.7989 78.9375 76.0677 78.386 76.278C77.8356 76.4764 77.1544 76.5351 76.3424 76.4542ZM74.7446 70.5245L78.9001 70.9387C78.9035 70.4205 78.7356 69.9877 78.3963 69.6403C78.0691 69.2941 77.6129 69.0919 77.0278 69.0336C76.4188 68.9729 75.9197 69.0799 75.5305 69.3547C75.1414 69.6294 74.8794 70.0194 74.7446 70.5245ZM85.9634 77.4131C84.8052 77.2977 83.8809 76.9523 83.1905 76.377C82.5002 75.8017 82.1238 75.0406 82.0614 74.0938L84.1927 73.7635C84.2346 74.1898 84.3392 74.5318 84.5064 74.7897C84.6856 75.0488 84.9131 75.2463 85.189 75.3823C85.478 75.5076 85.7957 75.5875 86.1419 75.622C86.6673 75.6744 87.0643 75.6235 87.3329 75.4694C87.6027 75.3033 87.7513 75.083 87.7787 74.8083C87.8061 74.5337 87.7075 74.3128 87.483 74.1457C87.2596 73.9667 86.89 73.8032 86.3741 73.6554L85.8815 73.5158C85.2725 73.3345 84.7214 73.1168 84.2282 72.8626C83.7361 72.5965 83.3534 72.2629 83.0798 71.8618C82.8062 71.4607 82.6986 70.9676 82.7569 70.3825C82.845 69.4988 83.2346 68.8563 83.9259 68.4549C84.6183 68.0415 85.4899 67.8872 86.5407 67.9919C87.5317 68.0907 88.3336 68.3938 88.9464 68.901C89.5591 69.4083 89.9312 70.0303 90.0628 70.767L87.9029 71.2029C87.8526 70.7396 87.6877 70.3976 87.4082 70.1768C87.1407 69.9571 86.792 69.8259 86.3621 69.7831C85.9323 69.7402 85.5962 69.7851 85.3538 69.9177C85.1126 70.0384 84.979 70.2301 84.9528 70.4928C84.9242 70.7794 85.0222 71.0062 85.2468 71.1733C85.4725 71.3285 85.7848 71.4621 86.1836 71.5742L86.6762 71.7137C87.333 71.8998 87.9199 72.1211 88.437 72.3777C88.9673 72.6235 89.3692 72.9469 89.6427 73.348C89.9294 73.7384 90.0418 74.244 89.9799 74.8649C89.8871 75.7963 89.4748 76.4848 88.743 76.9304C88.0243 77.3653 87.0978 77.5262 85.9634 77.4131ZM94.7043 78.1758C94.0118 78.1068 93.4182 77.8909 92.9238 77.528C92.4425 77.1545 92.0865 76.6728 91.8558 76.083C91.6252 75.4932 91.5462 74.8341 91.6188 74.1057L92.1472 68.804L94.404 69.029L93.8935 74.1516C93.8268 74.8203 93.938 75.3378 94.2271 75.7043C94.5281 76.072 94.9831 76.2862 95.5921 76.3469C96.2847 76.4159 96.8446 76.2426 97.2719 75.8269C97.7005 75.3993 97.9558 74.7735 98.0379 73.9496L98.4878 69.436L100.745 69.6609L99.8591 78.5449L97.6381 78.3235L97.7542 77.1593L97.4318 77.1272C97.2587 77.4114 96.9609 77.6772 96.5383 77.9245C96.1157 78.1718 95.5044 78.2556 94.7043 78.1758ZM102.012 78.7595L103.262 66.2216L105.519 66.4466L104.269 78.9845L102.012 78.7595ZM109.815 79.5372C109.23 79.4789 108.77 79.2522 108.436 78.8571C108.114 78.4512 107.984 77.9438 108.045 77.3348L108.544 72.3196L106.323 72.0983L106.509 70.2355L108.73 70.4569L109.005 67.6985L111.262 67.9235L110.987 70.6818L113.423 70.9246L113.237 72.7874L110.801 72.5446L110.341 77.1657C110.305 77.5239 110.454 77.7197 110.789 77.753L112.508 77.9244L112.322 79.7871L109.815 79.5372Z" fill="#F37721"/>
</svg>
